<?xml version="1.0" encoding="UTF-8" standalone="no"?>
<!-- Created with Inkscape (http://www.inkscape.org/) -->

<svg
   xmlns:dc="http://purl.org/dc/elements/1.1/"
   xmlns:cc="http://creativecommons.org/ns#"
   xmlns:rdf="http://www.w3.org/1999/02/22-rdf-syntax-ns#"
   xmlns:svg="http://www.w3.org/2000/svg"
   xmlns="http://www.w3.org/2000/svg"
   xmlns:sodipodi="http://sodipodi.sourceforge.net/DTD/sodipodi-0.dtd"
   xmlns:inkscape="http://www.inkscape.org/namespaces/inkscape"
   version="1.1"
   id="svg2"
   width="185"
   height="31"
   viewBox="0 0 185 31"
   sodipodi:docname="eirbot.svg"
   inkscape:version="0.92.5 (2060ec1f9f, 2020-04-08)">
  <metadata
     id="metadata8">
    <rdf:RDF>
      <cc:Work
         rdf:about="">
        <dc:format>image/svg+xml</dc:format>
        <dc:type
           rdf:resource="http://purl.org/dc/dcmitype/StillImage" />
        <dc:title></dc:title>
      </cc:Work>
    </rdf:RDF>
  </metadata>
  <defs
     id="defs6" />
  <sodipodi:namedview
     pagecolor="#ffffff"
     bordercolor="#666666"
     borderopacity="1"
     objecttolerance="10"
     gridtolerance="10"
     guidetolerance="10"
     inkscape:pageopacity="0"
     inkscape:pageshadow="2"
     inkscape:window-width="2416"
     inkscape:window-height="1472"
     id="namedview4"
     showgrid="false"
     inkscape:zoom="5.9919236"
     inkscape:cx="123.1862"
     inkscape:cy="-9.6280263"
     inkscape:window-x="144"
     inkscape:window-y="54"
     inkscape:window-maximized="1"
     inkscape:current-layer="svg2" />
  <path
     style="fill:#000000;stroke-width:0.5"
     d="M 7.8092764,23.415492 C 6.8832854,22.955332 6.7263414,22.385847 6.5992504,19.0248 L 6.4532179,15.162848 H 21.221112 35.989007 l -0.168267,1.125 c -0.325228,2.174399 -1.743011,2.397745 -14.325458,2.256707 l -11.7499996,-0.131707 -0.159775,1.125 -0.159776,1.125 h 9.7847756 9.784775 l 4.026253,0.0081 C 33.18931,25.038231 10.486188,24.359375 7.8092754,23.415487 Z M 33.02479,20.662847 h 2.970492 v 1.75 1.75 c -14.175528,0.01456 -3.721339,-3.495507 -2.970492,-3.5 z m 7.970492,-4.428241 V 8.3063667 l 1.49886,0.05324 1.49886,0.05324 0.0011,7.8750003 0.0012,7.875001 h -1.5 -1.5 z m 5.478969,7.303241 c -0.01156,-0.34375 -0.01635,-4.16875 -0.01063,-8.5 l 0.0104,-7.8750003 h -2.989369 c -2.988186,0 -2.989368,-5.93e-4 -2.989368,-1.5 0,-0.840535 0.274777,-1.521542 0.625,-1.548998 0.600386,-0.04707 5.412245,-0.03323 7.75,0.02228 l 1.125,0.02672 v 10.0000003 10 h -1.75 c -1.05545,0 -1.758347,-0.248054 -1.771031,-0.625 z m 7.958531,-3.125 c -0.07026,-4.215248 -0.07984,-4.307165 -0.521655,-5 -0.20577,-0.32268 1.48149,-0.480396 4.757655,-0.44472 9.625545,0.104817 11.35631,0.296941 12.59223,1.397802 0.632425,0.563318 3.81261,2.547244 7.06707,4.408723 l 5.9172,3.384508 -3.573795,0.0019 c -3.45791,0.0017 -3.718785,-0.08739 -8.04491,-2.748213 l -4.471115,-2.75 h -5.08009 -5.08009 l -0.0754,1.375 c -0.04145,0.75625 -0.02705,1.99375 0.032,2.75 0.09863,1.262883 -0.0379,1.375 -1.6746,1.375 h -1.782 z m 35.848215,2.964285 c -0.57474,-0.574738 -0.785715,-1.79362 -0.785715,-4.539353 v -3.75364 l 14.124998,0.270639 c 7.76875,0.148851 14.40625,0.279061 14.75,0.289354 0.44251,0.01325 0.625,1.108511 0.625,3.751123 0,3.178394 -0.14356,3.809236 -0.96713,4.25 -0.59552,0.318711 -5.96119,0.517592 -13.96428,0.517592 -11.148933,0 -13.108888,-0.111731 -13.782873,-0.785715 z m 25.766113,-3.589285 c 0.74852,-2.703119 -8.90862,-1.125 -11.28843,-1.125 -11.722528,0 -12.699423,0.142548 -12.077828,1.762401 0.228325,0.594994 2.170755,0.695536 11.612258,0.601057 11.25351,-0.112612 11.34117,-0.121848 11.754,-1.238458 z m 9.05942,3.596648 c -0.97532,-0.683146 -1.11125,-1.223667 -1.11125,-4.418985 v -3.640633 l 1.625,-0.06202 1.625,-0.06202 v 2.856008 2.856002 l 11.625,0.134215 11.625,0.134215 v -2.9282 -2.9282 l 1.625,-0.06228 1.625,-0.06228 -0.15516,3.856264 c -0.11435,2.842103 -0.3696,4.020634 -0.97056,4.481265 -0.60337,0.462469 -4.14227,0.625 -13.60859,0.625 -10.7696,0 -12.96896,-0.123118 -13.90444,-0.778351 z m 38.38875,-7.418154 c 0,-9.6414743 0.15256,-9.4041273 -5.125,-7.9733273 -0.7288,0.197584 -0.875,-0.102585 -0.875,-1.796473 v -2.033694 h 4.5 c 2.475,0 4.52816,0.16875 4.56258,0.375 0.2325,1.393264 0.31752,15.3237983 0.10527,17.2500003 -0.24555,2.228481 -0.35133,2.375 -1.71477,2.375 h -1.45308 z m 5.96256,6.071506 c -0.0393,-2.229457 -0.0286,-16.1720653 0.0132,-17.2500003 0.0174,-0.449079 1.2205,-0.625 4.27424,-0.625 h 4.25 v 1.759184 1.759184 l -2.51999,-0.08919 c -1.386,-0.04905 -2.77693,0.167738 -3.09095,0.481764 -0.33263,0.332623 -0.52609,1.879201 -0.46347,3.7050083 0.13944,4.06585 0.21408,10.392652 0.13578,11.509052 -0.041,0.583634 -0.47761,0.875 -1.31137,0.875 -1.13138,0 -1.25356,-0.201651 -1.28744,-2.125 z m -17.33756,-8.736698 c -1.60934,-0.199717 -1.625,-0.227857 -1.625,-2.919981 0,-2.6265273 -0.0464,-2.7190983 -1.375,-2.7413423 -2.39443,-0.04009 -19.82567,-0.05107 -21,-0.01323 -1.02591,0.03305 -1.125,0.278472 -1.125,2.7862503 0,2.722222 -0.0152,2.75 -1.5,2.75 h -1.5 V 9.7740997 c 0,-5.885833 -0.71937,-5.611252 14.70086,-5.611252 15.55567,0 14.72151,-0.316105 14.95904,5.6687 0.0836,2.1072153 0.13812,3.7952923 0.12108,3.7512823 -0.0171,-0.04401 -0.76223,-0.170766 -1.65598,-0.28168 z M 54.448997,12.912848 c -0.02545,0 -0.08549,-1.96875 -0.13341,-4.3750003 l -0.08714,-4.375 h 14.533415 c 10.6371,0 14.69427,0.160856 15.133415,0.6 0.35708,0.357077 0.6,2.077778 0.6,4.25 0,3.1241523 -0.12606,3.6570743 -0.875,3.6991013 -0.60081,0.03372 -24.876525,0.200899 -29.171285,0.200899 z M 80.055502,9.2919747 c 0.51688,-0.135167 0.93978,-0.669516 0.93978,-1.187443 0,-0.894822 -0.569615,-0.941684 -11.446505,-0.941684 -10.00212,0 -11.48501,0.100333 -11.751625,0.795121 -0.16781,0.437317 -0.209115,0.950454 -0.09178,1.140305 0.242245,0.391957 20.907135,0.571053 22.35013,0.193701 z m 9.10411,-0.629148 -0.08567,-4.499979 h 1.71067 1.71067 v 2.470491 c 0,1.358771 0.20086,2.594629 0.44635,2.746352 0.245495,0.151723 5.92549,0.295594 12.622208,0.319713 7.64438,0.02753 12.4095,0.23776 12.80365,0.5648713 0.34529,0.28656 0.62779,1.055968 0.62779,1.709796 v 1.188777 l -14.875,-2.2e-5 -14.874998,-2.1e-5 z M 7.1000614,8.5724507 c 0.1381,-3.889806 0.20652,-4.106352 1.395221,-4.41578 0.6875,-0.178962 7.2124996,-0.307034 14.4999996,-0.284604 l 13.25,0.04078 0.156679,1.625 0.156679,1.625 H 23.242186 9.9257314 l 0.1597756,1.125 0.159775,1.125 12.454257,0.137826 c 11.104583,0.12289 12.525224,0.231261 13.109099,1.0000003 1.580769,2.081266 1.374681,2.112174 -14.083577,2.112174 H 6.9548404 Z"
     id="path817"
     inkscape:connector-curvature="0"
     sodipodi:nodetypes="cscccsscccccccccccccccccccccccscsscccccscccsscsccscccccsccsscssscsscccsccscccccccccccccscscscsccscsccscccccccscccsscsscssccscccscscccccsccscsccscscsccccssscccccccssscss" />
  <rect
     style="opacity:1;fill:#000000;fill-opacity:1;stroke:none;stroke-width:0.37795275;stroke-miterlimit:6.75;stroke-dasharray:none;stroke-dashoffset:0;stroke-opacity:1"
     id="rect838"
     width="16.963934"
     height="2.3159459"
     x="17.642492"
     y="21.603455" />
</svg>
