<?xml version='1.0' encoding='us-ascii'?>
<svg height="270.60mm" viewBox="0.0 0.0 365.92 270.60" width="365.92mm" xmlns="http://www.w3.org/2000/svg" xmlns:cc="http://creativecommons.org/ns#" xmlns:dc="http://purl.org/dc/elements/1.1/" xmlns:inkscape="http://www.inkscape.org/namespaces/inkscape" xmlns:rdf="http://www.w3.org/1999/02/22-rdf-syntax-ns#" xmlns:svg="http://www.w3.org/2000/svg" xmlns:xlink="http://www.w3.org/1999/xlink">
<!--
FlexBox3 - Box with living hinge

Created with Boxes.py (https://festi.info/boxes.py)
Creation date: 2020-08-28 11:13:20
Command line (remove spaces between dashes): boxes FlexBox3 - -FingerJoint_angle=90.0 - -FingerJoint_style=rectangular - -FingerJoint_surroundingspaces=1 - -FingerJoint_edge_width=1.0 - -FingerJoint_finger=2.0 - -FingerJoint_play=0.0 - -FingerJoint_space=2.0 - -FingerJoint_width=1.0 - -Flex_stretch=1.05 - -Flex_connection=1.0 - -Flex_distance=0.5 - -Flex_width=5.0 - -x=70 - -y=150 - -outside=0 - -z=70 - -h=10.0 - -radius=10.0 - -c=1.0 - -thickness=3.0 - -format=svg - -tabs=0.0 - -debug=0 - -reference=100 - -burn=0.1
Url: http://www.festi.info/FlexBox3?FingerJoint_angle=90.0&FingerJoint_style=rectangular&FingerJoint_surroundingspaces=1&FingerJoint_edge_width=1.0&FingerJoint_finger=2.0&FingerJoint_play=0.0&FingerJoint_space=2.0&FingerJoint_width=1.0&Flex_stretch=1.05&Flex_connection=1.0&Flex_distance=0.5&Flex_width=5.0&x=70&y=150&outside=0&z=70&h=10.0&radius=10.0&c=1.0&thickness=3.0&format=svg&tabs=0.0&debug=0&reference=100&burn=0.1&render=1
SettingsUrl: http://www.festi.info/FlexBox3?FingerJoint_angle=90.0&FingerJoint_style=rectangular&FingerJoint_surroundingspaces=1&FingerJoint_edge_width=1.0&FingerJoint_finger=2.0&FingerJoint_play=0.0&FingerJoint_space=2.0&FingerJoint_width=1.0&Flex_stretch=1.05&Flex_connection=1.0&Flex_distance=0.5&Flex_width=5.0&x=70&y=150&outside=0&z=70&h=10.0&radius=10.0&c=1.0&thickness=3.0&format=svg&tabs=0.0&debug=0&reference=100&burn=0.1
-->
<title>FlexBox3</title>
<metadata>
<rdf:RDF><cc:Work>
<dc:title>FlexBox - FlexBox3</dc:title>
<dc:date>2020-08-28 11:13:20</dc:date>
<dc:source>http://www.festi.info/FlexBox3?FingerJoint_angle=90.0&amp;FingerJoint_style=rectangular&amp;FingerJoint_surroundingspaces=1&amp;FingerJoint_edge_width=1.0&amp;FingerJoint_finger=2.0&amp;FingerJoint_play=0.0&amp;FingerJoint_space=2.0&amp;FingerJoint_width=1.0&amp;Flex_stretch=1.05&amp;Flex_connection=1.0&amp;Flex_distance=0.5&amp;Flex_width=5.0&amp;x=70&amp;y=150&amp;outside=0&amp;z=70&amp;h=10.0&amp;radius=10.0&amp;c=1.0&amp;thickness=3.0&amp;format=svg&amp;tabs=0.0&amp;debug=0&amp;reference=100&amp;burn=0.1&amp;render=1</dc:source>
<dc:description>Box with living hinge

Created with Boxes.py (https://festi.info/boxes.py)
Command line: boxes FlexBox3 --FingerJoint_angle=90.0 --FingerJoint_style=rectangular --FingerJoint_surroundingspaces=1 --FingerJoint_edge_width=1.0 --FingerJoint_finger=2.0 --FingerJoint_play=0.0 --FingerJoint_space=2.0 --FingerJoint_width=1.0 --Flex_stretch=1.05 --Flex_connection=1.0 --Flex_distance=0.5 --Flex_width=5.0 --x=70 --y=150 --outside=0 --z=70 --h=10.0 --radius=10.0 --c=1.0 --thickness=3.0 --format=svg --tabs=0.0 --debug=0 --reference=100 --burn=0.1
Url: http://www.festi.info/FlexBox3?FingerJoint_angle=90.0&amp;FingerJoint_style=rectangular&amp;FingerJoint_surroundingspaces=1&amp;FingerJoint_edge_width=1.0&amp;FingerJoint_finger=2.0&amp;FingerJoint_play=0.0&amp;FingerJoint_space=2.0&amp;FingerJoint_width=1.0&amp;Flex_stretch=1.05&amp;Flex_connection=1.0&amp;Flex_distance=0.5&amp;Flex_width=5.0&amp;x=70&amp;y=150&amp;outside=0&amp;z=70&amp;h=10.0&amp;radius=10.0&amp;c=1.0&amp;thickness=3.0&amp;format=svg&amp;tabs=0.0&amp;debug=0&amp;reference=100&amp;burn=0.1&amp;render=1
SettingsUrl: http://www.festi.info/FlexBox3?FingerJoint_angle=90.0&amp;FingerJoint_style=rectangular&amp;FingerJoint_surroundingspaces=1&amp;FingerJoint_edge_width=1.0&amp;FingerJoint_finger=2.0&amp;FingerJoint_play=0.0&amp;FingerJoint_space=2.0&amp;FingerJoint_width=1.0&amp;Flex_stretch=1.05&amp;Flex_connection=1.0&amp;Flex_distance=0.5&amp;Flex_width=5.0&amp;x=70&amp;y=150&amp;outside=0&amp;z=70&amp;h=10.0&amp;radius=10.0&amp;c=1.0&amp;thickness=3.0&amp;format=svg&amp;tabs=0.0&amp;debug=0&amp;reference=100&amp;burn=0.1
</dc:description>
</cc:Work></rdf:RDF></metadata>
<g id="p-0" style="fill:none;stroke-linecap:round;stroke-linejoin:round;">
  <path d="M 10.100 260.600 H 110.100 V 250.600 H 10.100 V 260.600 Z" stroke="rgb(0,0,0)" stroke-width="0.20" />
  <text alignment-baseline="hanging" font-size="10px" style="font-family: sans-serif ; font-weight: normal; font-style: normal; fill: rgb(0,0,0)" text-anchor="middle" transform="matrix( 1.000 0.000 0.000 1.000 60.100 250.600 )">100mm</text>
</g>
<g id="p-1" style="fill:none;stroke-linecap:round;stroke-linejoin:round;">
  <path d="M 13.100 244.900 H 20.100 C 20.155 244.900 20.200 244.855 20.200 244.800 V 241.900 C 20.200 241.800 20.100 241.900 20.200 241.900 H 26.000 C 26.100 241.900 26.000 241.800 26.000 241.900 V 244.800 C 26.000 244.855 26.045 244.900 26.100 244.900 H 32.100 C 32.155 244.900 32.200 244.855 32.200 244.800 V 241.900 C 32.200 241.800 32.100 241.900 32.200 241.900 H 38.000 C 38.100 241.900 38.000 241.800 38.000 241.900 V 244.800 C 38.000 244.855 38.045 244.900 38.100 244.900 H 44.100 C 44.155 244.900 44.200 244.855 44.200 244.800 V 241.900 C 44.200 241.800 44.100 241.900 44.200 241.900 H 50.000 C 50.100 241.900 50.000 241.800 50.000 241.900 V 244.800 C 50.000 244.855 50.045 244.900 50.100 244.900 H 56.100 C 56.155 244.900 56.200 244.855 56.200 244.800 V 241.900 C 56.200 241.800 56.100 241.900 56.200 241.900 H 62.000 C 62.100 241.900 62.000 241.800 62.000 241.900 V 244.800 C 62.000 244.855 62.045 244.900 62.100 244.900 H 68.100 C 68.155 244.900 68.200 244.855 68.200 244.800 V 241.900 C 68.200 241.800 68.100 241.900 68.200 241.900 H 74.000 C 74.100 241.900 74.000 241.800 74.000 241.900 V 244.800 C 74.000 244.855 74.045 244.900 74.100 244.900 H 80.100 C 80.155 244.900 80.200 244.855 80.200 244.800 V 241.900 C 80.200 241.800 80.100 241.900 80.200 241.900 H 86.000 C 86.100 241.900 86.000 241.800 86.000 241.900 V 244.800 C 86.000 244.855 86.045 244.900 86.100 244.900 H 92.100 C 92.155 244.900 92.200 244.855 92.200 244.800 V 241.900 C 92.200 241.800 92.100 241.900 92.200 241.900 H 98.000 C 98.100 241.900 98.000 241.800 98.000 241.900 V 244.800 C 98.000 244.855 98.045 244.900 98.100 244.900 H 104.100 C 104.155 244.900 104.200 244.855 104.200 244.800 V 241.900 C 104.200 241.800 104.100 241.900 104.200 241.900 H 110.000 C 110.100 241.900 110.000 241.800 110.000 241.900 V 244.800 C 110.000 244.855 110.045 244.900 110.100 244.900 H 116.100 C 116.155 244.900 116.200 244.855 116.200 244.800 V 241.900 C 116.200 241.800 116.100 241.900 116.200 241.900 H 122.000 C 122.100 241.900 122.000 241.800 122.000 241.900 V 244.800 C 122.000 244.855 122.045 244.900 122.100 244.900 H 128.100 C 128.155 244.900 128.200 244.855 128.200 244.800 V 241.900 C 128.200 241.800 128.100 241.900 128.200 241.900 H 134.000 C 134.100 241.900 134.000 241.800 134.000 241.900 V 244.800 C 134.000 244.855 134.045 244.900 134.100 244.900 H 140.100 C 140.155 244.900 140.200 244.855 140.200 244.800 V 241.900 C 140.200 241.800 140.100 241.900 140.200 241.900 H 146.000 C 146.100 241.900 146.000 241.800 146.000 241.900 V 244.800 C 146.000 244.855 146.045 244.900 146.100 244.900 H 153.100 M 155.311 244.900 V 226.600 M 155.311 223.600 V 190.000 M 155.311 187.000 V 168.700 M 156.811 171.700 V 205.300 M 156.811 208.300 V 241.900 M 158.311 244.900 V 226.600 M 158.311 223.600 V 190.000 M 158.311 187.000 V 168.700 M 159.811 171.700 V 205.300 M 159.811 208.300 V 241.900 M 161.311 244.900 V 226.600 M 161.311 223.600 V 190.000 M 161.311 187.000 V 168.700 M 162.811 171.700 V 205.300 M 162.811 208.300 V 241.900 M 164.311 244.900 V 226.600 M 164.311 223.600 V 190.000 M 164.311 187.000 V 168.700 M 165.811 171.700 V 205.300 M 165.811 208.300 V 241.900 M 153.100 244.900 H 167.923 C 168.023 244.900 167.923 244.800 167.923 244.900 V 245.800 C 167.923 245.855 167.967 245.900 168.023 245.900 H 172.423 C 172.523 245.900 172.423 245.800 172.423 245.900 V 248.800 C 172.423 248.855 172.467 248.900 172.523 248.900 H 178.523 C 178.578 248.900 178.623 248.855 178.623 248.800 V 245.900 C 178.623 245.800 178.523 245.900 178.623 245.900 H 184.423 C 184.523 245.900 184.423 245.800 184.423 245.900 V 248.800 C 184.423 248.855 184.467 248.900 184.523 248.900 H 190.523 C 190.578 248.900 190.623 248.855 190.623 248.800 V 245.900 C 190.623 245.800 190.523 245.900 190.623 245.900 H 196.423 C 196.523 245.900 196.423 245.800 196.423 245.900 V 248.800 C 196.423 248.855 196.467 248.900 196.523 248.900 H 202.523 C 202.578 248.900 202.623 248.855 202.623 248.800 V 245.900 C 202.623 245.800 202.523 245.900 202.623 245.900 H 208.423 C 208.523 245.900 208.423 245.800 208.423 245.900 V 248.800 C 208.423 248.855 208.467 248.900 208.523 248.900 H 214.523 C 214.578 248.900 214.623 248.855 214.623 248.800 V 245.900 C 214.623 245.800 214.523 245.900 214.623 245.900 H 220.423 C 220.523 245.900 220.423 245.800 220.423 245.900 V 248.800 C 220.423 248.855 220.467 248.900 220.523 248.900 H 226.523 C 226.578 248.900 226.623 248.855 226.623 248.800 V 245.900 C 226.623 245.800 226.523 245.900 226.623 245.900 H 231.023 C 231.078 245.900 231.123 245.855 231.123 245.800 V 239.900 C 231.123 239.800 231.023 239.900 231.123 239.900 H 234.023 C 234.078 239.900 234.123 239.855 234.123 239.800 V 233.800 C 234.123 233.745 234.078 233.700 234.023 233.700 H 231.123 C 231.023 233.700 231.123 233.800 231.123 233.700 V 227.900 C 231.123 227.800 231.023 227.900 231.123 227.900 H 234.023 C 234.078 227.900 234.123 227.855 234.123 227.800 V 221.800 C 234.123 221.745 234.078 221.700 234.023 221.700 H 231.123 C 231.023 221.700 231.123 221.800 231.123 221.700 V 215.900 C 231.123 215.800 231.023 215.900 231.123 215.900 H 234.023 C 234.078 215.900 234.123 215.855 234.123 215.800 V 209.800 C 234.123 209.745 234.078 209.700 234.023 209.700 H 231.123 C 231.023 209.700 231.123 209.800 231.123 209.700 V 203.900 C 231.123 203.800 231.023 203.900 231.123 203.900 H 234.023 C 234.078 203.900 234.123 203.855 234.123 203.800 V 197.800 C 234.123 197.745 234.078 197.700 234.023 197.700 H 231.123 C 231.023 197.700 231.123 197.800 231.123 197.700 V 191.900 C 231.123 191.800 231.023 191.900 231.123 191.900 H 234.023 C 234.078 191.900 234.123 191.855 234.123 191.800 V 185.800 C 234.123 185.745 234.078 185.700 234.023 185.700 H 231.123 C 231.023 185.700 231.123 185.800 231.123 185.700 V 179.900 C 231.123 179.800 231.023 179.900 231.123 179.900 H 234.023 C 234.078 179.900 234.123 179.855 234.123 179.800 V 173.800 C 234.123 173.745 234.078 173.700 234.023 173.700 H 231.123 C 231.023 173.700 231.123 173.800 231.123 173.700 V 167.800 C 231.123 167.745 231.078 167.700 231.023 167.700 H 226.623 C 226.523 167.700 226.623 167.800 226.623 167.700 V 164.800 C 226.623 164.745 226.578 164.700 226.523 164.700 H 220.523 C 220.467 164.700 220.423 164.745 220.423 164.800 V 167.700 C 220.423 167.800 220.523 167.700 220.423 167.700 H 214.623 C 214.523 167.700 214.623 167.800 214.623 167.700 V 164.800 C 214.623 164.745 214.578 164.700 214.523 164.700 H 208.523 C 208.467 164.700 208.423 164.745 208.423 164.800 V 167.700 C 208.423 167.800 208.523 167.700 208.423 167.700 H 202.623 C 202.523 167.700 202.623 167.800 202.623 167.700 V 164.800 C 202.623 164.745 202.578 164.700 202.523 164.700 H 196.523 C 196.467 164.700 196.423 164.745 196.423 164.800 V 167.700 C 196.423 167.800 196.523 167.700 196.423 167.700 H 190.623 C 190.523 167.700 190.623 167.800 190.623 167.700 V 164.800 C 190.623 164.745 190.578 164.700 190.523 164.700 H 184.523 C 184.467 164.700 184.423 164.745 184.423 164.800 V 167.700 C 184.423 167.800 184.523 167.700 184.423 167.700 H 178.623 C 178.523 167.700 178.623 167.800 178.623 167.700 V 164.800 C 178.623 164.745 178.578 164.700 178.523 164.700 H 172.523 C 172.467 164.700 172.423 164.745 172.423 164.800 V 167.700 C 172.423 167.800 172.523 167.700 172.423 167.700 H 168.023 C 167.967 167.700 167.923 167.745 167.923 167.800 V 168.700 C 167.923 168.800 168.023 168.700 167.923 168.700 H 153.100 H 146.100 C 146.045 168.700 146.000 168.745 146.000 168.800 V 171.700 C 146.000 171.800 146.100 171.700 146.000 171.700 H 140.200 C 140.100 171.700 140.200 171.800 140.200 171.700 V 168.800 C 140.200 168.745 140.155 168.700 140.100 168.700 H 134.100 C 134.045 168.700 134.000 168.745 134.000 168.800 V 171.700 C 134.000 171.800 134.100 171.700 134.000 171.700 H 128.200 C 128.100 171.700 128.200 171.800 128.200 171.700 V 168.800 C 128.200 168.745 128.155 168.700 128.100 168.700 H 122.100 C 122.045 168.700 122.000 168.745 122.000 168.800 V 171.700 C 122.000 171.800 122.100 171.700 122.000 171.700 H 116.200 C 116.100 171.700 116.200 171.800 116.200 171.700 V 168.800 C 116.200 168.745 116.155 168.700 116.100 168.700 H 110.100 C 110.045 168.700 110.000 168.745 110.000 168.800 V 171.700 C 110.000 171.800 110.100 171.700 110.000 171.700 H 104.200 C 104.100 171.700 104.200 171.800 104.200 171.700 V 168.800 C 104.200 168.745 104.155 168.700 104.100 168.700 H 98.100 C 98.045 168.700 98.000 168.745 98.000 168.800 V 171.700 C 98.000 171.800 98.100 171.700 98.000 171.700 H 92.200 C 92.100 171.700 92.200 171.800 92.200 171.700 V 168.800 C 92.200 168.745 92.155 168.700 92.100 168.700 H 86.100 C 86.045 168.700 86.000 168.745 86.000 168.800 V 171.700 C 86.000 171.800 86.100 171.700 86.000 171.700 H 80.200 C 80.100 171.700 80.200 171.800 80.200 171.700 V 168.800 C 80.200 168.745 80.155 168.700 80.100 168.700 H 74.100 C 74.045 168.700 74.000 168.745 74.000 168.800 V 171.700 C 74.000 171.800 74.100 171.700 74.000 171.700 H 68.200 C 68.100 171.700 68.200 171.800 68.200 171.700 V 168.800 C 68.200 168.745 68.155 168.700 68.100 168.700 H 62.100 C 62.045 168.700 62.000 168.745 62.000 168.800 V 171.700 C 62.000 171.800 62.100 171.700 62.000 171.700 H 56.200 C 56.100 171.700 56.200 171.800 56.200 171.700 V 168.800 C 56.200 168.745 56.155 168.700 56.100 168.700 H 50.100 C 50.045 168.700 50.000 168.745 50.000 168.800 V 171.700 C 50.000 171.800 50.100 171.700 50.000 171.700 H 44.200 C 44.100 171.700 44.200 171.800 44.200 171.700 V 168.800 C 44.200 168.745 44.155 168.700 44.100 168.700 H 38.100 C 38.045 168.700 38.000 168.745 38.000 168.800 V 171.700 C 38.000 171.800 38.100 171.700 38.000 171.700 H 32.200 C 32.100 171.700 32.200 171.800 32.200 171.700 V 168.800 C 32.200 168.745 32.155 168.700 32.100 168.700 H 26.100 C 26.045 168.700 26.000 168.745 26.000 168.800 V 171.700 C 26.000 171.800 26.100 171.700 26.000 171.700 H 20.200 C 20.100 171.700 20.200 171.800 20.200 171.700 V 168.800 C 20.200 168.745 20.155 168.700 20.100 168.700 H 13.100 C 13.045 168.700 13.000 168.745 13.000 168.800 V 171.800 V 179.700 C 13.000 179.800 13.100 179.700 13.000 179.700 H 10.100 C 10.045 179.700 10.000 179.745 10.000 179.800 V 185.800 C 10.000 185.855 10.045 185.900 10.100 185.900 H 13.000 C 13.100 185.900 13.000 185.800 13.000 185.900 V 191.700 C 13.000 191.800 13.100 191.700 13.000 191.700 H 10.100 C 10.045 191.700 10.000 191.745 10.000 191.800 V 197.800 C 10.000 197.855 10.045 197.900 10.100 197.900 H 13.000 C 13.100 197.900 13.000 197.800 13.000 197.900 V 203.700 C 13.000 203.800 13.100 203.700 13.000 203.700 H 10.100 C 10.045 203.700 10.000 203.745 10.000 203.800 V 209.800 C 10.000 209.855 10.045 209.900 10.100 209.900 H 13.000 C 13.100 209.900 13.000 209.800 13.000 209.900 V 215.700 C 13.000 215.800 13.100 215.700 13.000 215.700 H 10.100 C 10.045 215.700 10.000 215.745 10.000 215.800 V 221.800 C 10.000 221.855 10.045 221.900 10.100 221.900 H 13.000 C 13.100 221.900 13.000 221.800 13.000 221.900 V 227.700 C 13.000 227.800 13.100 227.700 13.000 227.700 H 10.100 C 10.045 227.700 10.000 227.745 10.000 227.800 V 233.800 C 10.000 233.855 10.045 233.900 10.100 233.900 H 13.000 C 13.100 233.900 13.000 233.800 13.000 233.900 V 241.800 V 244.800 C 13.000 244.855 13.045 244.900 13.100 244.900 Z" stroke="rgb(0,0,0)" stroke-width="0.20" />
</g>
<g id="p-2" style="fill:none;stroke-linecap:round;stroke-linejoin:round;">
  <path d="M 238.723 248.900 H 246.723 C 246.778 248.900 246.823 248.855 246.823 248.800 V 245.900 C 246.823 245.800 246.723 245.900 246.823 245.900 H 252.623 C 252.723 245.900 252.623 245.800 252.623 245.900 V 248.800 C 252.623 248.855 252.667 248.900 252.723 248.900 H 258.723 C 258.778 248.900 258.823 248.855 258.823 248.800 V 245.900 C 258.823 245.800 258.723 245.900 258.823 245.900 H 264.623 C 264.723 245.900 264.623 245.800 264.623 245.900 V 248.800 C 264.623 248.855 264.667 248.900 264.723 248.900 H 270.723 C 270.778 248.900 270.823 248.855 270.823 248.800 V 245.900 C 270.823 245.800 270.723 245.900 270.823 245.900 H 276.623 C 276.723 245.900 276.623 245.800 276.623 245.900 V 248.800 C 276.623 248.855 276.667 248.900 276.723 248.900 H 282.723 C 282.778 248.900 282.823 248.855 282.823 248.800 V 245.900 C 282.823 245.800 282.723 245.900 282.823 245.900 H 288.623 C 288.723 245.900 288.623 245.800 288.623 245.900 V 248.800 C 288.623 248.855 288.667 248.900 288.723 248.900 H 294.723 C 294.778 248.900 294.823 248.855 294.823 248.800 V 245.900 C 294.823 245.800 294.723 245.900 294.823 245.900 H 300.623 C 300.723 245.900 300.623 245.800 300.623 245.900 V 248.800 C 300.623 248.855 300.667 248.900 300.723 248.900 H 308.723 H 311.723 C 311.778 248.900 311.823 248.855 311.823 248.800 V 245.800 V 237.800 C 311.823 237.745 311.778 237.700 311.723 237.700 H 308.823 C 308.723 237.700 308.823 237.800 308.823 237.700 V 231.900 C 308.823 231.800 308.723 231.900 308.823 231.900 H 311.723 C 311.778 231.900 311.823 231.855 311.823 231.800 V 225.800 C 311.823 225.745 311.778 225.700 311.723 225.700 H 308.823 C 308.723 225.700 308.823 225.800 308.823 225.700 V 219.900 C 308.823 219.800 308.723 219.900 308.823 219.900 H 311.723 C 311.778 219.900 311.823 219.855 311.823 219.800 V 213.800 C 311.823 213.745 311.778 213.700 311.723 213.700 H 308.823 C 308.723 213.700 308.823 213.800 308.823 213.700 V 207.900 C 308.823 207.800 308.723 207.900 308.823 207.900 H 311.723 C 311.778 207.900 311.823 207.855 311.823 207.800 V 201.800 C 311.823 201.745 311.778 201.700 311.723 201.700 H 308.823 C 308.723 201.700 308.823 201.800 308.823 201.700 V 195.900 C 308.823 195.800 308.723 195.900 308.823 195.900 H 311.723 C 311.778 195.900 311.823 195.855 311.823 195.800 V 189.800 C 311.823 189.745 311.778 189.700 311.723 189.700 H 308.823 C 308.723 189.700 308.823 189.800 308.823 189.700 V 183.900 C 308.823 183.800 308.723 183.900 308.823 183.900 H 311.723 C 311.778 183.900 311.823 183.855 311.823 183.800 V 175.800 V 172.800 C 311.823 172.745 311.778 172.700 311.723 172.700 H 308.723 H 300.723 C 300.667 172.700 300.623 172.745 300.623 172.800 V 175.700 C 300.623 175.800 300.723 175.700 300.623 175.700 H 294.823 C 294.723 175.700 294.823 175.800 294.823 175.700 V 172.800 C 294.823 172.745 294.778 172.700 294.723 172.700 H 288.723 C 288.667 172.700 288.623 172.745 288.623 172.800 V 175.700 C 288.623 175.800 288.723 175.700 288.623 175.700 H 282.823 C 282.723 175.700 282.823 175.800 282.823 175.700 V 172.800 C 282.823 172.745 282.778 172.700 282.723 172.700 H 276.723 C 276.667 172.700 276.623 172.745 276.623 172.800 V 175.700 C 276.623 175.800 276.723 175.700 276.623 175.700 H 270.823 C 270.723 175.700 270.823 175.800 270.823 175.700 V 172.800 C 270.823 172.745 270.778 172.700 270.723 172.700 H 264.723 C 264.667 172.700 264.623 172.745 264.623 172.800 V 175.700 C 264.623 175.800 264.723 175.700 264.623 175.700 H 258.823 C 258.723 175.700 258.823 175.800 258.823 175.700 V 172.800 C 258.823 172.745 258.778 172.700 258.723 172.700 H 252.723 C 252.667 172.700 252.623 172.745 252.623 172.800 V 175.700 C 252.623 175.800 252.723 175.700 252.623 175.700 H 246.823 C 246.723 175.700 246.823 175.800 246.823 175.700 V 172.800 C 246.823 172.745 246.778 172.700 246.723 172.700 H 238.723 H 235.723 C 235.667 172.700 235.623 172.745 235.623 172.800 V 175.800 V 183.800 C 235.623 183.855 235.667 183.900 235.723 183.900 H 238.623 C 238.723 183.900 238.623 183.800 238.623 183.900 V 189.700 C 238.623 189.800 238.723 189.700 238.623 189.700 H 235.723 C 235.667 189.700 235.623 189.745 235.623 189.800 V 195.800 C 235.623 195.855 235.667 195.900 235.723 195.900 H 238.623 C 238.723 195.900 238.623 195.800 238.623 195.900 V 201.700 C 238.623 201.800 238.723 201.700 238.623 201.700 H 235.723 C 235.667 201.700 235.623 201.745 235.623 201.800 V 207.800 C 235.623 207.855 235.667 207.900 235.723 207.900 H 238.623 C 238.723 207.900 238.623 207.800 238.623 207.900 V 213.700 C 238.623 213.800 238.723 213.700 238.623 213.700 H 235.723 C 235.667 213.700 235.623 213.745 235.623 213.800 V 219.800 C 235.623 219.855 235.667 219.900 235.723 219.900 H 238.623 C 238.723 219.900 238.623 219.800 238.623 219.900 V 225.700 C 238.623 225.800 238.723 225.700 238.623 225.700 H 235.723 C 235.667 225.700 235.623 225.745 235.623 225.800 V 231.800 C 235.623 231.855 235.667 231.900 235.723 231.900 H 238.623 C 238.723 231.900 238.623 231.800 238.623 231.900 V 237.700 C 238.623 237.800 238.723 237.700 238.623 237.700 H 235.723 C 235.667 237.700 235.623 237.745 235.623 237.800 V 245.800 V 248.800 C 235.623 248.855 235.667 248.900 235.723 248.900 H 238.723 Z" stroke="rgb(0,0,0)" stroke-width="0.20" />
</g>
<g id="p-3" style="fill:none;stroke-linecap:round;stroke-linejoin:round;">
  <path d="M 316.423 248.900 H 319.923 C 319.978 248.900 320.023 248.855 320.023 248.800 V 245.900 C 320.023 245.800 319.923 245.900 320.023 245.900 H 322.823 C 322.923 245.900 322.823 245.800 322.823 245.900 V 248.800 C 322.823 248.855 322.867 248.900 322.923 248.900 H 326.423 C 326.478 248.900 326.523 248.855 326.523 248.800 V 245.800 V 167.800 V 164.800 C 326.523 164.745 326.478 164.700 326.423 164.700 H 322.923 C 322.867 164.700 322.823 164.745 322.823 164.800 V 167.700 C 322.823 167.800 322.923 167.700 322.823 167.700 H 320.023 C 319.923 167.700 320.023 167.800 320.023 167.700 V 164.800 C 320.023 164.745 319.978 164.700 319.923 164.700 H 316.423 H 313.423 C 313.367 164.700 313.323 164.745 313.323 164.800 V 167.800 V 173.800 C 313.323 173.855 313.367 173.900 313.423 173.900 H 316.323 C 316.423 173.900 316.323 173.800 316.323 173.900 V 179.700 C 316.323 179.800 316.423 179.700 316.323 179.700 H 313.423 C 313.367 179.700 313.323 179.745 313.323 179.800 V 185.800 C 313.323 185.855 313.367 185.900 313.423 185.900 H 316.323 C 316.423 185.900 316.323 185.800 316.323 185.900 V 191.700 C 316.323 191.800 316.423 191.700 316.323 191.700 H 313.423 C 313.367 191.700 313.323 191.745 313.323 191.800 V 197.800 C 313.323 197.855 313.367 197.900 313.423 197.900 H 316.323 C 316.423 197.900 316.323 197.800 316.323 197.900 V 203.700 C 316.323 203.800 316.423 203.700 316.323 203.700 H 313.423 C 313.367 203.700 313.323 203.745 313.323 203.800 V 209.800 C 313.323 209.855 313.367 209.900 313.423 209.900 H 316.323 C 316.423 209.900 316.323 209.800 316.323 209.900 V 215.700 C 316.323 215.800 316.423 215.700 316.323 215.700 H 313.423 C 313.367 215.700 313.323 215.745 313.323 215.800 V 221.800 C 313.323 221.855 313.367 221.900 313.423 221.900 H 316.323 C 316.423 221.900 316.323 221.800 316.323 221.900 V 227.700 C 316.323 227.800 316.423 227.700 316.323 227.700 H 313.423 C 313.367 227.700 313.323 227.745 313.323 227.800 V 233.800 C 313.323 233.855 313.367 233.900 313.423 233.900 H 316.323 C 316.423 233.900 316.323 233.800 316.323 233.900 V 239.700 C 316.323 239.800 316.423 239.700 316.323 239.700 H 313.423 C 313.367 239.700 313.323 239.745 313.323 239.800 V 245.800 V 248.800 C 313.323 248.855 313.367 248.900 313.423 248.900 H 316.423 Z" stroke="rgb(0,0,0)" stroke-width="0.20" />
</g>
<g id="p-4" style="fill:none;stroke-linecap:round;stroke-linejoin:round;">
  <path d="M 328.123 248.900 C 330.422 248.900 332.681 248.295 334.673 247.145 C 336.664 245.995 338.318 244.341 339.467 242.350 C 340.617 240.359 341.223 238.100 341.223 235.800 V 231.300 C 341.223 231.245 341.178 231.200 341.123 231.200 H 338.223 C 338.123 231.200 338.223 231.300 338.223 231.200 V 225.400 C 338.223 225.300 338.123 225.400 338.223 225.400 H 341.123 C 341.178 225.400 341.223 225.355 341.223 225.300 V 219.300 C 341.223 219.245 341.178 219.200 341.123 219.200 H 338.223 C 338.123 219.200 338.223 219.300 338.223 219.200 V 213.400 C 338.223 213.300 338.123 213.400 338.223 213.400 H 341.123 C 341.178 213.400 341.223 213.355 341.223 213.300 V 207.300 C 341.223 207.245 341.178 207.200 341.123 207.200 H 338.223 C 338.123 207.200 338.223 207.300 338.223 207.200 V 201.400 C 338.223 201.300 338.123 201.400 338.223 201.400 H 341.123 C 341.178 201.400 341.223 201.355 341.223 201.300 V 195.300 C 341.223 195.245 341.178 195.200 341.123 195.200 H 338.223 C 338.123 195.200 338.223 195.300 338.223 195.200 V 189.400 C 338.223 189.300 338.123 189.400 338.223 189.400 H 341.123 C 341.178 189.400 341.223 189.355 341.223 189.300 V 183.300 C 341.223 183.245 341.178 183.200 341.123 183.200 H 338.223 C 338.123 183.200 338.223 183.300 338.223 183.200 V 177.400 C 338.223 177.300 338.123 177.400 338.223 177.400 H 341.123 C 341.178 177.400 341.223 177.355 341.223 177.300 V 172.800 C 341.223 172.745 341.178 172.700 341.123 172.700 H 338.123 H 334.723 C 334.623 172.700 334.723 172.800 334.723 172.700 V 169.800 C 334.723 169.745 334.678 169.700 334.623 169.700 H 331.623 C 331.567 169.700 331.523 169.745 331.523 169.800 V 172.700 C 331.523 172.800 331.623 172.700 331.523 172.700 H 328.123 C 328.067 172.700 328.023 172.745 328.023 172.800 V 248.800 C 328.023 248.855 328.067 248.900 328.123 248.900 Z" stroke="rgb(0,0,0)" stroke-width="0.20" />
</g>
<g id="p-5" style="fill:none;stroke-linecap:round;stroke-linejoin:round;">
  <path d="M 355.823 248.900 C 353.523 248.900 351.264 248.295 349.273 247.145 C 347.281 245.995 345.627 244.341 344.478 242.350 C 343.328 240.359 342.723 238.100 342.723 235.800 V 231.300 C 342.723 231.245 342.767 231.200 342.823 231.200 H 345.723 C 345.823 231.200 345.723 231.300 345.723 231.200 V 225.400 C 345.723 225.300 345.823 225.400 345.723 225.400 H 342.823 C 342.767 225.400 342.723 225.355 342.723 225.300 V 219.300 C 342.723 219.245 342.767 219.200 342.823 219.200 H 345.723 C 345.823 219.200 345.723 219.300 345.723 219.200 V 213.400 C 345.723 213.300 345.823 213.400 345.723 213.400 H 342.823 C 342.767 213.400 342.723 213.355 342.723 213.300 V 207.300 C 342.723 207.245 342.767 207.200 342.823 207.200 H 345.723 C 345.823 207.200 345.723 207.300 345.723 207.200 V 201.400 C 345.723 201.300 345.823 201.400 345.723 201.400 H 342.823 C 342.767 201.400 342.723 201.355 342.723 201.300 V 195.300 C 342.723 195.245 342.767 195.200 342.823 195.200 H 345.723 C 345.823 195.200 345.723 195.300 345.723 195.200 V 189.400 C 345.723 189.300 345.823 189.400 345.723 189.400 H 342.823 C 342.767 189.400 342.723 189.355 342.723 189.300 V 183.300 C 342.723 183.245 342.767 183.200 342.823 183.200 H 345.723 C 345.823 183.200 345.723 183.300 345.723 183.200 V 177.400 C 345.723 177.300 345.823 177.400 345.723 177.400 H 342.823 C 342.767 177.400 342.723 177.355 342.723 177.300 V 172.800 C 342.723 172.745 342.767 172.700 342.823 172.700 H 345.823 H 349.223 C 349.323 172.700 349.223 172.800 349.223 172.700 V 169.800 C 349.223 169.745 349.267 169.700 349.323 169.700 H 352.323 C 352.378 169.700 352.423 169.745 352.423 169.800 V 172.700 C 352.423 172.800 352.323 172.700 352.423 172.700 H 355.823 C 355.878 172.700 355.923 172.745 355.923 172.800 V 248.800 C 355.923 248.855 355.878 248.900 355.823 248.900 Z" stroke="rgb(0,0,0)" stroke-width="0.20" />
</g>
<g id="p-6" style="fill:none;stroke-linecap:round;stroke-linejoin:round;">
  <path d="M 13.100 160.200 H 21.000 C 21.100 160.200 21.000 160.100 21.000 160.200 V 163.100 C 21.000 163.155 21.045 163.200 21.100 163.200 H 27.100 C 27.155 163.200 27.200 163.155 27.200 163.100 V 160.200 C 27.200 160.100 27.100 160.200 27.200 160.200 H 33.000 C 33.100 160.200 33.000 160.100 33.000 160.200 V 163.100 C 33.000 163.155 33.045 163.200 33.100 163.200 H 39.100 C 39.155 163.200 39.200 163.155 39.200 163.100 V 160.200 C 39.200 160.100 39.100 160.200 39.200 160.200 H 45.000 C 45.100 160.200 45.000 160.100 45.000 160.200 V 163.100 C 45.000 163.155 45.045 163.200 45.100 163.200 H 51.100 C 51.155 163.200 51.200 163.155 51.200 163.100 V 160.200 C 51.200 160.100 51.100 160.200 51.200 160.200 H 57.000 C 57.100 160.200 57.000 160.100 57.000 160.200 V 163.100 C 57.000 163.155 57.045 163.200 57.100 163.200 H 63.100 C 63.155 163.200 63.200 163.155 63.200 163.100 V 160.200 C 63.200 160.100 63.100 160.200 63.200 160.200 H 69.000 C 69.100 160.200 69.000 160.100 69.000 160.200 V 163.100 C 69.000 163.155 69.045 163.200 69.100 163.200 H 75.100 C 75.155 163.200 75.200 163.155 75.200 163.100 V 160.200 C 75.200 160.100 75.100 160.200 75.200 160.200 H 83.100 C 83.155 160.200 83.200 160.155 83.200 160.100 V 153.200 C 83.200 153.100 83.100 153.200 83.200 153.200 H 86.100 C 86.155 153.200 86.200 153.155 86.200 153.100 V 147.100 C 86.200 147.045 86.155 147.000 86.100 147.000 H 83.200 C 83.100 147.000 83.200 147.100 83.200 147.000 V 141.200 C 83.200 141.100 83.100 141.200 83.200 141.200 H 86.100 C 86.155 141.200 86.200 141.155 86.200 141.100 V 135.100 C 86.200 135.045 86.155 135.000 86.100 135.000 H 83.200 C 83.100 135.000 83.200 135.100 83.200 135.000 V 129.200 C 83.200 129.100 83.100 129.200 83.200 129.200 H 86.100 C 86.155 129.200 86.200 129.155 86.200 129.100 V 123.100 C 86.200 123.045 86.155 123.000 86.100 123.000 H 83.200 C 83.100 123.000 83.200 123.100 83.200 123.000 V 117.200 C 83.200 117.100 83.100 117.200 83.200 117.200 H 86.100 C 86.155 117.200 86.200 117.155 86.200 117.100 V 111.100 C 86.200 111.045 86.155 111.000 86.100 111.000 H 83.200 C 83.100 111.000 83.200 111.100 83.200 111.000 V 105.200 C 83.200 105.100 83.100 105.200 83.200 105.200 H 86.100 C 86.155 105.200 86.200 105.155 86.200 105.100 V 99.100 C 86.200 99.045 86.155 99.000 86.100 99.000 H 83.200 C 83.100 99.000 83.200 99.100 83.200 99.000 V 93.200 C 83.200 93.100 83.100 93.200 83.200 93.200 H 86.100 C 86.155 93.200 86.200 93.155 86.200 93.100 V 87.100 C 86.200 87.045 86.155 87.000 86.100 87.000 H 83.200 C 83.100 87.000 83.200 87.100 83.200 87.000 V 81.200 C 83.200 81.100 83.100 81.200 83.200 81.200 H 86.100 C 86.155 81.200 86.200 81.155 86.200 81.100 V 75.100 C 86.200 75.045 86.155 75.000 86.100 75.000 H 83.200 C 83.100 75.000 83.200 75.100 83.200 75.000 V 69.200 C 83.200 69.100 83.100 69.200 83.200 69.200 H 86.100 C 86.155 69.200 86.200 69.155 86.200 69.100 V 63.100 C 86.200 63.045 86.155 63.000 86.100 63.000 H 83.200 C 83.100 63.000 83.200 63.100 83.200 63.000 V 57.200 C 83.200 57.100 83.100 57.200 83.200 57.200 H 86.100 C 86.155 57.200 86.200 57.155 86.200 57.100 V 51.100 C 86.200 51.045 86.155 51.000 86.100 51.000 H 83.200 C 83.100 51.000 83.200 51.100 83.200 51.000 V 45.200 C 83.200 45.100 83.100 45.200 83.200 45.200 H 86.100 C 86.155 45.200 86.200 45.155 86.200 45.100 V 39.100 C 86.200 39.045 86.155 39.000 86.100 39.000 H 83.200 C 83.100 39.000 83.200 39.100 83.200 39.000 V 33.200 C 83.200 33.100 83.100 33.200 83.200 33.200 H 86.100 C 86.155 33.200 86.200 33.155 86.200 33.100 V 27.100 C 86.200 27.045 86.155 27.000 86.100 27.000 H 83.200 C 83.100 27.000 83.200 27.100 83.200 27.000 V 20.100 C 83.200 18.327 82.733 16.585 81.847 15.050 C 80.960 13.515 79.685 12.240 78.150 11.353 C 76.615 10.467 74.873 10.000 73.100 10.000 H 13.100 C 13.045 10.000 13.000 10.045 13.000 10.100 V 16.000 C 13.000 16.100 13.100 16.000 13.000 16.000 H 10.100 C 10.045 16.000 10.000 16.045 10.000 16.100 V 22.100 C 10.000 22.155 10.045 22.200 10.100 22.200 H 13.000 C 13.100 22.200 13.000 22.100 13.000 22.200 V 28.000 C 13.000 28.100 13.100 28.000 13.000 28.000 H 10.100 C 10.045 28.000 10.000 28.045 10.000 28.100 V 34.100 C 10.000 34.155 10.045 34.200 10.100 34.200 H 13.000 C 13.100 34.200 13.000 34.100 13.000 34.200 V 40.000 C 13.000 40.100 13.100 40.000 13.000 40.000 H 10.100 C 10.045 40.000 10.000 40.045 10.000 40.100 V 46.100 C 10.000 46.155 10.045 46.200 10.100 46.200 H 13.000 C 13.100 46.200 13.000 46.100 13.000 46.200 V 52.000 C 13.000 52.100 13.100 52.000 13.000 52.000 H 10.100 C 10.045 52.000 10.000 52.045 10.000 52.100 V 58.100 C 10.000 58.155 10.045 58.200 10.100 58.200 H 13.000 C 13.100 58.200 13.000 58.100 13.000 58.200 V 64.000 C 13.000 64.100 13.100 64.000 13.000 64.000 H 10.100 C 10.045 64.000 10.000 64.045 10.000 64.100 V 70.100 C 10.000 70.155 10.045 70.200 10.100 70.200 H 13.000 C 13.100 70.200 13.000 70.100 13.000 70.200 V 76.000 C 13.000 76.100 13.100 76.000 13.000 76.000 H 10.100 C 10.045 76.000 10.000 76.045 10.000 76.100 V 82.100 C 10.000 82.155 10.045 82.200 10.100 82.200 H 13.000 C 13.100 82.200 13.000 82.100 13.000 82.200 V 88.000 C 13.000 88.100 13.100 88.000 13.000 88.000 H 10.100 C 10.045 88.000 10.000 88.045 10.000 88.100 V 94.100 C 10.000 94.155 10.045 94.200 10.100 94.200 H 13.000 C 13.100 94.200 13.000 94.100 13.000 94.200 V 100.000 C 13.000 100.100 13.100 100.000 13.000 100.000 H 10.100 C 10.045 100.000 10.000 100.045 10.000 100.100 V 106.100 C 10.000 106.155 10.045 106.200 10.100 106.200 H 13.000 C 13.100 106.200 13.000 106.100 13.000 106.200 V 112.000 C 13.000 112.100 13.100 112.000 13.000 112.000 H 10.100 C 10.045 112.000 10.000 112.045 10.000 112.100 V 118.100 C 10.000 118.155 10.045 118.200 10.100 118.200 H 13.000 C 13.100 118.200 13.000 118.100 13.000 118.200 V 124.000 C 13.000 124.100 13.100 124.000 13.000 124.000 H 10.100 C 10.045 124.000 10.000 124.045 10.000 124.100 V 130.100 C 10.000 130.155 10.045 130.200 10.100 130.200 H 13.000 C 13.100 130.200 13.000 130.100 13.000 130.200 V 136.000 C 13.000 136.100 13.100 136.000 13.000 136.000 H 10.100 C 10.045 136.000 10.000 136.045 10.000 136.100 V 142.100 C 10.000 142.155 10.045 142.200 10.100 142.200 H 13.000 C 13.100 142.200 13.000 142.100 13.000 142.200 V 148.000 C 13.000 148.100 13.100 148.000 13.000 148.000 H 10.100 C 10.045 148.000 10.000 148.045 10.000 148.100 V 154.100 C 10.000 154.155 10.045 154.200 10.100 154.200 H 13.000 C 13.100 154.200 13.000 154.100 13.000 154.200 V 160.100 C 13.000 160.155 13.045 160.200 13.100 160.200 Z" stroke="rgb(0,0,0)" stroke-width="0.20" />
</g>
<g id="p-7" style="fill:none;stroke-linecap:round;stroke-linejoin:round;">
  <path d="M 160.800 160.200 H 152.900 C 152.800 160.200 152.900 160.100 152.900 160.200 V 163.100 C 152.900 163.155 152.855 163.200 152.800 163.200 H 146.800 C 146.745 163.200 146.700 163.155 146.700 163.100 V 160.200 C 146.700 160.100 146.800 160.200 146.700 160.200 H 140.900 C 140.800 160.200 140.900 160.100 140.900 160.200 V 163.100 C 140.900 163.155 140.855 163.200 140.800 163.200 H 134.800 C 134.745 163.200 134.700 163.155 134.700 163.100 V 160.200 C 134.700 160.100 134.800 160.200 134.700 160.200 H 128.900 C 128.800 160.200 128.900 160.100 128.900 160.200 V 163.100 C 128.900 163.155 128.855 163.200 128.800 163.200 H 122.800 C 122.745 163.200 122.700 163.155 122.700 163.100 V 160.200 C 122.700 160.100 122.800 160.200 122.700 160.200 H 116.900 C 116.800 160.200 116.900 160.100 116.900 160.200 V 163.100 C 116.900 163.155 116.855 163.200 116.800 163.200 H 110.800 C 110.745 163.200 110.700 163.155 110.700 163.100 V 160.200 C 110.700 160.100 110.800 160.200 110.700 160.200 H 104.900 C 104.800 160.200 104.900 160.100 104.900 160.200 V 163.100 C 104.900 163.155 104.855 163.200 104.800 163.200 H 98.800 C 98.745 163.200 98.700 163.155 98.700 163.100 V 160.200 C 98.700 160.100 98.800 160.200 98.700 160.200 H 90.800 C 90.745 160.200 90.700 160.155 90.700 160.100 V 153.200 C 90.700 153.100 90.800 153.200 90.700 153.200 H 87.800 C 87.745 153.200 87.700 153.155 87.700 153.100 V 147.100 C 87.700 147.045 87.745 147.000 87.800 147.000 H 90.700 C 90.800 147.000 90.700 147.100 90.700 147.000 V 141.200 C 90.700 141.100 90.800 141.200 90.700 141.200 H 87.800 C 87.745 141.200 87.700 141.155 87.700 141.100 V 135.100 C 87.700 135.045 87.745 135.000 87.800 135.000 H 90.700 C 90.800 135.000 90.700 135.100 90.700 135.000 V 129.200 C 90.700 129.100 90.800 129.200 90.700 129.200 H 87.800 C 87.745 129.200 87.700 129.155 87.700 129.100 V 123.100 C 87.700 123.045 87.745 123.000 87.800 123.000 H 90.700 C 90.800 123.000 90.700 123.100 90.700 123.000 V 117.200 C 90.700 117.100 90.800 117.200 90.700 117.200 H 87.800 C 87.745 117.200 87.700 117.155 87.700 117.100 V 111.100 C 87.700 111.045 87.745 111.000 87.800 111.000 H 90.700 C 90.800 111.000 90.700 111.100 90.700 111.000 V 105.200 C 90.700 105.100 90.800 105.200 90.700 105.200 H 87.800 C 87.745 105.200 87.700 105.155 87.700 105.100 V 99.100 C 87.700 99.045 87.745 99.000 87.800 99.000 H 90.700 C 90.800 99.000 90.700 99.100 90.700 99.000 V 93.200 C 90.700 93.100 90.800 93.200 90.700 93.200 H 87.800 C 87.745 93.200 87.700 93.155 87.700 93.100 V 87.100 C 87.700 87.045 87.745 87.000 87.800 87.000 H 90.700 C 90.800 87.000 90.700 87.100 90.700 87.000 V 81.200 C 90.700 81.100 90.800 81.200 90.700 81.200 H 87.800 C 87.745 81.200 87.700 81.155 87.700 81.100 V 75.100 C 87.700 75.045 87.745 75.000 87.800 75.000 H 90.700 C 90.800 75.000 90.700 75.100 90.700 75.000 V 69.200 C 90.700 69.100 90.800 69.200 90.700 69.200 H 87.800 C 87.745 69.200 87.700 69.155 87.700 69.100 V 63.100 C 87.700 63.045 87.745 63.000 87.800 63.000 H 90.700 C 90.800 63.000 90.700 63.100 90.700 63.000 V 57.200 C 90.700 57.100 90.800 57.200 90.700 57.200 H 87.800 C 87.745 57.200 87.700 57.155 87.700 57.100 V 51.100 C 87.700 51.045 87.745 51.000 87.800 51.000 H 90.700 C 90.800 51.000 90.700 51.100 90.700 51.000 V 45.200 C 90.700 45.100 90.800 45.200 90.700 45.200 H 87.800 C 87.745 45.200 87.700 45.155 87.700 45.100 V 39.100 C 87.700 39.045 87.745 39.000 87.800 39.000 H 90.700 C 90.800 39.000 90.700 39.100 90.700 39.000 V 33.200 C 90.700 33.100 90.800 33.200 90.700 33.200 H 87.800 C 87.745 33.200 87.700 33.155 87.700 33.100 V 27.100 C 87.700 27.045 87.745 27.000 87.800 27.000 H 90.700 C 90.800 27.000 90.700 27.100 90.700 27.000 V 20.100 C 90.700 18.327 91.167 16.585 92.053 15.050 C 92.940 13.515 94.215 12.240 95.750 11.353 C 97.285 10.467 99.027 10.000 100.800 10.000 H 160.800 C 160.855 10.000 160.900 10.045 160.900 10.100 V 16.000 C 160.900 16.100 160.800 16.000 160.900 16.000 H 163.800 C 163.855 16.000 163.900 16.045 163.900 16.100 V 22.100 C 163.900 22.155 163.855 22.200 163.800 22.200 H 160.900 C 160.800 22.200 160.900 22.100 160.900 22.200 V 28.000 C 160.900 28.100 160.800 28.000 160.900 28.000 H 163.800 C 163.855 28.000 163.900 28.045 163.900 28.100 V 34.100 C 163.900 34.155 163.855 34.200 163.800 34.200 H 160.900 C 160.800 34.200 160.900 34.100 160.900 34.200 V 40.000 C 160.900 40.100 160.800 40.000 160.900 40.000 H 163.800 C 163.855 40.000 163.900 40.045 163.900 40.100 V 46.100 C 163.900 46.155 163.855 46.200 163.800 46.200 H 160.900 C 160.800 46.200 160.900 46.100 160.900 46.200 V 52.000 C 160.900 52.100 160.800 52.000 160.900 52.000 H 163.800 C 163.855 52.000 163.900 52.045 163.900 52.100 V 58.100 C 163.900 58.155 163.855 58.200 163.800 58.200 H 160.900 C 160.800 58.200 160.900 58.100 160.900 58.200 V 64.000 C 160.900 64.100 160.800 64.000 160.900 64.000 H 163.800 C 163.855 64.000 163.900 64.045 163.900 64.100 V 70.100 C 163.900 70.155 163.855 70.200 163.800 70.200 H 160.900 C 160.800 70.200 160.900 70.100 160.900 70.200 V 76.000 C 160.900 76.100 160.800 76.000 160.900 76.000 H 163.800 C 163.855 76.000 163.900 76.045 163.900 76.100 V 82.100 C 163.900 82.155 163.855 82.200 163.800 82.200 H 160.900 C 160.800 82.200 160.900 82.100 160.900 82.200 V 88.000 C 160.900 88.100 160.800 88.000 160.900 88.000 H 163.800 C 163.855 88.000 163.900 88.045 163.900 88.100 V 94.100 C 163.900 94.155 163.855 94.200 163.800 94.200 H 160.900 C 160.800 94.200 160.900 94.100 160.900 94.200 V 100.000 C 160.900 100.100 160.800 100.000 160.900 100.000 H 163.800 C 163.855 100.000 163.900 100.045 163.900 100.100 V 106.100 C 163.900 106.155 163.855 106.200 163.800 106.200 H 160.900 C 160.800 106.200 160.900 106.100 160.900 106.200 V 112.000 C 160.900 112.100 160.800 112.000 160.900 112.000 H 163.800 C 163.855 112.000 163.900 112.045 163.900 112.100 V 118.100 C 163.900 118.155 163.855 118.200 163.800 118.200 H 160.900 C 160.800 118.200 160.900 118.100 160.900 118.200 V 124.000 C 160.900 124.100 160.800 124.000 160.900 124.000 H 163.800 C 163.855 124.000 163.900 124.045 163.900 124.100 V 130.100 C 163.900 130.155 163.855 130.200 163.800 130.200 H 160.900 C 160.800 130.200 160.900 130.100 160.900 130.200 V 136.000 C 160.900 136.100 160.800 136.000 160.900 136.000 H 163.800 C 163.855 136.000 163.900 136.045 163.900 136.100 V 142.100 C 163.900 142.155 163.855 142.200 163.800 142.200 H 160.900 C 160.800 142.200 160.900 142.100 160.900 142.200 V 148.000 C 160.900 148.100 160.800 148.000 160.900 148.000 H 163.800 C 163.855 148.000 163.900 148.045 163.900 148.100 V 154.100 C 163.900 154.155 163.855 154.200 163.800 154.200 H 160.900 C 160.800 154.200 160.900 154.100 160.900 154.200 V 160.100 C 160.900 160.155 160.855 160.200 160.800 160.200 Z" stroke="rgb(0,0,0)" stroke-width="0.20" />
</g>
<g id="p-8" style="fill:none;stroke-linecap:round;stroke-linejoin:round;">
  <path d="M 168.500 160.200 H 176.400 C 176.500 160.200 176.400 160.100 176.400 160.200 V 163.100 C 176.400 163.155 176.445 163.200 176.500 163.200 H 182.500 C 182.555 163.200 182.600 163.155 182.600 163.100 V 160.200 C 182.600 160.100 182.500 160.200 182.600 160.200 H 188.400 C 188.500 160.200 188.400 160.100 188.400 160.200 V 163.100 C 188.400 163.155 188.445 163.200 188.500 163.200 H 194.500 C 194.555 163.200 194.600 163.155 194.600 163.100 V 160.200 C 194.600 160.100 194.500 160.200 194.600 160.200 H 200.400 C 200.500 160.200 200.400 160.100 200.400 160.200 V 163.100 C 200.400 163.155 200.445 163.200 200.500 163.200 H 206.500 C 206.555 163.200 206.600 163.155 206.600 163.100 V 160.200 C 206.600 160.100 206.500 160.200 206.600 160.200 H 212.400 C 212.500 160.200 212.400 160.100 212.400 160.200 V 163.100 C 212.400 163.155 212.445 163.200 212.500 163.200 H 218.500 C 218.555 163.200 218.600 163.155 218.600 163.100 V 160.200 C 218.600 160.100 218.500 160.200 218.600 160.200 H 224.400 C 224.500 160.200 224.400 160.100 224.400 160.200 V 163.100 C 224.400 163.155 224.445 163.200 224.500 163.200 H 230.500 C 230.555 163.200 230.600 163.155 230.600 163.100 V 160.200 C 230.600 160.100 230.500 160.200 230.600 160.200 H 238.500 H 241.500 C 241.555 160.200 241.600 160.155 241.600 160.100 V 154.100 C 241.600 154.045 241.555 154.000 241.500 154.000 H 238.600 C 238.500 154.000 238.600 154.100 238.600 154.000 V 148.200 C 238.600 148.100 238.500 148.200 238.600 148.200 H 241.500 C 241.555 148.200 241.600 148.155 241.600 148.100 V 142.100 C 241.600 142.045 241.555 142.000 241.500 142.000 H 238.600 C 238.500 142.000 238.600 142.100 238.600 142.000 V 136.200 C 238.600 136.100 238.500 136.200 238.600 136.200 H 241.500 C 241.555 136.200 241.600 136.155 241.600 136.100 V 130.100 C 241.600 130.045 241.555 130.000 241.500 130.000 H 238.600 C 238.500 130.000 238.600 130.100 238.600 130.000 V 124.200 C 238.600 124.100 238.500 124.200 238.600 124.200 H 241.500 C 241.555 124.200 241.600 124.155 241.600 124.100 V 118.100 C 241.600 118.045 241.555 118.000 241.500 118.000 H 238.600 C 238.500 118.000 238.600 118.100 238.600 118.000 V 112.200 C 238.600 112.100 238.500 112.200 238.600 112.200 H 241.500 C 241.555 112.200 241.600 112.155 241.600 112.100 V 106.100 C 241.600 106.045 241.555 106.000 241.500 106.000 H 238.600 C 238.500 106.000 238.600 106.100 238.600 106.000 V 100.200 C 238.600 100.100 238.500 100.200 238.600 100.200 H 241.500 C 241.555 100.200 241.600 100.155 241.600 100.100 V 94.100 C 241.600 94.045 241.555 94.000 241.500 94.000 H 238.600 C 238.500 94.000 238.600 94.100 238.600 94.000 V 88.200 C 238.600 88.100 238.500 88.200 238.600 88.200 H 241.500 C 241.555 88.200 241.600 88.155 241.600 88.100 V 82.100 C 241.600 82.045 241.555 82.000 241.500 82.000 H 238.600 C 238.500 82.000 238.600 82.100 238.600 82.000 V 76.200 C 238.600 76.100 238.500 76.200 238.600 76.200 H 241.500 C 241.555 76.200 241.600 76.155 241.600 76.100 V 70.100 C 241.600 70.045 241.555 70.000 241.500 70.000 H 238.600 C 238.500 70.000 238.600 70.100 238.600 70.000 V 64.200 C 238.600 64.100 238.500 64.200 238.600 64.200 H 241.500 C 241.555 64.200 241.600 64.155 241.600 64.100 V 58.100 C 241.600 58.045 241.555 58.000 241.500 58.000 H 238.600 C 238.500 58.000 238.600 58.100 238.600 58.000 V 52.200 C 238.600 52.100 238.500 52.200 238.600 52.200 H 241.500 C 241.555 52.200 241.600 52.155 241.600 52.100 V 46.100 C 241.600 46.045 241.555 46.000 241.500 46.000 H 238.600 C 238.500 46.000 238.600 46.100 238.600 46.000 V 40.200 C 238.600 40.100 238.500 40.200 238.600 40.200 H 241.500 C 241.555 40.200 241.600 40.155 241.600 40.100 V 34.100 C 241.600 34.045 241.555 34.000 241.500 34.000 H 238.600 C 238.500 34.000 238.600 34.100 238.600 34.000 V 28.200 C 238.600 28.100 238.500 28.200 238.600 28.200 H 241.500 C 241.555 28.200 241.600 28.155 241.600 28.100 V 22.100 C 241.600 22.045 241.555 22.000 241.500 22.000 H 238.600 C 238.500 22.000 238.600 22.100 238.600 22.000 V 16.200 C 238.600 16.100 238.500 16.200 238.600 16.200 H 241.500 C 241.555 16.200 241.600 16.155 241.600 16.100 V 10.100 C 241.600 10.045 241.555 10.000 241.500 10.000 H 238.500 H 168.500 H 165.500 C 165.445 10.000 165.400 10.045 165.400 10.100 V 16.100 C 165.400 16.155 165.445 16.200 165.500 16.200 H 168.400 C 168.500 16.200 168.400 16.100 168.400 16.200 V 22.000 C 168.400 22.100 168.500 22.000 168.400 22.000 H 165.500 C 165.445 22.000 165.400 22.045 165.400 22.100 V 28.100 C 165.400 28.155 165.445 28.200 165.500 28.200 H 168.400 C 168.500 28.200 168.400 28.100 168.400 28.200 V 34.000 C 168.400 34.100 168.500 34.000 168.400 34.000 H 165.500 C 165.445 34.000 165.400 34.045 165.400 34.100 V 40.100 C 165.400 40.155 165.445 40.200 165.500 40.200 H 168.400 C 168.500 40.200 168.400 40.100 168.400 40.200 V 46.000 C 168.400 46.100 168.500 46.000 168.400 46.000 H 165.500 C 165.445 46.000 165.400 46.045 165.400 46.100 V 52.100 C 165.400 52.155 165.445 52.200 165.500 52.200 H 168.400 C 168.500 52.200 168.400 52.100 168.400 52.200 V 58.000 C 168.400 58.100 168.500 58.000 168.400 58.000 H 165.500 C 165.445 58.000 165.400 58.045 165.400 58.100 V 64.100 C 165.400 64.155 165.445 64.200 165.500 64.200 H 168.400 C 168.500 64.200 168.400 64.100 168.400 64.200 V 70.000 C 168.400 70.100 168.500 70.000 168.400 70.000 H 165.500 C 165.445 70.000 165.400 70.045 165.400 70.100 V 76.100 C 165.400 76.155 165.445 76.200 165.500 76.200 H 168.400 C 168.500 76.200 168.400 76.100 168.400 76.200 V 82.000 C 168.400 82.100 168.500 82.000 168.400 82.000 H 165.500 C 165.445 82.000 165.400 82.045 165.400 82.100 V 88.100 C 165.400 88.155 165.445 88.200 165.500 88.200 H 168.400 C 168.500 88.200 168.400 88.100 168.400 88.200 V 94.000 C 168.400 94.100 168.500 94.000 168.400 94.000 H 165.500 C 165.445 94.000 165.400 94.045 165.400 94.100 V 100.100 C 165.400 100.155 165.445 100.200 165.500 100.200 H 168.400 C 168.500 100.200 168.400 100.100 168.400 100.200 V 106.000 C 168.400 106.100 168.500 106.000 168.400 106.000 H 165.500 C 165.445 106.000 165.400 106.045 165.400 106.100 V 112.100 C 165.400 112.155 165.445 112.200 165.500 112.200 H 168.400 C 168.500 112.200 168.400 112.100 168.400 112.200 V 118.000 C 168.400 118.100 168.500 118.000 168.400 118.000 H 165.500 C 165.445 118.000 165.400 118.045 165.400 118.100 V 124.100 C 165.400 124.155 165.445 124.200 165.500 124.200 H 168.400 C 168.500 124.200 168.400 124.100 168.400 124.200 V 130.000 C 168.400 130.100 168.500 130.000 168.400 130.000 H 165.500 C 165.445 130.000 165.400 130.045 165.400 130.100 V 136.100 C 165.400 136.155 165.445 136.200 165.500 136.200 H 168.400 C 168.500 136.200 168.400 136.100 168.400 136.200 V 142.000 C 168.400 142.100 168.500 142.000 168.400 142.000 H 165.500 C 165.445 142.000 165.400 142.045 165.400 142.100 V 148.100 C 165.400 148.155 165.445 148.200 165.500 148.200 H 168.400 C 168.500 148.200 168.400 148.100 168.400 148.200 V 154.000 C 168.400 154.100 168.500 154.000 168.400 154.000 H 165.500 C 165.445 154.000 165.400 154.045 165.400 154.100 V 160.100 C 165.400 160.155 165.445 160.200 165.500 160.200 H 168.500 Z" stroke="rgb(0,0,0)" stroke-width="0.20" />
</g>
</svg>