<?xml version="1.0" encoding="UTF-8" standalone="no"?>
<svg
   xmlns:dc="http://purl.org/dc/elements/1.1/"
   xmlns:cc="http://creativecommons.org/ns#"
   xmlns:rdf="http://www.w3.org/1999/02/22-rdf-syntax-ns#"
   xmlns:svg="http://www.w3.org/2000/svg"
   xmlns="http://www.w3.org/2000/svg"
   xmlns:sodipodi="http://sodipodi.sourceforge.net/DTD/sodipodi-0.dtd"
   xmlns:inkscape="http://www.inkscape.org/namespaces/inkscape"
   version="1.1"
   id="svg2"
   width="1189mm"
   height="841mm"
   viewBox="0 0 4493.8583 3178.5827"
   sodipodi:docname="phare.svg"
   inkscape:version="1.0.1 (3bc2e813f5, 2020-09-07)">
  <metadata
     id="metadata8">
    <rdf:RDF>
      <cc:Work
         rdf:about="">
        <dc:format>image/svg+xml</dc:format>
        <dc:type
           rdf:resource="http://purl.org/dc/dcmitype/StillImage" />
        <dc:title></dc:title>
      </cc:Work>
    </rdf:RDF>
  </metadata>
  <defs
     id="defs6">
    <rect
       x="51.401905"
       y="1626.441"
       width="834.04946"
       height="257.76252"
       id="rect865" />
    <clipPath
       clipPathUnits="userSpaceOnUse"
       id="clipPath853">
      <rect
         style="fill:none;stroke:#ff0000;stroke-width:0.377953"
         id="rect855"
         width="78.284958"
         height="165.47818"
         x="314.14203"
         y="461.51492"
         rx="9.4488201"
         ry="9.4488201" />
    </clipPath>
  </defs>
  <sodipodi:namedview
     pagecolor="#ffffff"
     bordercolor="#666666"
     borderopacity="1"
     objecttolerance="10"
     gridtolerance="10"
     guidetolerance="10"
     inkscape:pageopacity="0"
     inkscape:pageshadow="2"
     inkscape:window-width="1208"
     inkscape:window-height="736"
     id="namedview4"
     showgrid="false"
     units="mm"
     inkscape:zoom="0.28305576"
     inkscape:cx="382.5291"
     inkscape:cy="1069.1827"
     inkscape:window-x="72"
     inkscape:window-y="27"
     inkscape:window-maximized="1"
     inkscape:current-layer="g861" />
  <g
     inkscape:groupmode="layer"
     inkscape:label="Image"
     id="g10">
    <g
       id="g861"
       transform="translate(116.93542,387.8516)">
      <path
         style="fill:#000000"
         d="m 338.39572,594.42443 c 0.002,-5.9125 0.47983,-26.22471 1.06177,-45.13824 0.74627,-24.25455 0.74518,-34.70112 -0.004,-35.45 -1.5282,-1.5282 -1.31118,-7.35207 0.29697,-7.96918 1.03227,-0.39612 1.29464,-2.6443 1.09199,-9.35699 -0.14672,-4.85957 -0.57552,-10.02034 -0.95291,-11.46837 -0.40651,-1.55981 -0.24023,-2.90838 0.40802,-3.30902 0.60179,-0.37193 1.09417,-1.15478 1.09417,-1.73966 0,-0.63352 -0.70747,-0.50859 -1.75,0.30902 -1.59128,1.24796 -1.62371,1.21153 -0.3575,-0.40173 0.76588,-0.97579 1.58775,-1.57892 1.82638,-1.34029 0.23863,0.23864 2.9043,-0.69712 5.9237,-2.07945 4.51302,-2.06613 6.32322,-2.38836 10.17362,-1.81101 2.57609,0.38627 5.56517,1.17397 6.6424,1.75044 4.3755,2.34151 6.99028,7.74099 4.49539,9.28292 -1.64832,1.01871 -0.39286,17.32913 1.49438,19.41451 1.89125,2.08981 2.01171,5.54841 0.25055,7.19359 -0.84389,0.78831 -1.20078,3.17408 -1.01565,6.78943 1.63592,31.94618 3.44289,83.30287 2.97399,84.5248 -0.50336,1.31252 -3.12004,1.54923 -17.12558,1.54923 h -16.53138 l 0.004,-10.75 z m 26.99631,-2.5 v -10.25 h -5 -5 v 10.25 10.25 h 5 5 z m -24.25845,-20.5 c -0.19241,-3.7125 -0.34983,-0.675 -0.34983,6.75 0,7.425 0.15742,10.4625 0.34983,6.75 0.19241,-3.7125 0.19241,-9.7875 0,-13.5 z m 4.263,13.5 c 0.002,-3.4375 0.29625,-11.3125 0.65279,-17.5 0.5795,-10.05702 0.47297,-11.25 -1.00455,-11.25 -1.45137,0 -1.65279,1.56722 -1.65279,12.86043 0,7.07323 -0.28617,14.94823 -0.63592,17.5 -0.5329,3.88787 -0.37088,4.63957 1,4.63957 1.33958,0 1.63674,-1.13217 1.64047,-6.25 z m 5.20183,-11.75119 c 0.27059,-16.58956 0.15639,-18.0011 -1.45638,-18 -1.60181,0.001 -1.75,1.52545 -1.75,18.00119 0,15.0937 0.23515,18 1.45638,18 1.21035,0 1.50597,-3.04086 1.75,-18.00119 z m 4.69679,7.00119 c 1.40212,0 1.76623,-0.7231 1.63648,-3.25 -0.0918,-1.7875 -0.25075,-7.4125 -0.35326,-12.5 -0.1717,-8.5212 -0.34397,-9.25 -2.18639,-9.25 -1.93385,0 -1.99375,0.60364 -1.81092,18.25 0.104,10.0375 0.35146,15.6625 0.54991,12.5 0.2975,-4.74095 0.67728,-5.75 2.16418,-5.75 z m 14.81308,3.25 c -0.22912,-1.5125 -0.41659,-0.275 -0.41659,2.75 0,3.025 0.18747,4.2625 0.41659,2.75 0.22913,-1.5125 0.22913,-3.9875 0,-5.5 z m -7.71625,-15.75 c 0,-11.83333 -0.10667,-12.5 -2,-12.5 -1.89333,0 -2,0.66667 -2,12.5 0,11.83333 0.10667,12.5 2,12.5 1.89333,0 2,-0.66667 2,-12.5 z m 4.64136,4.08333 c -0.34616,-4.44583 -0.63207,-9.99583 -0.63537,-12.33333 -0.005,-3.25395 -0.38683,-4.25 -1.63099,-4.25 -1.28667,0 -1.49487,0.65064 -1,3.125 0.34375,1.71875 0.625,7.26875 0.625,12.33333 0,7.85728 0.23994,9.20834 1.63536,9.20834 1.43086,0 1.55666,-1.01088 1.006,-8.08334 z m 2.35864,-4.64235 c 0,-6.08246 -0.3375,-10.85172 -0.75,-10.59835 -0.77261,0.47455 -0.46516,21.65737 0.31434,21.65737 0.23961,0 0.43566,-4.97656 0.43566,-11.05902 z m -23,-29.94098 c 0,-5.55556 -0.30952,-7 -1.5,-7 -1.19048,0 -1.5,1.44444 -1.5,7 0,5.55556 0.30952,7 1.5,7 1.19048,0 1.5,-1.44444 1.5,-7 z m 3.41821,6.39301 c 2.25242,-0.86433 2.3293,-14.39301 0.0818,-14.39301 -1.10084,0 -1.54165,1.26401 -1.65652,4.75 -0.0861,2.6125 -0.244,5.9875 -0.35092,7.5 -0.10691,1.5125 -0.0733,2.75 0.0747,2.75 0.14802,0 0.98093,-0.27314 1.85091,-0.60699 z m 18.27478,-3.12398 c -0.25354,-0.97297 -0.47766,-0.41903 -0.49804,1.23097 -0.0204,1.65 0.18706,2.44606 0.46099,1.76903 0.27392,-0.67703 0.29059,-2.02703 0.0371,-3 z m -11.69299,-4.87602 c 0,-6.52574 -0.22483,-7.52071 -1.58179,-7 -0.86998,0.33385 -1.76998,0.60699 -2,0.60699 -0.23001,0 -0.41821,3.15 -0.41821,7 0,6.33333 0.19048,7 2,7 1.82472,0 2,-0.66667 2,-7.60699 z m 4.79381,0.43698 c -0.18954,-4.62534 -0.73744,-7.3167 -1.54381,-7.58333 -0.92645,-0.30634 -1.25,1.54957 -1.25,7.17001 0,6.16971 0.28778,7.58333 1.54381,7.58333 1.27552,0 1.49275,-1.24603 1.25,-7.17001 z m 4.37413,0.17226 c -0.43153,-9.09985 -2.16794,-9.10165 -2.16794,-0.002 0,4.93213 0.36926,7.00067 1.25,7.00225 0.91276,0.002 1.16041,-1.88692 0.91794,-7 z m -23.45169,-2.75225 c -0.22912,-1.5125 -0.41659,-0.275 -0.41659,2.75 0,3.025 0.18747,4.2625 0.41659,2.75 0.22913,-1.5125 0.22913,-3.9875 0,-5.5 z m 4.28375,-19.30902 c 0,-2.45136 -0.39607,-3.81423 -1,-3.44098 -0.55,0.33992 -1,2.16648 -1,4.05902 0,1.89254 0.45,3.44098 1,3.44098 0.55,0 1,-1.82656 1,-4.05902 z m 20.70726,-1.17932 c -0.23919,-1.24391 -0.44398,-0.46166 -0.45508,1.73834 -0.0111,2.2 0.18461,3.21775 0.4349,2.26166 0.25029,-0.95609 0.25937,-2.75609 0.0202,-4 z m -15.70726,0.73834 c 0,-2.44444 -0.45238,-3.5 -1.5,-3.5 -1.04762,0 -1.5,1.05556 -1.5,3.5 0,2.44444 0.45238,3.5 1.5,3.5 1.04762,0 1.5,-1.05556 1.5,-3.5 z m 4.18979,0 c -0.24822,-2.12617 -0.95444,-3.5 -1.7992,-3.5 -0.92258,0 -1.39059,1.17794 -1.39059,3.5 0,2.70313 0.40964,3.5 1.7992,3.5 1.46739,0 1.72384,-0.64547 1.39059,-3.5 z m 5,0 c -0.24822,-2.12617 -0.95444,-3.5 -1.7992,-3.5 -0.92258,0 -1.39059,1.17794 -1.39059,3.5 0,2.70313 0.40964,3.5 1.7992,3.5 1.46739,0 1.72384,-0.64547 1.39059,-3.5 z m 3.81021,0 c 0,-1.925 -0.45,-3.5 -1,-3.5 -0.55,0 -1,1.575 -1,3.5 0,1.925 0.45,3.5 1,3.5 0.55,0 1,-1.575 1,-3.5 z m -18,-25.08333 c 0,-5.90202 -2.36777,-5.55535 -2.8075,0.41105 -0.23894,3.2421 0.0397,4.17228 1.25,4.17228 1.18345,0 1.5575,-1.10073 1.5575,-4.58333 z m 18,-0.91667 c 0,-3.61981 -0.3423,-4.49961 -1.75,-4.498 -1.293,0.001 -1.81689,0.93783 -2.00613,3.58558 -0.29308,4.10052 0.26809,5.41242 2.31515,5.41242 1.04116,0 1.44098,-1.24858 1.44098,-4.5 z m -8,-1 c 0,-4.13333 -0.2037,-4.5 -2.5,-4.5 -2.2963,0 -2.5,0.36667 -2.5,4.5 0,4.13333 0.2037,4.5 2.5,4.5 2.2963,0 2.5,-0.36667 2.5,-4.5 z"
         id="path849"
         clip-path="url(#clipPath853)"
         transform="matrix(8.9316341,0,0,8.9316341,-2795.7269,-4117.7802)"
         sodipodi:nodetypes="cscssssssssssssssccsccccccccccccsssscssssscscsssssssssssssssssssscssssssssssssssssssssscssccssssssssssssscssssssssssssssssssssssssssssssssssssssssscssssssss" />
      <rect
         style="fill:none;stroke:#ff0000;stroke-width:2;stroke-miterlimit:4;stroke-dasharray:none"
         id="rect857"
         width="699.03345"
         height="1662.813"
         x="10.164332"
         y="-185.54715"
         rx="3.5094132"
         ry="5.7142949" />
    </g>
  </g>
</svg>
