<?xml version="1.0" encoding="UTF-8" standalone="no"?>
<svg
   xmlns:dc="http://purl.org/dc/elements/1.1/"
   xmlns:cc="http://creativecommons.org/ns#"
   xmlns:rdf="http://www.w3.org/1999/02/22-rdf-syntax-ns#"
   xmlns:svg="http://www.w3.org/2000/svg"
   xmlns="http://www.w3.org/2000/svg"
   xmlns:sodipodi="http://sodipodi.sourceforge.net/DTD/sodipodi-0.dtd"
   xmlns:inkscape="http://www.inkscape.org/namespaces/inkscape"
   width="210mm"
   height="297mm"
   viewBox="0 0 210 297"
   version="1.1"
   id="svg907"
   inkscape:version="1.0.1 (3bc2e813f5, 2020-09-07)"
   sodipodi:docname="ottercontour.svg">
  <defs
     id="defs901" />
  <sodipodi:namedview
     id="base"
     pagecolor="#ffffff"
     bordercolor="#666666"
     borderopacity="1.0"
     inkscape:pageopacity="0.0"
     inkscape:pageshadow="2"
     inkscape:zoom="0.65472028"
     inkscape:cx="390.46424"
     inkscape:cy="522.17299"
     inkscape:document-units="mm"
     inkscape:current-layer="layer1"
     inkscape:document-rotation="0"
     showgrid="false"
     inkscape:window-width="1208"
     inkscape:window-height="736"
     inkscape:window-x="72"
     inkscape:window-y="27"
     inkscape:window-maximized="1" />
  <metadata
     id="metadata904">
    <rdf:RDF>
      <cc:Work
         rdf:about="">
        <dc:format>image/svg+xml</dc:format>
        <dc:type
           rdf:resource="http://purl.org/dc/dcmitype/StillImage" />
        <dc:title></dc:title>
      </cc:Work>
    </rdf:RDF>
  </metadata>
  <g
     inkscape:label="Calque 1"
     inkscape:groupmode="layer"
     id="layer1">
    <path
       style="color:#000000;font-style:normal;font-variant:normal;font-weight:normal;font-stretch:normal;font-size:medium;line-height:normal;font-family:sans-serif;font-variant-ligatures:normal;font-variant-position:normal;font-variant-caps:normal;font-variant-numeric:normal;font-variant-alternates:normal;font-variant-east-asian:normal;font-feature-settings:normal;font-variation-settings:normal;text-indent:0;text-align:start;text-decoration:none;text-decoration-line:none;text-decoration-style:solid;text-decoration-color:#000000;letter-spacing:normal;word-spacing:normal;text-transform:none;writing-mode:lr-tb;direction:ltr;text-orientation:mixed;dominant-baseline:auto;baseline-shift:baseline;text-anchor:start;white-space:normal;shape-padding:0;shape-margin:0;inline-size:0;clip-rule:nonzero;display:inline;overflow:visible;visibility:visible;opacity:1;isolation:auto;mix-blend-mode:normal;color-interpolation:sRGB;color-interpolation-filters:linearRGB;solid-color:#000000;solid-opacity:1;vector-effect:none;fill:none;fill-opacity:1;fill-rule:nonzero;stroke:#ff0000;stroke-width:0.1;stroke-linecap:butt;stroke-linejoin:miter;stroke-miterlimit:4;stroke-dasharray:none;stroke-dashoffset:0;stroke-opacity:1;color-rendering:auto;image-rendering:auto;shape-rendering:auto;text-rendering:auto;enable-background:accumulate;stop-color:#000000;stop-opacity:1"
       d="m 20.530523,29.365322 -0.03204,0.0062 -0.0021,0.0083 c -0.01994,0.0079 -0.04008,0.01426 -0.06098,0.02585 -0.03463,0.01918 -0.07723,0.045 -0.128674,0.07751 -0.103024,0.06512 -0.240971,0.157536 -0.409794,0.27337 -0.337677,0.231717 -0.79866,0.5581 -1.341482,0.948778 -1.085635,0.781357 -2.498883,1.818942 -3.903121,2.862876 -1.404237,1.043932 -2.799261,2.094333 -3.849894,2.901114 -0.525313,0.403389 -0.9644242,0.745937 -1.2758912,0.996839 -0.155712,0.125433 -0.279778,0.227721 -0.36742,0.304374 -0.04381,0.03832 -0.07814,0.07041 -0.104386,0.09663 -0.01326,0.01326 -0.02459,0.02469 -0.03411,0.03617 -0.0068,0.0083 -0.02154,0.02561 -0.02997,0.05064 -0.0143,0.04246 -0.0085,0.07845 -0.0041,0.116271 0.0047,0.04117 0.0131,0.09144 0.02584,0.153995 0.02545,0.12495 0.06665,0.297328 0.12454,0.517282 0.115754,0.439838 0.296971,1.072095 0.543119,1.89756 0.4923022,1.650947 1.2454292,4.072472 2.2561942,7.256405 0.269428,0.848704 0.440144,1.526475 0.628385,1.90841 0.047,0.09535 0.09543,0.1734 0.153479,0.23306 0.05861,0.06024 0.13247,0.103146 0.216524,0.10387 0.08334,5.3e-4 0.161197,-0.03846 0.232028,-0.09974 0.07063,-0.0611 0.139185,-0.146695 0.212907,-0.259416 0.295142,-0.451266 0.67734,-1.355088 1.264005,-2.885094 0.586674,-1.53003 1.373791,-3.682023 2.460832,-6.608899 0.994479,-2.677655 1.918593,-5.151937 2.606042,-6.980452 0.343725,-0.914257 0.627837,-1.666692 0.832508,-2.202965 0.102325,-0.268113 0.185243,-0.482894 0.244946,-0.635622 0.02983,-0.07631 0.05467,-0.138478 0.07286,-0.183452 0.0182,-0.04497 0.03172,-0.07687 0.03204,-0.07751 0.120527,-0.240022 0.161669,-0.455557 0.100252,-0.624252 -0.03117,-0.08562 -0.09306,-0.15607 -0.176216,-0.194302 -0.08252,-0.03794 -0.180094,-0.04406 -0.286288,-0.02379 z m 0.02894,0.111104 0.0093,0.01035 0.03669,0.04289 -0.0078,0.0062 c -0.0068,-0.0041 -0.03876,-0.02326 -0.03876,-0.02326 -8e-6,0 2.14e-4,-0.02167 5.29e-4,-0.03617 z m 0.157094,0.901758 c -0.0079,0.02 -0.01291,0.03177 -0.0217,0.05426 -0.05985,0.153094 -0.142548,0.367832 -0.244947,0.636136 0.102407,-0.268322 0.184598,-0.483082 0.24443,-0.636136 0.01206,-0.03086 0.01206,-0.02855 0.02222,-0.05426 z M 9.1250158,37.937409 c 6.7e-5,-6.6e-5 4.5e-4,6.6e-5 5.3e-4,0 -0.0043,0.0043 -0.0063,0.0066 -0.0098,0.01034 0.0034,-0.0035 0.0053,-0.0063 0.0093,-0.01034 z m -0.03927,0.06149 c 0.0062,0.0011 0.04547,0.0077 0.04547,0.0077 0,0 0.0041,0.03392 0.0052,0.04341 -0.0047,-2.65e-4 -0.01603,-0.0011 -0.01602,-0.0011 9e-6,2e-6 -0.01603,-0.0077 -0.01602,-0.0077 9e-6,5e-6 -0.0093,-0.0088 -0.0093,-0.0088 1.3e-5,1.6e-5 -0.0042,-0.0071 -0.0062,-0.01035 0.0075,-0.0027 0.04237,-0.0155 0.04237,-0.0155 0,0 -0.03784,-0.0021 -0.04548,-0.0027 1.89e-4,-0.0013 -2.64e-4,-0.0038 0,-0.0052 z M 138.6654,156.89308 l -0.49765,0.31006 c -0.0518,0.0322 -0.44332,0.26179 -1.08469,0.63613 -0.64136,0.37435 -1.53975,0.89757 -2.62981,1.53169 -2.18011,1.26824 -5.12584,2.97961 -8.31112,4.82761 -3.18539,1.84807 -6.1248,3.55892 -8.29355,4.82607 -1.08438,0.63357 -1.97615,1.15642 -2.61018,1.53014 -0.31701,0.18686 -0.56921,0.33621 -0.74931,0.4439 -0.18004,0.10765 -0.28076,0.16813 -0.31987,0.19585 -0.0905,0.0642 -0.15157,0.10374 -0.28164,0.13901 -0.12957,0.0351 -0.3285,0.0618 -0.66921,0.0817 -0.68145,0.0397 -1.92678,0.052 -4.33979,0.0718 l -4.92373,0.0408 -4.740795,-4.77387 -4.786273,-4.81987 -2.503723,-0.92139 c -0.733486,-0.26978 -1.356185,-0.51597 -1.796272,-0.70693 -0.220056,-0.0955 -0.39497,-0.17702 -0.51263,-0.23978 -0.05885,-0.0314 -0.104219,-0.0587 -0.130741,-0.0775 -0.0036,-0.003 -0.0038,-0.003 -0.0067,-0.005 0.0011,-0.006 0.0016,-0.009 0.0031,-0.0165 0.0072,-0.0368 0.01878,-0.0907 0.03462,-0.15968 0.03168,-0.138 0.07999,-0.33731 0.142627,-0.58963 0.125275,-0.50464 0.309028,-1.22364 0.536919,-2.10323 0.455774,-1.75917 1.089268,-4.16116 1.79007,-6.7815 l 2.542482,-9.50743 0.825272,-0.9896 c 0.336489,-0.40343 0.545137,-0.67131 0.666107,-0.8785 0.12124,-0.20765 0.155223,-0.36827 0.117824,-0.51728 -0.02392,-0.0953 -0.06559,-0.18683 -0.116273,-0.26304 -0.05009,-0.0753 -0.108397,-0.14149 -0.188101,-0.17208 -0.03928,-0.0151 -0.07203,-0.0143 -0.115239,-0.016 -0.04602,-0.002 -0.104963,-0.002 -0.177249,-0.002 -0.14446,0.002 -0.340247,0.008 -0.574644,0.0186 -0.468791,0.0213 -1.09107,0.0601 -1.754931,0.11007 -0.66231,0.0499 -1.300961,0.0904 -1.795756,0.11679 -0.24743,0.0132 -0.459197,0.023 -0.619083,0.0279 -0.159752,0.005 -0.277521,0.004 -0.301791,0.001 l -0.222726,-0.0243 0.28267,-2.11201 c 0.140425,-1.04926 0.212293,-1.60492 0.222726,-1.9389 0.0052,-0.16696 -0.0048,-0.28089 -0.03462,-0.37466 -0.03001,-0.0944 -0.08106,-0.16154 -0.136425,-0.22272 -0.100301,-0.11083 -0.204787,-0.19086 -0.323495,-0.22428 -0.119417,-0.0336 -0.245766,-0.0136 -0.366387,0.0522 -0.239541,0.13068 -0.478269,0.42542 -0.79375,0.90744 -0.325382,0.49716 -1.999671,3.19217 -3.729488,6.00222 l -3.137275,5.09633 -5.48907,4.88859 c -1.512657,1.34719 -2.915251,2.60216 -3.955833,3.5388 -0.52029,0.46832 -0.950047,0.85736 -1.258321,1.13843 -0.154128,0.14054 -0.277805,0.25356 -0.367419,0.33694 -0.08948,0.0832 -0.140952,0.13169 -0.166915,0.16071 -0.05949,0.0665 -0.109279,0.12227 -0.143661,0.19068 -0.0352,0.0701 -0.04678,0.15126 -0.03049,0.23978 0.03195,0.17373 0.147156,0.38792 0.367937,0.81287 1.088269,2.09467 3.467352,6.7494 5.573819,10.89184 1.053232,2.07122 2.038212,4.0148 2.760038,5.44567 2.058937,3.6898 0.853135,2.15388 -2.930557,1.18383 -2.535584,-0.65025 -5.917491,-1.52845 -9.304343,-2.41432 -3.386852,-0.88587 -6.778601,-1.77905 -9.331729,-2.4598 -1.276565,-0.34037 -2.34346,-0.62766 -3.095419,-0.83405 -0.375986,-0.1032 -0.67319,-0.18626 -0.877983,-0.24547 -0.102359,-0.0296 -0.181845,-0.0533 -0.235643,-0.0703 -0.02014,-0.006 -0.03261,-0.0107 -0.04496,-0.015 -0.007,-0.017 -0.01561,-0.0382 -0.02791,-0.0687 -0.02797,-0.0695 -0.06897,-0.17245 -0.121957,-0.30696 -0.105981,-0.26904 -0.260725,-0.66422 -0.458369,-1.1715 -2.377387,-6.11777 -4.98595,-12.87902 -7.082256,-18.31672 -2.104104,-5.45831 -4.029683,-10.43539 -5.436878,-14.05754 -0.703596,-1.81106 -1.277432,-3.28344 -1.679482,-4.30774 -0.201028,-0.51216 -0.358894,-0.91231 -0.468707,-1.18702 -0.05489,-0.13731 -0.09731,-0.24338 -0.12764,-0.31677 -0.01527,-0.0369 -0.02786,-0.0656 -0.03669,-0.0858 -0.0044,-0.01 -0.0081,-0.018 -0.01188,-0.0258 v -5.3e-4 c -0.0027,-0.006 -0.003,-0.005 -0.0036,-0.006 v -5.3e-4 c -3.5e-5,-1.6e-4 -5.3e-4,-8e-4 -5.3e-4,-0.001 -0.0011,-0.006 -0.003,-0.018 -0.0052,-0.0351 -0.0046,-0.0351 -0.0097,-0.0889 -0.0155,-0.15761 -0.01167,-0.13741 -0.02561,-0.3376 -0.04083,-0.59222 -0.03043,-0.50929 -0.06739,-1.23757 -0.108003,-2.13113 -0.08121,-1.78712 -0.177403,-4.23382 -0.26975,-6.90862 -0.151808,-4.397 -0.241099,-6.83649 -0.318328,-8.21604 -0.07722,-1.37944 -0.134448,-1.70636 -0.263033,-1.89084 -0.02278,-0.0327 -0.133419,-0.21184 -0.298173,-0.48317 -0.164774,-0.27137 -0.388852,-0.64263 -0.655259,-1.08728 -0.532836,-0.88933 -1.236665,-2.07157 -1.982824,-3.33157 L 31.606339,98.958884 28.977041,85.248093 c -0.88699,-4.624914 -1.559667,-8.065994 -2.025717,-10.361125 -0.233025,-1.147572 -0.414379,-2.00864 -0.545186,-2.588472 -0.0654,-0.289912 -0.117982,-0.50913 -0.158647,-0.660426 -0.02032,-0.0756 -0.03753,-0.13461 -0.05271,-0.178282 -0.0075,-0.02154 -0.01468,-0.03954 -0.02274,-0.05633 -0.0029,-0.006 -0.01683,-0.0404 -0.05013,-0.06149 -0.07774,-0.04923 -0.187253,-0.07259 -0.322461,-0.09405 -0.136117,-0.02162 -0.295482,-0.03497 -0.450102,-0.03565 l -0.432532,-0.0021 0.05581,-0.558622 c 0.01016,-0.101799 0.03706,-0.509664 0.07803,-1.179775 0.04098,-0.670107 0.09578,-1.595744 0.160714,-2.709394 0.129865,-2.227299 0.299827,-5.207108 0.478524,-8.402587 0.311608,-5.572262 0.471347,-8.479498 0.526583,-10.026263 0.02762,-0.773372 0.02959,-1.205484 0.0098,-1.467609 -0.0099,-0.130982 -0.02504,-0.220393 -0.04806,-0.290423 -0.02327,-0.07079 -0.05698,-0.120647 -0.09043,-0.157612 -0.146721,-0.162137 -0.284908,-0.264456 -0.44235,-0.270267 l -0.03533,-0.0014 -0.01085,0.02687 c -0.137873,0.01355 -0.266126,0.08017 -0.389641,0.217559 -0.01749,0.01945 -0.02437,0.03683 -0.03152,0.05116 h -5.3e-4 c -0.0092,0.01844 -0.01846,0.04055 -0.03049,0.0677 -0.02442,0.0551 -0.0567,0.131244 -0.09663,0.228926 -0.07982,0.195228 -0.191013,0.475035 -0.329178,0.829924 -0.276313,0.709726 -0.662465,1.721074 -1.130681,2.95951 -0.936433,2.47687 -2.200601,5.862168 -3.56619,9.558587 l -4.970756,13.456545 -0.763778,31.189313 c -0.230754,9.42823 -0.411226,17.29031 -0.526066,22.84873 -0.05742,2.77922 -0.0982,4.98283 -0.120923,6.51795 -0.01136,0.76757 -0.01818,1.36827 -0.02015,1.79059 -9.79e-4,0.21114 -9.79e-4,0.37701 5.29e-4,0.49816 0.0015,0.12088 0.0027,0.18988 0.0093,0.2341 0.0069,0.0466 0.02814,0.11443 0.06614,0.23719 0.0381,0.12309 0.09247,0.292 0.162264,0.5054 0.139616,0.4269 0.340804,1.02948 0.594796,1.78232 0.507986,1.50569 1.227567,3.61294 2.088245,6.12056 1.721354,5.01522 4.007628,11.63084 6.297806,18.22834 2.290179,6.5975 4.584414,13.17738 6.320545,18.12241 0.868067,2.47251 1.596552,4.53624 2.115633,5.9893 0.259538,0.72652 0.466238,1.29976 0.612368,1.69602 0.07305,0.19809 0.130878,0.35206 0.172598,0.45888 0.02085,0.0534 0.03752,0.0951 0.05064,0.12558 0.0068,0.0158 0.01262,0.0283 0.01757,0.0382 -2.64e-4,-5.3e-4 0.0084,0.0224 0.02894,0.0424 0.01601,0.0156 0.0326,0.0231 0.03101,0.0222 0.0077,0.004 0.01722,0.01 0.02894,0.016 0.02313,0.0121 0.05439,0.0278 0.09509,0.0481 0.08154,0.0406 0.199541,0.0979 0.352433,0.17157 0.305737,0.14733 0.751425,0.3595 1.321366,0.62941 1.13987,0.53984 2.77776,1.3111 4.792988,2.2562 4.030459,1.89019 9.568781,4.47681 15.64194,7.30395 l 22.099426,10.28774 14.972731,1.4149 c 0.02138,0.002 0.0345,0.003 0.05529,0.005 4.088792,0.3864 7.869243,0.7333 10.658268,0.97979 1.40169,0.12387 2.55472,0.22214 3.37551,0.28835 0.41036,0.0331 0.73804,0.0585 0.97203,0.0744 0.11707,0.008 0.21023,0.0137 0.27957,0.0171 0.0691,0.003 0.11025,0.005 0.14366,0.002 0.0816,-0.008 0.58878,-0.0672 1.4609,-0.17105 0.87211,-0.10384 2.10026,-0.25094 3.59409,-0.43047 2.98766,-0.35905 7.0384,-0.84793 11.43134,-1.37976 l 16.02073,-1.93942 0.68316,-1.05368 c 0.18033,-0.27812 0.3641,-0.55671 0.51367,-0.77928 0.1475,-0.21949 0.26097,-0.38251 0.30282,-0.43666 0.002,-10e-4 0.003,-0.002 0.006,-0.004 0.0123,-0.007 0.0319,-0.0183 0.0579,-0.032 0.052,-0.0276 0.12881,-0.0665 0.22737,-0.11472 0.19723,-0.0964 0.48372,-0.23193 0.84905,-0.40204 0.73063,-0.34021 1.77675,-0.81839 3.06079,-1.3994 2.56807,-1.16202 6.08721,-2.73479 9.93738,-4.43849 7.70077,-3.40758 14.23574,-6.30194 14.5433,-6.44095 0.15463,-0.0699 0.29445,-0.15094 0.39997,-0.22841 0.0527,-0.0387 0.0972,-0.0763 0.13178,-0.11472 M 13.295334,49.726828 c -0.07085,0.108326 -0.134726,0.187209 -0.194304,0.238747 -0.03516,0.03041 -0.06594,0.03255 -0.09819,0.04444 0.03206,-0.01209 0.06262,-0.01463 0.09767,-0.04496 0.0597,-0.05165 0.124017,-0.129971 0.194821,-0.238228 z m -0.590662,0.11111 c 0.02788,0.04647 0.05572,0.09936 0.08475,0.129193 0.02749,0.02825 0.05774,0.03234 0.08733,0.04444 -0.02961,-0.01199 -0.06022,-0.01553 -0.08785,-0.04393 -0.029,-0.0298 -0.05642,-0.08319 -0.08423,-0.129709 z m 12.397149,17.079617 c -0.05992,1.025996 -0.112368,1.917592 -0.150896,2.547649 -0.04096,0.669936 -0.06831,1.083945 -0.07751,1.176155 l -0.06666,0.668176 0.06615,-0.66766 c 0.0092,-0.09216 0.03655,-0.506206 0.07751,-1.176155 0.03853,-0.630168 0.09142,-1.521854 0.151412,-2.548165 z M 3.6550668,68.669369 c -0.163868,0.0042 -0.337077,0.07391 -0.398942,0.235127 -0.0072,0.01871 -0.0079,0.04145 -0.0078,0.03773 -3.48e-4,0.0072 -1.81e-4,0.01392 0,0.02016 3.68e-4,0.01267 0.0015,0.02826 0.0031,0.04754 0.0031,0.03792 0.0085,0.08924 0.01602,0.154514 0.01504,0.130715 0.03859,0.316841 0.06976,0.550871 0.06235,0.468055 0.154759,1.128204 0.267684,1.917194 0.22585,1.577981 0.533527,3.671218 0.848011,5.773291 0.314482,2.102072 0.635455,4.212976 0.886767,5.824452 0.125656,0.805736 0.234294,1.48661 0.315743,1.979724 0.04072,0.246544 0.07455,0.446029 0.100769,0.591177 0.01314,0.07273 0.02446,0.131583 0.03359,0.176218 0.0072,0.03545 0.01224,0.05674 0.01809,0.077 v 0.0057 l 0.0052,0.0155 h 5.03e-4 c 0.02948,0.08576 0.104481,0.137462 0.183968,0.172083 0.08053,0.03508 0.176308,0.05478 0.275435,0.05478 0.08504,0 0.177762,-0.02225 0.261483,-0.0925 0.08231,-0.06907 0.157233,-0.174964 0.251147,-0.345199 0.187988,-0.340757 0.451414,-0.947955 0.919841,-2.053106 0.28361,-0.669118 0.541401,-1.304949 0.728638,-1.791621 0.09361,-0.243305 0.170233,-0.449609 0.223242,-0.604615 0.02649,-0.07746 0.04691,-0.141877 0.0615,-0.19327 0.01427,-0.05028 0.02481,-0.08627 0.02481,-0.126606 -0.094386,-0.253631 -0.00902,-0.165967 0.211361,-0.187019 0.08241,-0.02793 0.163106,-0.07628 0.228926,-0.14211 0.03712,-0.03712 0.06367,-0.08891 0.07183,-0.150897 0.008,-0.06062 0.0014,-0.129014 -0.01705,-0.21549 -0.03689,-0.173416 -0.124711,-0.426379 -0.28991,-0.834631 -0.33042,-0.816565 -0.971805,-2.248712 -2.13372,-4.815208 -0.710836,-1.570135 -1.370315,-3.014951 -1.860351,-4.078822 -0.245012,-0.531921 -0.44711,-0.968555 -0.592729,-1.277958 -0.0728,-0.154689 -0.131519,-0.277374 -0.174149,-0.364834 -0.02132,-0.04374 -0.03878,-0.07885 -0.05219,-0.104905 -0.01287,-0.02498 -0.02022,-0.04128 -0.03411,-0.05994 -0.10505,-0.141247 -0.282954,-0.198487 -0.446484,-0.194309 z m 4.888116,12.425715 c -3.4e-5,2.09e-4 3.7e-5,2.65e-4 0,5.29e-4 M 4.0209358,68.923625 c 0.0019,0.0026 0.0045,0.0082 0.0062,0.01085 2.3e-4,5.29e-4 5.26e-4,0.0016 5.16e-4,0.0016 -9e-6,-2.6e-5 0.0021,0.0078 0.0021,0.0078 0,0 -0.04456,0.0077 -0.04754,0.0083 z m -0.669727,0.01607 -0.0026,0.0067 c -1.59e-4,-0.0054 -0.0021,0.0011 5.17e-4,-0.0057 2.79e-4,-7.94e-4 0.0018,-2.65e-4 0.0021,-0.0011 z m 0.630453,0.01291 c 0.0019,2.64e-4 0.04806,0.0098 0.04806,0.0098 l -0.0021,0.0072 -0.02532,0.02791 -0.03307,0.0036 -0.0057,-0.0016 c 10e-6,5e-6 -0.01707,-0.01087 -0.01705,-0.01085 3.3e-5,3.2e-5 -0.0041,-0.0039 -0.0047,-0.0047 -5.95e-4,-7.93e-4 -8.6e-4,-7.93e-4 -10e-4,-0.0011 z m -0.632003,0.02952 c 4.51e-4,0.0068 8.48e-4,0.01167 0.0016,0.02016 0.003,0.03579 0.008,0.08611 0.0155,0.150894 -0.0075,-0.06488 -0.01307,-0.115765 -0.01602,-0.151413 -6.7e-4,-0.0081 -6.55e-4,-0.01304 -10e-4,-0.01963 z m 22.7190352,2.444864 c 0.0017,0.0011 5.29e-4,0.0021 0.0016,0.0026 0.001,0.0013 0.0021,0.0031 0.0021,0.0031 5.03e-4,2.65e-4 0.002,0.0028 0.0021,0.0031 3.71e-4,0.0011 0.0021,-0.0011 0.0078,0.01085 0.0053,0.01106 0.01112,0.02593 0.01809,0.04599 0.01371,0.03946 0.03064,0.09661 0.05064,0.171048 -0.02001,-0.07444 -0.03744,-0.131564 -0.05116,-0.171048 -0.0069,-0.01984 -0.01263,-0.0346 -0.01809,-0.04599 -0.0018,-0.0038 -0.0038,-0.0055 -0.0057,-0.0083 l 0.0016,0.0041 c 0,0 -0.01304,0.0056 -0.02584,0.01085 l 0.01654,-0.02585 z m -0.03359,0.05271 c 0.0029,0.01442 0.0062,0.031 0.0062,0.031 0,0 -0.02062,-0.0019 -0.02481,-0.0021 z M 5.6100088,84.289788 c 0.04751,0.297657 0.107004,0.679244 0.144178,0.904338 0.04069,0.246317 0.07473,0.444934 0.100768,0.589111 0.0071,0.03919 0.01174,0.06411 0.01757,0.09509 -0.006,-0.03087 -0.01103,-0.05551 -0.01809,-0.09457 -0.02605,-0.144223 -0.06009,-0.343857 -0.100768,-0.590147 -0.03716,-0.224988 -0.0962,-0.606372 -0.143661,-0.903822 z M 135.69819,84.895954 c 0.0273,0.0042 0.0536,0.0071 0.0868,0.02479 1.2e-4,6.9e-5 2.6e-4,5.3e-4 5.3e-4,5.3e-4 -0.0334,-0.01786 -0.0598,-0.02111 -0.0873,-0.02532 z M 6.5840708,85.974786 c -0.03722,0.05162 -0.08066,0.130929 -0.113688,0.158647 -1.51e-4,1.27e-4 -3.71e-4,-1.25e-4 -5.3e-4,0 0.03309,-0.02777 0.07687,-0.106937 0.114205,-0.158647 z M 175.51745,95.943675 c 1.1e-4,1.32e-4 5.2e-4,-1.35e-4 5.2e-4,0 0.0535,0.0645 0.0828,0.1501 0.0848,0.264064 -0.002,-0.113913 -0.0318,-0.19967 -0.0853,-0.264064 z m -122.310219,15.075605 0.0057,0.061 0.0801,0.92914 c 0.02209,0.25621 -0.0094,1.08787 -0.09508,2.39159 -0.08571,1.30374 -0.223872,3.09191 -0.41238,5.30975 -0.316325,3.72168 -0.482994,5.73371 -0.540017,6.83214 -0.02851,0.54919 -0.03024,0.86901 -0.0078,1.06919 0.01122,0.1 0.02812,0.17196 0.05788,0.22996 0.03089,0.0602 0.07842,0.0999 0.127124,0.1204 0.04169,0.0176 0.09763,0.0514 0.196371,0.0491 0.09645,-0.002 0.234233,-0.0287 0.511596,-0.0961 0.554908,-0.13491 1.666576,-0.44012 4.017843,-1.08158 1.854105,-0.50584 2.973292,-0.82561 3.634404,-1.05679 0.330523,-0.11558 0.546121,-0.20799 0.687814,-0.29662 0.07084,-0.0443 0.124563,-0.0882 0.162779,-0.13849 0.03889,-0.0512 0.0604,-0.1105 0.05891,-0.17002 v -5.3e-4 c -2e-6,-2e-5 -5.29e-4,-0.005 -5.29e-4,-0.006 -6.1e-5,-5.3e-4 -5.29e-4,-10e-4 -5.29e-4,-0.002 -1.38e-4,-7.9e-4 -2.65e-4,-0.002 -5.29e-4,-0.003 -5.29e-4,-0.002 -4e-5,-0.003 -0.0016,-0.009 5.3e-4,0.002 0.0011,-2e-4 -0.0031,-0.0109 -2.65e-4,-10e-4 -7.94e-4,-0.003 -0.0016,-0.005 l -5.29e-4,-0.002 c -0.0026,-0.007 -0.0051,-0.0114 -0.0062,-0.0139 -0.004,-0.009 -0.009,-0.0208 -0.01603,-0.0351 -0.01373,-0.0279 -0.03325,-0.0657 -0.05891,-0.11523 -0.05136,-0.0991 -0.12703,-0.24177 -0.223761,-0.42323 -0.193474,-0.36299 -0.472792,-0.8822 -0.81752,-1.51881 -0.689457,-1.27321 -1.639742,-3.01695 -2.685108,-4.92476 -1.708767,-3.11852 -2.667506,-4.85339 -3.238561,-5.8167 -0.285523,-0.48164 -0.473745,-0.77027 -0.61495,-0.94671 -0.141341,-0.17662 -0.247954,-0.25221 -0.359151,-0.26562 z m 0.111106,0.12661 0.0047,0.0481 0.06925,0.80667 z m 8.272228,14.0238 0.0011,0.002 c -0.0013,-0.003 -0.0011,-0.002 0,0.002 l 5.29e-4,0.001 c 2.7e-5,0.001 -0.0016,0.002 -0.0016,0.004 z m 29.011251,8.60126 c 0.01355,0.0237 0.03513,0.0415 0.04444,0.0708 0.02455,0.0773 0.0345,0.18005 0.02945,0.34158 0.0051,-0.16155 -0.0054,-0.26428 -0.02997,-0.34158 -0.0093,-0.0291 -0.03053,-0.0471 -0.04392,-0.0708 z m 83.475694,57.39183 c 3.8332,-3.2751 8.16391,-7.679 11.21585,-11.40499 2.98497,-3.64421 7.14635,-9.3818 9.70122,-13.37489 0.99503,-1.55516 1.52135,-2.37885 1.79576,-2.81999 0.13719,-0.22055 0.21152,-0.34464 0.25166,-0.42116 M 13.100634,184.94784 c -0.123547,-0.002 -0.228301,0.0149 -0.310575,0.0734 -0.0833,0.0592 -0.12686,0.15466 -0.140044,0.26251 -0.0056,0.0462 0.01084,0.0784 0.02119,0.1049 0.01251,0.032 0.02975,0.0715 0.05323,0.11886 0.04674,0.0944 0.116019,0.22111 0.206189,0.38034 0.180403,0.31856 0.44564,0.76523 0.785482,1.32188 0.679665,1.11328 1.655651,2.6655 2.831351,4.49947 1.485761,2.31762 2.482159,3.84758 3.136243,4.80694 0.32704,0.47968 0.56828,0.81696 0.744141,1.03973 0.08791,0.11136 0.159297,0.19422 0.219108,0.25373 0.05849,0.0582 0.105648,0.10144 0.171049,0.11679 0.0437,0.0102 0.09734,0.0117 0.191203,0.016 0.09457,0.004 0.22253,0.009 0.381372,0.0124 0.317573,0.008 0.75647,0.0141 1.285709,0.0191 1.058475,0.01 2.477283,0.0138 4.001307,0.01 2.862371,-0.007 4.326699,-0.0142 5.065842,-0.0811 0.368969,-0.0334 0.562991,-0.0716 0.677476,-0.17621 0.06021,-0.055 0.08537,-0.13112 0.08113,-0.20206 -0.004,-0.0673 -0.02719,-0.12871 -0.05116,-0.1912 -0.01286,-0.0335 -0.03634,-0.0517 -0.04341,-0.0584 -0.01423,-0.0135 -0.03087,-0.0276 -0.05116,-0.0439 -0.0412,-0.0331 -0.09783,-0.0756 -0.170532,-0.12816 -0.145362,-0.10501 -0.35396,-0.24938 -0.617016,-0.42788 -0.52613,-0.35701 -1.271262,-0.85084 -2.163176,-1.43506 -1.783827,-1.16842 -4.155184,-2.69953 -6.533969,-4.22144 -2.378785,-1.52191 -4.765144,-3.03444 -6.578926,-4.16771 -0.906893,-0.56663 -1.670378,-1.03832 -2.218986,-1.36891 -0.274289,-0.16528 -0.494646,-0.29504 -0.65319,-0.38447 -0.07934,-0.0447 -0.14337,-0.0797 -0.19172,-0.10387 -0.02375,-0.0119 -0.04319,-0.0217 -0.06201,-0.0294 -0.0038,-0.002 -0.01306,-0.003 -0.01809,-0.005 l -5.3e-4,-0.0104 z m -0.351405,0.3483 0.09922,0.0124 c 1.45e-4,-0.001 3.71e-4,-0.002 -5.29e-4,0.002 -2.24e-4,7.9e-4 -3.17e-4,0.002 -10e-4,0.004 -7.14e-4,0.002 -0.0047,0.01 -0.0047,0.01 2.5e-5,-4e-5 -0.0073,0.009 -0.0072,0.009 2.5e-5,-3e-5 -0.01656,0.0109 -0.01654,0.0109 2.6e-5,-2e-5 -0.02638,0.003 -0.02635,0.003 2.6e-5,0 -0.0207,-0.008 -0.02067,-0.008 2.7e-5,1e-5 -0.0099,-0.009 -0.0098,-0.009 2.7e-5,3e-5 -0.0042,-0.006 -0.0041,-0.006 3.2e-5,5e-5 -0.0012,-0.002 -0.0021,-0.004 -0.0015,-0.006 -0.0073,-0.0139 -0.0062,-0.0233 z m 19.564346,12.04905 0.0057,5.3e-4 c 0,0 -0.0032,0.0272 -0.0047,0.0398 l -0.0098,0.004 c -0.01098,-0.007 -0.03256,-0.0217 -0.03256,-0.0217 l 0.0036,-0.005 0.01757,-0.0129 0.02016,-0.004 z m 0.02479,0.007 0.0016,0.001 c -1.6e-5,-1e-5 0.0083,0.007 0.0083,0.007 -2.9e-5,-3e-5 0.0019,0.002 0.0031,0.003 2.65e-4,5.3e-4 7.94e-4,8e-4 0.0011,0.001 5.29e-4,0.001 0.0032,0.001 0.0047,0.005 l -0.03669,0.0139 c 0.0073,-0.0126 0.0181,-0.031 0.0181,-0.031 z m -0.0739,0.0346 c 0,0 0.01797,0.003 0.03256,0.006 l -0.03256,0.0124 -0.0011,-0.006 c 2e-6,2e-5 0.0011,-0.0124 0.0011,-0.0124 z m 0.0889,0.26613 c -1.35e-4,1.3e-4 1.32e-4,2.7e-4 0,5.3e-4 -2.65e-4,2.7e-4 -0.0024,2.2e-4 -0.0026,5.3e-4 5.29e-4,-5.3e-4 0.0021,-5.3e-4 0.0026,-10e-4 z m -11.514545,0.1757 c 8.99e-4,2.4e-4 5.29e-4,2.7e-4 0.0016,5.3e-4 0.0041,0.001 0.005,8e-4 0.0072,0.001 -0.0011,-2.3e-4 -0.0062,-2.6e-4 -0.0072,-5.3e-4 -3.97e-4,-9e-5 -0.0011,-0.001 -0.0016,-0.001 z m 17.91619,8.85069 -0.0011,0.0129 c -0.110834,-0.0183 -0.214278,-0.0304 -0.301273,0.006 -0.103825,0.0437 -0.175485,0.13229 -0.237712,0.24856 -0.0078,0.0146 -0.03174,0.0321 -0.06253,0.0744 -0.01781,0.0245 -0.03364,0.0577 -0.03617,0.0977 -0.0026,0.0391 0.0077,0.0763 0.02376,0.11368 0.06415,0.14896 0.242983,0.36168 0.714169,0.86714 0.942617,1.01117 3.053699,3.15305 7.65793,7.84706 2.076474,2.11696 3.282538,3.33365 4.013192,4.02404 0.365332,0.34521 0.611254,0.55862 0.7922,0.68937 0.180882,0.13071 0.303638,0.185 0.417544,0.185 0.02355,-3e-5 0.05772,-0.003 0.118856,-0.007 0.06135,-0.004 0.146283,-0.0111 0.253214,-0.0196 0.213636,-0.0171 0.515462,-0.0421 0.896589,-0.0744 0.762243,-0.0647 1.839925,-0.15853 3.153812,-0.27388 2.627789,-0.23072 6.200664,-0.54876 10.084139,-0.89866 3.883395,-0.34988 7.425899,-0.66804 10.004557,-0.89865 1.331135,-0.11862 2.617446,-0.23433 3.912939,-0.34777 0.09778,-0.009 0.172863,-0.0147 0.224792,-0.0191 0.02614,-0.002 0.04644,-0.004 0.05943,-0.005 0.0057,-5.3e-4 0.01199,-8e-4 0.01654,-0.001 -2.65e-4,-2e-5 -0.0021,-5.3e-4 -0.0021,-5.3e-4 h -0.0031 c 1.8e-5,1e-5 -0.0083,-0.002 -0.0083,-0.002 l -0.0067,-0.003 -0.0052,-0.003 -0.0073,-0.006 -0.0047,-0.0661 0.0072,-0.008 0.0057,-0.004 c -8e-6,0 0.01553,-0.006 0.0155,-0.006 -1.8e-5,0 0.0031,-5.3e-4 0.0031,-5.3e-4 -1.64e-4,2e-5 6.9e-5,6e-5 5.29e-4,0 0.0013,-4e-5 0.0029,-5.3e-4 0.0052,-5.3e-4 v 0.0997 c 5.3e-4,-3e-5 0.0011,2e-5 0.0016,0 0.0024,-1.4e-4 0.0084,-5.3e-4 0.0088,-5.3e-4 2.6e-5,-1e-5 0.0031,-0.001 0.0031,-0.001 1.8e-5,-10e-6 0.0088,-0.003 0.0088,-0.003 l 0.0072,-0.004 0.0052,-0.004 c 0,0 0.0024,-0.003 0.0047,-0.005 0.02814,-0.01 0.05934,-0.0178 0.07648,-0.0325 0.02752,-0.0237 0.05223,-0.0525 0.07596,-0.0858 0.04753,-0.0667 0.09212,-0.15273 0.128157,-0.24753 0.02975,-0.0782 0.07146,-0.15036 0.109037,-0.19792 0.01754,-0.0222 0.03578,-0.0379 0.04909,-0.0475 0.0067,-0.005 0.01175,-0.008 0.01498,-0.01 0.0016,-8e-4 0.0032,-0.002 0.0031,-0.002 -6.9e-5,3e-5 -5.3e-4,10e-6 -0.0021,5.3e-4 -7.94e-4,2.5e-4 -0.0016,0.001 -0.0036,0.002 -0.0011,2.6e-4 -0.0042,5.3e-4 -0.0041,5.3e-4 6e-5,-10e-6 -0.0083,0.001 -0.0083,0.001 0.100906,0 0.183578,-0.0628 0.216008,-0.14624 0.0305,-0.0785 0.02598,-0.16563 0.0052,-0.25063 -0.04164,-0.17021 -0.154492,-0.35403 -0.337446,-0.43253 -0.01082,-0.005 -0.01834,-0.007 -0.02376,-0.008 h -5.29e-4 c -0.0079,-0.002 -0.01741,-0.005 -0.02894,-0.008 v 5.3e-4 c -0.02331,-0.006 -0.05548,-0.0152 -0.09715,-0.0258 -0.08327,-0.0213 -0.203187,-0.0511 -0.357084,-0.0894 -0.30787,-0.0766 -0.752687,-0.18616 -1.315683,-0.32401 -1.125982,-0.27571 -2.723595,-0.66456 -4.639509,-1.12965 -3.831828,-0.93018 -8.93581,-2.16503 -14.078728,-3.40651 -5.14292,-1.24147 -10.325068,-2.48966 -14.313855,-3.44733 -3.988789,-0.95768 -6.774468,-1.623 -7.155635,-1.70429 z m -0.115239,0.11058 c -0.04848,6e-5 -0.111032,-0.0147 -0.14831,10e-4 1.94e-4,-8e-5 2.65e-4,-5.3e-4 5.3e-4,-5.3e-4 0.03715,-0.0157 0.09946,-5.3e-4 0.147793,-5.3e-4 z m -0.181382,0.0367 c -0.05673,0.0358 -0.107874,0.0798 -0.15503,0.16794 -0.01077,0.0201 -0.02326,0.0356 -0.03514,0.0486 -0.01191,0.013 -0.02238,0.0204 -0.03462,0.0372 v 5.2e-4 h -5.29e-4 c 8.4e-5,-1.1e-4 -8.2e-5,-5.2e-4 0,-5.2e-4 0.02132,-0.0293 0.04765,-0.0445 0.06976,-0.0858 0.047,-0.0878 0.09887,-0.13193 0.155546,-0.16794 z m 42.236551,10.07536 c 0.01598,0.004 0.03664,0.009 0.04806,0.0124 0.0089,0.002 0.01484,0.005 0.02066,0.006 -0.0058,-0.002 -0.01175,-0.003 -0.02066,-0.006 -0.01109,-0.003 -0.032,-0.009 -0.04806,-0.0129 z m 0.07545,0.0202 c 0.0024,5.3e-4 0.0026,0.001 0.0036,0.002 5.29e-4,1.5e-4 0.0013,-8e-5 0.0016,0 5.3e-4,1e-4 0.0016,5.3e-4 0.0016,5.3e-4 0.0011,2.6e-4 0.0029,0.001 0.0052,0.002 l -0.01913,0.0444 c -0.0027,-0.004 -0.02687,-0.0387 -0.02687,-0.0387 l 0.0067,-0.004 0.01188,-0.004 0.0052,-5.3e-4 h 0.0011 c -2.1e-5,1e-5 0.0098,1e-5 0.0098,0 -3.5e-5,0 0.0024,2.7e-4 0.0031,5.3e-4 -0.0013,-2.6e-4 -0.0019,-5.3e-4 -0.0036,-0.001 z m -0.0098,0.0543 -0.01757,0.0413 c -5.29e-4,-2e-4 -0.0011,-8e-4 -0.0026,-0.002 -7.94e-4,-5.3e-4 -0.0037,-0.002 -0.0036,-0.002 2.7e-5,2e-5 -0.0098,-0.008 -0.0098,-0.008 0,0 0.02705,-0.0238 0.03359,-0.0295 z m 0.136943,0.60255 c -0.0056,0.003 -0.01119,0.006 -0.0181,0.0114 -0.01982,0.0144 -0.04466,0.0362 -0.06873,0.0667 0.02387,-0.0302 0.04638,-0.0551 0.06718,-0.0708 0.0067,-0.005 0.01334,-0.004 0.01963,-0.007 z m -0.437181,0.52089 c -2.62e-4,0 0.0065,5.3e-4 0.0062,5.3e-4 -6.9e-5,-1e-5 0.0093,0.003 0.0093,0.003 l 0.0098,0.005 c -1.3e-5,-1e-5 0.01447,0.014 0.01447,0.0139 -8e-6,-1e-5 0.0083,0.0274 0.0083,0.0274 0,-1e-5 -0.0052,0.0228 -0.0052,0.0227 6e-6,-10e-6 -0.0046,0.007 -0.0062,0.009 -0.01214,0.009 -0.02307,0.0181 -0.03669,0.0181 z m 66.537858,-72.21321 c -0.17968,0.23376 -0.41206,0.5662 -0.65681,0.94362 -1.84376,2.84303 -4.52066,6.49441 -6.19497,8.45219 -0.17383,0.20326 -0.32678,0.40214 -0.43512,0.56173 -0.0542,0.0798 -0.0969,0.14942 -0.12661,0.20773 l -0.9193,0.84113 m 15.89674,-24.37598 c -0.1088,0.18194 -0.24414,0.43059 -0.38034,0.70383 -0.26927,0.54014 -0.76074,1.47129 -1.08986,2.06447 -0.33094,0.59645 -0.94781,1.74177 -1.37201,2.54765 -0.94133,1.78827 -2.14647,3.91863 -2.69493,4.76508 -0.41718,0.63501 -0.78937,1.28833 -1.16888,1.94611 l -0.85791,1.34244 m 7.56393,-13.36958 2.30653,-3.79569 c 2.30752,-3.84132 4.57515,-8.14214 5.36763,-10.1725 0.35354,-0.90577 0.95042,-3.54043 1.0697,-4.73614 0.11995,-1.20245 0.0241,-2.81886 -0.23513,-3.97547 -0.0372,-0.1662 -0.0642,-0.32783 -0.0775,-0.45837 -0.006,-0.0652 -0.01,-0.12285 -0.009,-0.17105 7e-4,-0.044 10e-5,-0.0897 0.0289,-0.13643 0.0275,-0.0444 0.0648,-0.065 0.10439,-0.0894 0.0427,-0.0264 0.096,-0.055 0.15865,-0.0858 0.12532,-0.0617 0.2871,-0.13104 0.45733,-0.19534 2.21186,-0.83489 5.04953,-3.05202 7.78712,-6.10092 1.71372,-1.9086 2.50214,-2.987319 3.20756,-4.388872 0.36817,-0.73148 0.59506,-1.242812 0.70125,-1.593183 0.0531,-0.175078 0.0754,-0.310075 0.0734,-0.408245 -0.002,-0.09858 -0.0235,-0.156297 -0.0615,-0.202057 -0.0733,-0.08827 -0.13642,-0.132538 -0.19172,-0.145208 -0.0563,-0.01291 -0.11884,-0.0023 -0.21704,0.05839 -0.19513,0.120674 -0.48898,0.443 -0.92088,1.002522 -3.07835,3.988033 -5.01648,6.137623 -6.95255,7.705473 -2.37903,1.92656 -3.75832,2.70506 -5.67562,3.19722 -0.49327,0.12666 -0.82666,0.19396 -1.6955,0.22066 -0.86882,0.0268 -2.28002,0.0147 -4.95836,-0.0139 -6.58046,-0.0703 -8.19876,-0.19325 -9.33431,-0.74311 -0.50597,-0.245 -1.51377,-1.04794 -2.55488,-1.96784 -1.04116,-0.91993 -2.09959,-1.94928 -2.65979,-2.63653 -2.83786,-3.481419 -5.02405,-8.178318 -5.46375,-11.757935 -0.26966,-2.195216 -0.13723,-4.043087 0.40205,-5.484418 0.10718,-0.286467 0.17556,-0.455379 0.26406,-0.559657 0.0453,-0.05339 0.10387,-0.09145 0.17157,-0.09715 0.0657,-0.0056 0.12438,0.01767 0.17828,0.04651 0.13725,0.07345 0.32784,0.224059 0.56017,0.427879 0.2324,0.203885 0.50224,0.459988 0.77825,0.735356 0.55202,0.550749 1.12644,1.178798 1.46709,1.631426 0.287,0.381326 0.47349,0.608634 0.5917,0.714169 0.0589,0.05255 0.10217,0.07213 0.11627,0.07493 0.0105,0.0021 0.0115,0.0013 0.0145,5.29e-4 0.003,-8.7e-4 0.009,-0.0038 0.0212,-0.01394 0.0297,-0.02465 0.058,-0.07467 0.0718,-0.15813 0.0135,-0.08343 0.012,-0.196946 -0.008,-0.33073 -0.0399,-0.267845 -0.15208,-0.618151 -0.33125,-1.004072 -0.11164,-0.240469 -0.54076,-0.788123 -1.03043,-1.324467 -0.48975,-0.536448 -1.04725,-1.07813 -1.4211,-1.357024 l -0.50953,-0.37982 0.56792,-0.55449 0.55449,-0.540534 1.40767,1.372527 c 0.74071,0.722331 1.60762,1.715328 1.94562,2.234488 0.33796,0.519115 0.5417,0.804497 0.66611,0.913638 0.0629,0.05516 0.0921,0.06256 0.11782,0.06046 0.0233,-0.0019 0.0648,-0.02116 0.12402,-0.07028 0.0509,-0.0422 0.077,-0.08528 0.091,-0.166396 0.0138,-0.08004 0.009,-0.196752 -0.0191,-0.355018 -0.14066,-0.793758 -0.70254,-1.634257 -1.97404,-2.905766 -0.31282,-0.313005 -0.74109,-0.698763 -1.07642,-1.183907 -0.017,-0.04044 -0.0285,-0.09226 -0.006,-0.143145 0.0232,-0.05238 0.0713,-0.07683 0.11058,-0.08733 0.0378,-0.01028 0.0753,-0.01188 0.11524,-0.01188 0.26769,0 0.64015,0.106328 1.04438,0.271819 0.40434,0.165534 0.83654,0.392025 1.202,0.641821 0.4384,0.299657 1.2629,1.045512 2.12958,1.891874 0.86671,0.846386 1.76839,1.789385 2.34094,2.473233 0.51473,0.614772 1.25709,1.657905 1.66037,2.333709 l 0.75706,1.26814 -0.44132,0.686779 c -0.25487,0.397166 -0.50717,0.945497 -0.69401,1.474846 -0.18682,0.52927 -0.30651,1.045461 -0.30851,1.35909 -0.002,0.327774 0.0811,0.588415 0.22789,0.761709 v 5.3e-4 l 0.17829,0.210838 0.1788,-0.211873 c 0.0561,-0.06627 0.14474,-0.220541 0.22634,-0.400492 0.0817,-0.180128 0.1609,-0.389998 0.216,-0.581361 0.11654,-0.404471 0.37081,-1.046363 0.57206,-1.447456 0.1709,-0.34059 0.30064,-0.557051 0.61909,-0.829924 0.31823,-0.272698 0.82118,-0.607033 1.76268,-1.221113 0.54754,-0.357124 1.08034,-0.697484 1.49758,-0.958598 0.20864,-0.130567 0.38829,-0.241298 0.5271,-0.324528 0.13872,-0.08317 0.23201,-0.137263 0.28681,-0.162263 0.0787,-0.03587 0.15117,-0.07889 0.19947,-0.11524 0.0151,-0.01141 0.022,-0.01942 0.032,-0.02842 -0.0119,-0.0147 -0.0239,-0.02975 -0.0444,-0.05168 -0.0551,-0.05892 -0.13802,-0.139668 -0.2403,-0.234608 -0.20454,-0.189863 -0.48733,-0.437515 -0.79633,-0.698151 -0.61802,-0.521266 -1.34277,-1.096775 -1.74925,-1.370976 -1.09795,-0.740624 -3.52815,-2.16404 -4.67517,-2.73885 -3.75011,-1.879314 -9.03928,-3.611028 -14.09733,-4.613156 -5.08442,-1.007348 -7.6401,-1.27095 -13.02814,-1.34307 l -4.36253,-0.05839 -2.07532,1.281575 c -6.03703,3.727897 -10.55228,5.938351 -15.041982,7.360791 -4.263316,1.350732 -9.647836,1.652656 -13.917496,0.779798 -1.608611,-0.328845 -2.316015,-0.564856 -3.46904,-1.158071 -2.495063,-1.283673 -3.856834,-3.381443 -4.460711,-6.850226 -0.294814,-1.693476 -0.190941,-4.048485 0.243914,-5.286499 0.675164,-1.922167 0.993003,-2.397287 3.404444,-5.059122 2.916331,-3.219167 3.947266,-4.905799 5.816698,-9.519317 0.901613,-2.225066 1.830928,-3.975018 3.287139,-6.190836 0.643959,-0.979866 1.319678,-2.017316 1.498616,-2.300118 0.653131,-1.032227 2.429184,-2.766978 3.612181,-3.534667 1.355294,-0.87948 4.055007,-2.134976 6.529316,-3.040642 0.979861,-0.358653 2.240021,-0.824018 2.799311,-1.034044 1.54907,-0.581727 2.9895,-0.779865 6.18774,-0.855245 l -6.4e-4,0.0012 c 0.003,-7.4e-5 0.0115,7.2e-5 0.0145,0 2.14767,-0.04995 7.23182,0.06383 12.10158,0.231511 4.87677,0.16792 9.5174,0.387741 10.77764,0.557072 6.28798,0.844854 10.02597,1.484823 14.63373,2.503723 11.79566,2.608358 20.21677,5.548889 29.33826,10.245885 4.78099,2.461914 9.91301,5.653791 13.46895,8.378815 0.34951,0.26785 0.95126,0.723945 1.33584,1.011824 3.82439,2.862906 8.47391,7.546499 11.35847,11.442198 1.61858,2.18594 2.05614,2.828443 3.08457,4.526854 3.05117,5.038868 5.03715,10.128887 6.51847,16.703889 3.29115,14.60821 1.3646,31.31815 -5.50406,47.80173 -1.73138,4.15501 -4.13669,9.14667 -6.04253,12.53877 -0.36922,0.65717 -0.58265,1.02475 -0.75654,1.24179 l -1.70081,2.96774"
       id="path857-6"
       sodipodi:nodetypes="ccccccsssssccscsssssscsssssssccsscccccccccsccsssccccccccsscccccccsssssscsssssccssssssssssssccsssssssccsssssscscccccscccssssscscccssccscccccssccsccsssssssssssssccsssssccsscsccsccsscccccsssssscsccccccsscccssscccssssccccscccsssssssccssscsssssccsssscccsccssssscccccccssssssscccsssscsccccsssscsscccsccscsscccsssscsssssssssscscccsssccccsssccssccssccccssssscscsssssssscsssssscsscscccsccsssssscccccssssssssccsccssssssccccccccccccccsccccccccssccccscccccscscsccccccccsccccccsscccssccccsscsscccscsssscccssssscccscccccssssssccccccssccsscsscccccscccccccssccssccccscsssssscccscssscsscssssscscccscssscssscsccccsccccccccccccccccccccccccccscccscccsssccssssssccssssccccccccccccsccccssccccccsssccsscsccsccccccsssssccssccssccccccssccccccccccccccccccscccccssccccccsccccscsccc" />
    <path
       style="fill:none;stroke:#ff0000;stroke-width:0.1;stroke-linecap:butt;stroke-linejoin:miter;stroke-opacity:1;stroke-miterlimit:4;stroke-dasharray:none"
       d="m 174.07751,191.16278 -3.87691,2.95732"
       id="path1498" />
  </g>
</svg>
