<?xml version="1.0" encoding="UTF-8" standalone="no"?>
<!-- Created with Inkscape (http://www.inkscape.org/) -->

<svg
   xmlns:dc="http://purl.org/dc/elements/1.1/"
   xmlns:cc="http://creativecommons.org/ns#"
   xmlns:rdf="http://www.w3.org/1999/02/22-rdf-syntax-ns#"
   xmlns:svg="http://www.w3.org/2000/svg"
   xmlns="http://www.w3.org/2000/svg"
   xmlns:xlink="http://www.w3.org/1999/xlink"
   xmlns:sodipodi="http://sodipodi.sourceforge.net/DTD/sodipodi-0.dtd"
   xmlns:inkscape="http://www.inkscape.org/namespaces/inkscape"
   width="210mm"
   height="297mm"
   viewBox="0 0 210 297"
   version="1.1"
   id="svg2084"
   inkscape:version="0.92.5 (2060ec1f9f, 2020-04-08)"
   sodipodi:docname="plaquette_mini.svg">
  <defs
     id="defs2078">
    <clipPath
       clipPathUnits="userSpaceOnUse"
       id="clipPath114">
      <rect
         style="fill:none;stroke:#000000;stroke-width:0.37795299"
         id="rect116"
         width="559.78479"
         height="282.80099"
         x="-20.565874"
         y="-16.214108" />
    </clipPath>
  </defs>
  <sodipodi:namedview
     id="base"
     pagecolor="#ffffff"
     bordercolor="#666666"
     borderopacity="1.0"
     inkscape:pageopacity="0.0"
     inkscape:pageshadow="2"
     inkscape:zoom="0.98994949"
     inkscape:cx="-37.142676"
     inkscape:cy="656.99217"
     inkscape:document-units="mm"
     inkscape:current-layer="layer1"
     showgrid="false"
     inkscape:window-width="2416"
     inkscape:window-height="1472"
     inkscape:window-x="144"
     inkscape:window-y="54"
     inkscape:window-maximized="1" />
  <metadata
     id="metadata2081">
    <rdf:RDF>
      <cc:Work
         rdf:about="">
        <dc:format>image/svg+xml</dc:format>
        <dc:type
           rdf:resource="http://purl.org/dc/dcmitype/StillImage" />
        <dc:title></dc:title>
      </cc:Work>
    </rdf:RDF>
  </metadata>
  <g
     inkscape:label="Calque 1"
     inkscape:groupmode="layer"
     id="layer1">
    <rect
       style="fill:none;stroke:#ff0000;stroke-width:0.04969758;stroke-miterlimit:4;stroke-dasharray:none"
       id="rect1000"
       width="139.9503"
       height="219.9503"
       x="11.812406"
       y="40.785519"
       rx="4.7145333"
       ry="5.2387996" />
    <path
       inkscape:connector-curvature="0"
       style="fill:none;stroke:#000000;stroke-width:0.04714619;stroke-linecap:butt;stroke-linejoin:miter;stroke-miterlimit:4;stroke-dasharray:none;stroke-opacity:1"
       d="m 103.30323,96.507051 0.0673,0.09911"
       id="path1862" />
    <path
       inkscape:connector-curvature="0"
       style="fill:none;stroke:#000000;stroke-width:0.04714619;stroke-linecap:butt;stroke-linejoin:miter;stroke-miterlimit:4;stroke-dasharray:none;stroke-opacity:1"
       d="m 115.52098,95.992775 -0.15733,-0.0042"
       id="path1864" />
    <g
       id="g1191"
       transform="matrix(0.16632128,0,0,0.16632128,38.761472,173.87546)"
       style="fill:#00ff00;fill-opacity:1;stroke:none;stroke-width:0.28346458;stroke-miterlimit:4;stroke-dasharray:none">
      <g
         id="g1193"
         style="fill:#00ff00;fill-opacity:1;stroke:none;stroke-width:0.28346458;stroke-miterlimit:4;stroke-dasharray:none">
        <path
           inkscape:connector-curvature="0"
           d="M 103.734,9.629 C 101.43,9.668 99.074,9.934 96.699,10.441 70.633,16 63.184,46.406 79.301,63.184 H 63.816 C 61.348,57.41 58.043,49.699 53.941,40.152 L 41.121,10.34 28.223,10.379 15.473,40.086 C 8.461,56.422 2.48,70.422 2.188,71.191 1.684,72.496 2.121,72.59 8.629,72.59 h 6.984 l 5.758,-14.25 h 13.363 c 7.422,0 13.364,0.301 13.364,0.676 0,0.371 1.214,3.578 2.703,7.125 L 53.5,72.59 h 5.105 v 0.004 h 37.254 c 1.598,0.301 3.422,0.449 6.125,0.578 6.45,0.305 7.852,0.125 12.864,-1.656 8.64,-3.075 8.336,-3.071 11.211,-0.098 1.421,1.473 2.812,2.676 3.093,2.676 0.149,0 0.789,-0.586 1.688,-1.5 h 8.777 v 18 h -10.289 l -9.59,26.812 c -5.277,14.746 -10.89,30.442 -12.48,34.875 l -2.887,8.063 15.93,-0.004 15.922,-0.004 8.386,-23.477 h 12.356 c -4.078,11.368 -7.649,21.286 -8,22.172 -0.492,1.227 0.535,1.309 15.492,1.305 l 16.016,-0.008 12.215,-34.305 c 3.964,-11.128 7.332,-20.691 9.558,-27.105 h 16.684 c -0.598,4.562 -0.582,12.961 -0.582,29.887 v 30.789 h 8.214 l 0.208,-12.938 0.203,-12.937 3.347,-1.688 c 1.84,-0.929 3.891,-1.687 4.551,-1.687 0.891,0 2.559,3.836 6.363,14.625 l 5.157,14.625 h 8.668 l -0.196,-0.547 h 15.231 c 0.785,0.211 1.601,0.387 2.468,0.508 8.606,1.191 16.672,-1.102 19.356,-5.5 1.332,-2.18 1.426,-4.137 1.426,-29.336 0,-14.106 -0.032,-20.781 -0.285,-24.426 h 10.039 v 59.453 l 12.597,-0.266 c 9.309,-0.195 13.008,-0.449 15.313,-1.988 h 19.359 c 1.762,1.012 3.895,1.742 6.211,2.067 8.399,1.16 16.418,-1.071 19.606,-5.457 1.488,-2.043 1.539,-3.075 1.539,-29.383 0,-16.242 0.07,-23.649 -0.856,-27.524 h 8.731 v 0.149 h 12 v 62.25 h 8.25 v -62.25 h 12 v -0.016 h 6.75 v 62.266 h 29.816 c 11.895,1.539 20.426,-2.895 20.434,-10.688 v -2.812 h -4.075 c -3.886,0 -4.085,0.094 -4.312,2.062 -0.52,4.516 -10.598,6.282 -14.363,2.52 -1.598,-1.602 -1.625,-2 -1.625,-25.957 0,-24.324 0.004,-24.336 1.711,-26.043 1.418,-1.418 2.511,-1.707 6.484,-1.707 5.348,0 7.93,1.504 7.93,4.613 0,1.633 0.3,1.762 4.125,1.762 h 4.125 v -2.098 h 7.144 c -0.105,1.66 -0.172,3.809 -0.234,6.836 -0.313,15.359 0.812,17.004 14.668,21.5 4.066,1.32 7.879,3.043 8.609,3.895 1.039,1.211 1.313,2.933 1.313,8.25 0,7.691 -0.539,9.136 -3.844,10.289 -5.656,1.968 -11.621,0.187 -12.399,-3.707 -0.429,-2.133 -0.597,-2.215 -4.574,-2.215 h -4.129 l 0.418,3.121 c 0.766,5.699 4.969,9.34 11.992,10.375 2.153,0.32 4.754,0.469 5.786,0.332 7.343,-0.973 8.332,-1.324 11.41,-4.055 l 3.215,-2.847 0.25,-9.532 c 0.375,-14.308 -0.836,-16.078 -14.231,-20.734 -4.683,-1.629 -8.941,-3.52 -9.457,-4.203 -0.98,-1.305 -1.363,-16.231 -0.473,-18.551 1.2,-3.117 7.868,-4.332 12.7,-2.316 1.941,0.812 2.73,1.675 3.07,3.375 0.438,2.207 0.594,2.285 4.484,2.285 4.008,0 4.032,-0.016 4.032,-2.324 0,-8.208 -9.289,-13.122 -21.18,-11.208 -4.008,0.649 -6.356,1.692 -8.469,3.887 h -12.836 c -2.679,-2.668 -7.254,-4.125 -13.429,-4.14 -4.934,-0.012 -6.715,0.32 -9.711,1.82 -7.016,3.512 -6.75,2.195 -6.75,33.34 0,20.793 0.031,25.758 0.781,27.933 H 432.848 V 90.594 H 388.75 v -0.09 h -19.754 c -2.035,-0.762 -3.945,-0.949 -7.746,-0.926 -7.461,0.047 -12.367,1.945 -14.629,5.652 -1.445,2.372 -1.516,3.711 -1.519,28.95 -0.004,14.238 0.105,21.527 0.433,25.398 h -10.371 c 0.125,-1.941 0.109,-4.793 0.024,-9.598 -0.184,-10.066 -0.407,-11.949 -1.567,-13.226 -1.305,-1.442 -1.301,-1.582 0.184,-4.016 1.371,-2.246 1.539,-3.75 1.539,-13.769 0,-9.84 -0.184,-11.555 -1.465,-13.653 -2.574,-4.222 -4.527,-4.722 -18.367,-4.722 h -12.414 v 1.105 h -15.172 c -2.625,-1.379 -6.203,-2.09 -10.731,-2.121 -4.972,-0.031 -6.707,0.293 -9.722,1.801 -7.016,3.512 -6.75,2.195 -6.75,33.34 0,21.781 0.031,26.207 0.89,28.234 h -8.902 l -1.832,-5.172 c -7.434,-21.015 -7.34,-20.711 -6.371,-21.031 0.492,-0.164 1.851,-1.105 3.015,-2.086 3.172,-2.668 4.059,-6.976 3.696,-17.914 -0.36,-10.785 -1.035,-12.332 -6.664,-15.27 -2.961,-1.542 -4.164,-1.71 -10.832,-1.488 -6.172,0.207 -7.911,0.531 -10.215,1.93 h -18.863 c 0.144,-0.442 0.234,-0.731 0.23,-0.766 -0.027,-0.554 -31.527,-0.832 -31.527,-0.277 0,0.144 -5.946,16.836 -11.977,33.687 h -12.359 c 4.453,-12.453 9.152,-25.578 10.097,-28.16 l 2.133,-5.812 h -11.875 v -18 h 18.281 c 2.473,0.461 5.653,0.629 9.614,0.488 2.734,-0.098 4.558,-0.223 6.101,-0.488 h 47.735 V 23.023 h 11.25 v 0.071 h 18.75 v 49.5 h 44.082 l 2.898,-7.114 2.895,-7.117 13.187,-0.008 13.188,-0.011 2.82,7.125 2.816,7.125 h 38.114 V 21.488 h 15.75 v 51.106 h 13.476 l 0.199,-19.606 0.2,-19.601 30,39.14 5.812,0.032 5.813,0.035 h 63 v -12 h -34.5 v -13.5 h 30 v -12 h -30 v -12 h 33.75 v -12.75 h -47.25 v 50.91 h -15 v -50.91 h -13.5 l -0.024,18.937 -0.027,18.938 -2.41,-2.949 c -2.36,-2.883 -11.016,-14.106 -21.594,-27.989 l -5.285,-6.937 h -41.91 V 62.34 H 353 c -6.688,-15.77 -19.492,-45.637 -21.465,-49.961 -0.945,-2.078 -0.992,-2.09 -7.367,-1.875 l -6.414,0.215 -11.496,26.625 c -4.985,11.543 -9.039,20.988 -11.313,26.332 H 275.348 V 23.094 h 18.75 v -12.75 h -76.5 v 53.078 h -19.711 c 0.828,-1.234 1.601,-2.649 2.394,-4.328 1.934,-4.106 1.946,-4.223 2.18,-26.438 l 0.238,-22.312 h -13.511 l -0.235,20.812 c -0.211,19.227 -0.344,21.004 -1.73,23.36 -2.696,4.578 -4.989,5.703 -11.625,5.703 -6.844,0 -9.164,-1.211 -11.625,-6.051 -1.371,-2.699 -1.52,-4.691 -1.719,-23.387 l -0.223,-20.437 h -13.433 v 20.863 c 0,16.855 0.23,21.633 1.191,24.863 0.836,2.821 1.949,5.258 3.359,7.352 H 136.613 L 134.922,62 l -3.086,-2.594 2.039,-4.176 c 2.832,-5.785 3.945,-13.023 2.883,-18.734 C 133.719,20.152 119.883,9.355 103.734,9.629 Z m 0.403,12.73 c 10.718,0.039 18.476,8.25 18.375,19.45 -0.024,2.699 -0.348,5.714 -0.723,6.703 -0.664,1.761 -0.766,1.711 -5.828,-2.879 l -5.152,-4.668 -4.329,4.75 -4.32,4.754 2.414,2.25 c 1.324,1.238 3.547,3.191 4.938,4.343 1.39,1.149 2.355,2.262 2.148,2.465 -0.203,0.207 -2.019,0.629 -4.031,0.942 -12.488,1.933 -22.27,-6.426 -22.277,-19.043 -0.004,-4.426 0.355,-5.949 2.164,-9.281 3.55,-6.52 9.144,-9.813 16.621,-9.786 z m -69.563,5.235 c 0.258,0 2.199,4.218 4.321,9.375 l 3.851,9.375 H 26.328 l 1.192,-2.813 c 0.652,-1.547 2.402,-5.765 3.886,-9.375 1.485,-3.609 2.91,-6.562 3.168,-6.562 z m 289.559,0 c 0.254,0 2.183,4.218 4.289,9.375 l 3.832,9.375 h -16.262 l 3.84,-9.375 c 2.113,-5.157 4.047,-9.375 4.301,-9.375 z m -48.981,69.027 c 0.68,-0.004 1.512,0.051 2.586,0.129 7.637,0.551 7.36,-0.492 7.36,27.727 0,14.195 -0.297,24.523 -0.735,25.335 -0.402,0.754 -1.801,1.747 -3.109,2.204 -4.703,1.636 -9.352,0.711 -11.449,-2.286 -1.047,-1.492 -1.207,-4.851 -1.207,-25.238 v -23.515 l 2.281,-2.282 c 1.609,-1.605 2.242,-2.074 4.273,-2.074 z m -40.148,0.067 c 2.656,0.089 5.25,0.992 6.562,2.66 1.309,1.664 1.532,3.031 1.532,9.394 0,6.11 -0.516,9.176 -1.832,10.895 -0.071,0.09 -3.399,1.351 -7.395,2.797 l -7.273,2.632 v -12.363 c 0,-11.242 0.132,-12.492 1.461,-13.82 1.57,-1.571 4.289,-2.285 6.945,-2.195 z m 126.391,0.152 c 2.617,0.058 5.214,0.68 6.371,1.836 1.707,1.707 1.707,1.719 1.707,26.043 0,24.039 -0.02,24.351 -1.641,25.976 -1.191,1.188 -2.742,1.707 -5.625,1.875 -4.289,0.254 -5.508,-0.043 -7.547,-1.816 -1.199,-1.047 -1.312,-3.266 -1.312,-26.035 0,-24.356 0.035,-24.926 1.578,-26.324 1.222,-1.102 3.851,-1.61 6.469,-1.555 z m -50.797,0.504 h 7.007 c 9.485,0 9.493,0.011 9.493,11.851 0,8.993 -0.024,9.129 -1.953,10.395 -1.309,0.855 -4.043,1.39 -8.25,1.609 l -6.297,0.332 z m 0,31.5 h 6.273 c 5.211,0 6.609,0.261 8.25,1.554 1.938,1.524 1.977,1.735 1.977,10.446 0,8.711 -0.039,8.922 -1.977,10.445 -1.641,1.289 -3.039,1.555 -8.25,1.555 h -6.273 z"
           style="fill:#00ff00;fill-opacity:1;stroke:none;stroke-width:0.28346458;stroke-linecap:butt;stroke-linejoin:miter;stroke-miterlimit:4;stroke-dasharray:none;stroke-opacity:1"
           id="path1195" />
      </g>
    </g>
    <g
       id="g2148"
       style="fill:#00ff00;fill-opacity:1;stroke-width:0.1;stroke-miterlimit:4;stroke-dasharray:none"
       transform="matrix(0.47146192,0,0,0.47146192,-15.22295,7.922377)">
      <g
         id="g1175"
         transform="matrix(0.16926474,0,0,0.16926474,211.70013,100.62815)"
         style="fill:#00ff00;fill-opacity:1;stroke:none;stroke-width:0.59079051;stroke-miterlimit:4;stroke-dasharray:none">
        <g
           id="g1177"
           style="fill:#00ff00;fill-opacity:1;stroke:none;stroke-width:0.59079051;stroke-miterlimit:4;stroke-dasharray:none">
          <path
             inkscape:connector-curvature="0"
             d="m 494.848,19.375 -3.555,64.809 c -1.953,35.644 -3.656,67.39 -3.781,70.55 -0.192,4.793 -5.633,-5.027 -32.957,-59.48 -18,-35.867 -32.965,-65.215 -33.254,-65.215 -1.559,0 -15.875,5.336 -15.875,5.918 0,0.379 5.148,10.965 11.441,23.527 7.395,14.758 16.973,38.52 27.074,67.149 8.594,24.371 15.629,44.722 15.629,45.23 0,4.219 -12.011,-5.715 -59.89,-49.535 -30.321,-27.746 -56.012,-50.625 -57.094,-50.84 -1.082,-0.211 -5.168,2.395 -9.078,5.789 l -7.113,6.172 31.722,35.102 c 41.883,46.336 44.317,49.195 39.106,45.863 -2.254,-1.441 -23.989,-15.039 -48.293,-30.219 l -44.196,-27.597 -5.625,6.429 c -10.347,11.821 -14.101,18.442 -11.929,21.055 1.593,1.922 1.359,2.191 -1.289,1.5 -2.09,-0.547 -3.817,0.234 -4.868,2.199 -1.449,2.711 0.813,4.297 20.422,14.324 12.129,6.2 21.844,11.43 21.59,11.625 -0.258,0.192 -12.527,-0.48 -27.269,-1.492 -25.164,-1.726 -26.899,-1.656 -28.379,1.106 -0.864,1.617 -1.196,3.554 -0.735,4.301 0.465,0.746 16.762,2.32 36.223,3.496 l 35.379,2.136 18.25,13.672 c 20.316,15.223 21.121,15.895 17.699,14.688 -4.008,-1.407 -113.48,-22.524 -113.953,-21.981 -0.242,0.282 -0.922,2.074 -1.508,3.989 -1.035,3.371 1.074,3.902 66.137,16.679 l 67.207,13.199 11.016,8.34 c 6.062,4.59 11.46,8.317 12.003,8.285 0.543,-0.035 4.11,-4.648 7.926,-10.257 1.524,-2.235 2.809,-3.989 3.723,-5.465 v 28.816 h -0.152 v 7 h 0.152 v 46.32 h -34.965 c -0.637,-0.89 -1.258,-1.773 -1.949,-2.722 -4.059,-5.582 -7.383,-10.606 -7.383,-11.164 0,-0.559 2.953,-4.973 6.563,-9.813 3.609,-4.836 6.562,-9.031 6.562,-9.32 0,-0.285 -2.77,-0.52 -6.152,-0.512 -5.192,0.012 -6.766,0.914 -10.078,5.778 l -3.93,5.765 -3.926,-5.777 c -2.297,-3.383 -3.687,-4.828 -6.117,-5.41 v -0.41 h -23.492 v 0.043 h -3.731 v 13.582 c 0,15.035 -2.457,20.871 -8.789,20.871 -6.426,0 -7.617,-3 -7.617,-19.196 V 263.02 h -11.484 v 15.179 c 0.004,8.746 0.769,15.227 2.402,19.75 h -8.359 c -0.371,-0.465 -0.84,-0.844 -1.426,-1.066 -1.922,-0.738 -2.461,-4.008 -2.461,-14.906 0,-12.915 -0.293,-14.153 -3.93,-16.532 -7.871,-5.16 -19.121,-4.465 -26.019,-0.187 h -21.336 v 0.074 c -4.907,-3.531 -11.469,-4.613 -18.313,-2.355 -8.656,2.855 -13.144,10.199 -13.207,21.593 -0.035,5.926 1.063,10.512 3.379,13.981 h -12.453 v -51.938 h -4.926 c -4.914,0 -4.922,0.016 -4.922,9.719 v 9.719 l -5.062,-2.528 c -6.645,-3.316 -15.699,-1.816 -20.988,3.477 -3.207,3.203 -4.235,6.203 -4.801,14 -0.563,7.777 0.402,13.652 3.011,17.844 h -19.793 l 0.297,-7.051 c 0.637,-15.301 2.782,-19.34 10.274,-19.34 3.73,0 4.25,-0.672 4.25,-5.535 0,-6.316 -2.25,-7.004 -9.926,-3.035 -2.777,1.433 -4.844,1.785 -4.844,0.82 0,-0.926 -2.215,-1.683 -4.922,-1.683 h -4.921 v 0.394 h -21.215 c -5.953,-2.637 -13.059,-2.633 -19.301,1.176 -8.52,5.191 -10.844,10.148 -10.027,21.39 0.261,3.614 0.882,6.672 1.886,9.258 h -9.738 c 2.328,-6.582 0.223,-16.496 -5.133,-19.652 -2.015,-1.188 -1.996,-1.758 0.113,-4.102 7.2,-7.988 3.665,-20.214 -6.734,-23.269 -3.379,-0.992 -12.789,-1.574 -20.91,-1.293 l -14.766,0.512 -0.449,29.125 -0.449,29.121 h 0.898 v 27.07 l -0.461,21.242 c -0.254,11.684 -0.086,22.231 0.379,23.438 0.02,0.05 0.055,0.097 0.082,0.148 v 14.238 l -0.461,21.243 c -0.254,11.683 -0.093,22.207 0.36,23.382 0.449,1.176 3.027,2.137 5.726,2.137 h 4.907 l 0.476,-13.539 0.477,-13.535 4.648,13.535 c 4.266,12.434 5.004,13.539 9.043,13.539 4.067,0 4.774,-1.098 9.301,-14.359 l 4.898,-14.356 0.477,14.356 0.473,14.359 h 9.718 V 400.43 h 17.184 l -5.238,13.535 c -4.711,12.183 -8.59,22.703 -8.618,23.383 -0.027,0.675 2.465,1.23 5.536,1.23 4.726,0 5.843,-0.754 7.296,-4.922 1.594,-4.578 2.29,-4.926 9.844,-4.926 7.555,0 8.25,0.348 9.844,4.926 1.473,4.223 2.543,4.922 7.543,4.922 0.391,0 0.734,-0.012 1.101,-0.016 v 0.016 h 22.778 V 400.84 h 6.562 c 2.618,0 4.184,-0.051 5.133,-0.457 h 5.344 l -0.274,12.676 c -0.253,11.683 -0.093,22.207 0.356,23.382 0.453,1.176 3.031,2.137 5.73,2.137 h 4.907 l 0.476,-13.539 0.477,-13.535 4.648,13.535 c 4.285,12.484 4.992,13.539 9.094,13.539 4.129,0 4.797,-1.031 9.301,-14.359 l 4.851,-14.356 0.473,14.356 0.473,14.359 h 17.921 v 0.11 l 4.215,-0.11 h 1.5 v -0.039 l 11.922,-0.316 c 17.594,-0.465 17.637,-0.477 17.637,-4.567 0,-3.953 -0.43,-4.121 -11.895,-4.586 l -11.894,-0.48 v -9.703 h 21.328 v -9.844 h -10.664 c -10.281,0 -10.664,-0.148 -10.664,-4.102 0,-3.984 0.328,-4.101 11.484,-4.101 h 20.059 c -8.696,13.117 -2.184,33.39 12.168,37.691 6.285,1.883 5.554,1.883 12.379,-0.011 0.379,-0.106 0.761,-0.239 1.144,-0.375 h 16.227 c 1.031,0.261 2.586,0.433 4.344,0.433 4.898,0 5.746,-0.625 6.691,-4.922 1.035,-4.718 1.445,-4.926 9.816,-4.926 8.227,0 8.832,0.29 10.446,4.926 1.402,4.02 2.636,4.922 6.726,4.922 2.918,0 5,-0.855 4.992,-2.051 -0.011,-1.129 -3.625,-11.648 -8.035,-23.382 -7.965,-21.18 -8.058,-21.333 -13.519,-21.805 l -5.504,-0.473 -8.613,22.699 c -2.403,6.332 -4.571,12.176 -6.137,16.52 h -7.047 c 1.793,-2.43 2.93,-5 2.93,-7.223 0,-3.308 -0.813,-3.976 -4.832,-3.976 -3.657,0 -5.36,1.097 -6.985,4.511 -2.98,6.247 -12.875,7.293 -16.742,1.778 -3.336,-4.77 -3.371,-15.961 -0.062,-20.688 3.703,-5.289 12.867,-5.035 16.464,0.453 1.84,2.805 4.184,4.102 7.422,4.102 6.453,0 6.278,-5.043 -0.265,-11.863 h 1.578 v -17.758 l 0.551,-0.004 c 15.125,-0.117 22.699,-2.664 25.531,-8.578 2.422,-5.063 1.371,-13.016 -2.098,-15.895 -1.828,-1.519 -1.808,-2.597 0.133,-6.492 2.75,-5.508 0.965,-12.004 -4.02,-14.734 v -26.688 c 2.196,-0.043 4.071,-0.711 6.704,-2.086 2.484,-1.293 4.511,-1.66 4.511,-0.808 0,0.847 2.215,1.543 4.922,1.543 H 348 v -35.473 h 11.383 l 2.179,3.066 7.286,10.254 -7.141,9.762 c -3.93,5.367 -7.145,10.352 -7.145,11.074 0,0.723 2.5,1.317 5.551,1.317 4.785,0 6.223,-1.035 10.434,-7.512 l 4.887,-7.508 4.742,7.508 c 3.441,5.449 4.836,6.996 8.164,7.387 v 0.086 h 1.262 c 0.464,0.019 0.929,0.035 1.468,0.035 0.469,0 0.887,-0.024 1.328,-0.035 h 34.356 v 0.039 h 14.844 l -0.446,-29.121 -0.324,-21.063 h 9.594 l -0.324,21.063 -0.45,29.121 h 14.731 l 0.465,-16.817 0.468,-16.82 10.403,16.82 10.402,16.817 v 49.574 c -2.012,-0.227 -4.262,-0.352 -6.66,-0.352 h -5.953 l -34.254,56.66 c -18.84,31.168 -34.527,56.391 -34.859,56.059 -0.336,-0.336 9.273,-28.234 21.355,-61.996 20.195,-56.445 21.758,-61.625 19.402,-64.301 -1.41,-1.601 -3.156,-2.316 -3.878,-1.594 -1.172,1.172 -55.532,151.883 -55.532,153.961 0,0.754 17.184,8.875 18.774,8.875 0.351,0 16.258,-25.843 35.347,-57.425 19.09,-31.586 34.844,-57.426 35.004,-57.426 0.16,-0.004 -1.254,28.976 -3.144,64.398 -1.891,35.418 -3.137,64.953 -2.774,65.629 0.364,0.676 4.219,1.231 8.567,1.231 7.535,0 7.945,-0.239 8.926,-5.129 0.562,-2.821 1.027,-10.52 1.027,-17.114 0,-7.722 4.086,-34.507 11.484,-75.265 4.696,-25.887 8.742,-48.59 10.516,-58.942 h 17.305 c 3.367,10.473 11.375,35.493 22.355,69.899 19.984,62.633 25.004,76.703 27.348,76.707 1.578,0 2.871,-0.875 2.871,-1.938 0,-1.898 -36.77,-117.425 -47.242,-148.875 l 16.265,-12.961 -0.414,-0.519 c 0.395,-0.02 0.738,-0.024 1.145,-0.043 l 10.773,-0.559 34.473,67.676 34.472,67.672 7.231,-4.977 7.234,-4.976 -20.488,-40.957 c -11.27,-22.527 -20.207,-40.957 -19.859,-40.957 0.351,0 4.863,4.984 10.031,11.074 5.168,6.09 12.457,14.399 16.203,18.457 3.742,4.063 12.27,13.66 18.953,21.332 6.68,7.668 12.625,14.145 13.211,14.387 0.586,0.246 3.941,-2.043 7.457,-5.082 l 6.395,-5.528 -6.493,-7.464 c -3.57,-4.106 -11.476,-12.977 -17.566,-19.711 -6.09,-6.739 -11.074,-12.758 -11.074,-13.379 0,-0.625 9.273,5.918 20.605,14.539 11.332,8.621 21.239,15.676 22.012,15.676 0.773,0 3.695,-2.891 6.492,-6.426 l 5.086,-6.422 -51.75,-39.016 c -32.832,-24.757 -50.988,-39.437 -49.66,-40.156 1.152,-0.629 8.062,-1.656 15.363,-2.289 l 13.266,-1.148 22.828,20.945 c 12.555,11.523 30.418,27.945 39.695,36.492 15.946,14.695 16.992,15.371 19.227,12.422 1.297,-1.715 2.371,-3.484 2.387,-3.938 0.015,-0.453 -16.231,-15.578 -36.106,-33.613 -19.871,-18.039 -35.367,-33.051 -34.434,-33.359 0.934,-0.313 19.54,10.539 41.348,24.109 l 39.649,24.672 3.632,-7.719 c 2.684,-5.699 3.149,-8.187 1.786,-9.488 -1.02,-0.973 -13.481,-8.957 -27.692,-17.746 -14.215,-8.793 -25.844,-16.524 -25.844,-17.184 0,-0.66 7.747,-2.062 17.215,-3.121 16.461,-1.84 17.824,-1.746 31.199,2.129 16.454,4.766 18.18,4.895 19.508,1.442 1.414,-3.688 0.168,-5.02 -5.804,-6.215 -2.868,-0.575 -4.864,-1.395 -4.434,-1.825 0.43,-0.429 3.121,-0.109 5.98,0.711 6.067,1.743 6.575,1.184 7.93,-8.707 0.985,-7.16 0.844,-7.48 -3.703,-8.601 -2.598,-0.645 -38.316,-9.797 -79.375,-20.344 L 597.996,272.605 V 253.91 c 12.555,2.676 33.32,6.774 68.305,13.688 41.058,8.113 75.258,14.832 75.992,14.929 0.738,0.102 1.105,-1.816 0.82,-4.257 -0.508,-4.348 -1.027,-4.543 -23.488,-8.915 -107.133,-20.851 -136.363,-26.753 -137.559,-27.769 -3.48,-2.969 19.856,-6.809 85.539,-14.078 l 71.036,-7.863 -0.485,-4.157 c -0.386,-3.328 -1.297,-4.074 -4.586,-3.773 -2.258,0.207 -27.586,3.023 -56.289,6.258 -28.703,3.234 -52.965,5.621 -53.918,5.304 -0.953,-0.316 11.285,-6.367 27.196,-13.441 l 28.925,-12.863 16.789,1.066 c 9.235,0.586 21.465,1.512 27.184,2.059 10.188,0.968 10.383,0.91 9.844,-2.844 -0.672,-4.66 -4.906,-6.031 -19.418,-6.285 -16.086,-0.285 -16.602,-2.024 -2.449,-8.242 6.789,-2.985 12.707,-6.008 13.144,-6.715 0.442,-0.711 -0.644,-4.664 -2.41,-8.782 l -3.207,-7.484 -18.535,8.316 c -10.196,4.575 -24.074,10.739 -30.844,13.696 l -12.305,5.379 -28.367,-2.047 c -15.598,-1.121 -28.637,-2.324 -28.972,-2.664 -0.336,-0.34 7.804,-14.649 18.093,-31.793 15.973,-26.617 20.895,-33.395 33.68,-46.363 12.547,-12.731 14.641,-15.586 12.937,-17.641 -1.117,-1.344 -3.089,-2.445 -4.386,-2.445 -1.297,0 -1.95,-0.664 -1.45,-1.473 0.973,-1.57 -21.898,-19.859 -24.828,-19.859 -0.957,0 -21.027,22.597 -44.597,50.214 -23.575,27.622 -42.867,49.582 -42.875,48.813 -0.008,-0.774 5.265,-30.399 11.722,-65.836 6.457,-35.438 11.45,-64.695 11.09,-65.016 -0.355,-0.32 -2.148,-1.039 -3.984,-1.601 -3.18,-0.977 -3.82,1.621 -13.742,55.988 -5.723,31.359 -11.875,64.949 -13.672,74.652 l -3.266,17.637 -11.703,-0.023 c -6.437,-0.016 -12.5,-0.571 -13.473,-1.235 -1.168,-0.797 7.024,-25.789 24.231,-73.914 14.301,-39.988 25.574,-73.398 25.055,-74.242 -0.524,-0.844 -2.27,-1.531 -3.887,-1.531 -2.379,0 -7.227,12.066 -25.664,63.926 -12.504,35.164 -22.895,63.769 -23.094,63.57 -0.199,-0.199 1.191,-30.066 3.09,-66.367 1.902,-36.301 3.015,-66.442 2.476,-66.981 -0.535,-0.535 -4.546,-1.101 -8.91,-1.254 z m 138.207,71.574 c 0.629,-0.172 -2.274,4.586 -14.321,24.406 -11.66,19.188 -16.343,25.055 -35.019,43.891 -19.543,19.711 -25.703,24.559 -25.703,20.242 0,-1.308 66.84,-80.574 73.445,-87.101 0.789,-0.778 1.391,-1.383 1.598,-1.438 z m -246.934,31.188 c 0.145,-0.032 0.836,0.484 2.078,1.539 4.469,3.801 43.035,38.762 50.817,46.066 1.781,1.672 2.519,2.93 1.64,2.793 -0.875,-0.137 -3.57,-0.551 -5.98,-0.918 -4.164,-0.637 -10.02,-6.219 -30.754,-29.32 -3.984,-4.442 -10.258,-11.391 -13.945,-15.442 -2.817,-3.097 -4.098,-4.664 -3.856,-4.718 z m 69.082,15.086 c 0.219,-0.219 4.613,8.058 9.758,18.398 8.137,16.34 8.945,18.801 6.223,18.801 -2.196,0 -3.911,-2.098 -5.707,-6.973 -6.399,-17.371 -10.641,-29.859 -10.274,-30.226 z M 335.68,147.699 c 1.484,0.258 25.527,14.934 27.828,17.071 0.941,0.875 0.289,1.433 -1.641,1.414 -2.683,-0.028 -20.672,-12.629 -26.172,-18.336 -0.113,-0.118 -0.113,-0.168 -0.015,-0.149 z m 246.5,26.235 c 0.496,0.062 0.136,1.273 -1.121,3.628 -1.008,1.883 -2.887,3.422 -4.176,3.422 -1.66,0 -1.281,-1.105 1.289,-3.773 2.16,-2.246 3.512,-3.336 4.008,-3.277 z m -210.203,2.128 h 5.132 c 3.594,0 11.68,4.106 26.977,13.688 11.492,7.199 18.23,11.59 22.668,13.902 v 3.993 c -2.754,-2.719 -9.637,-5.961 -22.969,-12.715 -11.281,-5.715 -23.051,-12.297 -26.16,-14.629 z m 73.355,4.922 c 3.777,0 7.441,1.368 10.336,3.86 3.898,3.351 5.203,3.636 9.937,2.183 2.997,-0.918 5.45,-2.285 5.45,-3.039 0,-3.98 52.289,-0.011 56.726,4.305 0.969,0.945 4.457,3.164 7.75,4.937 l 5.989,3.219 4.644,-4.449 c 6.766,-6.484 10.305,-5.582 3.926,1 -5.067,5.227 -5.16,5.562 -2.297,8.152 2.809,2.543 3.414,2.274 10.293,-4.578 4.414,-4.394 8.844,-7.301 11.18,-7.332 4.64,-0.066 4.273,1.278 -3.805,13.903 l -5.781,9.039 5.402,7.781 c 4.813,6.922 10.785,19.105 13.227,26.973 0.558,1.796 0.492,2.597 11.757,5.222 v 18.41 l -8.261,-2.121 -0.11,0.602 h -25.531 c 0.938,-8.598 -3.457,-18.172 -12.43,-20.813 -3.425,-1.008 -12.504,-1.601 -20.175,-1.32 l -13.946,0.516 -0.449,29.125 -0.32,20.839 h -8.309 l -0.32,-20.839 -0.445,-29.125 -6.102,-0.508 -6.098,-0.504 -0.465,18.555 -0.464,18.55 -22.657,-37.078 -13.437,0.985 v 0.031 h -4.383 v -1.039 h 0.207 v -50.039 c 3.262,-2.907 2.723,-3.625 0.492,-6.18 -7.836,-8.98 -7.875,-9.223 -1.531,-9.223 z m 147.957,9.969 13.945,0.965 c 7.672,0.535 18.328,1.43 23.688,1.992 l 9.738,1.02 -15.48,6.804 c -8.516,3.743 -23.711,10.504 -33.77,15.02 l -18.281,8.211 10.078,-17.004 z m -545.539,65.504 8.613,0.023 c 4.739,0.016 9.407,0.571 10.375,1.235 3.207,2.191 3.766,6.523 1.305,10.039 -1.969,2.808 -4.129,3.469 -11.363,3.469 h -8.93 z m 475.809,1.641 h 6.562 c 4.375,0 7.656,1.093 9.844,3.281 3.863,3.863 4,4.953 1.133,8.879 -1.325,1.804 -5.121,3.273 -9.844,3.808 l -7.695,0.868 z M 284.34,271.113 c 2.652,0.098 5.035,0.989 5.707,2.735 1.312,3.429 -1.637,5.117 -11.258,6.441 -10.426,1.434 -16.105,5.988 -16.105,12.918 0,5.258 4.308,10.93 9.843,12.953 3.918,1.434 6.957,1.168 13.539,-1.18 3.383,-1.21 6.153,-1.593 6.153,-0.859 0,2.055 6.168,3.543 9.843,2.379 0.559,-0.18 1.043,-0.484 1.465,-0.863 h 12.344 v 26.468 c -2.027,-0.109 -4.168,-0.175 -6.32,-0.175 H 295.5 v 0.957 h -20.066 c -2.633,-0.844 -6.649,-0.957 -15.137,-0.957 h -15.66 v 22.699 c 0,6.57 0.136,12.598 0.355,16.973 h -11.84 v -39.879 l -5.336,0.515 -4.617,0.446 h -13.711 v 0.332 c -2.441,-0.411 -6.781,-0.528 -14.484,-0.731 l -17.637,-0.465 v 38.203 h -9.957 c 1.082,-2.046 1.754,-4.191 1.754,-6.05 0,-4.832 -8.164,-11.957 -15.953,-13.914 -9.149,-2.305 -12.082,-4.36 -10.848,-7.586 1.371,-3.563 10.012,-2.907 12.414,0.941 1.371,2.191 3.825,3.281 7.399,3.281 6.793,0 6.961,-3.062 0.554,-10.226 -4.355,-4.875 -5.621,-5.352 -13.996,-5.27 -3.527,0.031 -5.898,0.207 -7.789,0.731 h -30.847 l -0.039,14.355 -0.039,14.36 -9.141,-14.36 C 92.316,332.84 91.383,331.93 86.152,331.93 h -5.586 v 22.699 c 0,5.578 0.11,10.746 0.282,14.883 h -9.309 v -0.664 l -11.894,-0.485 c -11.34,-0.457 -11.895,-0.664 -11.895,-4.433 0,-3.7 0.648,-3.981 10.254,-4.442 9.828,-0.465 10.277,-0.672 10.773,-4.996 l 0.52,-4.515 H 58.523 c -10.398,0 -10.773,-0.141 -10.773,-4.102 0,-3.984 0.328,-4.102 11.484,-4.102 h 11.485 v -9.953 l -17.637,0.465 -5.102,0.133 V 305.68 h 3.727 c 8.824,0 14.578,-0.278 18.789,-1.16 v 1.05 h 33.625 c 0.051,0.016 0.094,0.032 0.145,0.047 15.703,4.723 28.812,-5.496 28.796,-22.445 -0.003,-4.305 -1.25,-8.199 -3.324,-11.461 h 11.532 v 33.969 h 9.507 l 0.024,-0.528 h 27.761 c 0.93,0.379 1.918,0.703 2.973,0.969 5.688,1.445 8.047,1.227 12.649,-1.176 2.48,-1.293 4.511,-1.66 4.511,-0.808 0,0.847 2.215,1.543 4.922,1.543 h 27.824 c 9.762,2.789 20.832,-1.231 24.426,-9.125 2.559,-5.614 2.547,-5.645 -2.773,-5.645 -2.582,0 -5.992,1.465 -7.637,3.281 -3.609,3.989 -10.16,4.25 -14.227,0.571 -6.296,-5.7 -3.894,-7.133 11.981,-7.133 h 14.977 l -0.844,-7.504 c -0.301,-2.668 -1.004,-5.102 -2.024,-7.27 h 9.223 c -0.141,0.649 -0.219,1.321 -0.219,2.016 0,4.277 9.156,3.984 11.485,-0.367 1.253,-2.344 5.117,-3.52 8.531,-3.391 z m -172.317,0.059 c 2.434,-0.051 4.868,0.867 6.844,3.051 3.449,3.812 3.539,14.785 0.16,19.605 -3.175,4.535 -10.632,4.828 -14.488,0.57 -1.531,-1.695 -3.191,-5.57 -3.684,-8.617 -1.296,-7.988 4.946,-14.476 11.168,-14.609 z m 76.172,0.051 c 7.516,0 11.27,5.691 10,15.156 -0.507,3.789 -2.215,7.824 -3.804,8.988 -8.051,5.883 -17.989,-2.023 -16.508,-13.133 1.101,-8.257 3.679,-11.011 10.312,-11.011 z m 49.625,0.011 c 4.297,0.047 8.457,2.371 8.457,6.059 0,1.492 -2.715,2.133 -9.023,2.133 -9.379,0 -10.816,-1.254 -6.445,-5.625 1.804,-1.805 4.433,-2.598 7.011,-2.567 z m -190.07,8.192 h 9.727 c 10.781,0 14.882,2.508 14.882,9.086 0,2.203 -1.39,4.672 -3.171,5.625 -1.747,0.933 -7.286,1.695 -12.305,1.695 H 47.75 Z m 496.23,4.179 h 35.082 c -2.101,11.715 -2.054,13.301 0.188,15.114 1.402,1.136 9.336,8.152 17.625,15.59 17.152,15.386 17.258,14.988 -4.488,16.765 -14.949,1.219 -16.578,0.578 -23.653,-9.332 l -2.683,-3.758 -3.61,4.133 c -1.984,2.274 -5.089,6.02 -6.898,8.324 -1.809,2.305 -6.422,6.266 -10.254,8.801 -3.828,2.535 -6.965,4.946 -6.965,5.36 0,0.027 0.028,0.05 0.071,0.074 l -8.602,6.855 c -0.266,-0.738 -0.461,-1.25 -0.512,-1.301 -1.426,-1.425 -6.019,1.54 -5.347,3.454 0.011,0.039 0.492,1.539 0.531,1.656 h -14.969 c -1.758,-0.824 -5.484,-0.356 -6.523,1.328 -0.598,0.969 -3.184,12.965 -5.746,26.66 l -4.653,24.895 0.86,-23.789 c 0.472,-13.086 1.113,-24.633 1.425,-25.661 0.075,-0.253 0.039,-0.5 -0.097,-0.742 V 305.68 h 5.902 l -0.008,-0.453 h 8.067 l -0.008,0.453 h 14.844 v -19.235 l 9.433,-0.875 c 3.684,-0.34 7.918,-1.121 10.988,-1.965 z M 288.527,286 c 2.895,-0.016 2.547,5.82 -0.527,8.895 -2.59,2.589 -10.691,3.535 -12.738,1.488 -0.602,-0.602 -1.094,-2.414 -1.094,-4.028 0,-2.707 8.18,-6.328 14.359,-6.355 z m 334.336,18.461 c 3.598,0.316 52.11,14.512 54.922,16.121 1.848,1.055 1.395,1.418 -1.808,1.453 -2.352,0.027 -8.625,0.438 -13.946,0.906 -9.519,0.844 -9.918,0.707 -24.738,-8.589 -8.285,-5.196 -14.871,-9.641 -14.633,-9.875 0.02,-0.02 0.086,-0.028 0.203,-0.016 z M 211.984,339.82 h 10.348 l -0.309,14.172 c -0.253,11.684 -0.089,22.207 0.36,23.379 0.453,1.176 3.058,2.141 5.793,2.141 h 21.847 v -0.059 c 0.477,0.035 0.961,0.059 1.45,0.059 4.547,0 4.648,-0.2 4.648,-9.114 v -9.113 l 7.793,0.496 7.793,0.504 0.938,7.004 c 1.109,8.32 3.082,10.691 8.281,9.949 3.484,-0.496 3.808,-1.258 3.347,-7.929 -0.277,-4.063 -1.617,-9.11 -2.972,-11.215 -2.207,-3.426 -2.192,-4.133 0.125,-6.692 2.219,-2.453 2.972,-6.179 2.371,-9.808 H 295.5 v 32.519 h -0.496 v 15.043 c -1.106,-0.105 -2.356,-0.14 -3.852,-0.136 -3.261,0.011 -5.996,0.296 -8.379,0.925 v -1.078 h -20.089 v 0.129 H 228.23 v 40.254 h -8.203 v -40.254 h -14.562 l -4.543,13.945 c -2.5,7.672 -4.977,13.946 -5.508,13.946 -0.531,0 -3.019,-6.313 -5.531,-14.028 l -4.571,-14.035 -15.328,0.992 -0.015,0.657 h -4.086 v -1.477 h -37.738 v 4.922 c 0,4.648 0.367,4.922 6.562,4.922 h 6.563 v 31.722 h -8.657 c -1.605,-4.312 -3.953,-10.566 -6.675,-17.777 l -8.684,-22.969 h -6.399 v -0.82 H 70.922 l -4.539,13.945 c -2.5,7.672 -4.977,13.946 -5.508,13.946 -0.531,0 -3.02,-6.313 -5.535,-14.028 l -4.567,-14.035 -1.593,0.106 v -11.676 c 1.425,-0.02 2.984,-0.051 4.691,-0.098 l 17.668,-0.465 h 10.473 c 0.898,0.504 3.015,0.723 5.054,0.485 4.004,-0.465 4.196,-1.004 4.985,-13.981 l 0.82,-13.496 8.32,13.496 c 7.301,11.844 8.957,13.559 13.536,14.008 l 5.214,0.516 v -39.692 h 12.2 c -2.028,4.496 -1.536,9.61 1.675,13.153 1.614,1.785 6.723,4.371 11.348,5.75 10.781,3.207 13.231,4.867 11.984,8.109 -0.695,1.813 -3.074,2.629 -7.656,2.629 -5.5,0 -6.972,-0.711 -8.519,-4.102 -1.317,-2.886 -3.168,-4.101 -6.254,-4.101 -2.41,0 -4.817,0.43 -5.344,0.957 -2.09,2.09 2.766,11.012 7.598,13.957 3.703,2.258 9.316,3.273 14.586,2.992 v 0.25 h 25.808 l 17.637,-0.465 17.641,-0.465 v -9.843 l -11.899,-0.485 c -11.406,-0.461 -11.894,-0.644 -11.894,-4.511 0,-3.864 0.433,-4.028 10.664,-4.028 h 10.668 v -9.847 h -10.668 c -10.231,0 -10.664,-0.165 -10.664,-4.028 0,-3.867 0.488,-4.051 11.894,-4.511 7.367,-0.301 10.168,-0.481 11.238,-1.618 z m 52.34,1.953 c 8.024,0 8.203,0.11 8.203,4.922 0,4.813 -0.179,4.922 -8.203,4.922 -8.019,0 -8.203,-0.109 -8.203,-4.922 0,-4.812 0.184,-4.922 8.203,-4.922 z m 45.778,0.141 c 0.96,-0.016 2.218,0.059 3.855,0.176 5.711,0.414 6.973,1.098 6.973,3.785 0,2.687 -1.262,3.375 -6.973,3.789 -6.555,0.473 -6.973,0.246 -6.973,-3.789 0,-3.023 0.235,-3.906 3.118,-3.961 z m -0.247,16.383 c 0.957,-0.02 2.235,0.074 3.934,0.199 7.91,0.586 11.52,4.422 8.074,8.57 -1.289,1.555 -4.715,2.602 -8.515,2.602 -6.2,0 -6.364,-0.152 -6.364,-5.836 0,-4.375 0.004,-5.473 2.871,-5.535 z m 415.641,2.324 c -0.086,0.016 -0.18,0.051 -0.281,0.117 -0.82,0.504 -1.488,1.981 -1.488,3.282 0,3.398 1.113,2.914 2.117,-0.918 0.414,-1.582 0.246,-2.594 -0.348,-2.481 z m -391.187,44.438 1.925,5.519 c 1.059,3.035 1.922,6.145 1.922,6.914 0,0.77 -1.844,1.395 -4.101,1.395 -4.606,0 -4.657,-0.231 -1.801,-8.145 z m -223.11,3.148 c 0.676,0.016 1.34,1.086 2.113,3.125 0.993,2.609 2.196,5.379 2.676,6.152 0.477,0.77 -1.441,1.403 -4.261,1.403 -4.563,0 -5.008,-0.407 -4.004,-3.692 1.461,-4.773 2.484,-7.007 3.476,-6.988 z"
             style="fill:#00ff00;fill-opacity:1;stroke:none;stroke-width:0.59079051;stroke-linecap:butt;stroke-linejoin:miter;stroke-miterlimit:4;stroke-dasharray:none;stroke-opacity:1"
             id="path1179" />
        </g>
      </g>
      <g
         id="g1207"
         transform="matrix(0.12221369,0,0,0.12221369,92.734217,104.37373)"
         style="fill:#00ff00;fill-opacity:1;stroke:none;stroke-width:0.81823897;stroke-miterlimit:4;stroke-dasharray:none">
        <g
           id="g1209"
           style="fill:#00ff00;fill-opacity:1;stroke:none;stroke-width:0.81823897;stroke-miterlimit:4;stroke-dasharray:none">
          <path
             inkscape:connector-curvature="0"
             d="m 450.758,614.477 c -0.188,15.472 -0.371,30.949 -0.559,46.421 m -0.051,6.825 h 46.661 v -5.684 H 459.285 V 644.98 h 32.969 v -5.683 h -32.781 l -0.375,-7.965 -0.379,-7.961 h 52.953 c -2.531,3.024 -3.356,6.664 -2.262,10.625 1.57,5.688 5.344,7.84 20.129,11.457 12.535,3.067 16.164,5.113 16.133,9.09 -0.02,2.984 -1.063,4.566 -3.961,6.031 -6.488,3.274 -17.195,2.406 -26.266,-2.125 -4.05,-2.023 -5.207,-2.199 -6.652,-1 -0.965,0.801 -1.758,2.051 -1.758,2.778 0,1.941 6.531,5.468 13.059,7.058 7.672,1.863 14.664,1.953 20.359,0.442 h 26.801 m 0,-5.704 h -16.848 c 3.535,-3.945 4.395,-9.347 2.067,-13.699 -1.715,-3.203 -8.571,-6.328 -20.012,-9.125 -13.117,-3.203 -15.43,-4.644 -14.977,-9.344 0.731,-7.519 14.016,-9.793 25.121,-4.296 4.34,2.144 4.829,2.179 6.723,0.464 2.953,-2.671 2.613,-3.441 -2.781,-6.23 -3.543,-1.836 -7.41,-2.617 -14.496,-2.945 -6.946,-0.317 -9.516,-0.11 -12.692,1.242 v -27.449 h 69.539 v -0.227 h 50.383 c 31.371,0 52.93,-0.469 57.133,-1.238 13,-2.379 22.055,-9.364 27.465,-21.176 2.328,-5.086 2.758,-7.762 2.738,-17.078 -0.019,-10.238 -0.301,-11.594 -3.793,-18.465 -2.863,-5.633 -5.09,-8.297 -9.273,-11.098 -9.953,-6.664 -13.239,-7.109 -52.949,-7.179 -24.735,-0.043 -37.094,-0.489 -39.762,-1.422 -10.828,-3.793 -12.195,-20.797 -2.168,-26.91 3.621,-2.211 5.621,-2.293 52.933,-2.297 h 49.172 v -22.824 l -53.718,0.328 -53.723,0.324 -6.496,3.187 c -12.723,6.246 -19.559,17.907 -19.485,33.196 0.079,15.062 9.043,28.078 23.145,33.586 2.965,1.16 13.969,1.711 43.203,2.172 31.731,0.503 39.852,0.945 42.527,2.324 10.446,5.383 11.239,20.594 1.446,27.777 -3.121,2.293 -4.66,2.363 -55.992,2.68 l -52.786,0.328 h -70.531 l 0.043,-1.859 0.567,-25.094 12.503,-14.578 c 6.879,-8.02 19.157,-22.266 27.286,-31.664 8.129,-9.399 17.75,-20.586 21.375,-24.856 l 6.589,-7.766 -15.117,0.079 -15.121,0.074 -6.824,8.062 c -3.75,4.438 -14.633,17.325 -24.18,28.633 -9.55,11.309 -17.777,20.567 -18.293,20.567 -0.875,0 -33.453,-37.813 -44.23,-51.336 l -4.852,-6.09 h -12.601 v -0.09 h -35.114 l -31.363,0.195 v -73.304 c 23.641,-0.54 56.32,-2.442 75.379,-4.731 54.727,-6.574 73.438,-23.586 63.988,-58.172 -4.105,-15.027 -19.132,-43.011 -47.187,-87.871 -24.192,-38.683 -43.281,-61.074 -58.434,-68.523 -6.554,-3.227 -8.574,-3.668 -16.578,-3.637 -7.207,0.035 -10.121,0.562 -13.941,2.582 -2.657,1.402 -4.828,2.723 -4.828,2.941 0,0.215 4.027,6.512 8.949,13.989 5.152,7.82 9.898,15.363 14.414,22.726 l -21.52,11.836 c -6.976,-10.355 -13.226,-18.972 -14.504,-19.867 -3.089,-2.164 -8.777,-2.383 -12.91,-0.496 -1.718,0.781 -6.062,6.086 -10.465,12.789 -0.699,1.059 -1.671,2.527 -2.484,3.766 l -20.18,-10.465 c 26.145,-44.774 40.805,-64.848 57.172,-79.125 12.418,-10.836 25.953,-14.785 37.348,-10.903 14.484,4.934 29.426,20.555 47.996,50.192 10.676,17.035 30.785,53.797 40.242,73.562 l 4.731,9.887 4.179,-2.137 c 5.094,-2.601 12.121,-10.179 14.621,-15.781 2.571,-5.758 2.426,-25.473 -0.265,-35.402 -7.086,-26.168 -31.059,-75.625 -57.192,-118 -19.382,-31.43 -35.98,-50.438 -50.582,-57.942 -4.109,-2.113 -9.242,-3.215 -14.308,-3.285 -5.063,-0.066 -10.055,0.895 -13.856,2.903 -17.382,9.175 -33.652,30.847 -71.355,95.039 -14.36,24.445 -26.906,51.043 -31.227,66.199 -3.644,12.781 -3.566,29.437 0.172,37.082 2.457,5.019 12.836,16.664 14.86,16.664 0.46,0 3.539,-4.738 6.832,-10.52 1.484,-2.609 2.765,-4.785 4.187,-7.254 l 19.523,10.047 c -1.82,2.762 -3.765,5.731 -5.152,7.828 -6,9.071 -7.211,11.723 -7.211,15.711 0,5.993 1.422,8.711 6.035,11.528 2.922,1.781 6.239,2.121 24.578,2.183 v 18.84 c -1.144,0.035 -2.191,0.074 -3.328,0.098 -63.773,1.527 -90.957,-5.301 -100.75,-25.321 -2.793,-5.707 -3.187,-7.804 -3.101,-16.273 0.113,-11.059 2.031,-19.238 8.535,-36.367 5.625,-14.817 22.285,-48.711 36.816,-74.91 10.262,-18.496 10.801,-19.801 8.848,-21.242 -5.977,-4.411 -22.086,-5.133 -29.934,-1.344 -13.921,6.719 -30.55,26.515 -49.707,59.164 -11.007,18.765 -30.832,58.269 -38.031,75.789 -18.808,45.754 -17.183,69.98 5.41,80.766 9.203,4.39 20.164,6.742 36.856,7.894 15.215,1.055 58.754,0.406 84.129,-1.246 63.812,-4.16 87.84,-15.512 90.66,-42.844 l 0.648,-6.281 -10.125,0.75 c -3.035,0.223 -9.976,0.508 -18.179,0.797 v -18.332 c 20.218,-0.199 23.406,-1.242 26.222,-6.688 3.055,-5.91 2.375,-9.336 -6.699,-23.593 l 21.762,-10.098 c 14,24.262 23.656,44.762 27.14,58.234 4.868,18.824 2.141,33.61 -7.738,41.961 -5.297,4.477 -18.144,10.348 -28.351,12.949 -16.895,4.305 -62.032,7.981 -98.469,8.028 l -17.332,0.035 v 4.047 c 0,11.578 7.312,22.847 18.941,29.18 8.133,4.425 20.133,7.089 42.145,9.562 v 74.637 c -40.129,0.269 -44.075,0.527 -48.645,2.644 -13.035,6.031 -19.387,15.891 -20.172,31.317 -0.449,8.793 -0.187,10.523 2.457,16.3 5.231,11.426 11.512,17.161 22.309,20.364 5.004,1.488 12.402,1.82 40.863,1.84 19.117,0 36.754,0.496 39.199,1.062 2.446,0.566 6.028,2.606 7.961,4.539 3.192,3.192 3.512,4.168 3.512,10.805 0,6.523 -0.352,7.664 -3.348,10.789 -1.839,1.922 -5.164,3.996 -7.386,4.613 -2.383,0.664 -24.731,1.129 -54.356,1.133 H 177.332 V 460.809 H 153.457 V 566.543 H 42.039 V 533.52 h 15.922 v 0.05 h 72.754 V 514.242 H 42.039 V 483.551 H 135.27 V 460.812 H 19.301 v 129.602 h 244.441 v -0.289 h 17.789 v -0.266 c 5.27,0.344 26.504,0.5 52.664,0.336 l 54.035,-0.343 6.309,-2.961 c 16.953,-7.953 24.441,-22.653 21.633,-42.477 -1.965,-13.883 -7.016,-20.82 -19.414,-26.66 l -6.254,-2.942 -39.996,-0.57 c -38.344,-0.543 -40.129,-0.664 -43.203,-2.949 -5.887,-4.367 -7.407,-15.231 -3.059,-21.871 3.703,-5.66 5.813,-5.879 57.797,-5.879 h 48.359 v 0.043 h 35.11 v -0.121 c 6.605,7.711 11.035,12.871 20.422,23.84 l 28.597,33.422 v 75.824 l -20.75,0.277 -23.023,0.313 m 116.496,50.593 h 9.18 l -0.305,-25.3 -0.242,-20.137 h 26.043 c -4.637,2.832 -7.032,5.816 -9.528,11.324 -3.949,8.707 -2.523,17.211 4.184,25.051 4.316,5.039 8.226,7.426 14.726,8.957 5.872,1.383 13.481,1.289 20.387,0.101 h 39.051 l 0.023,-20.183 c 0.012,-11.32 0.438,-19.52 0.973,-18.676 0.524,0.828 9.305,9.91 19.52,20.18 15.222,15.312 19.148,18.679 21.765,18.679 h 3.199 v -51.308 l -3.699,0.355 -3.691,0.364 -0.313,19.492 -0.308,19.484 -19.489,-19.769 C 672.598,619.98 668.688,616.57 666.02,616.57 h -3.227 v 45.266 h -15.891 c 1.071,-1.363 1.118,-3.648 1.118,-10.832 v -10.563 h -27.293 v 2.844 c 0,2.813 0.113,2.848 9.722,2.848 h 9.723 l -0.34,6.426 c -0.34,6.363 -0.391,6.445 -4.894,8.097 -5.973,2.188 -18.29,2.375 -23.301,0.356 -16.211,-6.539 -17.383,-27.457 -1.992,-35.571 6.75,-3.558 18.761,-3.609 25.757,-0.109 4.934,2.461 5.047,2.461 7.739,0.348 l 2.734,-2.145 -2.922,-1.918 c -7.09,-4.644 -18.144,-6.211 -27.777,-4.472 h -47.313 l -0.304,25.293 -0.27,19.566 M 450.148,660.93 h -22.8 c 5.714,-4.664 9.199,-11.321 9.199,-17.883 0,-10.699 -4.781,-17.27 -16.488,-22.664 -6.391,-2.945 -7.809,-3.145 -22.731,-3.192 l -15.918,-0.05 -0.308,25.293 -0.305,25.3 h 15.656 c 7.41,0 12.559,-0.214 16.613,-0.777 v 0.785 h 37.082 m -60.21,-44.597 11.777,0.437 c 10.699,0.395 12.281,0.746 17.223,3.824 13.164,8.199 12.648,24.375 -0.989,31.133 -4.34,2.156 -7.914,2.852 -16.765,3.277 l -11.246,0.543 z"
             style="fill:#00ff00;fill-opacity:1;stroke:none;stroke-width:0.81823897;stroke-linecap:butt;stroke-linejoin:miter;stroke-miterlimit:4;stroke-dasharray:none;stroke-opacity:1"
             id="path1211" />
        </g>
      </g>
    </g>
    <g
       id="g2158"
       style="fill:#00ff00;fill-opacity:1;stroke-width:0.1;stroke-miterlimit:4;stroke-dasharray:none"
       transform="matrix(0.47146192,0,0,0.47146192,-15.22295,0.13261916)">
      <path
         inkscape:connector-curvature="0"
         style="fill:#00ff00;fill-opacity:1;stroke-width:0.1;stroke-miterlimit:4;stroke-dasharray:none"
         d="m 112.10253,353.79932 c -3.53973,-3.72854 -6.43587,-6.86526 -6.43587,-6.97048 0,-0.20523 2.4129,-1.97014 5.45325,-3.98879 2.54007,-1.68647 2.62264,-2.41782 0.50554,-4.4774 -0.97089,-0.94452 -2.03877,-2.32123 -2.37308,-3.05934 -0.8727,-1.92692 -2.01998,-6.20687 -2.01998,-7.53555 0,-1.10413 -0.70527,-1.97366 -1.19974,-1.47917 -0.13515,0.13515 -0.62552,1.87749 -1.08998,3.87209 -1.35087,5.80154 -2.95553,8.20756 -6.657247,9.98197 -1.77004,0.84845 -2.94035,0.98353 -9.69343,1.11881 -7.14131,0.14303 -7.74181,0.0924 -8.55555,-0.72132 -0.48134,-0.48136 -1.12329,-0.95789 -1.42656,-1.05898 -0.43414,-0.14474 -0.39819,-2.70079 0.1691,-12.02248 0.75727,-12.4442 1.92108,-29.79153 2.42988,-36.2192 l 0.301,-3.80246 8.27595,0.035 c 9.90884,0.0417 11.475797,0.52082 13.604417,4.15883 0.26788,0.45784 0.82463,1.312 1.23721,1.89815 2.31233,3.285 2.05772,11.46909 -0.51713,16.6218 -1.59716,3.1962 -1.65659,3.97434 -0.43026,5.63306 0.50665,0.68525 1.17403,2.23722 1.48313,3.44882 0.85585,3.35495 1.70278,2.88027 2.35195,-1.31817 1.31857,-8.52811 4.50139,-14.38763 8.90483,-16.39362 4.29805,-1.95799 7.862,-0.50782 11.27543,4.588 2.26769,3.38535 3.05657,6.07311 3.94052,13.42549 0.32507,2.70359 1.16783,2.78098 3.5639,0.32719 1.15421,-1.18202 2.5642,-2.05267 4.11692,-2.5421 1.71111,-0.53939 2.3615,-0.96834 2.3615,-1.55741 0,-0.68659 -0.38012,-0.81301 -2.44468,-0.81301 -1.98685,0 -2.53435,-0.16756 -2.9235,-0.89469 -0.26336,-0.49209 -0.87436,-0.89471 -1.35777,-0.89471 -1.12824,0 -1.16942,-1.682 -0.12074,-4.92922 0.96251,-2.98026 4.1881,-6.41866 6.66706,-7.10695 4.48576,-1.2455 10.37243,0.0353 11.61381,2.52695 0.27497,0.55189 0.80808,1.35713 1.1847,1.78938 0.37664,0.43227 0.87871,1.38987 1.11572,2.12798 0.52864,1.6463 1.43675,1.87884 2.85431,0.73096 0.87324,-0.7071 1.12005,-1.40978 1.30297,-3.7094 l 0.22566,-2.83707 4.02615,-0.22367 c 3.71817,-0.20658 4.19273,-0.34345 6.20383,-1.7894 1.19775,-0.86115 2.60688,-1.86471 3.13144,-2.23013 0.52456,-0.36542 2.60285,-1.92554 4.61843,-3.46695 2.01556,-1.54141 3.78793,-2.80255 3.93856,-2.80255 0.15058,0 0.91719,-0.60298 1.7035,-1.33996 0.78628,-0.737 1.56252,-1.34092 1.72496,-1.34206 0.16242,-0.001 1.27927,-0.75695 2.48184,-1.67964 1.20258,-0.92264 2.49965,-1.87885 2.8824,-2.12489 0.38275,-0.24604 1.68158,-1.19725 2.88633,-2.11381 2.2934,-1.7448 2.86146,-1.98953 2.86146,-1.23281 0,0.25072 -4.60037,5.06586 -10.22305,10.7003 l -10.22306,10.24445 -0.30984,5.06875 c -0.17047,2.7878 -0.42915,6.12559 -0.57491,7.41731 -0.24421,2.16408 -0.35684,2.34906 -1.43365,2.35468 -4.37565,0.0228 -5.21639,2.27671 -6.33201,16.97456 -0.27001,3.55738 -0.5894,6.6273 -0.70976,6.82207 -0.12039,0.19474 -1.61612,0.35407 -3.3239,0.35407 -2.43956,0 -3.28479,-0.17975 -3.94381,-0.83877 -0.46132,-0.46132 -1.09523,-0.92426 -1.40865,-1.02873 -0.46135,-0.15384 -0.46235,-1.83005 -0.005,-8.8031 0.31054,-4.73725 0.46997,-8.70779 0.3543,-8.82347 -0.38934,-0.38933 -1.64432,0.3342 -1.87721,1.08228 -0.63069,2.02587 -1.12844,7.59209 -1.13639,12.70811 l -0.009,5.70368 h -3.36916 c -2.58212,0 -3.4293,-0.15675 -3.62665,-0.671 -0.36772,-0.95829 -2.26165,-0.82858 -4.0512,0.27744 -0.96841,0.59849 -2.59608,1.03364 -4.41143,1.17935 l -2.87677,0.23092 -8.77187,9.10964 c -4.82449,5.0103 -8.92514,9.10964 -9.1125,9.10964 -0.18739,0 -3.23681,-3.05062 -6.77655,-6.77916 z m 8.44258,-24.31708 1.01065,-1.56018 h 3.70888 c 2.1009,0 3.92222,0.21334 4.20096,0.49208 0.65868,0.65867 2.45296,-1.09988 2.08926,-2.04765 -0.40613,-1.05839 -14.25312,-1.00859 -14.84743,0.0533 -0.22609,0.404 -0.34889,1.05825 -0.27284,1.45387 0.59418,3.09194 0.64615,3.1798 1.87819,3.17421 0.90076,-0.003 1.48716,-0.41536 2.23233,-1.56573 z m -27.245407,-2.64501 c 1.54268,-0.79773 2.30163,-2.42115 2.30163,-4.92326 0,-1.51987 -0.18142,-1.98726 -0.83801,-2.15899 -1.38018,-0.36092 -4.20973,0.0448 -4.59979,0.65948 -0.43702,0.68875 -0.50346,6.33806 -0.0794,6.76202 0.4893,0.48927 1.9016,0.34029 3.21568,-0.33925 z m 28.870587,-11.2528 c 0.30868,-0.8044 -0.093,-2.83397 -0.71841,-3.63001 -0.66644,-0.84827 -2.43734,0.20686 -3.26125,1.9431 -0.39375,0.82978 -0.59288,1.70776 -0.44251,1.95109 0.46712,0.75581 4.11439,0.53792 4.42217,-0.26418 z M 145.62,314.93152 c 1.01253,-0.94329 1.38177,-3.56136 0.50228,-3.56136 -1.41275,0 -3.10203,2.22886 -3.10203,4.0929 0,0.71374 1.61824,0.38288 2.59975,-0.53154 z m -50.976257,-7.62306 c 0.97683,-1.04849 1.70074,-4.76837 1.05385,-5.41528 -0.23213,-0.23213 -1.30496,-0.35883 -2.38408,-0.28154 l -1.96199,0.14046 -0.2243,2.81766 c -0.12349,1.54973 -0.0328,3.0092 0.2013,3.24328 0.72573,0.72574 2.40743,0.46974 3.31522,-0.50465 z m 24.057917,-9.58243 c -0.14166,-0.36906 -0.79171,-0.67101 -1.44467,-0.67101 -0.8786,0 -1.07652,-0.14543 -0.7614,-0.5592 0.23419,-0.30753 0.88209,-1.66638 1.43976,-3.0196 0.55769,-1.35322 1.52543,-3.61794 2.15052,-5.03266 l 1.13651,-2.57227 h 3.90299 3.90302 l -0.21379,1.11838 c -0.12485,0.65284 -0.005,1.11837 0.28572,1.11837 0.84336,0 0.55673,1.20538 -0.61888,2.60252 -0.61511,0.731 -1.11836,1.52047 -1.11836,1.75438 0,0.2339 -0.40264,0.78963 -0.89471,1.23496 -0.49208,0.44533 -0.89792,1.03012 -0.90185,1.29954 -0.003,0.26942 -0.58403,1.1441 -1.28911,1.94373 -1.08984,1.23598 -1.58444,1.45389 -3.30011,1.45389 -1.38123,0 -2.09941,-0.21177 -2.27564,-0.67103 z m 78.00041,-16.96186 c 0,-0.47158 1.34747,-1.74679 1.58977,-1.50449 0.11285,0.11268 -0.19873,0.57059 -0.69233,1.01728 -0.49359,0.4467 -0.89744,0.66594 -0.89744,0.48721 z"
         id="path1996" />
      <path
         inkscape:connector-curvature="0"
         id="rect1683"
         style="fill:#00ff00;fill-opacity:1;stroke:none;stroke-width:0.1;stroke-miterlimit:4;stroke-dasharray:none;stroke-opacity:1"
         d="m 227.13935,302.96498 v 4.29927 h -3.04602 c 1e-5,-8e-5 6e-4,-0.002 6e-4,-0.002 0,-0.0607 -1.53477,-0.11029 -3.41057,-0.11029 h -3.4106 l -1.36577,3.14045 c -0.75116,1.72723 -1.63936,3.76852 -1.97368,4.53619 l -0.60766,1.39574 -0.19033,-0.44409 c -0.10464,-0.24427 -0.9907,-2.27128 -1.96898,-4.50448 l -1.77863,-4.0603 -3.43239,-0.0338 c -1.88775,-0.0186 -3.43212,0.0131 -3.43212,0.0701 0,0.0571 1.71296,3.46766 3.80659,7.57899 l 3.80659,7.47514 v 5.17509 5.17509 h 3.17217 3.17216 l 0.002,-5.17063 0.002,-5.17062 3.8046,-7.47118 c 0.75335,-1.47929 1.41704,-2.7905 2.00963,-3.9652 h 4.84051 v 0.52414 c 0,4.64088 0.0306,8.43796 0.0681,8.43796 0.0375,0 3.14186,-2.47558 6.89845,-5.50148 3.7566,-3.0259 6.89413,-5.54112 6.97231,-5.58944 0.19507,-0.12056 1.15259,1.38851 1.99029,3.13697 2.78161,5.80583 2.28989,12.93593 -1.26416,18.33063 l -0.6037,0.91645 -0.33754,-0.26393 c -0.18556,-0.14526 -3.29468,-2.64351 -6.90912,-5.55153 -3.61443,-2.90801 -6.6264,-5.30621 -6.69325,-5.32948 -0.0767,-0.0267 -0.12144,3.07589 -0.12144,8.40623 v 8.44827 h 8.86173 c 8.44137,0 8.90937,-0.0119 9.86543,-0.25352 1.71059,-0.43235 2.76023,-1.03018 3.9865,-2.27057 1.16441,-1.17782 1.70751,-2.05908 2.13972,-3.47178 0.48305,-1.57882 0.54685,-3.12049 0.49318,-11.89512 -0.0326,-5.32226 -0.0485,-7.24889 -0.13284,-8.24291 h 3.51714 l -0.0235,9.22628 -0.0322,12.72037 h 8.5678 5.79167 2.77615 3.29433 3.07055 0.10161 3.17216 v -12.75209 -8.12842 h 3.42595 v 8.11925 12.76126 h 5.38151 c 1.22362,0 2.17805,-0.004 3.00041,-0.0136 v 0.009 h 13.99395 v -0.0209 c 0.26656,-0.002 0.45094,-8.5e-4 0.73851,-0.004 l 3.32037,-0.034 0.62377,-1.87157 0.62378,-1.87158 h 3.85095 c 3.55846,0 3.85573,0.0169 3.91514,0.22206 0.0354,0.12212 0.3002,0.97861 0.58833,1.90329 l 0.52367,1.68125 h 3.29061 c 0.90878,0 1.73308,-0.0106 2.32907,-0.028 h 4.13346 v 0.028 h 3.17217 3.17216 v -4.69976 -4.7 l 1.03071,0.0369 1.03095,0.0366 2.20142,4.63136 2.20169,4.63136 3.69309,0.0338 3.69333,0.0338 -1.55534,-3.01553 c -0.85556,-1.65852 -2.08645,-4.03992 -2.73525,-5.29207 -0.6488,-1.25214 -1.16681,-2.28102 -1.15115,-2.28643 0.0157,-0.005 0.35758,-0.23037 0.75984,-0.49986 1.54719,-1.03654 2.7653,-2.79319 3.1439,-4.53396 0.2531,-1.1638 0.1,-3.27545 -0.32068,-4.42417 -0.92682,-2.53086 -2.8217,-4.27698 -5.52354,-5.09008 -0.9145,-0.27522 -1.16849,-0.2876 -6.88134,-0.33482 l -5.93196,-0.0488 v 12.76074 8.76955 h -4.57559 c -0.83127,-2.29732 -1.95753,-5.39888 -3.20462,-8.82406 l -4.59666,-12.62521 h -2.45694 -2.45668 l -4.61451,12.68765 c -1.21513,3.34109 -2.29431,6.31251 -3.12062,8.59037 h -3.65542 c 0.34341,-0.56758 0.62332,-1.17876 0.82774,-1.82325 0.48809,-1.53882 0.60938,-3.2965 0.53481,-7.74182 -0.0497,-2.96133 -0.11712,-4.18974 -0.26518,-4.82465 -0.78188,-3.35296 -3.01643,-5.66749 -6.36588,-6.59388 -0.95377,-0.2638 -1.31168,-0.28122 -6.68582,-0.32739 l -1.65944,-0.0143 v -0.0161 h -1.88571 l -2.13301,-0.0184 v 0.0184 h -3.42595 -3.17216 -3.17216 v 12.7521 6.9381 h -6.07048 v 0.15068 l -2.58878,-0.0161 -5.29676,-0.0332 -0.0325,-9.86394 -0.0325,-9.86417 h -3.17216 -3.17216 -4.68216 c -0.49658,-0.8579 -1.1267,-1.60585 -1.89537,-2.2458 -0.98744,-0.82208 -2.03278,-1.33203 -3.48467,-1.70032 l -1.19997,-0.30458 h -8.73878 z m 65.21964,9.89714 h 1.69264 c 2.55881,0 3.42616,0.36396 4.08714,1.71495 0.31548,0.64483 0.35318,0.88957 0.46318,3.01009 0.16838,3.2458 -0.023,6.85467 -0.4052,7.64416 -0.33569,0.69343 -1.09304,1.36829 -1.75956,1.56798 -0.27244,0.0816 -1.29086,0.14722 -2.28495,0.14722 h -1.79325 v -7.04219 z m 46.31355,0 1.87158,6e-4 c 1.02936,3.8e-4 2.09996,0.0633 2.37912,0.13954 1.12335,0.30685 1.83985,1.24037 1.83985,2.39745 0,1.15709 -0.7165,2.09086 -1.83985,2.39771 -0.27916,0.0763 -1.34976,0.1389 -2.37912,0.13927 l -1.87158,6e-4 v -2.53777 z m -20.98534,4.24897 c 0.002,-6e-4 0.003,6e-5 0.003,0.003 0.0212,0.0696 0.46842,1.49234 0.99379,3.16176 0.52537,1.66941 0.95536,3.0826 0.95536,3.14044 0,0.0578 -0.9377,0.10507 -2.08371,0.10507 h -2.08371 l 1.08992,-3.26684 c 0.5807,-1.74062 1.0755,-3.12128 1.12514,-3.14266 z" />
    </g>
    <g
       id="g2154"
       style="fill:#00ff00;fill-opacity:1;stroke-width:0.1;stroke-miterlimit:4;stroke-dasharray:none"
       transform="matrix(0.47146192,0,0,0.47146192,-15.22295,6.8354687)">
      <path
         inkscape:connector-curvature="0"
         id="path110"
         clip-path="url(#clipPath114)"
         style="fill:#00ff00;fill-opacity:1;stroke:none;stroke-width:0.42832673;stroke-miterlimit:4;stroke-dasharray:none;stroke-opacity:1"
         d="m 232.92969,2.4179688 c -8.34025,0 -16.68034,4.1503835 -21.54492,12.4511722 -3.0879,5.2691 -4.24445,13.852702 -2.51563,18.669921 l 1.19922,3.34375 -9.32031,8.828126 c -5.12572,4.855119 -11.59583,10.799014 -14.37891,13.208984 l -5.06055,4.380859 -4.93945,-1.529297 c -19.15994,-5.93166 -36.94026,12.721298 -30.49609,31.992188 3.82237,11.430568 19.82646,19.699728 30.36914,15.691408 2.26522,-0.86123 3.28743,0.0544 14.14062,12.65039 9.38541,10.89248 11.57089,13.99372 11.04102,15.67773 -4.06854,12.93048 1.28077,25.79159 12.99805,31.24805 11.28749,5.25633 24.58152,1.35664 31.39257,-8.80664 v 44.24219 c -2.60539,-0.0458 -5.33021,-0.0774 -8.13476,-0.0781 l -21.75,-0.006 v 0.5 h -27.5 -23.83399 -23.83398 l -2.91602,3.26563 c -2.70092,3.02426 -2.91601,3.85111 -2.91601,11.17383 0,7.04812 0.28036,8.24203 2.58789,10.98437 l 2.58984,3.07617 h 19.71094 c 13.99753,0 20.058,0.34706 20.91016,1.19922 0.66,0.66 1.20117,3.04578 1.20117,5.30078 0,2.255 -0.54117,4.64078 -1.20117,5.30078 -0.85994,0.85994 -7.37778,1.19922 -23,1.19922 h -21.79883 -7 v -13.86523 c 0,-20.60618 -0.11903,-22.01685 -2.07227,-24.5 -2.52286,-3.2073 -8.68758,-3.6962 -11.1543,-0.88477 -0.84448,0.9625 -5.70399,9.625 -10.79882,19.25 -5.094829,9.625 -9.318092,17.58368 -9.386722,17.68555 -0.06863,0.10187 -4.337369,-7.77313 -9.486328,-17.5 -5.148959,-9.72687 -10.048134,-18.47305 -10.886719,-19.43555 -2.450583,-2.8127 -8.619408,-2.32292 -11.142578,0.88477 -1.953244,2.48315 -2.072265,3.89382 -2.072265,24.5 v 13.86523 h -6 -22.376954 c -25.3894299,0 -24.9302893,0.14502 -24.4316402,-7.67187 l 0.3085937,-4.82813 17.8085935,-0.27343 17.808594,-0.27344 -0.308594,-3.72656 -0.308593,-3.72657 -17.798829,-0.27343 -17.7988278,-0.27344 0.2988282,-5.72656 0.2988281,-5.72657 23.2500005,-0.26953 23.25,-0.26758 v -4.48242 -4.48047 l -21.75,0.006 c -11.962501,0.003 -23.417595,0.46733 -25.4550786,1.03321 -2.037483,0.56588 -4.624983,2.20063 -5.75,3.63085 -1.888244,2.40052 -2.0449219,3.98035 -2.0449219,20.56446 v 17.96484 l 3.4003906,3.40039 3.3984375,3.40039 h 24.1015624 24.09961 6 2.613281 1.386719 4 l 0.02344,-19.75 0.02539,-19.75 2.49414,4.5 c 1.371793,2.475 5.988038,11.01844 10.257813,18.98633 6.098436,11.38039 8.337702,14.68985 10.441406,15.42969 5.142468,1.80851 6.784382,-0.0806 17.318353,-19.90821 l 9.93946,-18.70703 0.27148,19.59961 0.27149,19.59961 h 3.97851 1.35938 v 0.10157 h 9.61914 l 24.08398,-0.30079 24.08399,-0.30078 2.91601,-3.26562 c 2.66988,-2.98984 2.91602,-3.89697 2.91602,-10.73438 0,-6.83681 -0.24702,-7.7448 -2.91602,-10.73437 l -2.91601,-3.26563 -20.33399,-0.5 -20.33398,-0.5 v -5.5 -5.5 l 22.5,-0.5 22.5,-0.5 v -0.22265 h 27.5 v 16.72265 25 h 4 4 v -9 -9 l 20.25,-0.0215 c 17.67553,-0.0194 20.52102,-0.24189 22.38281,-1.75 3.47559,-2.81533 4.36728,-5.65841 4.36328,-13.91211 -0.002,-3.42568 -0.25775,-6.12368 -0.83008,-8.26563 h 6.83399 v 16.94922 25 h 4 4 v -9 -9 h 6.61328 6.61328 l 11.27344,9 c 7.31395,5.83896 9.90242,7.88126 12.37695,8.60157 v 0.0645 h 0.22266 c 1.23265,0.32058 2.47103,0.33398 4.28711,0.33398 1.75693,0 3.31248,-0.13179 4.34375,-0.33398 h 19.24414 v -0.16406 c 3.03056,0.34254 7.6046,0.46412 15.375,0.47461 26.33178,0.0356 27.64048,-1.11301 27.64648,-24.2754 0.002,-8.79289 -0.19377,-13.56688 -1.2168,-16.72656 h 7.22071 v 0.0254 h 11.5 11.5 v 20.5 20.5 h 4.5 4.5 v -20.5 -20.5 h 11.55664 11.55859 l -0.004,-0.0566 h 6.83593 c -0.8867,3.34605 -0.9676,8.52448 -0.77929,17.70508 0.36427,17.76012 0.61253,18.51308 7.15625,21.74023 2.49495,1.23043 6.78664,1.57 20.02539,1.5879 26.37707,0.0357 27.64258,-1.0852 27.64258,-24.47657 -10e-6,-13.10787 -0.24649,-15.40275 -1.94922,-18.19531 -3.88896,-6.37808 -5.48635,-6.80469 -25.5,-6.80469 -10.42374,0 -15.0343,0.0982 -17.78516,0.63086 v -0.63086 h -16.25781 l -27.25,-0.26562 -27.25,-0.26563 h -20.43946 v 0.66797 c -2.83594,-0.11949 -6.86691,-0.13672 -13.06054,-0.13672 -16.8692,0 -18.22464,0.13898 -21.57813,2.22461 -5.37745,3.34438 -5.92187,5.4762 -5.92187,23.1875 0,7.74758 0.0927,12.37202 0.76953,15.4082 H 323.3457 c -0.39977,-0.32685 -0.75312,-0.62812 -1.16601,-0.96093 l -9.75,-7.85938 5.5,-0.25976 c 8.26328,-0.38947 9.88073,-0.99695 12.02734,-4.51758 2.78599,-4.56925 2.79893,-17.85506 0.0215,-22.41016 -2.8396,-4.65706 -6.62967,-5.30064 -31.29883,-5.30664 l -21.75,-0.006 h -11.40821 v -43.76953 c 3.40721,4.90238 8.69014,8.88372 14.22852,10.375 5.94498,1.60076 6.10244,1.60424 12.08008,0.32227 6.17571,-1.32446 12.19206,-5.56882 15.83398,-11.17188 2.53789,-3.90453 2.76986,-5.07395 2.81446,-14.1875 l 0.0488,-9.93164 8.45118,-7.87891 c 4.64825,-4.33314 10.8422,-9.95685 13.76562,-12.49609 5.25219,-4.56197 5.35961,-4.60025 8.93164,-3.30859 8.30124,3.00177 18.7216,0.82259 25.12695,-5.25391 10.93527,-10.373861 10.51017,-27.2241 -0.93359,-37.01953 -5.39928,-4.62159 -10.54885,-6.067038 -19.10156,-5.361328 l -6.66016,0.550781 -11.58789,-13.371094 c -10.76391,-12.41961 -11.51812,-13.55845 -10.58984,-16 2.84524,-7.48353 -0.28627,-20.8759 -6.11719,-26.1562496 -8.03776,-7.27881 -19.64846,-8.76933692 -28.94141,-3.7167969 -5.62891,3.06041 -10.10063,8.2975945 -12,14.0527345 -1.0287,3.11699 -0.9281,14.102906 0.1543,16.847656 0.22239,0.56394 -5.88651,6.783536 -13.57422,13.822266 -12.25566,11.22108 -14.2884,12.713707 -16.5,12.117187 -4.95204,-1.33568 -14.47883,-1.643634 -18.01562,-0.583984 -8.94501,2.67999 -16.98633,13.861131 -16.98633,23.61914 0,9.654911 7.80415,20.635548 16.76758,23.593748 5.57944,1.84138 16.06159,0.65865 20.83008,-2.35156 5.86937,-3.70518 9.78529,-8.985299 11.33007,-14.875 h 9.06836 c 0.0907,0.881702 0.20764,1.771153 0.36914,2.675781 l 0.72071,4.044922 -9.79297,8.955077 c -5.38591,4.92591 -11.65163,10.64992 -13.92578,12.71875 l -4.13477,3.76172 -6.17578,-1.58203 c -4.97097,-1.27351 -7.09092,-1.36541 -10.875,-0.46875 -2.58536,0.61261 -5.18218,1.20666 -5.76953,1.32031 -0.94245,0.18235 -23.43164,-24.685665 -23.43164,-25.910155 0,-0.2653 0.73423,-1.902965 1.63281,-3.640625 1.29094,-2.49639 1.51284,-4.884963 1.05469,-11.376953 l -0.58008,-8.214844 13.89062,-12.613281 13.89063,-12.613281 5.08984,1.664062 C 246.82591,57.812513 265.67844,33.987011 254.4746,14.869111 249.61002,6.5683523 241.26994,2.4179688 232.92969,2.4179688 Z m -0.11328,16.0156252 c 5.62667,-0.02035 10.60165,5.940179 8.02929,12.15039 -0.65917,1.59137 -2.4626,3.546644 -4.00781,4.345704 -3.6619,1.89365 -4.77475,1.831104 -8.5625,-0.478516 -5.28901,-3.22502 -5.38625,-10.824087 -0.18555,-14.466797 1.52635,-1.069092 3.1511,-1.545083 4.72657,-1.550781 z m 61.50586,0.654297 c 7.76374,-0.22007 11.70505,9.287133 6.15234,14.839843 -1.69466,1.69467 -3.56568,2.455078 -6.04492,2.455078 -11.30856,0 -11.41398,-16.974421 -0.10742,-17.294921 z m -11.8418,30.486328 3.47461,1.470703 c 3.20895,1.35796 7.77629,1.394784 18.00976,0.146484 2.13633,-0.26059 4.10859,1.500557 12.54297,11.191406 5.50493,6.325001 10.34486,12.046154 10.75391,12.714844 0.40907,0.66869 -0.001,3.775004 -0.91016,6.902344 -1.54583,5.31749 -1.51009,11.383354 0.0899,15.552734 0.43257,1.12727 -3.47254,5.296096 -13.65235,14.576176 l -14.25781,12.99609 -4.4043,-1.5 c -5.22399,-1.77999 -14.36874,-1.23941 -18.92968,1.11914 -4.5234,2.33914 -9.33977,7.5456 -11.50196,12.43359 -0.46989,1.06227 -0.85593,2.38909 -1.16015,3.83985 h -13.35352 c -0.13108,-0.865 -0.30481,-1.64348 -0.53516,-2.27344 -0.67567,-1.84779 1.15137,-3.91048 13.41407,-15.13476 l 14.19726,-12.99415 4.40625,1.50196 c 2.65546,0.90481 6.46441,1.32759 9.58594,1.0625 25.22907,-2.14253 31.65588,-35.121891 9.17969,-47.105471 -5.61415,-2.9933 -16.39717,-2.978693 -22.09571,0.0293 -6.0323,3.184166 -10.16156,8.015448 -12.16992,13.949218 h -10.40625 l -0.90234,-4.169922 6.53515,-6.142578 c 3.59394,-3.37799 10.03438,-9.295673 14.3125,-13.152343 z M 169.41992,76.822266 c 4.3632,0.109893 8.52408,3.363268 8.47852,8.484375 -0.035,3.93661 -1.33317,6.144309 -4.65235,7.912109 -3.78754,2.01726 -8.18114,0.964176 -11.0664,-2.652344 -1.58553,-1.98737 -1.56687,-8.188031 0.0312,-10.269531 1.89985,-2.47449 4.59106,-3.540546 7.20898,-3.474609 z m 61.27344,0.560546 c 8.46583,0 12.14848,9.275914 5.96875,15.033204 -3.14191,2.92715 -8.8126,2.613178 -12.0957,-0.669922 -5.50501,-5.50501 -1.72642,-14.363282 6.12695,-14.363282 z m 57.56055,2.576172 c 4.44331,-0.08372 8.68977,3.261009 8.64453,8.347657 -0.035,3.93661 -1.33317,6.144309 -4.65235,7.912109 -8.56216,4.56024 -16.87244,-7.206838 -9.78906,-13.861328 1.71708,-1.613109 3.77719,-2.360381 5.79688,-2.398438 z m 61.67578,0.423828 c 4.11151,0 7.63058,2.678156 8.60156,6.546876 0.763,3.04003 -1.22799,8.183217 -3.67383,9.492187 -2.48337,1.32906 -8.0996,1.149258 -10.01367,-0.320313 -6.73183,-5.168539 -3.31852,-15.71875 5.08594,-15.71875 z M 225.36133,137.99023 c 7.45422,0.33193 11.56528,10.77801 4.4082,15.79102 -3.55627,2.49091 -7.59185,2.0019 -10.91601,-1.32227 -1.6077,-1.60769 -2.92383,-3.8792 -2.92383,-5.04882 0,-3.64529 2.80197,-7.76259 6.05469,-8.89649 1.17818,-0.41071 2.31206,-0.57085 3.37695,-0.52344 z m 61.29883,0.2793 c 2.02712,0.0452 4.09217,0.84608 5.81445,2.56836 3.29417,3.29416 3.39588,9.34471 0.20508,12.23242 -6.07361,5.4967 -14.75,2.021 -14.75,-5.9082 0,-5.43682 4.27078,-8.99191 8.73047,-8.89258 z m -36.90625,75.11133 c 13.96043,0.0346 13.17578,0.60502 13.17578,7.50195 0,2.38503 -0.27357,5.04799 -0.60742,5.91797 -0.52386,1.36515 -3.19453,1.58203 -19.5,1.58203 h -18.89258 v -7.5 -7.5 h 18.89258 c 2.64145,0 4.93729,-0.007 6.93164,-0.002 z m 61,0 c 13.96043,0.0346 13.17578,0.60502 13.17578,7.50195 0,2.38503 -0.27357,5.04799 -0.60742,5.91797 -0.52386,1.36515 -3.19453,1.58203 -19.5,1.58203 h -18.89258 v -7.5 -7.5 h 18.89258 c 2.64145,0 4.93729,-0.007 6.93164,-0.002 z m 54.68945,0.002 c 20.43352,0 19.48633,-0.80462 19.48633,16.53125 0,8.85026 -0.38015,12.60595 -1.41797,14.02735 -1.2798,1.75281 -2.90482,1.96699 -16.75,2.21289 -21.3393,0.379 -20.25964,1.21406 -20.60938,-15.95118 -0.23237,-11.40434 -0.0183,-13.88211 1.32032,-15.2207 1.33512,-1.33511 4.30074,-1.59961 17.9707,-1.59961 z m 122,0 c 20.43352,0 19.48633,-0.80462 19.48633,16.53125 0,8.85026 -0.38015,12.60595 -1.41797,14.02735 -1.2798,1.75281 -2.90482,1.96699 -16.75,2.21289 -21.3393,0.379 -20.25964,1.21406 -20.60938,-15.95118 -0.23237,-11.40434 -0.0183,-13.88211 1.32032,-15.2207 1.33512,-1.33511 4.30074,-1.59961 17.9707,-1.59961 z m -132.51172,61.19531 c -1.2636,0.0909 -3.00195,2.26783 -3.00195,4.22657 0,1.19766 -0.54117,2.7189 -1.20117,3.3789 -0.93333,0.93333 -0.93333,1.19922 0,1.19922 0.8,0 1.20117,2 1.20117,6 0,3.33333 0.44444,6 1,6 0.55556,0 1,-2.66667 1,-6 0,-4 0.39922,-6 1.19922,-6 0.93333,0 0.93333,-0.26589 0,-1.19922 -1.57402,-1.57402 -1.54086,-5.51163 0.0508,-6.08007 0.6875,-0.24554 0.92264,-0.79789 0.52343,-1.22657 -0.21376,-0.22954 -0.47988,-0.3198 -0.77148,-0.29883 z m -304.001952,0.80469 c -0.550001,0 -1,1.80316 -1,4.00781 -10e-7,3.79022 -0.111774,3.93996 -2.064454,2.75 -1.792585,-1.09237 -2.320482,-0.9457 -4,1.10352 -2.336139,2.85038 -2.491338,6.90011 -0.378906,9.91602 1.640443,2.34206 3.90528,2.9023 4.94336,1.22265 0.339919,-0.55 -0.27257,-1 -1.361329,-1 -1.37765,0 -2.177358,-0.89441 -2.626953,-2.9414 -0.664395,-3.02497 0.792897,-7.0586 2.548828,-7.0586 1.350611,0 3.153143,4.99845 2.457032,6.8125 -0.75315,1.96267 0.386288,5.36469 1.554687,4.64258 1.273983,-0.78736 1.204634,-19.45508 -0.07227,-19.45508 z m 154.000002,0 c -0.6,0 -1,4 -1,10 0,6 0.4,10 1,10 0.6,0 1,-4 1,-10 0,-6 -0.4,-10 -1,-10 z M 178.7793,276 c -0.66824,-0.0475 -1.41415,0.11901 -2.20313,0.56055 -1.31745,0.73728 -1.72827,1.98888 -1.52929,4.66406 0.1496,2.0115 -0.33645,4.8957 -1.08204,6.4082 -1.04993,2.1299 -1.09902,3.31372 -0.21679,5.25 1.24649,2.73575 4.89274,3.38851 7.02343,1.25781 0.98886,-0.98885 1.42459,-0.94418 2.14454,0.22071 1.34897,2.18269 2.34728,0.51412 1.09375,-1.82813 -0.72879,-1.36175 -0.76296,-2.8566 -0.10547,-4.58593 0.66997,-1.76221 0.64045,-2.56446 -0.0937,-2.56446 -0.58788,0 -1.30805,0.9186 -1.60157,2.04102 -0.53333,2.03947 -0.53452,2.03813 -2.00586,-0.0625 -1.30533,-1.86364 -1.29125,-2.30204 0.12696,-3.86914 2.7873,-3.07995 1.34493,-7.28625 -1.55078,-7.49219 z m 266.08984,0.33594 c -1.91452,-0.0694 -4.22431,0.71125 -4.95898,2.08398 -1.49123,2.7864 -0.43223,5.505 3.13476,8.04492 4.18314,2.97865 3.70002,6.47665 -0.86523,6.26954 -3.22549,-0.14634 -4.39805,1.01868 -2,1.98632 7.66105,3.0913 10.64577,-4.38386 4,-10.01758 -3.17607,-2.6924 -3.57661,-3.45769 -2.61524,-5 0.74393,-1.19348 2.06821,-1.71559 3.8418,-1.51757 1.69856,0.18966 2.46284,-0.0896 2.05469,-0.75 -0.43815,-0.70894 -1.44309,-1.05799 -2.5918,-1.09961 z m -442.9394525,0.0469 v 9.5 c 0,5.66667 0.403509,9.5 1,9.5 0.55,0 1,-2.025 1,-4.5 0,-2.475 0.4134578,-4.5 0.9179687,-4.5 0.504511,0 1.6895547,2.025 2.6347657,4.5 0.945211,2.475 2.1067529,4.5 2.5820311,4.5 1.222505,0 1.080166,-1.24032 -0.6074218,-5.27929 -1.2959689,-3.10169 -1.2959689,-3.66859 0,-4.74414 1.7747678,-1.47293 1.9365078,-6.11233 0.2714844,-7.77735 -0.66,-0.66 -2.685,-1.19922 -4.5,-1.19922 z m 58.0000005,0 v 8.83399 c -10e-7,4.85834 0.286957,9.12093 0.638671,9.47265 1.332936,1.33293 2.361329,-0.56737 2.361329,-4.36523 -10e-7,-3.52204 0.262043,-3.94141 2.464843,-3.94141 2.460935,0 4.535157,-2.45324 4.535157,-5.36328 0,-2.53583 -2.97869,-4.63672 -6.572266,-4.63672 z m 133.000002,0 v 9.5 9.5 h 4 c 2.2,0 4,-0.45 4,-1 0,-0.55 -1.35,-1 -3,-1 -2.7619,0 -3,-0.27778 -3,-3.5 0,-3.06667 0.30952,-3.5 2.5,-3.5 1.375,0 2.5,-0.45 2.5,-1 0,-0.55 -1.125,-1 -2.5,-1 -2.11111,0 -2.5,-0.46667 -2.5,-3 0,-2.66667 0.33333,-3 3,-3 1.65,0 3,-0.45 3,-1 0,-0.55 -1.8,-1 -4,-1 z m 76,0 c -0.55,0 -1,0.675 -1,1.5 0,0.825 0.45,1.5 1,1.5 0.55,0 1,-0.675 1,-1.5 0,-0.825 -0.45,-1.5 -1,-1.5 z m 29.42969,0 c -1.13844,0 -1.42969,1.93187 -1.42969,9.5 0,5.66667 0.40351,9.5 1,9.5 0.56659,0 1.03779,-3.14225 1.08789,-7.25 l 0.0879,-7.25 2.07031,7.28125 c 1.14885,4.04016 2.55175,7.11817 3.15234,6.91797 0.59526,-0.19842 2.06578,-3.69847 3.26758,-7.7793 l 2.18555,-7.41992 0.0742,7.75 c 0.0425,4.45067 0.49994,7.75 1.07422,7.75 0.59703,0 1,-3.85867 1,-9.57422 0,-8.51644 -0.19023,-9.53497 -1.72071,-9.24023 -1.19503,0.23014 -2.37061,2.61815 -3.8496,7.82226 -1.49967,5.27685 -2.30445,6.90085 -2.72266,5.49219 -0.32657,-1.1 -1.32554,-4.5875 -2.2207,-7.75 -1.00719,-3.55827 -2.17232,-5.75 -3.05664,-5.75 z m -260.041021,0.38281 c -0.119531,-0.005 -0.251171,0.0322 -0.388671,0.11719 -0.55,0.33992 -1,1.04106 -1,1.5586 0,0.51754 0.45,0.9414 1,0.9414 0.549999,0 1,-0.70113 1,-1.55859 0,-0.64311 -0.252735,-1.04272 -0.611329,-1.0586 z m 101.000001,0 c -0.11953,-0.005 -0.25117,0.0322 -0.38867,0.11719 -0.55,0.33992 -1,1.04106 -1,1.5586 0,0.51754 0.45,0.9414 1,0.9414 0.55,0 1,-0.70113 1,-1.55859 0,-0.64311 -0.25274,-1.04272 -0.61133,-1.0586 z m 266,0 c -0.11953,-0.005 -0.25117,0.0322 -0.38867,0.11719 -0.55,0.33992 -1,1.04106 -1,1.5586 0,0.51754 0.45,0.9414 1,0.9414 0.55,0 1,-0.70113 1,-1.55859 0,-0.64311 -0.25274,-1.04272 -0.61133,-1.0586 z m 75.22266,0 c -0.3586,0.0159 -0.61133,0.4155 -0.61133,1.0586 0,0.85746 0.45,1.55859 1,1.55859 0.55,0 1,-0.42386 1,-0.9414 0,-0.51754 -0.45,-1.21868 -1,-1.5586 -0.1375,-0.085 -0.26914,-0.12248 -0.38867,-0.11719 z m -370.24805,1.63086 c -0.59607,-0.12109 -1.41085,0.54563 -1.50977,1.73633 -0.21741,2.61728 0.12201,8.32972 0.71289,12 0.39834,2.47431 1.02667,3.25 2.63282,3.25 1.98048,0 2.0087,-0.11137 0.45507,-1.82812 -2.35091,-2.59771 -2.27978,-10.15993 0.0957,-10.20313 1.66667,-0.0303 1.66667,-0.0962 0,-1.36133 -0.9625,-0.73064 -1.75,-1.83993 -1.75,-2.46679 0,-0.69754 -0.27908,-1.0543 -0.63672,-1.12696 z m 268.63672,0.002 c -0.275,0 -1.0205,1.12148 -1.65625,2.49218 -0.63576,1.37072 -0.74826,2.49219 -0.25,2.49219 0.49825,0 0.90625,2.40066 0.90625,5.33399 0,2.93334 0.29934,5.63334 0.66601,6 1.02247,1.02248 3.33399,0.79073 3.33399,-0.33399 0,-0.55 -0.45,-1 -1,-1 -0.55,0 -1,-2.25 -1,-5 0,-2.75 0.408,-5 0.90625,-5 0.49826,0 0.38576,-1.12148 -0.25,-2.49219 -0.63575,-1.37071 -1.38125,-2.49218 -1.65625,-2.49218 z m -200.51758,0.0117 c 0.53282,-0.0942 1.01758,0.59334 1.01758,2.13867 0,1.19166 -0.59635,2.36609 -1.32617,2.60937 -0.927,0.30899 -1.2284,-0.35293 -1,-2.19726 0.19565,-1.5799 0.77577,-2.45662 1.30859,-2.55078 z m 52.7793,0.004 c -0.53262,-0.0154 -1.21539,0.68033 -1.55079,1.96289 -0.42235,1.61506 -1.08578,1.88128 -3.49023,1.40039 -2.36584,-0.47317 -3.29749,-0.12214 -4.59375,1.72852 -2.05171,2.92927 -2.08011,6.78491 -0.0703,9.6543 1.61213,2.30163 4.86314,2.97048 5.94336,1.22265 0.34855,-0.56397 -0.46293,-1 -1.86133,-1 -1.93099,0 -2.62385,-0.65079 -3.12695,-2.9414 -0.9225,-4.20011 0.91003,-7.0586 4.52343,-7.0586 2.83906,0 2.96485,0.18717 2.96485,4.41797 0,2.43002 0.27357,5.13002 0.60742,6 0.66299,1.72773 3.39258,2.19607 3.39258,0.58203 0,-0.55 -0.45,-1 -1,-1 -1.48181,0 -1.24856,-9.71666 0.25,-10.41601 1,-0.46666 1,-0.70131 0,-1.16797 -0.6875,-0.32084 -1.25,-1.22084 -1.25,-2 0,-0.93173 -0.32403,-1.37283 -0.73828,-1.38477 z m -138.931644,0.0234 c -0.520258,0.0578 -1.271367,0.91164 -1.986328,2.45312 -0.635753,1.37072 -0.748254,2.49219 -0.25,2.49219 0.498252,0 0.90625,2.40066 0.90625,5.33399 -10e-7,2.93334 0.299348,5.63334 0.666015,6 1.022474,1.02248 3.333985,0.79073 3.333985,-0.33399 -10e-7,-0.55 -0.450001,-1 -1,-1 -1.481809,0 -1.248593,-9.71666 0.25,-10.41601 1,-0.46666 1,-0.70131 0,-1.16797 -0.6875,-0.32084 -1.25,-1.22084 -1.25,-2 -10e-7,-0.97048 -0.265278,-1.40626 -0.669922,-1.36133 z m -27.75,0.0566 c 0.195302,0.01 0.415021,0.0334 0.660156,0.0684 2.840021,0.40519 3.558471,3.76307 1.177734,5.50391 -2.778826,2.03193 -3.417968,1.61028 -3.417968,-2.25391 0,-2.73471 0.212962,-3.38566 1.580078,-3.31836 z m -58.978516,0.002 c 0.1930027,0.01 0.4080183,0.0323 0.6484375,0.0664 1.64812,0.23407 2.25,0.98907 2.25,2.82031 0,1.83124 -0.60188,2.58625 -2.25,2.82031 -1.923354,0.27316 -2.25,-0.13693 -2.25,-2.82031 0,-2.34796 0.2505435,-2.95468 1.6015625,-2.88672 z m 77.226562,2.80469 c -2.204691,-0.007 -4.283203,2.43746 -4.283203,7.08203 0,2.06106 0.607265,4.47858 1.34961,5.37305 3.377822,4.07003 8.908053,-0.61208 7.722656,-6.53906 -0.79908,-3.99541 -2.843746,-5.91001 -4.789063,-5.91602 z m 18.845708,0.082 c -3.821057,0 -6.082628,7.49985 -3.638676,12.06641 0.587396,1.09756 2.086196,1.93359 3.464846,1.93359 2.86985,0 4.5,-2.57396 4.5,-7.10547 0,-3.1819 -2.32954,-6.89453 -4.32617,-6.89453 z m 111.81054,0 c -3.85222,0 -5.99334,9.34845 -2.85937,12.48242 1.79803,1.79803 5.49623,1.68904 6.11133,-0.17968 0.25172,-0.76476 -0.60731,-1.126 -2.38086,-1 -1.94065,0.13788 -2.88725,-0.32959 -3.14063,-1.55274 -0.29162,-1.40781 0.33634,-1.75 3.21094,-1.75 3.11685,0 3.57422,-0.3094 3.57422,-2.42773 0,-2.66303 -2.35769,-5.57227 -4.51563,-5.57227 z m 285,0 c -3.53374,0 -5.73259,7.80013 -3.41797,12.125 0.73336,1.3703 1.8834,1.89852 3.67383,1.68555 3.62033,-0.43063 4.1923,-2.76195 0.61524,-2.50781 -1.94065,0.13788 -2.88725,-0.32959 -3.14063,-1.55274 -0.29162,-1.40781 0.33634,-1.75 3.21094,-1.75 3.11685,0 3.57422,-0.3094 3.57422,-2.42773 0,-2.66303 -2.35769,-5.57227 -4.51563,-5.57227 z M 17.423828,281.461 c -0.34414,-0.0178 -0.714948,0.0126 -1.113281,0.0898 -2.597939,0.50375 -2.755233,2.50816 -0.189453,2.41406 1.380911,-0.0506 2.381655,0.59213 2.599609,1.66797 0.237042,1.17006 -0.265066,1.75 -1.517578,1.75 -3.664342,0 -5.629468,4.24358 -3.125,6.74805 0.631467,0.63147 2.430607,1.05819 3.998047,0.94922 2.771849,-0.19269 2.849662,-0.35077 2.851562,-5.82422 0.0018,-5.19076 -1.094922,-7.67018 -3.503906,-7.79492 z m 344.000002,0 c -0.34414,-0.0178 -0.71495,0.0126 -1.11328,0.0898 -2.59794,0.50375 -2.75524,2.50816 -0.18946,2.41406 1.38091,-0.0506 2.38165,0.59213 2.59961,1.66797 0.24104,1.1898 -0.26933,1.75 -1.5957,1.75 -2.78603,0 -4.53155,2.52606 -3.78906,5.48438 0.5392,2.14835 1.13234,2.47581 4.10937,2.26367 l 3.48047,-0.24805 0.002,-5.62695 c 0.002,-5.19076 -1.09492,-7.67018 -3.5039,-7.79492 z m -42.46875,0.006 c -0.16539,0.005 -0.33575,0.0229 -0.50977,0.0566 -2.69799,0.52288 -2.96541,2.5382 -0.32422,2.4414 1.38091,-0.0506 2.38165,0.59213 2.59961,1.66797 0.23704,1.17006 -0.26505,1.75 -1.51758,1.75 -1.03032,0 -2.41421,0.53922 -3.07421,1.19922 -1.27406,1.27406 -1.62504,5.04292 -0.56836,6.09961 0.3472,0.3472 2.1472,0.57361 4,0.50391 l 3.36914,-0.12696 v -5.14648 c 0,-5.38944 -1.49381,-8.51965 -3.97461,-8.44531 z m -32.92188,0.0293 c -2.01721,-0.12891 -4.10351,1.82675 -4.10351,3.98633 0,1.01998 1.125,2.59125 2.5,3.49219 1.375,0.90093 2.5,2.31476 2.5,3.14062 0,1.06246 -0.7311,1.36158 -2.5,1.02344 -2.42175,-0.46295 -3.20306,0.20906 -1.83399,1.57813 1.06133,1.06133 3.82539,0.77422 5.13282,-0.53321 1.93556,-1.93556 1.3885,-4.63176 -1.29883,-6.39257 -2.87496,-1.88374 -3.3701,-4.68217 -0.75,-4.23829 2.20281,0.37318 2.9272,-1.55045 0.7539,-2.00195 -0.13323,-0.0277 -0.26591,-0.0461 -0.40039,-0.0547 z m -209.359372,0.0254 c -0.172732,-3.2e-4 -0.45833,0.17708 -0.865234,0.58399 -0.61702,0.61701 -1.74202,0.88266 -2.5,0.5918 -1.085163,-0.41642 -1.378906,0.87572 -1.378906,6.07812 0,3.73799 0.434236,6.60742 1,6.60742 0.55,0 1,-1.93871 1,-4.30859 -10e-7,-2.36988 0.661241,-5.18238 1.46875,-6.25 1.294749,-1.71182 1.793585,-3.30177 1.27539,-3.30274 z m 412.558592,0.004 c -3.26917,0.25662 -5.58759,7.58884 -3.26758,11.92383 1.06624,1.99228 5.96485,2.75887 5.96485,0.93359 0,-0.55 -0.89095,-1 -1.98047,-1 -2.32328,0 -3.56947,-3.67118 -2.58203,-7.60547 0.49396,-1.9681 1.13053,-2.47997 2.60742,-2.09375 2.37062,0.61993 2.62849,-1.10407 0.29883,-1.99804 -0.35445,-0.13602 -0.70283,-0.18671 -1.04102,-0.16016 z m -12.75976,0.002 c -0.59626,0.016 -1.64139,2.32656 -2.09766,5.36914 -0.79037,5.2706 -2.00389,5.05858 -2.94531,-0.51367 -0.70387,-4.1662 -2.5,-6.49406 -2.5,-3.24023 0,1.03264 0.69987,4.23798 1.55664,7.12304 0.88564,2.9823 2.0527,5.08009 2.70312,4.86329 1.14072,-0.38024 3.68411,-8.62055 3.72071,-12.05469 0.0116,-1.08778 -0.16648,-1.55416 -0.4375,-1.54688 z m -104.18555,0.0137 c -3.45721,0.15275 -5.77481,7.32558 -3.32227,11.9082 0.59362,1.10919 2.08657,1.93359 3.5,1.93359 3.08486,0 3.25713,-1.74761 0.21485,-2.17969 -2.46788,-0.35049 -3.3551,-3.27214 -2.28711,-7.52734 0.47014,-1.8732 1.11923,-2.37472 2.58203,-1.99219 2.30006,0.60148 2.66254,-1.0918 0.41797,-1.95312 -0.37802,-0.14506 -0.74783,-0.20526 -1.10547,-0.18945 z m 29.3457,0.008 c -0.19661,0.0165 -0.48913,0.2196 -0.8789,0.60937 -0.85892,0.85897 -1.5333,0.88042 -2.5,0.0781 -1.07731,-0.89409 -1.32422,0.22711 -1.32422,6.02344 0,4.08163 0.42693,7.12304 1,7.12304 0.55,0 1,-2.19429 1,-4.87695 0,-3.11565 0.54184,-5.32785 1.5,-6.12305 0.825,-0.68469 1.5,-1.72961 1.5,-2.32226 0,-0.35711 -0.10027,-0.52821 -0.29688,-0.51172 z m 53.42578,0.006 c -2.15125,0.0155 -4.1289,2.7318 -4.1289,7.19922 0,2.32571 0.53922,4.76968 1.19922,5.42968 1.62717,1.62717 4.29641,1.51087 5.75781,-0.25 1.00563,-1.2117 0.74575,-1.4166 -1.58789,-1.25 -1.9555,0.1396 -2.90032,-0.32472 -3.1543,-1.55078 -0.28168,-1.3598 0.31015,-1.75 2.65235,-1.75 3.8099,0 4.59392,-1.26613 2.93164,-4.73437 -1.0259,-2.14045 -2.37917,-3.10306 -3.66993,-3.09375 z m 53.58985,0.004 c -0.80806,0.0546 -1.63,0.33414 -2.26758,0.86329 -2.24223,1.86088 -1.72672,4.87795 1.04883,6.14257 1.42639,0.64991 2.5,1.97967 2.5,3.09571 0,1.54726 -0.52251,1.85653 -2.5,1.47851 -2.42175,-0.46295 -3.20306,0.20906 -1.83399,1.57813 0.36666,0.36667 1.70762,0.66601 2.98047,0.66601 1.67454,0 2.5009,-0.7397 2.98633,-2.67383 0.5435,-2.16548 0.1422,-3.09333 -2.10938,-4.88867 -3.02199,-2.40964 -2.6202,-4.95777 0.64649,-4.10351 1.21006,0.31643 1.7974,0.0669 1.55469,-0.66211 -0.34995,-1.05109 -1.65909,-1.58709 -3.00586,-1.4961 z m -261.12696,0.002 c -1.0391,0.0828 -2.11263,0.72784 -3.03515,2.04492 -2.03221,2.9014 -1.98599,7.64683 0.0976,9.94922 3.61953,3.99953 7.34571,1.1915 7.34571,-5.53516 0,-4.10129 -2.12217,-6.64111 -4.40821,-6.45898 z m -97.72656,0.01 c -0.47994,-0.0183 -1.01469,0.10035 -1.60351,0.35742 -0.9695,0.42328 -2.32422,0.67922 -3.01172,0.56836 -0.89319,-0.14402 -1.25,1.66785 -1.25,6.34375 0,3.69589 0.43521,6.54297 1,6.54297 0.55,0 1,-2.19429 1,-4.87695 0,-4.90448 1.8216,-7.96896 3.95508,-6.65039 0.57409,0.35481 1.04492,3.0934 1.04492,6.08594 0,2.99254 0.45,5.4414 1,5.4414 0.55324,0 1,-2.62524 1,-5.87695 0,-5.19487 -1.05501,-7.85606 -3.13477,-7.93555 z m 265.89844,0.0274 c -0.4122,-0.0356 -0.86064,0.0611 -1.36914,0.28125 -1.04204,0.45111 -2.45703,0.72804 -3.14453,0.61718 -0.89319,-0.14402 -1.25,1.66785 -1.25,6.34375 0,3.69589 0.43521,6.54297 1,6.54297 0.55,0 1,-1.98796 1,-4.41797 0,-5.28016 0.75894,-7.58203 2.5,-7.58203 1.74106,0 2.5,2.30187 2.5,7.58203 0,2.43001 0.45,4.41797 1,4.41797 1.49915,0 1.20447,-10.33739 -0.35547,-12.4707 -0.6063,-0.82916 -1.19386,-1.2551 -1.88086,-1.31445 z m -300.32617,0.0156 c -0.26266,0.0409 -0.4375,0.51248 -0.4375,1.5293 0,1.03264 0.6988,4.23 1.55273,7.10547 1.51769,5.11063 1.24346,9.13476 -0.62109,9.13476 -0.51293,0 -0.93164,0.4839 -0.93164,1.07422 0,0.59033 0.77447,0.92246 1.7207,0.74024 1.73252,-0.33366 6.04337,-12.57691 6.20508,-17.62305 0.12613,-3.9356 -1.77365,-1.39115 -2.48047,3.32226 -0.79037,5.2706 -2.00389,5.05858 -2.94531,-0.51367 -0.48391,-2.86426 -1.48465,-4.85939 -2.0625,-4.76953 z m 310.23633,0.0332 c -2.10349,-0.12152 -3.67383,2.61294 -3.67383,6.73633 0,4.73378 2.01136,7.49243 4.91015,6.73438 1.83124,-0.47887 2.15487,-0.20683 1.89844,1.59375 -0.25134,1.76478 -0.92546,2.14296 -3.59961,2.01953 -2.7179,-0.12546 -3.08782,0.0922 -2.12695,1.25 1.68485,2.03012 5.67666,1.72245 6.88281,-0.53125 1.54214,-2.88153 1.3606,-17.20716 -0.21484,-16.95313 -0.6875,0.11086 -2.10249,-0.16607 -3.14453,-0.61718 -0.31922,-0.1382 -0.63115,-0.21506 -0.93164,-0.23243 z m -147.69141,0.0156 c -4.11521,-0.30767 -6.56999,7.00906 -3.42578,11.49805 1.61213,2.30163 4.86314,2.97048 5.94336,1.22265 0.35006,-0.56641 -0.48322,-1 -1.92188,-1 -2.90275,0 -4.23777,-3.23407 -3.14062,-7.60547 0.49383,-1.96757 1.13169,-2.47967 2.60742,-2.09375 2.74262,0.71721 3.4669,-1.00307 0.78125,-1.85547 -0.28794,-0.0914 -0.5694,-0.1455 -0.84375,-0.16601 z m -17.1582,0.0742 c -0.49852,0.0454 -1.05761,0.23543 -1.67969,0.56836 -1.46789,0.78559 -2.11304,0.73957 -2.48438,-0.17969 -0.27595,-0.68311 -0.53863,2.10953 -0.58203,6.20703 -0.0884,8.34064 1.60024,8.78927 2.11133,0.56055 0.23655,-3.80841 0.7252,-5.07064 2.06055,-5.32422 1.51105,-0.28694 1.75,0.49618 1.75,5.74023 0,3.38221 0.4431,6.07422 1,6.07422 0.55324,0 1,-2.62524 1,-5.87695 0,-5.43993 -1.01556,-7.96621 -3.17578,-7.76953 z m -134.82422,0.0742 v 9.78515 c 0,5.85739 0.40146,9.78711 1,9.78711 0.55,0 1,-1.53274 1,-3.40625 0,-2.99304 0.25972,-3.33766 2.14843,-2.84375 2.8285,0.73967 4.85584,-2.06542 4.83594,-6.6914 -0.0212,-4.92245 -1.22335,-6.37326 -5.39648,-6.51172 z m 39,0 -3.58789,0.11914 c -4.17314,0.13846 -5.37529,1.58927 -5.39649,6.51172 -0.0201,4.67224 2.00294,7.43195 4.89453,6.67578 1.83124,-0.47887 2.15487,-0.20683 1.89844,1.59375 -0.25134,1.76478 -0.92546,2.14296 -3.59961,2.01953 -2.7179,-0.12546 -3.08782,0.0922 -2.12695,1.25 1.68485,2.03012 5.67666,1.72245 6.88281,-0.53125 0.56935,-1.06384 1.03516,-5.4686 1.03516,-9.78711 z m 220.11328,0.0273 c -0.0369,0.006 -0.0744,0.0209 -0.11328,0.0449 -1.4104,0.87168 -1.2489,10.85266 0.19922,12.30078 1.41349,1.41349 3.4571,1.56381 4.23047,0.3125 0.30126,-0.48747 -0.34759,-1.12021 -1.44141,-1.40625 -1.68911,-0.44171 -1.98828,-1.37089 -1.98828,-6.17187 0,-3.29417 -0.33295,-5.17448 -0.88672,-5.08008 z m -346.998048,0.004 c -0.03735,0.003 -0.07582,0.0167 -0.115234,0.041 -0.55,0.33992 -1,3.51606 -1,7.0586 0,3.62732 0.436836,6.4414 1,6.4414 0.572225,0 1,-3.01924 1,-7.05859 0,-4.17315 -0.324589,-6.52585 -0.884766,-6.48242 z m 100.999998,0 c -0.0373,0.003 -0.0758,0.0167 -0.11523,0.041 -0.55,0.33992 -1,3.51606 -1,7.0586 0,3.62732 0.43684,6.4414 1,6.4414 0.57222,0 1,-3.01924 1,-7.05859 0,-4.17315 -0.32459,-6.52585 -0.88477,-6.48242 z m -114.115232,0.041 v 9.75 c -10e-7,5.83333 0.401709,9.75 1,9.75 0.55,0 1,-1.53274 1,-3.40625 0,-2.99304 0.259729,-3.33766 2.148437,-2.84375 2.84928,0.7451 4.851563,-2.06818 4.851563,-6.81836 0,-4.30014 -2.03979,-6.43164 -6.154297,-6.43164 z m 214.500002,0 c -2.4197,0 -2.5,0.21667 -2.5,6.75 0,3.83333 0.4321,6.75 1,6.75 0.55,0 1,-2.21702 1,-4.92773 0,-3.04762 0.57246,-5.50216 1.5,-6.42969 1.99243,-1.99243 1.92223,-2.14258 -1,-2.14258 z m 226,0 c -2.4198,0 -2.5,0.21667 -2.5,6.75 0,3.83333 0.4321,6.75 1,6.75 0.55,0 1,-2.21702 1,-4.92773 0,-3.04762 0.57246,-5.50216 1.5,-6.42969 1.99243,-1.99243 1.92223,-2.14258 -1,-2.14258 z m -135.75,0.0156 c -2.7377,-0.0152 -2.75,0.0147 -2.75,6.93359 0,7.9524 1.69635,7.99967 2.18945,0.0606 0.23655,-3.80841 0.7252,-5.07064 2.06055,-5.32422 1.51105,-0.28694 1.75,0.49618 1.75,5.74023 0,3.38221 0.4431,6.07422 1,6.07422 1.48845,0 1.25733,-11.71868 -0.25,-12.67578 -0.6875,-0.43654 -2.4875,-0.80059 -4,-0.80859 z m 62.25586,0.0195 c -0.90509,0.0978 -1.9228,10.01118 -1.20117,12.21484 0.22512,0.6875 0.81157,1.25 1.30273,1.25 1.17503,0 1.16014,-12.7167 -0.0156,-13.44336 -0.0289,-0.0179 -0.0567,-0.0246 -0.0859,-0.0215 z m -44.97266,0.0176 c -0.92946,0.0978 -2.04176,10.19196 -1.28906,12.19726 0.25805,0.6875 0.87212,1.25 1.36328,1.25 1.1564,0 1.17116,-12.70967 0.0156,-13.42383 -0.0295,-0.0183 -0.0599,-0.0266 -0.0898,-0.0234 z m -78.0332,0.44726 c -0.5641,0 -1,2.83333 -1,6.5 0,3.66667 0.4359,6.5 1,6.5 0.5641,0 1,-2.83333 1,-6.5 0,-3.66667 -0.4359,-6.5 -1,-6.5 z m 71,0 c -1.08191,0 -1.38543,8.83064 -0.39258,11.41797 0.67373,1.75573 3.92788,2.14294 4.89258,0.58203 0.33992,-0.55 -0.30895,-1 -1.44141,-1 -1.82911,0 -2.05859,-0.61412 -2.05859,-5.5 0,-3.025 -0.45,-5.5 -1,-5.5 z m 65,0 c -0.5641,0 -1,2.83333 -1,6.5 0,3.66667 0.4359,6.5 1,6.5 0.5641,0 1,-2.83333 1,-6.5 0,-3.66667 -0.4359,-6.5 -1,-6.5 z m 76,0 c -0.5641,0 -1,2.83333 -1,6.5 0,3.66667 0.4359,6.5 1,6.5 0.5641,0 1,-2.83333 1,-6.5 0,-3.66667 -0.4359,-6.5 -1,-6.5 z m -398.060549,1 c 1.755931,0 3.21127,4.03363 2.546875,7.0586 -0.849887,3.86951 -4.045094,4.03184 -4.769532,0.24218 -0.580339,-3.03584 0.717946,-7.30078 2.222657,-7.30078 z m -53.5625,0.1543 c 1.706126,-0.0618 2.659161,2.16689 2.384765,5.83789 -0.249295,3.33522 -2.352851,5.0827 -4.060547,3.375 -1.437589,-1.43759 -0.742917,-8.41433 0.900391,-9.04492 0.273119,-0.10481 0.531658,-0.15914 0.775391,-0.16797 z m 71.999999,0 c 1.70613,-0.0618 2.65917,2.16689 2.38477,5.83789 -0.24929,3.33522 -2.35286,5.0827 -4.060551,3.375 -1.437589,-1.43759 -0.742913,-8.41433 0.900391,-9.04492 0.27312,-0.10481 0.53166,-0.15914 0.77539,-0.16797 z m 325.21094,0.0137 c 1.82025,0.12674 2.88794,3.80196 2.00195,7.33203 -0.67675,2.69638 -3.31269,3.38562 -4.19141,1.09571 -1.08003,-2.81453 0.0561,-8.07095 1.81641,-8.4043 0.12769,-0.0242 0.2517,-0.0319 0.37305,-0.0234 z m -179.17774,0.004 c 0.12205,-0.008 0.24639,6.2e-4 0.375,0.0254 1.3143,0.25311 1.71485,1.37367 1.71485,4.80273 0,3.42906 -0.40055,4.54963 -1.71485,4.80274 -1.14719,0.22093 -1.92636,-0.51886 -2.35742,-2.23633 -0.90024,-3.58688 0.15178,-7.27426 1.98242,-7.39453 z m -86.70117,0.004 c 0.23648,0.0135 0.48678,0.0697 0.74805,0.16993 1.25992,0.48347 1.58545,1.65847 1.35156,4.88671 -0.20821,2.87399 -0.81023,4.34473 -1.85742,4.54297 -2.20041,0.41656 -2.95305,-0.65764 -2.93555,-4.1914 0.0174,-3.51181 1.03799,-5.50271 2.69336,-5.40821 z m 52.97852,0.0508 c 1.14363,0.0554 2.3125,0.93635 2.3125,2.24218 0,0.96681 -0.92167,1.53125 -2.5,1.53125 -2.65662,0 -3.01057,-0.64657 -1.58594,-2.89648 0.40952,-0.64675 1.08726,-0.91022 1.77344,-0.87695 z m 285,0 c 1.14363,0.0554 2.3125,0.93635 2.3125,2.24218 0,0.96681 -0.92167,1.53125 -2.5,1.53125 -2.65662,0 -3.01057,-0.64657 -1.58594,-2.89648 0.40952,-0.64675 1.08726,-0.91022 1.77344,-0.87695 z m -43.51172,0.0156 c 0.8815,-0.0668 1.78212,0.48742 2.10156,1.70898 0.43354,1.65786 0.0616,2.04883 -1.94531,2.04883 -1.81711,0 -2.38987,-0.46431 -2.14453,-1.73828 0.24346,-1.26422 1.10677,-1.95272 1.98828,-2.01953 z m -324.67578,0.25781 c 1.7028,0 2,0.6667 2,4.48633 0,3.48057 -0.39388,4.5623 -1.75391,4.82422 -2.14661,0.4134 -2.98959,-1.54734 -2.5664,-5.96484 0.24635,-2.57171 0.78276,-3.34571 2.32031,-3.34571 z m 46.52148,2.63281 c 0.3502,0.0714 0.75959,0.51536 1.40625,1.3711 0.82923,1.09732 1.52352,2.78359 1.54102,3.74609 0.0403,2.21494 -3.52319,2.35213 -4.36133,0.16797 -0.80031,-2.08557 -0.75394,-2.63757 0.36914,-4.41406 0.40541,-0.64128 0.69472,-0.94248 1.04492,-0.8711 z m 142.79102,1.97266 c 1.01107,-0.0709 1.24194,0.46737 1.01758,2.04492 -0.184,1.29371 -1.1448,2.48376 -2.16211,2.67774 -1.4177,0.27033 -1.75642,-0.1756 -1.5,-1.97852 0.184,-1.29371 1.1448,-2.48375 2.16211,-2.67773 0.17721,-0.0338 0.33798,-0.0563 0.48242,-0.0664 z m 42,0 c 1.01107,-0.0709 1.24194,0.46737 1.01758,2.04492 -0.184,1.29371 -1.1448,2.48376 -2.16211,2.67774 -1.4177,0.27033 -1.75642,-0.1756 -1.5,-1.97852 0.184,-1.29371 1.1448,-2.48375 2.16211,-2.67773 0.17721,-0.0338 0.33798,-0.0563 0.48242,-0.0664 z m -343.505862,0.0488 c 0.622179,-0.0217 0.731133,0.53752 0.53125,1.94531 -0.433822,3.05545 -3.83789,3.91994 -3.83789,0.97461 -1e-6,-1.14032 0.187951,-2.07422 0.417968,-2.07422 0.230016,0 1.16951,-0.2882 2.087891,-0.64062 0.329157,-0.12631 0.593388,-0.19786 0.800781,-0.20508 z"
         transform="matrix(0.23346663,0,0,0.23346663,78.097901,195.6892)" />
      <g
         id="g1223"
         transform="matrix(0.35277777,0,0,0.35277777,230.24445,184.36268)"
         style="fill:#00ff00;fill-opacity:1;stroke:none;stroke-width:0.28346458;stroke-miterlimit:4;stroke-dasharray:none">
        <g
           id="g1225"
           style="fill:#00ff00;fill-opacity:1;stroke:none;stroke-width:0.28346458;stroke-miterlimit:4;stroke-dasharray:none">
          <path
             inkscape:connector-curvature="0"
             d="m 31.148,211.062 -1.941,-2.308 v -86.59 c 0,-92.726 -0.09,-90.488 3.637,-92.484 1.035,-0.555 15.418,-0.809 45.476,-0.809 48.875,0 46.098,-0.285 50.801,5.207 4.137,4.836 4.336,6.879 4.336,44.965 0,37.449 -0.203,39.527 -4.301,44.398 -2.344,2.786 -7.082,5.141 -10.398,5.164 -4.793,0.032 -6.676,5.758 -2.59,7.872 1.219,0.628 2.937,1.144 3.824,1.144 2.266,0 5.555,2.102 6.91,4.414 0.629,1.078 2.7,6.625 4.602,12.324 4.141,12.426 4.394,12.934 7.187,14.379 3.239,1.672 54.52,1.684 57.758,0.012 3.754,-1.941 4.508,-3.793 4.508,-11.082 0,-7.531 -1.051,-10.387 -4.277,-11.668 -1.157,-0.457 -10.075,-1.32 -19.821,-1.918 -14.937,-0.918 -18.191,-1.328 -20.714,-2.613 -4.395,-2.242 -7.457,-5.063 -9.766,-8.989 l -2.047,-3.484 v -43.5 c 0,-23.926 0.262,-44.437 0.582,-45.582 0.887,-3.18 5.566,-7.91 8.68,-8.773 3.66,-1.02 76.554,-1.039 79.222,-0.024 3.539,1.344 4.141,4.383 4.141,20.953 0,16.352 -0.602,19.309 -4.266,20.977 -1.164,0.531 -8.812,0.828 -21.457,0.832 -10.808,0.004 -20.918,0.215 -22.461,0.473 -1.543,0.253 -3.652,1.308 -4.687,2.343 -1.766,1.766 -1.879,2.356 -1.879,9.688 0,7.215 0.133,7.941 1.777,9.586 2.262,2.261 6.34,3.39 12.246,3.398 8.235,0.008 30.434,2.321 32.426,3.383 2.957,1.57 5.782,4.52 8.082,8.434 l 2.094,3.562 v 89.484 l -2.32,2.883 c -1.278,1.586 -3.438,3.641 -4.801,4.571 l -2.477,1.687 H 107.137 l -1.778,-1.781 c -1.972,-1.973 -2.742,-4.254 -4.945,-14.719 -0.824,-3.918 -2,-9.32 -2.613,-12 -1.043,-4.574 -3.41,-15.719 -4.922,-23.18 -1.43,-7.039 -2.77,-8.171 -11.543,-9.757 -3.16,-0.571 -4.875,-1.313 -5.774,-2.5 -1.75,-2.317 -2.347,-9.102 -1.972,-22.375 0.316,-11.036 0.355,-11.27 2.359,-13.274 1.84,-1.84 2.66,-2.066 8.371,-2.305 10.442,-0.433 11.168,-1.929 10.754,-22.113 L 94.832,77.488 92.727,75.68 C 90.707,73.941 90.176,73.871 79.414,73.871 H 68.207 v 134.84 l -2.176,2.328 -2.176,2.332 H 33.09 Z"
             style="fill:#00ff00;fill-opacity:1;stroke:none;stroke-width:0.28346458;stroke-linecap:butt;stroke-linejoin:miter;stroke-miterlimit:4;stroke-dasharray:none;stroke-opacity:1"
             id="path1227" />
        </g>
      </g>
    </g>
    <image
       y="44.997944"
       x="32.327759"
       id="image240"
       preserveAspectRatio="none"
       height="8.6071272"
       width="98.919594"
       style="stroke-width:0.1;stroke-miterlimit:4;stroke-dasharray:none"
       xlink:href="/home/sedelpeuch/eirbot/BureauEirbot/Partenariat/logo/lasercut/title.png"
       sodipodi:absref="/home/sedelpeuch/eirbot/BureauEirbot/Partenariat/logo/lasercut/title.png" />
  </g>
</svg>
