<?xml version="1.0" encoding="UTF-8" standalone="no"?>
<svg
   xmlns:dc="http://purl.org/dc/elements/1.1/"
   xmlns:cc="http://creativecommons.org/ns#"
   xmlns:rdf="http://www.w3.org/1999/02/22-rdf-syntax-ns#"
   xmlns:svg="http://www.w3.org/2000/svg"
   xmlns="http://www.w3.org/2000/svg"
   xmlns:sodipodi="http://sodipodi.sourceforge.net/DTD/sodipodi-0.dtd"
   xmlns:inkscape="http://www.inkscape.org/namespaces/inkscape"
   version="1.1"
   id="svg833"
   xml:space="preserve"
   width="3264"
   height="2112"
   viewBox="0 0 3264 2112"
   sodipodi:docname="haut.svg"
   inkscape:version="0.92.5 (2060ec1f9f, 2020-04-08)"><metadata
     id="metadata839"><rdf:RDF><cc:Work
         rdf:about=""><dc:format>image/svg+xml</dc:format><dc:type
           rdf:resource="http://purl.org/dc/dcmitype/StillImage" /><dc:title /></cc:Work></rdf:RDF></metadata><defs
     id="defs837"><clipPath
       clipPathUnits="userSpaceOnUse"
       id="clipPath849"><path
         d="M -1224,-792 V 2376 H 3672 V -792 Z"
         id="path847" /></clipPath><clipPath
       clipPathUnits="userSpaceOnUse"
       id="clipPath857"><path
         d="M -1224,-792 V 2376 H 3672 V -792 Z"
         id="path855" /></clipPath><clipPath
       clipPathUnits="userSpaceOnUse"
       id="clipPath1125"><path
         d="M -1224,-792 V 2376 H 3672 V -792 Z"
         id="path1123" /></clipPath><clipPath
       clipPathUnits="userSpaceOnUse"
       id="clipPath1237"><path
         d="M -1224,-792 V 2376 H 3672 V -792 Z"
         id="path1235" /></clipPath><clipPath
       clipPathUnits="userSpaceOnUse"
       id="clipPath1277"><path
         d="M -1224,-792 V 2376 H 3672 V -792 Z"
         id="path1275" /></clipPath><clipPath
       clipPathUnits="userSpaceOnUse"
       id="clipPath1421"><path
         d="M -1224,-792 V 2376 H 3672 V -792 Z"
         id="path1419" /></clipPath><clipPath
       clipPathUnits="userSpaceOnUse"
       id="clipPath1545"><path
         d="M -1224,-792 V 2376 H 3672 V -792 Z"
         id="path1543" /></clipPath><filter
       inkscape:collect="always"
       style="color-interpolation-filters:sRGB"
       id="filter1006"
       x="-0.0026652592"
       width="1.0053305"
       y="-0.0026652589"
       height="1.0053305"><feGaussianBlur
         inkscape:collect="always"
         stdDeviation="0.048679373"
         id="feGaussianBlur1008" /></filter><filter
       inkscape:collect="always"
       style="color-interpolation-filters:sRGB"
       id="filter1010"
       x="-0.00012"
       width="1.00024"
       y="-0.00012"
       height="1.00024"><feGaussianBlur
         inkscape:collect="always"
         stdDeviation="0.048679373"
         id="feGaussianBlur1012" /></filter></defs><sodipodi:namedview
     inkscape:document-rotation="0"
     pagecolor="#ffffff"
     bordercolor="#666666"
     borderopacity="1"
     objecttolerance="10"
     gridtolerance="10"
     guidetolerance="10"
     inkscape:pageopacity="0"
     inkscape:pageshadow="2"
     inkscape:window-width="2416"
     inkscape:window-height="1472"
     id="namedview835"
     showgrid="false"
     inkscape:zoom="0.76431209"
     inkscape:cx="472.16913"
     inkscape:cy="1339.5555"
     inkscape:window-x="144"
     inkscape:window-y="54"
     inkscape:window-maximized="1"
     inkscape:current-layer="g841" /><g
     id="g841"
     inkscape:groupmode="layer"
     inkscape:label="haut"
     transform="matrix(1.3333333,0,0,-1.3333333,0,2112)"><path
       inkscape:connector-curvature="0"
       id="path1083"
       style="fill:none;stroke:#ffff00;stroke-width:0.28346458;stroke-linecap:round;stroke-linejoin:round;stroke-miterlimit:4;stroke-dasharray:none;stroke-opacity:1;filter:url(#filter1010)"
       d="m 688.45109,1583.1192 -401.15545,0.764 L 0.85169,1299.5222 0.11683,896.53527 285.37015,610.98722 l 401.33264,-0.69142 286.2668,284.28846 0.7347,402.98674 -285.2532,285.5482" /><ellipse
       ry="21.917288"
       rx="21.917286"
       transform="matrix(1,0,0,-1,-487.90491,165.37448)"
       cy="-931.71503"
       cx="1239.188"
       id="path900"
       style="fill:none;fill-opacity:1;stroke:#ffff00;stroke-width:0.28346458;stroke-miterlimit:4;stroke-dasharray:none;stroke-opacity:1;filter:url(#filter1006)" /><path
       style="fill:none;fill-opacity:1;stroke:#ff0000;stroke-width:0.35819486;stroke-miterlimit:4;stroke-dasharray:none;stroke-opacity:1"
       d="m 527.1,770.27792 a 19.663819,19.663812 0 0 1 -19.63196,-19.66337 19.663819,19.663812 0 0 1 19.66343,-19.66348 19.663819,19.663812 0 0 1 19.66342,19.66348 19.663819,19.663812 0 0 1 -19.66342,19.66337 19.663819,19.663812 0 0 1 -0.0315,0 z"
       id="path1434"
       inkscape:connector-curvature="0" /><path
       style="fill:none;fill-opacity:1;stroke:#ffff00;stroke-width:0.28346458;stroke-miterlimit:4;stroke-dasharray:none;stroke-opacity:1"
       d="m 330.29297,757.64503 c -3.92597,0 -7.0869,-3.13643 -7.0869,-7.03125 0,-3.8949 3.16093,-7.02983 7.0869,-7.02983 H 500.2588 c 3.92599,0 7.08692,3.13493 7.08692,7.02983 0,3.89482 -3.16093,7.03125 -7.08692,7.03125 z"
       id="path31" /><path
       inkscape:connector-curvature="0"
       id="path35"
       d="m 500.3463,757.64068 c 8.77063,0 8.74164,0 8.74164,0"
       style="fill:none;fill-opacity:1;stroke:#ffff00;stroke-width:0.28346458;stroke-linecap:butt;stroke-linejoin:miter;stroke-miterlimit:4;stroke-dasharray:none;stroke-opacity:1" /><path
       inkscape:connector-curvature="0"
       id="path35-3"
       d="m 500.3463,743.58382 c 8.77063,0 8.74164,0 8.74164,0"
       style="fill:none;fill-opacity:1;stroke:#ffff00;stroke-width:0.28346458;stroke-linecap:butt;stroke-linejoin:miter;stroke-miterlimit:4;stroke-dasharray:none;stroke-opacity:1" /><g
       id="g1425"
       transform="translate(7.5,27.537517)"><rect
         transform="scale(1,-1)"
         y="-1120.073"
         x="48.223682"
         height="64.913391"
         width="38.267719"
         id="rect1416"
         style="fill:none;stroke:#ff0000;stroke-width:0.28346458;stroke-miterlimit:4;stroke-dasharray:none" /><rect
         transform="scale(1,-1)"
         y="-1175.9292"
         x="52.617386"
         height="32.598427"
         width="29.480316"
         id="rect1418"
         style="fill:none;stroke:#ff0000;stroke-width:0.28346458;stroke-miterlimit:4;stroke-dasharray:none" /><circle
         r="11.905512"
         transform="scale(1,-1)"
         cy="-1087.6163"
         cx="154.90556"
         id="path1420"
         style="fill:none;stroke:#ff0000;stroke-width:0.28346458;stroke-miterlimit:4;stroke-dasharray:none" /></g></g></svg>