<?xml version="1.0" encoding="UTF-8"?> <!-- Generator: Adobe Illustrator 23.0.2, SVG Export Plug-In . SVG Version: 6.00 Build 0) --> <svg xmlns="http://www.w3.org/2000/svg" xmlns:xlink="http://www.w3.org/1999/xlink" id="Calque_1" x="0px" y="0px" viewBox="0 0 670 180" style="enable-background:new 0 0 670 180;" xml:space="preserve"> <style type="text/css"> .st0{fill:none;} .st1{fill:#243884;} .st2{fill:#F9B803;} .st3{fill:#7685BC;} .st4{fill:#89A4D5;} </style> <title>ed-logo-color</title> <g> <g id="Calque_1-2"> <rect class="st0" width="670" height="180"></rect> <g> <path class="st1" d="M271.3,109.6v-54h48.2V65h-38.8v35.1h38.9v9.4L271.3,109.6z M287.5,86.1v-7.9h29.9v7.9H287.5z"></path> <path class="st1" d="M327.6,109.6v-54h9.4v44.5h36.3v9.4L327.6,109.6z"></path> <path class="st1" d="M380.1,109.6v-9.4h40.4c2.1,0.1,4.2-0.6,5.8-1.9c1.4-1.3,2.1-3.2,2-5.1c0.2-2-0.6-3.9-2-5.2 c-1.6-1.2-3.7-1.9-5.7-1.7h-24.9c-2.3,0-4.6-0.4-6.8-1.2c-1.9-0.7-3.7-1.8-5.2-3.2c-1.4-1.4-2.5-3-3.3-4.8 c-0.8-2-1.2-4.1-1.1-6.2c0-2.1,0.3-4.1,1-6.1c0.7-1.8,1.8-3.4,3.2-4.8c1.5-1.4,3.3-2.5,5.2-3.2c2.3-0.8,4.7-1.2,7.1-1.2h38.7v9.4 h-38.7c-1.9-0.1-3.7,0.5-5,1.8c-1.2,1.3-1.9,3.1-1.8,4.9c-0.1,1.8,0.6,3.6,1.9,4.8c1.4,1.2,3.1,1.8,4.9,1.7h24.7 c5.5,0,9.7,1.3,12.5,3.9s4.3,6.5,4.3,11.7c0,2.1-0.3,4.3-1,6.3c-0.7,1.9-1.7,3.6-3.1,5c-1.5,1.5-3.3,2.6-5.2,3.3 c-2.4,0.8-4.8,1.2-7.4,1.2L380.1,109.6z"></path> <path class="st1" d="M470.4,109.6V89.1l-28.6-33.5h12.7l21,24.9l21.1-24.9h12l-28.7,33.5v20.5H470.4z"></path> <path class="st1" d="M510,109.6v-9.4h40.4c2.1,0.1,4.2-0.6,5.8-1.9c1.4-1.3,2.1-3.2,2-5.1c0.2-2-0.6-3.9-2-5.2 c-1.7-1.3-3.7-1.9-5.8-1.8h-24.8c-2.3,0-4.7-0.4-6.9-1.2c-1.9-0.7-3.7-1.8-5.2-3.2c-1.4-1.4-2.5-3-3.3-4.8 c-0.8-2-1.2-4.1-1.1-6.2c0-2.1,0.3-4.1,1.1-6.1c0.7-1.8,1.8-3.4,3.2-4.8c1.5-1.4,3.3-2.5,5.2-3.2c2.3-0.8,4.7-1.2,7.1-1.2h38.8 v9.4h-38.7c-1.9-0.1-3.7,0.5-5,1.8c-1.2,1.3-1.9,3.1-1.8,4.9c-0.1,1.8,0.6,3.6,1.9,4.8c1.4,1.2,3.1,1.8,4.9,1.7h24.7 c5.5,0,9.7,1.3,12.5,3.9c2.8,2.6,4.3,6.5,4.3,11.7c0,2.1-0.3,4.3-1,6.3c-0.7,1.9-1.7,3.6-3.2,5c-1.5,1.5-3.3,2.6-5.2,3.3 c-2.4,0.8-4.8,1.2-7.4,1.2L510,109.6z"></path> <path class="st1" d="M422.9,121.3h9c8.2,0,13.8,4.6,13.8,10.5v0.1c0,5.9-5.7,10.6-13.8,10.6h-9V121.3z M425.9,123.5v16.7h6.1 c6.6,0,10.8-3.6,10.8-8.3v-0.1c0-4.7-4.2-8.3-10.8-8.3L425.9,123.5z"></path> <path class="st1" d="M452,121.3h18.8v2.2H455v7.2h14.2v2.2H455v7.4H471v2.2h-19L452,121.3z"></path> <path class="st1" d="M475.3,139.4l1.9-1.8c2.5,2,5.7,3.1,8.9,3c3.5,0,5.8-1.5,5.8-3.6v-0.1c0-2-1.3-3.1-6.8-4 c-6-1.1-8.8-2.6-8.8-6.1v-0.1c0-3.3,3.6-5.8,8.5-5.8c3.3-0.1,6.5,0.8,9.2,2.6l-1.7,1.9c-2.2-1.5-4.8-2.3-7.5-2.3 c-3.4,0-5.5,1.5-5.5,3.4v0.1c0,2,1.3,3.1,7.1,4.1s8.5,2.8,8.5,6v0.1c0,3.6-3.7,6-8.9,6C482.1,142.9,478.4,141.7,475.3,139.4z"></path> <path class="st1" d="M501,121.3h2.9v21.2H501V121.3z"></path> <path class="st1" d="M510.4,131.9L510.4,131.9c0-5.8,5.2-11,13.1-11c3.5-0.2,6.9,0.8,9.7,2.8l-1.9,1.9c-2.3-1.7-5.1-2.5-7.9-2.4 c-5.8,0-9.9,4-9.9,8.7v0.1c0,5,4,8.8,10.3,8.8c2.7,0,5.3-0.7,7.5-2.1v-5.2h-8v-2.2h10.8v8.4c-3.1,2.1-6.7,3.3-10.5,3.2 C515.5,142.8,510.4,138,510.4,131.9z"></path> <path class="st1" d="M540.8,121.3h2.8l16.4,16.9v-16.9h2.9v21.2h-2.3l-16.8-17.3v17.3h-2.9V121.3z"></path> <path class="st2" d="M174.3,108h-17.1c-2.3,0-4.2-1.9-4.2-4.2c0-0.8,0.3-1.6,0.7-2.3l8.5-13c1.2-1.9,3.8-2.5,5.7-1.2 c0.5,0.3,0.9,0.7,1.2,1.2l8.6,13c1.3,1.9,0.7,4.6-1.2,5.8C175.9,107.8,175.2,108,174.3,108L174.3,108z"></path> <path class="st3" d="M175.1,149.2c53.7-1.2,50.6-12.2,33-41.5c-15.2-25.2-24.7-37.4-35.7-30.1c3.1,4.5,6.4,9.8,10.1,15.9 c21.9,36.4,9.1,40.5-33,41.4c-2.7,0.1-5.3,0.1-7.7,0C141.7,145.6,151.1,149.7,175.1,149.2"></path> <path class="st1" d="M117.5,79.8c-26.4,48.2-15.7,51.2,17.7,50.5c28.7-0.6,43.7-2.8,43.3-16.3c-5.3,0.5-11.4,0.7-18.4,0.8 c-41.5,0.9-38.4-12.6-17.7-50.4c1.4-2.5,2.7-4.7,3.9-6.8C137.6,51.9,129.3,58.2,117.5,79.8"></path> <path class="st4" d="M211.8,64.3C184.6,12.2,176,20,157.7,50.2c-15.8,26-22.3,40.6-10.3,48.2c2.6-5,5.9-10.6,9.7-16.9 c22.8-37.5,32.8-26.7,54.1,14.1c1.4,2.7,2.6,5.2,3.7,7.5C224.7,98.6,223.9,87.6,211.8,64.3"></path> </g> </g> </g> </svg> 