<?xml version="1.0" encoding="UTF-8" standalone="no"?>
<svg
   xmlns:dc="http://purl.org/dc/elements/1.1/"
   xmlns:cc="http://creativecommons.org/ns#"
   xmlns:rdf="http://www.w3.org/1999/02/22-rdf-syntax-ns#"
   xmlns:svg="http://www.w3.org/2000/svg"
   xmlns="http://www.w3.org/2000/svg"
   xmlns:sodipodi="http://sodipodi.sourceforge.net/DTD/sodipodi-0.dtd"
   xmlns:inkscape="http://www.inkscape.org/namespaces/inkscape"
   height="488.30mm"
   viewBox="0.0 0.0 508.30 488.30"
   width="508.30mm"
   version="1.1"
   id="svg1530"
   sodipodi:docname="TwoPiece (1).svg"
   inkscape:version="0.92.5 (2060ec1f9f, 2020-04-08)">
  <defs
     id="defs1534">
    <clipPath
       clipPathUnits="userSpaceOnUse"
       id="clipPath5257-5-2">
      <path
         d="M 0,595.28 H 841.89 V 0 H 0 Z"
         id="path5255-6-9"
         inkscape:connector-curvature="0" />
    </clipPath>
  </defs>
  <sodipodi:namedview
     pagecolor="#ffffff"
     bordercolor="#666666"
     borderopacity="1"
     objecttolerance="10"
     gridtolerance="10"
     guidetolerance="10"
     inkscape:pageopacity="0"
     inkscape:pageshadow="2"
     inkscape:window-width="2416"
     inkscape:window-height="1472"
     id="namedview1532"
     showgrid="false"
     inkscape:zoom="0.5115025"
     inkscape:cx="621.34493"
     inkscape:cy="780.44627"
     inkscape:window-x="144"
     inkscape:window-y="54"
     inkscape:window-maximized="1"
     inkscape:current-layer="svg1530" />
  <!--
TwoPiece - A two piece box where top slips over the bottom half to form 
       the enclosure.
    

Created with Boxes.py (https://festi.info/boxes.py)
Creation date: 2020-10-23 07:32:36
Command line (remove spaces between dashes): boxes TwoPiece - -FingerJoint_angle=90.0 - -FingerJoint_style=rectangular - -FingerJoint_surroundingspaces=2.0 - -FingerJoint_edge_width=1.0 - -FingerJoint_finger=2.0 - -FingerJoint_play=0.0 - -FingerJoint_space=2.0 - -FingerJoint_width=1.0 - -x=120 - -y=120 - -h=170 - -hi=0.0 - -outside=0 - -outside=1 - -play=0.05 - -thickness=5 - -format=svg - -tabs=0.0 - -debug=0 - -reference=100 - -burn=0.1
Url: http://www.festi.info/TwoPiece?FingerJoint_angle=90.0&FingerJoint_style=rectangular&FingerJoint_surroundingspaces=2.0&FingerJoint_edge_width=1.0&FingerJoint_finger=2.0&FingerJoint_play=0.0&FingerJoint_space=2.0&FingerJoint_width=1.0&x=120&y=120&h=170&hi=0.0&outside=0&outside=1&play=0.05&thickness=5&format=svg&tabs=0.0&debug=0&reference=100&burn=0.1&render=1
SettingsUrl: http://www.festi.info/TwoPiece?FingerJoint_angle=90.0&FingerJoint_style=rectangular&FingerJoint_surroundingspaces=2.0&FingerJoint_edge_width=1.0&FingerJoint_finger=2.0&FingerJoint_play=0.0&FingerJoint_space=2.0&FingerJoint_width=1.0&x=120&y=120&h=170&hi=0.0&outside=0&outside=1&play=0.05&thickness=5&format=svg&tabs=0.0&debug=0&reference=100&burn=0.1
-->
  <title
     id="title1459">TwoPiece</title>
  <metadata
     id="metadata1461">
    <rdf:RDF>
      <cc:Work>
        <dc:title>Box - TwoPiece</dc:title>
        <dc:date>2020-10-23 07:32:36</dc:date>
        <dc:source>http://www.festi.info/TwoPiece?FingerJoint_angle=90.0&amp;FingerJoint_style=rectangular&amp;FingerJoint_surroundingspaces=2.0&amp;FingerJoint_edge_width=1.0&amp;FingerJoint_finger=2.0&amp;FingerJoint_play=0.0&amp;FingerJoint_space=2.0&amp;FingerJoint_width=1.0&amp;x=120&amp;y=120&amp;h=170&amp;hi=0.0&amp;outside=0&amp;outside=1&amp;play=0.05&amp;thickness=5&amp;format=svg&amp;tabs=0.0&amp;debug=0&amp;reference=100&amp;burn=0.1&amp;render=1</dc:source>
        <dc:description>A two piece box where top slips over the bottom half to form 
       the enclosure.
    

Created with Boxes.py (https://festi.info/boxes.py)
Command line: boxes TwoPiece --FingerJoint_angle=90.0 --FingerJoint_style=rectangular --FingerJoint_surroundingspaces=2.0 --FingerJoint_edge_width=1.0 --FingerJoint_finger=2.0 --FingerJoint_play=0.0 --FingerJoint_space=2.0 --FingerJoint_width=1.0 --x=120 --y=120 --h=170 --hi=0.0 --outside=0 --outside=1 --play=0.05 --thickness=5 --format=svg --tabs=0.0 --debug=0 --reference=100 --burn=0.1
Url: http://www.festi.info/TwoPiece?FingerJoint_angle=90.0&amp;FingerJoint_style=rectangular&amp;FingerJoint_surroundingspaces=2.0&amp;FingerJoint_edge_width=1.0&amp;FingerJoint_finger=2.0&amp;FingerJoint_play=0.0&amp;FingerJoint_space=2.0&amp;FingerJoint_width=1.0&amp;x=120&amp;y=120&amp;h=170&amp;hi=0.0&amp;outside=0&amp;outside=1&amp;play=0.05&amp;thickness=5&amp;format=svg&amp;tabs=0.0&amp;debug=0&amp;reference=100&amp;burn=0.1&amp;render=1
SettingsUrl: http://www.festi.info/TwoPiece?FingerJoint_angle=90.0&amp;FingerJoint_style=rectangular&amp;FingerJoint_surroundingspaces=2.0&amp;FingerJoint_edge_width=1.0&amp;FingerJoint_finger=2.0&amp;FingerJoint_play=0.0&amp;FingerJoint_space=2.0&amp;FingerJoint_width=1.0&amp;x=120&amp;y=120&amp;h=170&amp;hi=0.0&amp;outside=0&amp;outside=1&amp;play=0.05&amp;thickness=5&amp;format=svg&amp;tabs=0.0&amp;debug=0&amp;reference=100&amp;burn=0.1
</dc:description>
        <dc:format>image/svg+xml</dc:format>
        <dc:type
           rdf:resource="http://purl.org/dc/dcmitype/StillImage" />
      </cc:Work>
    </rdf:RDF>
  </metadata>
  <g
     id="p-1"
     style="fill:none;stroke-linecap:round;stroke-linejoin:round;stroke:#ff0000;stroke-opacity:1">
    <path
       d="M 15.100 460.600 H 29.750 C 29.850 460.600 29.750 460.500 29.750 460.600 V 465.500 C 29.750 465.555 29.795 465.600 29.850 465.600 H 39.850 C 39.905 465.600 39.950 465.555 39.950 465.500 V 460.600 C 39.950 460.500 39.850 460.600 39.950 460.600 H 49.750 C 49.850 460.600 49.750 460.500 49.750 460.600 V 465.500 C 49.750 465.555 49.795 465.600 49.850 465.600 H 59.850 C 59.905 465.600 59.950 465.555 59.950 465.500 V 460.600 C 59.950 460.500 59.850 460.600 59.950 460.600 H 69.750 C 69.850 460.600 69.750 460.500 69.750 460.600 V 465.500 C 69.750 465.555 69.795 465.600 69.850 465.600 H 79.850 C 79.905 465.600 79.950 465.555 79.950 465.500 V 460.600 C 79.950 460.500 79.850 460.600 79.950 460.600 H 89.750 C 89.850 460.600 89.750 460.500 89.750 460.600 V 465.500 C 89.750 465.555 89.795 465.600 89.850 465.600 H 99.850 C 99.905 465.600 99.950 465.555 99.950 465.500 V 460.600 C 99.950 460.500 99.850 460.600 99.950 460.600 H 114.600 H 119.600 C 119.655 460.600 119.700 460.555 119.700 460.500 V 445.500 C 119.700 445.445 119.655 445.400 119.600 445.400 H 114.700 C 114.600 445.400 114.700 445.500 114.700 445.400 V 435.600 C 114.700 435.500 114.600 435.600 114.700 435.600 H 119.600 C 119.655 435.600 119.700 435.555 119.700 435.500 V 425.500 C 119.700 425.445 119.655 425.400 119.600 425.400 H 114.700 C 114.600 425.400 114.700 425.500 114.700 425.400 V 415.600 C 114.700 415.500 114.600 415.600 114.700 415.600 H 119.600 C 119.655 415.600 119.700 415.555 119.700 415.500 V 405.500 C 119.700 405.445 119.655 405.400 119.600 405.400 H 114.700 C 114.600 405.400 114.700 405.500 114.700 405.400 V 395.600 C 114.700 395.500 114.600 395.600 114.700 395.600 H 119.600 C 119.655 395.600 119.700 395.555 119.700 395.500 V 385.500 C 119.700 385.445 119.655 385.400 119.600 385.400 H 114.700 C 114.600 385.400 114.700 385.500 114.700 385.400 V 375.600 C 114.700 375.500 114.600 375.600 114.700 375.600 H 119.600 C 119.655 375.600 119.700 375.555 119.700 375.500 V 365.500 C 119.700 365.445 119.655 365.400 119.600 365.400 H 114.700 C 114.600 365.400 114.700 365.500 114.700 365.400 V 355.600 C 114.700 355.500 114.600 355.600 114.700 355.600 H 119.600 C 119.655 355.600 119.700 355.555 119.700 355.500 V 345.500 C 119.700 345.445 119.655 345.400 119.600 345.400 H 114.700 C 114.600 345.400 114.700 345.500 114.700 345.400 V 335.600 C 114.700 335.500 114.600 335.600 114.700 335.600 H 119.600 C 119.655 335.600 119.700 335.555 119.700 335.500 V 325.500 C 119.700 325.445 119.655 325.400 119.600 325.400 H 114.700 C 114.600 325.400 114.700 325.500 114.700 325.400 V 315.600 C 114.700 315.500 114.600 315.600 114.700 315.600 H 119.600 C 119.655 315.600 119.700 315.555 119.700 315.500 V 300.500 C 119.700 300.445 119.655 300.400 119.600 300.400 H 114.600 H 15.100 H 10.100 C 10.045 300.400 10.000 300.445 10.000 300.500 V 315.500 C 10.000 315.555 10.045 315.600 10.100 315.600 H 15.000 C 15.100 315.600 15.000 315.500 15.000 315.600 V 325.400 C 15.000 325.500 15.100 325.400 15.000 325.400 H 10.100 C 10.045 325.400 10.000 325.445 10.000 325.500 V 335.500 C 10.000 335.555 10.045 335.600 10.100 335.600 H 15.000 C 15.100 335.600 15.000 335.500 15.000 335.600 V 345.400 C 15.000 345.500 15.100 345.400 15.000 345.400 H 10.100 C 10.045 345.400 10.000 345.445 10.000 345.500 V 355.500 C 10.000 355.555 10.045 355.600 10.100 355.600 H 15.000 C 15.100 355.600 15.000 355.500 15.000 355.600 V 365.400 C 15.000 365.500 15.100 365.400 15.000 365.400 H 10.100 C 10.045 365.400 10.000 365.445 10.000 365.500 V 375.500 C 10.000 375.555 10.045 375.600 10.100 375.600 H 15.000 C 15.100 375.600 15.000 375.500 15.000 375.600 V 385.400 C 15.000 385.500 15.100 385.400 15.000 385.400 H 10.100 C 10.045 385.400 10.000 385.445 10.000 385.500 V 395.500 C 10.000 395.555 10.045 395.600 10.100 395.600 H 15.000 C 15.100 395.600 15.000 395.500 15.000 395.600 V 405.400 C 15.000 405.500 15.100 405.400 15.000 405.400 H 10.100 C 10.045 405.400 10.000 405.445 10.000 405.500 V 415.500 C 10.000 415.555 10.045 415.600 10.100 415.600 H 15.000 C 15.100 415.600 15.000 415.500 15.000 415.600 V 425.400 C 15.000 425.500 15.100 425.400 15.000 425.400 H 10.100 C 10.045 425.400 10.000 425.445 10.000 425.500 V 435.500 C 10.000 435.555 10.045 435.600 10.100 435.600 H 15.000 C 15.100 435.600 15.000 435.500 15.000 435.600 V 445.400 C 15.000 445.500 15.100 445.400 15.000 445.400 H 10.100 C 10.045 445.400 10.000 445.445 10.000 445.500 V 460.500 C 10.000 460.555 10.045 460.600 10.100 460.600 H 15.100 Z"
       stroke="rgb(0,0,0)"
       stroke-width="0.20"
       id="path1468"
       style="stroke:#ff0000;stroke-opacity:1" />
  </g>
  <g
     id="p-2"
     style="fill:none;stroke-linecap:round;stroke-linejoin:round;stroke:#ff0000;stroke-opacity:1">
    <path
       d="M 127.300 460.600 H 141.950 C 142.050 460.600 141.950 460.500 141.950 460.600 V 465.500 C 141.950 465.555 141.995 465.600 142.050 465.600 H 152.050 C 152.105 465.600 152.150 465.555 152.150 465.500 V 460.600 C 152.150 460.500 152.050 460.600 152.150 460.600 H 161.950 C 162.050 460.600 161.950 460.500 161.950 460.600 V 465.500 C 161.950 465.555 161.995 465.600 162.050 465.600 H 172.050 C 172.105 465.600 172.150 465.555 172.150 465.500 V 460.600 C 172.150 460.500 172.050 460.600 172.150 460.600 H 181.950 C 182.050 460.600 181.950 460.500 181.950 460.600 V 465.500 C 181.950 465.555 181.995 465.600 182.050 465.600 H 192.050 C 192.105 465.600 192.150 465.555 192.150 465.500 V 460.600 C 192.150 460.500 192.050 460.600 192.150 460.600 H 201.950 C 202.050 460.600 201.950 460.500 201.950 460.600 V 465.500 C 201.950 465.555 201.995 465.600 202.050 465.600 H 212.050 C 212.105 465.600 212.150 465.555 212.150 465.500 V 460.600 C 212.150 460.500 212.050 460.600 212.150 460.600 H 226.800 C 226.855 460.600 226.900 460.555 226.900 460.500 V 445.600 C 226.900 445.500 226.800 445.600 226.900 445.600 H 231.800 C 231.855 445.600 231.900 445.555 231.900 445.500 V 435.500 C 231.900 435.445 231.855 435.400 231.800 435.400 H 226.900 C 226.800 435.400 226.900 435.500 226.900 435.400 V 425.600 C 226.900 425.500 226.800 425.600 226.900 425.600 H 231.800 C 231.855 425.600 231.900 425.555 231.900 425.500 V 415.500 C 231.900 415.445 231.855 415.400 231.800 415.400 H 226.900 C 226.800 415.400 226.900 415.500 226.900 415.400 V 405.600 C 226.900 405.500 226.800 405.600 226.900 405.600 H 231.800 C 231.855 405.600 231.900 405.555 231.900 405.500 V 395.500 C 231.900 395.445 231.855 395.400 231.800 395.400 H 226.900 C 226.800 395.400 226.900 395.500 226.900 395.400 V 385.600 C 226.900 385.500 226.800 385.600 226.900 385.600 H 231.800 C 231.855 385.600 231.900 385.555 231.900 385.500 V 375.500 C 231.900 375.445 231.855 375.400 231.800 375.400 H 226.900 C 226.800 375.400 226.900 375.500 226.900 375.400 V 365.600 C 226.900 365.500 226.800 365.600 226.900 365.600 H 231.800 C 231.855 365.600 231.900 365.555 231.900 365.500 V 355.500 C 231.900 355.445 231.855 355.400 231.800 355.400 H 226.900 C 226.800 355.400 226.900 355.500 226.900 355.400 V 345.600 C 226.900 345.500 226.800 345.600 226.900 345.600 H 231.800 C 231.855 345.600 231.900 345.555 231.900 345.500 V 335.500 C 231.900 335.445 231.855 335.400 231.800 335.400 H 226.900 C 226.800 335.400 226.900 335.500 226.900 335.400 V 325.600 C 226.900 325.500 226.800 325.600 226.900 325.600 H 231.800 C 231.855 325.600 231.900 325.555 231.900 325.500 V 315.500 C 231.900 315.445 231.855 315.400 231.800 315.400 H 226.900 C 226.800 315.400 226.900 315.500 226.900 315.400 V 300.500 C 226.900 300.445 226.855 300.400 226.800 300.400 H 127.300 C 127.245 300.400 127.200 300.445 127.200 300.500 V 315.400 C 127.200 315.500 127.300 315.400 127.200 315.400 H 122.300 C 122.245 315.400 122.200 315.445 122.200 315.500 V 325.500 C 122.200 325.555 122.245 325.600 122.300 325.600 H 127.200 C 127.300 325.600 127.200 325.500 127.200 325.600 V 335.400 C 127.200 335.500 127.300 335.400 127.200 335.400 H 122.300 C 122.245 335.400 122.200 335.445 122.200 335.500 V 345.500 C 122.200 345.555 122.245 345.600 122.300 345.600 H 127.200 C 127.300 345.600 127.200 345.500 127.200 345.600 V 355.400 C 127.200 355.500 127.300 355.400 127.200 355.400 H 122.300 C 122.245 355.400 122.200 355.445 122.200 355.500 V 365.500 C 122.200 365.555 122.245 365.600 122.300 365.600 H 127.200 C 127.300 365.600 127.200 365.500 127.200 365.600 V 375.400 C 127.200 375.500 127.300 375.400 127.200 375.400 H 122.300 C 122.245 375.400 122.200 375.445 122.200 375.500 V 385.500 C 122.200 385.555 122.245 385.600 122.300 385.600 H 127.200 C 127.300 385.600 127.200 385.500 127.200 385.600 V 395.400 C 127.200 395.500 127.300 395.400 127.200 395.400 H 122.300 C 122.245 395.400 122.200 395.445 122.200 395.500 V 405.500 C 122.200 405.555 122.245 405.600 122.300 405.600 H 127.200 C 127.300 405.600 127.200 405.500 127.200 405.600 V 415.400 C 127.200 415.500 127.300 415.400 127.200 415.400 H 122.300 C 122.245 415.400 122.200 415.445 122.200 415.500 V 425.500 C 122.200 425.555 122.245 425.600 122.300 425.600 H 127.200 C 127.300 425.600 127.200 425.500 127.200 425.600 V 435.400 C 127.200 435.500 127.300 435.400 127.200 435.400 H 122.300 C 122.245 435.400 122.200 435.445 122.200 435.500 V 445.500 C 122.200 445.555 122.245 445.600 122.300 445.600 H 127.200 C 127.300 445.600 127.200 445.500 127.200 445.600 V 460.500 C 127.200 460.555 127.245 460.600 127.300 460.600 Z"
       stroke="rgb(0,0,0)"
       stroke-width="0.20"
       id="path1471"
       style="stroke:#ff0000;stroke-opacity:1" />
  </g>
  <g
     id="p-3"
     style="fill:none;stroke-linecap:round;stroke-linejoin:round;stroke:#ff0000;stroke-opacity:1">
    <path
       d="M 239.500 460.600 H 254.150 C 254.250 460.600 254.150 460.500 254.150 460.600 V 465.500 C 254.150 465.555 254.195 465.600 254.250 465.600 H 264.250 C 264.305 465.600 264.350 465.555 264.350 465.500 V 460.600 C 264.350 460.500 264.250 460.600 264.350 460.600 H 274.150 C 274.250 460.600 274.150 460.500 274.150 460.600 V 465.500 C 274.150 465.555 274.195 465.600 274.250 465.600 H 284.250 C 284.305 465.600 284.350 465.555 284.350 465.500 V 460.600 C 284.350 460.500 284.250 460.600 284.350 460.600 H 294.150 C 294.250 460.600 294.150 460.500 294.150 460.600 V 465.500 C 294.150 465.555 294.195 465.600 294.250 465.600 H 304.250 C 304.305 465.600 304.350 465.555 304.350 465.500 V 460.600 C 304.350 460.500 304.250 460.600 304.350 460.600 H 314.150 C 314.250 460.600 314.150 460.500 314.150 460.600 V 465.500 C 314.150 465.555 314.195 465.600 314.250 465.600 H 324.250 C 324.305 465.600 324.350 465.555 324.350 465.500 V 460.600 C 324.350 460.500 324.250 460.600 324.350 460.600 H 339.000 H 344.000 C 344.055 460.600 344.100 460.555 344.100 460.500 V 445.500 C 344.100 445.445 344.055 445.400 344.000 445.400 H 339.100 C 339.000 445.400 339.100 445.500 339.100 445.400 V 435.600 C 339.100 435.500 339.000 435.600 339.100 435.600 H 344.000 C 344.055 435.600 344.100 435.555 344.100 435.500 V 425.500 C 344.100 425.445 344.055 425.400 344.000 425.400 H 339.100 C 339.000 425.400 339.100 425.500 339.100 425.400 V 415.600 C 339.100 415.500 339.000 415.600 339.100 415.600 H 344.000 C 344.055 415.600 344.100 415.555 344.100 415.500 V 405.500 C 344.100 405.445 344.055 405.400 344.000 405.400 H 339.100 C 339.000 405.400 339.100 405.500 339.100 405.400 V 395.600 C 339.100 395.500 339.000 395.600 339.100 395.600 H 344.000 C 344.055 395.600 344.100 395.555 344.100 395.500 V 385.500 C 344.100 385.445 344.055 385.400 344.000 385.400 H 339.100 C 339.000 385.400 339.100 385.500 339.100 385.400 V 375.600 C 339.100 375.500 339.000 375.600 339.100 375.600 H 344.000 C 344.055 375.600 344.100 375.555 344.100 375.500 V 365.500 C 344.100 365.445 344.055 365.400 344.000 365.400 H 339.100 C 339.000 365.400 339.100 365.500 339.100 365.400 V 355.600 C 339.100 355.500 339.000 355.600 339.100 355.600 H 344.000 C 344.055 355.600 344.100 355.555 344.100 355.500 V 345.500 C 344.100 345.445 344.055 345.400 344.000 345.400 H 339.100 C 339.000 345.400 339.100 345.500 339.100 345.400 V 335.600 C 339.100 335.500 339.000 335.600 339.100 335.600 H 344.000 C 344.055 335.600 344.100 335.555 344.100 335.500 V 325.500 C 344.100 325.445 344.055 325.400 344.000 325.400 H 339.100 C 339.000 325.400 339.100 325.500 339.100 325.400 V 315.600 C 339.100 315.500 339.000 315.600 339.100 315.600 H 344.000 C 344.055 315.600 344.100 315.555 344.100 315.500 V 300.500 C 344.100 300.445 344.055 300.400 344.000 300.400 H 339.000 H 239.500 H 234.500 C 234.445 300.400 234.400 300.445 234.400 300.500 V 315.500 C 234.400 315.555 234.445 315.600 234.500 315.600 H 239.400 C 239.500 315.600 239.400 315.500 239.400 315.600 V 325.400 C 239.400 325.500 239.500 325.400 239.400 325.400 H 234.500 C 234.445 325.400 234.400 325.445 234.400 325.500 V 335.500 C 234.400 335.555 234.445 335.600 234.500 335.600 H 239.400 C 239.500 335.600 239.400 335.500 239.400 335.600 V 345.400 C 239.400 345.500 239.500 345.400 239.400 345.400 H 234.500 C 234.445 345.400 234.400 345.445 234.400 345.500 V 355.500 C 234.400 355.555 234.445 355.600 234.500 355.600 H 239.400 C 239.500 355.600 239.400 355.500 239.400 355.600 V 365.400 C 239.400 365.500 239.500 365.400 239.400 365.400 H 234.500 C 234.445 365.400 234.400 365.445 234.400 365.500 V 375.500 C 234.400 375.555 234.445 375.600 234.500 375.600 H 239.400 C 239.500 375.600 239.400 375.500 239.400 375.600 V 385.400 C 239.400 385.500 239.500 385.400 239.400 385.400 H 234.500 C 234.445 385.400 234.400 385.445 234.400 385.500 V 395.500 C 234.400 395.555 234.445 395.600 234.500 395.600 H 239.400 C 239.500 395.600 239.400 395.500 239.400 395.600 V 405.400 C 239.400 405.500 239.500 405.400 239.400 405.400 H 234.500 C 234.445 405.400 234.400 405.445 234.400 405.500 V 415.500 C 234.400 415.555 234.445 415.600 234.500 415.600 H 239.400 C 239.500 415.600 239.400 415.500 239.400 415.600 V 425.400 C 239.400 425.500 239.500 425.400 239.400 425.400 H 234.500 C 234.445 425.400 234.400 425.445 234.400 425.500 V 435.500 C 234.400 435.555 234.445 435.600 234.500 435.600 H 239.400 C 239.500 435.600 239.400 435.500 239.400 435.600 V 445.400 C 239.400 445.500 239.500 445.400 239.400 445.400 H 234.500 C 234.445 445.400 234.400 445.445 234.400 445.500 V 460.500 C 234.400 460.555 234.445 460.600 234.500 460.600 H 239.500 Z"
       stroke="rgb(0,0,0)"
       stroke-width="0.20"
       id="path1474"
       style="stroke:#ff0000;stroke-opacity:1" />
  </g>
  <g
     id="p-4"
     style="fill:none;stroke-linecap:round;stroke-linejoin:round;stroke:#ff0000;stroke-opacity:1">
    <path
       d="M 351.700 460.600 H 366.350 C 366.450 460.600 366.350 460.500 366.350 460.600 V 465.500 C 366.350 465.555 366.395 465.600 366.450 465.600 H 376.450 C 376.505 465.600 376.550 465.555 376.550 465.500 V 460.600 C 376.550 460.500 376.450 460.600 376.550 460.600 H 386.350 C 386.450 460.600 386.350 460.500 386.350 460.600 V 465.500 C 386.350 465.555 386.395 465.600 386.450 465.600 H 396.450 C 396.505 465.600 396.550 465.555 396.550 465.500 V 460.600 C 396.550 460.500 396.450 460.600 396.550 460.600 H 406.350 C 406.450 460.600 406.350 460.500 406.350 460.600 V 465.500 C 406.350 465.555 406.395 465.600 406.450 465.600 H 416.450 C 416.505 465.600 416.550 465.555 416.550 465.500 V 460.600 C 416.550 460.500 416.450 460.600 416.550 460.600 H 426.350 C 426.450 460.600 426.350 460.500 426.350 460.600 V 465.500 C 426.350 465.555 426.395 465.600 426.450 465.600 H 436.450 C 436.505 465.600 436.550 465.555 436.550 465.500 V 460.600 C 436.550 460.500 436.450 460.600 436.550 460.600 H 451.200 C 451.255 460.600 451.300 460.555 451.300 460.500 V 445.600 C 451.300 445.500 451.200 445.600 451.300 445.600 H 456.200 C 456.255 445.600 456.300 445.555 456.300 445.500 V 435.500 C 456.300 435.445 456.255 435.400 456.200 435.400 H 451.300 C 451.200 435.400 451.300 435.500 451.300 435.400 V 425.600 C 451.300 425.500 451.200 425.600 451.300 425.600 H 456.200 C 456.255 425.600 456.300 425.555 456.300 425.500 V 415.500 C 456.300 415.445 456.255 415.400 456.200 415.400 H 451.300 C 451.200 415.400 451.300 415.500 451.300 415.400 V 405.600 C 451.300 405.500 451.200 405.600 451.300 405.600 H 456.200 C 456.255 405.600 456.300 405.555 456.300 405.500 V 395.500 C 456.300 395.445 456.255 395.400 456.200 395.400 H 451.300 C 451.200 395.400 451.300 395.500 451.300 395.400 V 385.600 C 451.300 385.500 451.200 385.600 451.300 385.600 H 456.200 C 456.255 385.600 456.300 385.555 456.300 385.500 V 375.500 C 456.300 375.445 456.255 375.400 456.200 375.400 H 451.300 C 451.200 375.400 451.300 375.500 451.300 375.400 V 365.600 C 451.300 365.500 451.200 365.600 451.300 365.600 H 456.200 C 456.255 365.600 456.300 365.555 456.300 365.500 V 355.500 C 456.300 355.445 456.255 355.400 456.200 355.400 H 451.300 C 451.200 355.400 451.300 355.500 451.300 355.400 V 345.600 C 451.300 345.500 451.200 345.600 451.300 345.600 H 456.200 C 456.255 345.600 456.300 345.555 456.300 345.500 V 335.500 C 456.300 335.445 456.255 335.400 456.200 335.400 H 451.300 C 451.200 335.400 451.300 335.500 451.300 335.400 V 325.600 C 451.300 325.500 451.200 325.600 451.300 325.600 H 456.200 C 456.255 325.600 456.300 325.555 456.300 325.500 V 315.500 C 456.300 315.445 456.255 315.400 456.200 315.400 H 451.300 C 451.200 315.400 451.300 315.500 451.300 315.400 V 300.500 C 451.300 300.445 451.255 300.400 451.200 300.400 H 351.700 C 351.645 300.400 351.600 300.445 351.600 300.500 V 315.400 C 351.600 315.500 351.700 315.400 351.600 315.400 H 346.700 C 346.645 315.400 346.600 315.445 346.600 315.500 V 325.500 C 346.600 325.555 346.645 325.600 346.700 325.600 H 351.600 C 351.700 325.600 351.600 325.500 351.600 325.600 V 335.400 C 351.600 335.500 351.700 335.400 351.600 335.400 H 346.700 C 346.645 335.400 346.600 335.445 346.600 335.500 V 345.500 C 346.600 345.555 346.645 345.600 346.700 345.600 H 351.600 C 351.700 345.600 351.600 345.500 351.600 345.600 V 355.400 C 351.600 355.500 351.700 355.400 351.600 355.400 H 346.700 C 346.645 355.400 346.600 355.445 346.600 355.500 V 365.500 C 346.600 365.555 346.645 365.600 346.700 365.600 H 351.600 C 351.700 365.600 351.600 365.500 351.600 365.600 V 375.400 C 351.600 375.500 351.700 375.400 351.600 375.400 H 346.700 C 346.645 375.400 346.600 375.445 346.600 375.500 V 385.500 C 346.600 385.555 346.645 385.600 346.700 385.600 H 351.600 C 351.700 385.600 351.600 385.500 351.600 385.600 V 395.400 C 351.600 395.500 351.700 395.400 351.600 395.400 H 346.700 C 346.645 395.400 346.600 395.445 346.600 395.500 V 405.500 C 346.600 405.555 346.645 405.600 346.700 405.600 H 351.600 C 351.700 405.600 351.600 405.500 351.600 405.600 V 415.400 C 351.600 415.500 351.700 415.400 351.600 415.400 H 346.700 C 346.645 415.400 346.600 415.445 346.600 415.500 V 425.500 C 346.600 425.555 346.645 425.600 346.700 425.600 H 351.600 C 351.700 425.600 351.600 425.500 351.600 425.600 V 435.400 C 351.600 435.500 351.700 435.400 351.600 435.400 H 346.700 C 346.645 435.400 346.600 435.445 346.600 435.500 V 445.500 C 346.600 445.555 346.645 445.600 346.700 445.600 H 351.600 C 351.700 445.600 351.600 445.500 351.600 445.600 V 460.500 C 351.600 460.555 351.645 460.600 351.700 460.600 Z"
       stroke="rgb(0,0,0)"
       stroke-width="0.20"
       id="path1477"
       style="stroke:#ff0000;stroke-opacity:1" />
  </g>
  <g
     id="p-5"
     style="fill:none;stroke-linecap:round;stroke-linejoin:round;stroke:#ff0000;stroke-opacity:1">
    <path
       d="M 15.100 292.900 H 25.000 C 25.100 292.900 25.000 292.800 25.000 292.900 V 297.800 C 25.000 297.855 25.045 297.900 25.100 297.900 H 35.100 C 35.155 297.900 35.200 297.855 35.200 297.800 V 292.900 C 35.200 292.800 35.100 292.900 35.200 292.900 H 45.000 C 45.100 292.900 45.000 292.800 45.000 292.900 V 297.800 C 45.000 297.855 45.045 297.900 45.100 297.900 H 55.100 C 55.155 297.900 55.200 297.855 55.200 297.800 V 292.900 C 55.200 292.800 55.100 292.900 55.200 292.900 H 65.000 C 65.100 292.900 65.000 292.800 65.000 292.900 V 297.800 C 65.000 297.855 65.045 297.900 65.100 297.900 H 75.100 C 75.155 297.900 75.200 297.855 75.200 297.800 V 292.900 C 75.200 292.800 75.100 292.900 75.200 292.900 H 85.000 C 85.100 292.900 85.000 292.800 85.000 292.900 V 297.800 C 85.000 297.855 85.045 297.900 85.100 297.900 H 95.100 C 95.155 297.900 95.200 297.855 95.200 297.800 V 292.900 C 95.200 292.800 95.100 292.900 95.200 292.900 H 105.000 C 105.100 292.900 105.000 292.800 105.000 292.900 V 297.800 C 105.000 297.855 105.045 297.900 105.100 297.900 H 115.100 C 115.155 297.900 115.200 297.855 115.200 297.800 V 292.900 C 115.200 292.800 115.100 292.900 115.200 292.900 H 125.100 H 130.100 C 130.155 292.900 130.200 292.855 130.200 292.800 V 277.800 C 130.200 277.745 130.155 277.700 130.100 277.700 H 125.200 C 125.100 277.700 125.200 277.800 125.200 277.700 V 267.900 C 125.200 267.800 125.100 267.900 125.200 267.900 H 130.100 C 130.155 267.900 130.200 267.855 130.200 267.800 V 257.800 C 130.200 257.745 130.155 257.700 130.100 257.700 H 125.200 C 125.100 257.700 125.200 257.800 125.200 257.700 V 247.900 C 125.200 247.800 125.100 247.900 125.200 247.900 H 130.100 C 130.155 247.900 130.200 247.855 130.200 247.800 V 237.800 C 130.200 237.745 130.155 237.700 130.100 237.700 H 125.200 C 125.100 237.700 125.200 237.800 125.200 237.700 V 227.900 C 125.200 227.800 125.100 227.900 125.200 227.900 H 130.100 C 130.155 227.900 130.200 227.855 130.200 227.800 V 217.800 C 130.200 217.745 130.155 217.700 130.100 217.700 H 125.200 C 125.100 217.700 125.200 217.800 125.200 217.700 V 207.900 C 125.200 207.800 125.100 207.900 125.200 207.900 H 130.100 C 130.155 207.900 130.200 207.855 130.200 207.800 V 197.800 C 130.200 197.745 130.155 197.700 130.100 197.700 H 125.200 C 125.100 197.700 125.200 197.800 125.200 197.700 V 187.900 C 125.200 187.800 125.100 187.900 125.200 187.900 H 130.100 C 130.155 187.900 130.200 187.855 130.200 187.800 V 177.800 C 130.200 177.745 130.155 177.700 130.100 177.700 H 125.200 C 125.100 177.700 125.200 177.800 125.200 177.700 V 167.900 C 125.200 167.800 125.100 167.900 125.200 167.900 H 130.100 C 130.155 167.900 130.200 167.855 130.200 167.800 V 157.800 C 130.200 157.745 130.155 157.700 130.100 157.700 H 125.200 C 125.100 157.700 125.200 157.800 125.200 157.700 V 147.900 C 125.200 147.800 125.100 147.900 125.200 147.900 H 130.100 C 130.155 147.900 130.200 147.855 130.200 147.800 V 132.800 C 130.200 132.745 130.155 132.700 130.100 132.700 H 125.100 H 15.100 H 10.100 C 10.045 132.700 10.000 132.745 10.000 132.800 V 147.800 C 10.000 147.855 10.045 147.900 10.100 147.900 H 15.000 C 15.100 147.900 15.000 147.800 15.000 147.900 V 157.700 C 15.000 157.800 15.100 157.700 15.000 157.700 H 10.100 C 10.045 157.700 10.000 157.745 10.000 157.800 V 167.800 C 10.000 167.855 10.045 167.900 10.100 167.900 H 15.000 C 15.100 167.900 15.000 167.800 15.000 167.900 V 177.700 C 15.000 177.800 15.100 177.700 15.000 177.700 H 10.100 C 10.045 177.700 10.000 177.745 10.000 177.800 V 187.800 C 10.000 187.855 10.045 187.900 10.100 187.900 H 15.000 C 15.100 187.900 15.000 187.800 15.000 187.900 V 197.700 C 15.000 197.800 15.100 197.700 15.000 197.700 H 10.100 C 10.045 197.700 10.000 197.745 10.000 197.800 V 207.800 C 10.000 207.855 10.045 207.900 10.100 207.900 H 15.000 C 15.100 207.900 15.000 207.800 15.000 207.900 V 217.700 C 15.000 217.800 15.100 217.700 15.000 217.700 H 10.100 C 10.045 217.700 10.000 217.745 10.000 217.800 V 227.800 C 10.000 227.855 10.045 227.900 10.100 227.900 H 15.000 C 15.100 227.900 15.000 227.800 15.000 227.900 V 237.700 C 15.000 237.800 15.100 237.700 15.000 237.700 H 10.100 C 10.045 237.700 10.000 237.745 10.000 237.800 V 247.800 C 10.000 247.855 10.045 247.900 10.100 247.900 H 15.000 C 15.100 247.900 15.000 247.800 15.000 247.900 V 257.700 C 15.000 257.800 15.100 257.700 15.000 257.700 H 10.100 C 10.045 257.700 10.000 257.745 10.000 257.800 V 267.800 C 10.000 267.855 10.045 267.900 10.100 267.900 H 15.000 C 15.100 267.900 15.000 267.800 15.000 267.900 V 277.700 C 15.000 277.800 15.100 277.700 15.000 277.700 H 10.100 C 10.045 277.700 10.000 277.745 10.000 277.800 V 292.800 C 10.000 292.855 10.045 292.900 10.100 292.900 H 15.100 Z"
       stroke="rgb(0,0,0)"
       stroke-width="0.20"
       id="path1480"
       style="stroke:#ff0000;stroke-opacity:1" />
  </g>
  <g
     id="p-6"
     style="fill:none;stroke-linecap:round;stroke-linejoin:round;stroke:#ff0000;stroke-opacity:1">
    <path
       d="M 137.800 292.900 H 147.700 C 147.800 292.900 147.700 292.800 147.700 292.900 V 297.800 C 147.700 297.855 147.745 297.900 147.800 297.900 H 157.800 C 157.855 297.900 157.900 297.855 157.900 297.800 V 292.900 C 157.900 292.800 157.800 292.900 157.900 292.900 H 167.700 C 167.800 292.900 167.700 292.800 167.700 292.900 V 297.800 C 167.700 297.855 167.745 297.900 167.800 297.900 H 177.800 C 177.855 297.900 177.900 297.855 177.900 297.800 V 292.900 C 177.900 292.800 177.800 292.900 177.900 292.900 H 187.700 C 187.800 292.900 187.700 292.800 187.700 292.900 V 297.800 C 187.700 297.855 187.745 297.900 187.800 297.900 H 197.800 C 197.855 297.900 197.900 297.855 197.900 297.800 V 292.900 C 197.900 292.800 197.800 292.900 197.900 292.900 H 207.700 C 207.800 292.900 207.700 292.800 207.700 292.900 V 297.800 C 207.700 297.855 207.745 297.900 207.800 297.900 H 217.800 C 217.855 297.900 217.900 297.855 217.900 297.800 V 292.900 C 217.900 292.800 217.800 292.900 217.900 292.900 H 227.700 C 227.800 292.900 227.700 292.800 227.700 292.900 V 297.800 C 227.700 297.855 227.745 297.900 227.800 297.900 H 237.800 C 237.855 297.900 237.900 297.855 237.900 297.800 V 292.900 C 237.900 292.800 237.800 292.900 237.900 292.900 H 247.800 C 247.855 292.900 247.900 292.855 247.900 292.800 V 277.900 C 247.900 277.800 247.800 277.900 247.900 277.900 H 252.800 C 252.855 277.900 252.900 277.855 252.900 277.800 V 267.800 C 252.900 267.745 252.855 267.700 252.800 267.700 H 247.900 C 247.800 267.700 247.900 267.800 247.900 267.700 V 257.900 C 247.900 257.800 247.800 257.900 247.900 257.900 H 252.800 C 252.855 257.900 252.900 257.855 252.900 257.800 V 247.800 C 252.900 247.745 252.855 247.700 252.800 247.700 H 247.900 C 247.800 247.700 247.900 247.800 247.900 247.700 V 237.900 C 247.900 237.800 247.800 237.900 247.900 237.900 H 252.800 C 252.855 237.900 252.900 237.855 252.900 237.800 V 227.800 C 252.900 227.745 252.855 227.700 252.800 227.700 H 247.900 C 247.800 227.700 247.900 227.800 247.900 227.700 V 217.900 C 247.900 217.800 247.800 217.900 247.900 217.900 H 252.800 C 252.855 217.900 252.900 217.855 252.900 217.800 V 207.800 C 252.900 207.745 252.855 207.700 252.800 207.700 H 247.900 C 247.800 207.700 247.900 207.800 247.900 207.700 V 197.900 C 247.900 197.800 247.800 197.900 247.900 197.900 H 252.800 C 252.855 197.900 252.900 197.855 252.900 197.800 V 187.800 C 252.900 187.745 252.855 187.700 252.800 187.700 H 247.900 C 247.800 187.700 247.900 187.800 247.900 187.700 V 177.900 C 247.900 177.800 247.800 177.900 247.900 177.900 H 252.800 C 252.855 177.900 252.900 177.855 252.900 177.800 V 167.800 C 252.900 167.745 252.855 167.700 252.800 167.700 H 247.900 C 247.800 167.700 247.900 167.800 247.900 167.700 V 157.900 C 247.900 157.800 247.800 157.900 247.900 157.900 H 252.800 C 252.855 157.900 252.900 157.855 252.900 157.800 V 147.800 C 252.900 147.745 252.855 147.700 252.800 147.700 H 247.900 C 247.800 147.700 247.900 147.800 247.900 147.700 V 132.800 C 247.900 132.745 247.855 132.700 247.800 132.700 H 137.800 C 137.745 132.700 137.700 132.745 137.700 132.800 V 147.700 C 137.700 147.800 137.800 147.700 137.700 147.700 H 132.800 C 132.745 147.700 132.700 147.745 132.700 147.800 V 157.800 C 132.700 157.855 132.745 157.900 132.800 157.900 H 137.700 C 137.800 157.900 137.700 157.800 137.700 157.900 V 167.700 C 137.700 167.800 137.800 167.700 137.700 167.700 H 132.800 C 132.745 167.700 132.700 167.745 132.700 167.800 V 177.800 C 132.700 177.855 132.745 177.900 132.800 177.900 H 137.700 C 137.800 177.900 137.700 177.800 137.700 177.900 V 187.700 C 137.700 187.800 137.800 187.700 137.700 187.700 H 132.800 C 132.745 187.700 132.700 187.745 132.700 187.800 V 197.800 C 132.700 197.855 132.745 197.900 132.800 197.900 H 137.700 C 137.800 197.900 137.700 197.800 137.700 197.900 V 207.700 C 137.700 207.800 137.800 207.700 137.700 207.700 H 132.800 C 132.745 207.700 132.700 207.745 132.700 207.800 V 217.800 C 132.700 217.855 132.745 217.900 132.800 217.900 H 137.700 C 137.800 217.900 137.700 217.800 137.700 217.900 V 227.700 C 137.700 227.800 137.800 227.700 137.700 227.700 H 132.800 C 132.745 227.700 132.700 227.745 132.700 227.800 V 237.800 C 132.700 237.855 132.745 237.900 132.800 237.900 H 137.700 C 137.800 237.900 137.700 237.800 137.700 237.900 V 247.700 C 137.700 247.800 137.800 247.700 137.700 247.700 H 132.800 C 132.745 247.700 132.700 247.745 132.700 247.800 V 257.800 C 132.700 257.855 132.745 257.900 132.800 257.900 H 137.700 C 137.800 257.900 137.700 257.800 137.700 257.900 V 267.700 C 137.700 267.800 137.800 267.700 137.700 267.700 H 132.800 C 132.745 267.700 132.700 267.745 132.700 267.800 V 277.800 C 132.700 277.855 132.745 277.900 132.800 277.900 H 137.700 C 137.800 277.900 137.700 277.800 137.700 277.900 V 292.800 C 137.700 292.855 137.745 292.900 137.800 292.900 Z"
       stroke="rgb(0,0,0)"
       stroke-width="0.20"
       id="path1483"
       style="stroke:#ff0000;stroke-opacity:1" />
  </g>
  <g
     id="p-7"
     style="fill:none;stroke-linecap:round;stroke-linejoin:round;stroke:#ff0000;stroke-opacity:1">
    <path
       d="M 260.500 292.900 H 270.400 C 270.500 292.900 270.400 292.800 270.400 292.900 V 297.800 C 270.400 297.855 270.445 297.900 270.500 297.900 H 280.500 C 280.555 297.900 280.600 297.855 280.600 297.800 V 292.900 C 280.600 292.800 280.500 292.900 280.600 292.900 H 290.400 C 290.500 292.900 290.400 292.800 290.400 292.900 V 297.800 C 290.400 297.855 290.445 297.900 290.500 297.900 H 300.500 C 300.555 297.900 300.600 297.855 300.600 297.800 V 292.900 C 300.600 292.800 300.500 292.900 300.600 292.900 H 310.400 C 310.500 292.900 310.400 292.800 310.400 292.900 V 297.800 C 310.400 297.855 310.445 297.900 310.500 297.900 H 320.500 C 320.555 297.900 320.600 297.855 320.600 297.800 V 292.900 C 320.600 292.800 320.500 292.900 320.600 292.900 H 330.400 C 330.500 292.900 330.400 292.800 330.400 292.900 V 297.800 C 330.400 297.855 330.445 297.900 330.500 297.900 H 340.500 C 340.555 297.900 340.600 297.855 340.600 297.800 V 292.900 C 340.600 292.800 340.500 292.900 340.600 292.900 H 350.400 C 350.500 292.900 350.400 292.800 350.400 292.900 V 297.800 C 350.400 297.855 350.445 297.900 350.500 297.900 H 360.500 C 360.555 297.900 360.600 297.855 360.600 297.800 V 292.900 C 360.600 292.800 360.500 292.900 360.600 292.900 H 370.500 H 375.500 C 375.555 292.900 375.600 292.855 375.600 292.800 V 277.800 C 375.600 277.745 375.555 277.700 375.500 277.700 H 370.600 C 370.500 277.700 370.600 277.800 370.600 277.700 V 267.900 C 370.600 267.800 370.500 267.900 370.600 267.900 H 375.500 C 375.555 267.900 375.600 267.855 375.600 267.800 V 257.800 C 375.600 257.745 375.555 257.700 375.500 257.700 H 370.600 C 370.500 257.700 370.600 257.800 370.600 257.700 V 247.900 C 370.600 247.800 370.500 247.900 370.600 247.900 H 375.500 C 375.555 247.900 375.600 247.855 375.600 247.800 V 237.800 C 375.600 237.745 375.555 237.700 375.500 237.700 H 370.600 C 370.500 237.700 370.600 237.800 370.600 237.700 V 227.900 C 370.600 227.800 370.500 227.900 370.600 227.900 H 375.500 C 375.555 227.900 375.600 227.855 375.600 227.800 V 217.800 C 375.600 217.745 375.555 217.700 375.500 217.700 H 370.600 C 370.500 217.700 370.600 217.800 370.600 217.700 V 207.900 C 370.600 207.800 370.500 207.900 370.600 207.900 H 375.500 C 375.555 207.900 375.600 207.855 375.600 207.800 V 197.800 C 375.600 197.745 375.555 197.700 375.500 197.700 H 370.600 C 370.500 197.700 370.600 197.800 370.600 197.700 V 187.900 C 370.600 187.800 370.500 187.900 370.600 187.900 H 375.500 C 375.555 187.900 375.600 187.855 375.600 187.800 V 177.800 C 375.600 177.745 375.555 177.700 375.500 177.700 H 370.600 C 370.500 177.700 370.600 177.800 370.600 177.700 V 167.900 C 370.600 167.800 370.500 167.900 370.600 167.900 H 375.500 C 375.555 167.900 375.600 167.855 375.600 167.800 V 157.800 C 375.600 157.745 375.555 157.700 375.500 157.700 H 370.600 C 370.500 157.700 370.600 157.800 370.600 157.700 V 147.900 C 370.600 147.800 370.500 147.900 370.600 147.900 H 375.500 C 375.555 147.900 375.600 147.855 375.600 147.800 V 132.800 C 375.600 132.745 375.555 132.700 375.500 132.700 H 370.500 H 260.500 H 255.500 C 255.445 132.700 255.400 132.745 255.400 132.800 V 147.800 C 255.400 147.855 255.445 147.900 255.500 147.900 H 260.400 C 260.500 147.900 260.400 147.800 260.400 147.900 V 157.700 C 260.400 157.800 260.500 157.700 260.400 157.700 H 255.500 C 255.445 157.700 255.400 157.745 255.400 157.800 V 167.800 C 255.400 167.855 255.445 167.900 255.500 167.900 H 260.400 C 260.500 167.900 260.400 167.800 260.400 167.900 V 177.700 C 260.400 177.800 260.500 177.700 260.400 177.700 H 255.500 C 255.445 177.700 255.400 177.745 255.400 177.800 V 187.800 C 255.400 187.855 255.445 187.900 255.500 187.900 H 260.400 C 260.500 187.900 260.400 187.800 260.400 187.900 V 197.700 C 260.400 197.800 260.500 197.700 260.400 197.700 H 255.500 C 255.445 197.700 255.400 197.745 255.400 197.800 V 207.800 C 255.400 207.855 255.445 207.900 255.500 207.900 H 260.400 C 260.500 207.900 260.400 207.800 260.400 207.900 V 217.700 C 260.400 217.800 260.500 217.700 260.400 217.700 H 255.500 C 255.445 217.700 255.400 217.745 255.400 217.800 V 227.800 C 255.400 227.855 255.445 227.900 255.500 227.900 H 260.400 C 260.500 227.900 260.400 227.800 260.400 227.900 V 237.700 C 260.400 237.800 260.500 237.700 260.400 237.700 H 255.500 C 255.445 237.700 255.400 237.745 255.400 237.800 V 247.800 C 255.400 247.855 255.445 247.900 255.500 247.900 H 260.400 C 260.500 247.900 260.400 247.800 260.400 247.900 V 257.700 C 260.400 257.800 260.500 257.700 260.400 257.700 H 255.500 C 255.445 257.700 255.400 257.745 255.400 257.800 V 267.800 C 255.400 267.855 255.445 267.900 255.500 267.900 H 260.400 C 260.500 267.900 260.400 267.800 260.400 267.900 V 277.700 C 260.400 277.800 260.500 277.700 260.400 277.700 H 255.500 C 255.445 277.700 255.400 277.745 255.400 277.800 V 292.800 C 255.400 292.855 255.445 292.900 255.500 292.900 H 260.500 Z"
       stroke="rgb(0,0,0)"
       stroke-width="0.20"
       id="path1486"
       style="stroke:#ff0000;stroke-opacity:1" />
  </g>
  <g
     id="p-8"
     style="fill:none;stroke-linecap:round;stroke-linejoin:round;stroke:#ff0000;stroke-opacity:1">
    <path
       d="M 383.200 292.900 H 393.100 C 393.200 292.900 393.100 292.800 393.100 292.900 V 297.800 C 393.100 297.855 393.145 297.900 393.200 297.900 H 403.200 C 403.255 297.900 403.300 297.855 403.300 297.800 V 292.900 C 403.300 292.800 403.200 292.900 403.300 292.900 H 413.100 C 413.200 292.900 413.100 292.800 413.100 292.900 V 297.800 C 413.100 297.855 413.145 297.900 413.200 297.900 H 423.200 C 423.255 297.900 423.300 297.855 423.300 297.800 V 292.900 C 423.300 292.800 423.200 292.900 423.300 292.900 H 433.100 C 433.200 292.900 433.100 292.800 433.100 292.900 V 297.800 C 433.100 297.855 433.145 297.900 433.200 297.900 H 443.200 C 443.255 297.900 443.300 297.855 443.300 297.800 V 292.900 C 443.300 292.800 443.200 292.900 443.300 292.900 H 453.100 C 453.200 292.900 453.100 292.800 453.100 292.900 V 297.800 C 453.100 297.855 453.145 297.900 453.200 297.900 H 463.200 C 463.255 297.900 463.300 297.855 463.300 297.800 V 292.900 C 463.300 292.800 463.200 292.900 463.300 292.900 H 473.100 C 473.200 292.900 473.100 292.800 473.100 292.900 V 297.800 C 473.100 297.855 473.145 297.900 473.200 297.900 H 483.200 C 483.255 297.900 483.300 297.855 483.300 297.800 V 292.900 C 483.300 292.800 483.200 292.900 483.300 292.900 H 493.200 C 493.255 292.900 493.300 292.855 493.300 292.800 V 277.900 C 493.300 277.800 493.200 277.900 493.300 277.900 H 498.200 C 498.255 277.900 498.300 277.855 498.300 277.800 V 267.800 C 498.300 267.745 498.255 267.700 498.200 267.700 H 493.300 C 493.200 267.700 493.300 267.800 493.300 267.700 V 257.900 C 493.300 257.800 493.200 257.900 493.300 257.900 H 498.200 C 498.255 257.900 498.300 257.855 498.300 257.800 V 247.800 C 498.300 247.745 498.255 247.700 498.200 247.700 H 493.300 C 493.200 247.700 493.300 247.800 493.300 247.700 V 237.900 C 493.300 237.800 493.200 237.900 493.300 237.900 H 498.200 C 498.255 237.900 498.300 237.855 498.300 237.800 V 227.800 C 498.300 227.745 498.255 227.700 498.200 227.700 H 493.300 C 493.200 227.700 493.300 227.800 493.300 227.700 V 217.900 C 493.300 217.800 493.200 217.900 493.300 217.900 H 498.200 C 498.255 217.900 498.300 217.855 498.300 217.800 V 207.800 C 498.300 207.745 498.255 207.700 498.200 207.700 H 493.300 C 493.200 207.700 493.300 207.800 493.300 207.700 V 197.900 C 493.300 197.800 493.200 197.900 493.300 197.900 H 498.200 C 498.255 197.900 498.300 197.855 498.300 197.800 V 187.800 C 498.300 187.745 498.255 187.700 498.200 187.700 H 493.300 C 493.200 187.700 493.300 187.800 493.300 187.700 V 177.900 C 493.300 177.800 493.200 177.900 493.300 177.900 H 498.200 C 498.255 177.900 498.300 177.855 498.300 177.800 V 167.800 C 498.300 167.745 498.255 167.700 498.200 167.700 H 493.300 C 493.200 167.700 493.300 167.800 493.300 167.700 V 157.900 C 493.300 157.800 493.200 157.900 493.300 157.900 H 498.200 C 498.255 157.900 498.300 157.855 498.300 157.800 V 147.800 C 498.300 147.745 498.255 147.700 498.200 147.700 H 493.300 C 493.200 147.700 493.300 147.800 493.300 147.700 V 132.800 C 493.300 132.745 493.255 132.700 493.200 132.700 H 383.200 C 383.145 132.700 383.100 132.745 383.100 132.800 V 147.700 C 383.100 147.800 383.200 147.700 383.100 147.700 H 378.200 C 378.145 147.700 378.100 147.745 378.100 147.800 V 157.800 C 378.100 157.855 378.145 157.900 378.200 157.900 H 383.100 C 383.200 157.900 383.100 157.800 383.100 157.900 V 167.700 C 383.100 167.800 383.200 167.700 383.100 167.700 H 378.200 C 378.145 167.700 378.100 167.745 378.100 167.800 V 177.800 C 378.100 177.855 378.145 177.900 378.200 177.900 H 383.100 C 383.200 177.900 383.100 177.800 383.100 177.900 V 187.700 C 383.100 187.800 383.200 187.700 383.100 187.700 H 378.200 C 378.145 187.700 378.100 187.745 378.100 187.800 V 197.800 C 378.100 197.855 378.145 197.900 378.200 197.900 H 383.100 C 383.200 197.900 383.100 197.800 383.100 197.900 V 207.700 C 383.100 207.800 383.200 207.700 383.100 207.700 H 378.200 C 378.145 207.700 378.100 207.745 378.100 207.800 V 217.800 C 378.100 217.855 378.145 217.900 378.200 217.900 H 383.100 C 383.200 217.900 383.100 217.800 383.100 217.900 V 227.700 C 383.100 227.800 383.200 227.700 383.100 227.700 H 378.200 C 378.145 227.700 378.100 227.745 378.100 227.800 V 237.800 C 378.100 237.855 378.145 237.900 378.200 237.900 H 383.100 C 383.200 237.900 383.100 237.800 383.100 237.900 V 247.700 C 383.100 247.800 383.200 247.700 383.100 247.700 H 378.200 C 378.145 247.700 378.100 247.745 378.100 247.800 V 257.800 C 378.100 257.855 378.145 257.900 378.200 257.900 H 383.100 C 383.200 257.900 383.100 257.800 383.100 257.900 V 267.700 C 383.100 267.800 383.200 267.700 383.100 267.700 H 378.200 C 378.145 267.700 378.100 267.745 378.100 267.800 V 277.800 C 378.100 277.855 378.145 277.900 378.200 277.900 H 383.100 C 383.200 277.900 383.100 277.800 383.100 277.900 V 292.800 C 383.100 292.855 383.145 292.900 383.200 292.900 Z"
       stroke="rgb(0,0,0)"
       stroke-width="0.20"
       id="path1489"
       style="stroke:#ff0000;stroke-opacity:1" />
  </g>
  <g
     id="p-9"
     style="fill:none;stroke-linecap:round;stroke-linejoin:round;stroke:#ff0000;stroke-opacity:1">
    <path
       d="M 40.100 124.750 H 35.200 C 35.100 124.750 35.200 124.850 35.200 124.750 V 119.950 C 35.200 119.850 35.100 119.950 35.200 119.950 H 45.000 C 45.100 119.950 45.000 119.850 45.000 119.950 V 124.750 C 45.000 124.850 45.100 124.750 45.000 124.750 H 40.100 Z"
       stroke="rgb(0,0,255)"
       stroke-width="0.20"
       id="path1492"
       style="stroke:#ff0000;stroke-opacity:1" />
    <path
       d="M 60.100 124.750 H 55.200 C 55.100 124.750 55.200 124.850 55.200 124.750 V 119.950 C 55.200 119.850 55.100 119.950 55.200 119.950 H 65.000 C 65.100 119.950 65.000 119.850 65.000 119.950 V 124.750 C 65.000 124.850 65.100 124.750 65.000 124.750 H 60.100 Z"
       stroke="rgb(0,0,255)"
       stroke-width="0.20"
       id="path1494"
       style="stroke:#ff0000;stroke-opacity:1" />
    <path
       d="M 80.100 124.750 H 75.200 C 75.100 124.750 75.200 124.850 75.200 124.750 V 119.950 C 75.200 119.850 75.100 119.950 75.200 119.950 H 85.000 C 85.100 119.950 85.000 119.850 85.000 119.950 V 124.750 C 85.000 124.850 85.100 124.750 85.000 124.750 H 80.100 Z"
       stroke="rgb(0,0,255)"
       stroke-width="0.20"
       id="path1496"
       style="stroke:#ff0000;stroke-opacity:1" />
    <path
       d="M 100.100 124.750 H 95.200 C 95.100 124.750 95.200 124.850 95.200 124.750 V 119.950 C 95.200 119.850 95.100 119.950 95.200 119.950 H 105.000 C 105.100 119.950 105.000 119.850 105.000 119.950 V 124.750 C 105.000 124.850 105.100 124.750 105.000 124.750 H 100.100 Z"
       stroke="rgb(0,0,255)"
       stroke-width="0.20"
       id="path1498"
       style="stroke:#ff0000;stroke-opacity:1" />
    <path
       d="M 20.350 130.200 H 119.850 H 130.100 C 130.155 130.200 130.200 130.155 130.200 130.100 V 119.850 V 20.350 V 10.100 C 130.200 10.045 130.155 10.000 130.100 10.000 H 119.850 H 20.350 H 10.100 C 10.045 10.000 10.000 10.045 10.000 10.100 V 20.350 V 119.850 V 130.100 C 10.000 130.155 10.045 130.200 10.100 130.200 H 20.350 Z"
       stroke="rgb(0,0,0)"
       stroke-width="0.20"
       id="path1500"
       style="stroke:#ff0000;stroke-opacity:1" />
    <path
       d="M 124.750 100.100 V 105.000 C 124.750 105.100 124.850 105.000 124.750 105.000 H 119.950 C 119.850 105.000 119.950 105.100 119.950 105.000 V 95.200 C 119.950 95.100 119.850 95.200 119.950 95.200 H 124.750 C 124.850 95.200 124.750 95.100 124.750 95.200 V 100.100 Z"
       stroke="rgb(0,0,255)"
       stroke-width="0.20"
       id="path1502"
       style="stroke:#ff0000;stroke-opacity:1" />
    <path
       d="M 124.750 80.100 V 85.000 C 124.750 85.100 124.850 85.000 124.750 85.000 H 119.950 C 119.850 85.000 119.950 85.100 119.950 85.000 V 75.200 C 119.950 75.100 119.850 75.200 119.950 75.200 H 124.750 C 124.850 75.200 124.750 75.100 124.750 75.200 V 80.100 Z"
       stroke="rgb(0,0,255)"
       stroke-width="0.20"
       id="path1504"
       style="stroke:#ff0000;stroke-opacity:1" />
    <path
       d="M 124.750 60.100 V 65.000 C 124.750 65.100 124.850 65.000 124.750 65.000 H 119.950 C 119.850 65.000 119.950 65.100 119.950 65.000 V 55.200 C 119.950 55.100 119.850 55.200 119.950 55.200 H 124.750 C 124.850 55.200 124.750 55.100 124.750 55.200 V 60.100 Z"
       stroke="rgb(0,0,255)"
       stroke-width="0.20"
       id="path1506"
       style="stroke:#ff0000;stroke-opacity:1" />
    <path
       d="M 124.750 40.100 V 45.000 C 124.750 45.100 124.850 45.000 124.750 45.000 H 119.950 C 119.850 45.000 119.950 45.100 119.950 45.000 V 35.200 C 119.950 35.100 119.850 35.200 119.950 35.200 H 124.750 C 124.850 35.200 124.750 35.100 124.750 35.200 V 40.100 Z"
       stroke="rgb(0,0,255)"
       stroke-width="0.20"
       id="path1508"
       style="stroke:#ff0000;stroke-opacity:1" />
    <path
       d="M 100.100 15.450 H 105.000 C 105.100 15.450 105.000 15.350 105.000 15.450 V 20.250 C 105.000 20.350 105.100 20.250 105.000 20.250 H 95.200 C 95.100 20.250 95.200 20.350 95.200 20.250 V 15.450 C 95.200 15.350 95.100 15.450 95.200 15.450 H 100.100 Z"
       stroke="rgb(0,0,255)"
       stroke-width="0.20"
       id="path1510"
       style="stroke:#ff0000;stroke-opacity:1" />
    <path
       d="M 80.100 15.450 H 85.000 C 85.100 15.450 85.000 15.350 85.000 15.450 V 20.250 C 85.000 20.350 85.100 20.250 85.000 20.250 H 75.200 C 75.100 20.250 75.200 20.350 75.200 20.250 V 15.450 C 75.200 15.350 75.100 15.450 75.200 15.450 H 80.100 Z"
       stroke="rgb(0,0,255)"
       stroke-width="0.20"
       id="path1512"
       style="stroke:#ff0000;stroke-opacity:1" />
    <path
       d="M 60.100 15.450 H 65.000 C 65.100 15.450 65.000 15.350 65.000 15.450 V 20.250 C 65.000 20.350 65.100 20.250 65.000 20.250 H 55.200 C 55.100 20.250 55.200 20.350 55.200 20.250 V 15.450 C 55.200 15.350 55.100 15.450 55.200 15.450 H 60.100 Z"
       stroke="rgb(0,0,255)"
       stroke-width="0.20"
       id="path1514"
       style="stroke:#ff0000;stroke-opacity:1" />
    <path
       d="M 40.100 15.450 H 45.000 C 45.100 15.450 45.000 15.350 45.000 15.450 V 20.250 C 45.000 20.350 45.100 20.250 45.000 20.250 H 35.200 C 35.100 20.250 35.200 20.350 35.200 20.250 V 15.450 C 35.200 15.350 35.100 15.450 35.200 15.450 H 40.100 Z"
       stroke="rgb(0,0,255)"
       stroke-width="0.20"
       id="path1516"
       style="stroke:#ff0000;stroke-opacity:1" />
    <path
       d="M 15.450 40.100 V 35.200 C 15.450 35.100 15.350 35.200 15.450 35.200 H 20.250 C 20.350 35.200 20.250 35.100 20.250 35.200 V 45.000 C 20.250 45.100 20.350 45.000 20.250 45.000 H 15.450 C 15.350 45.000 15.450 45.100 15.450 45.000 V 40.100 Z"
       stroke="rgb(0,0,255)"
       stroke-width="0.20"
       id="path1518"
       style="stroke:#ff0000;stroke-opacity:1" />
    <path
       d="M 15.450 60.100 V 55.200 C 15.450 55.100 15.350 55.200 15.450 55.200 H 20.250 C 20.350 55.200 20.250 55.100 20.250 55.200 V 65.000 C 20.250 65.100 20.350 65.000 20.250 65.000 H 15.450 C 15.350 65.000 15.450 65.100 15.450 65.000 V 60.100 Z"
       stroke="rgb(0,0,255)"
       stroke-width="0.20"
       id="path1520"
       style="stroke:#ff0000;stroke-opacity:1" />
    <path
       d="M 15.450 80.100 V 75.200 C 15.450 75.100 15.350 75.200 15.450 75.200 H 20.250 C 20.350 75.200 20.250 75.100 20.250 75.200 V 85.000 C 20.250 85.100 20.350 85.000 20.250 85.000 H 15.450 C 15.350 85.000 15.450 85.100 15.450 85.000 V 80.100 Z"
       stroke="rgb(0,0,255)"
       stroke-width="0.20"
       id="path1522"
       style="stroke:#ff0000;stroke-opacity:1" />
    <path
       d="M 15.450 100.100 V 95.200 C 15.450 95.100 15.350 95.200 15.450 95.200 H 20.250 C 20.350 95.200 20.250 95.100 20.250 95.200 V 105.000 C 20.250 105.100 20.350 105.000 20.250 105.000 H 15.450 C 15.350 105.000 15.450 105.100 15.450 105.000 V 100.100 Z"
       stroke="rgb(0,0,255)"
       stroke-width="0.20"
       id="path1524"
       style="stroke:#ff0000;stroke-opacity:1" />
  </g>
  <g
     id="p-10"
     style="fill:none;stroke-linecap:round;stroke-linejoin:round;stroke:#ff0000;stroke-opacity:1">
    <path
       d="M 137.800 130.200 H 147.800 C 147.855 130.200 147.900 130.155 147.900 130.100 V 125.200 C 147.900 125.100 147.800 125.200 147.900 125.200 H 157.700 C 157.800 125.200 157.700 125.100 157.700 125.200 V 130.100 C 157.700 130.155 157.745 130.200 157.800 130.200 H 167.800 C 167.855 130.200 167.900 130.155 167.900 130.100 V 125.200 C 167.900 125.100 167.800 125.200 167.900 125.200 H 177.700 C 177.800 125.200 177.700 125.100 177.700 125.200 V 130.100 C 177.700 130.155 177.745 130.200 177.800 130.200 H 187.800 C 187.855 130.200 187.900 130.155 187.900 130.100 V 125.200 C 187.900 125.100 187.800 125.200 187.900 125.200 H 197.700 C 197.800 125.200 197.700 125.100 197.700 125.200 V 130.100 C 197.700 130.155 197.745 130.200 197.800 130.200 H 207.800 C 207.855 130.200 207.900 130.155 207.900 130.100 V 125.200 C 207.900 125.100 207.800 125.200 207.900 125.200 H 217.700 C 217.800 125.200 217.700 125.100 217.700 125.200 V 130.100 C 217.700 130.155 217.745 130.200 217.800 130.200 H 227.800 C 227.855 130.200 227.900 130.155 227.900 130.100 V 125.200 C 227.900 125.100 227.800 125.200 227.900 125.200 H 237.700 C 237.800 125.200 237.700 125.100 237.700 125.200 V 130.100 C 237.700 130.155 237.745 130.200 237.800 130.200 H 247.800 H 252.800 C 252.855 130.200 252.900 130.155 252.900 130.100 V 125.100 V 115.100 C 252.900 115.045 252.855 115.000 252.800 115.000 H 247.900 C 247.800 115.000 247.900 115.100 247.900 115.000 V 105.200 C 247.900 105.100 247.800 105.200 247.900 105.200 H 252.800 C 252.855 105.200 252.900 105.155 252.900 105.100 V 95.100 C 252.900 95.045 252.855 95.000 252.800 95.000 H 247.900 C 247.800 95.000 247.900 95.100 247.900 95.000 V 85.200 C 247.900 85.100 247.800 85.200 247.900 85.200 H 252.800 C 252.855 85.200 252.900 85.155 252.900 85.100 V 75.100 C 252.900 75.045 252.855 75.000 252.800 75.000 H 247.900 C 247.800 75.000 247.900 75.100 247.900 75.000 V 65.200 C 247.900 65.100 247.800 65.200 247.900 65.200 H 252.800 C 252.855 65.200 252.900 65.155 252.900 65.100 V 55.100 C 252.900 55.045 252.855 55.000 252.800 55.000 H 247.900 C 247.800 55.000 247.900 55.100 247.900 55.000 V 45.200 C 247.900 45.100 247.800 45.200 247.900 45.200 H 252.800 C 252.855 45.200 252.900 45.155 252.900 45.100 V 35.100 C 252.900 35.045 252.855 35.000 252.800 35.000 H 247.900 C 247.800 35.000 247.900 35.100 247.900 35.000 V 25.200 C 247.900 25.100 247.800 25.200 247.900 25.200 H 252.800 C 252.855 25.200 252.900 25.155 252.900 25.100 V 15.100 V 10.100 C 252.900 10.045 252.855 10.000 252.800 10.000 H 247.800 H 237.800 C 237.745 10.000 237.700 10.045 237.700 10.100 V 15.000 C 237.700 15.100 237.800 15.000 237.700 15.000 H 227.900 C 227.800 15.000 227.900 15.100 227.900 15.000 V 10.100 C 227.900 10.045 227.855 10.000 227.800 10.000 H 217.800 C 217.745 10.000 217.700 10.045 217.700 10.100 V 15.000 C 217.700 15.100 217.800 15.000 217.700 15.000 H 207.900 C 207.800 15.000 207.900 15.100 207.900 15.000 V 10.100 C 207.900 10.045 207.855 10.000 207.800 10.000 H 197.800 C 197.745 10.000 197.700 10.045 197.700 10.100 V 15.000 C 197.700 15.100 197.800 15.000 197.700 15.000 H 187.900 C 187.800 15.000 187.900 15.100 187.900 15.000 V 10.100 C 187.900 10.045 187.855 10.000 187.800 10.000 H 177.800 C 177.745 10.000 177.700 10.045 177.700 10.100 V 15.000 C 177.700 15.100 177.800 15.000 177.700 15.000 H 167.900 C 167.800 15.000 167.900 15.100 167.900 15.000 V 10.100 C 167.900 10.045 167.855 10.000 167.800 10.000 H 157.800 C 157.745 10.000 157.700 10.045 157.700 10.100 V 15.000 C 157.700 15.100 157.800 15.000 157.700 15.000 H 147.900 C 147.800 15.000 147.900 15.100 147.900 15.000 V 10.100 C 147.900 10.045 147.855 10.000 147.800 10.000 H 137.800 H 132.800 C 132.745 10.000 132.700 10.045 132.700 10.100 V 15.100 V 25.100 C 132.700 25.155 132.745 25.200 132.800 25.200 H 137.700 C 137.800 25.200 137.700 25.100 137.700 25.200 V 35.000 C 137.700 35.100 137.800 35.000 137.700 35.000 H 132.800 C 132.745 35.000 132.700 35.045 132.700 35.100 V 45.100 C 132.700 45.155 132.745 45.200 132.800 45.200 H 137.700 C 137.800 45.200 137.700 45.100 137.700 45.200 V 55.000 C 137.700 55.100 137.800 55.000 137.700 55.000 H 132.800 C 132.745 55.000 132.700 55.045 132.700 55.100 V 65.100 C 132.700 65.155 132.745 65.200 132.800 65.200 H 137.700 C 137.800 65.200 137.700 65.100 137.700 65.200 V 75.000 C 137.700 75.100 137.800 75.000 137.700 75.000 H 132.800 C 132.745 75.000 132.700 75.045 132.700 75.100 V 85.100 C 132.700 85.155 132.745 85.200 132.800 85.200 H 137.700 C 137.800 85.200 137.700 85.100 137.700 85.200 V 95.000 C 137.700 95.100 137.800 95.000 137.700 95.000 H 132.800 C 132.745 95.000 132.700 95.045 132.700 95.100 V 105.100 C 132.700 105.155 132.745 105.200 132.800 105.200 H 137.700 C 137.800 105.200 137.700 105.100 137.700 105.200 V 115.000 C 137.700 115.100 137.800 115.000 137.700 115.000 H 132.800 C 132.745 115.000 132.700 115.045 132.700 115.100 V 125.100 V 130.100 C 132.700 130.155 132.745 130.200 132.800 130.200 H 137.800 Z"
       stroke="rgb(0,0,0)"
       stroke-width="0.20"
       id="path1527"
       style="stroke:#ff0000;stroke-opacity:1" />
  </g>
  <g
     id="g6814"
     transform="matrix(-0.47536152,0,0,-0.47536152,370.49891,-97.916556)">
    <g
       transform="matrix(0.35277777,0,0,-0.35277777,396.58999,-665.38179)"
       id="g5247">
      <path
         inkscape:connector-curvature="0"
         id="path5249"
         style="fill:#231f20;fill-opacity:1;fill-rule:nonzero;stroke:none"
         d="m 0,0 20.748,-33.188 h 0.145 V 0 H 31.121 V -49.475 H 20.189 L -0.489,-16.351 H -0.626 V -49.475 H -10.858 V 0 Z" />
    </g>
    <g
       id="g5251"
       transform="matrix(0.35277777,0,0,-0.35277777,221.02484,-550.46958)">
      <g
         clip-path="url(#clipPath5257-5-2)"
         id="g5253">
        <g
           transform="translate(560.8145,325.7354)"
           id="g5259">
          <path
             inkscape:connector-curvature="0"
             id="path5261"
             style="fill:#231f20;fill-opacity:1;fill-rule:nonzero;stroke:none"
             d="m 0,0 c 3.107,0 5.752,-0.45 7.932,-1.349 2.184,-0.902 3.959,-2.091 5.327,-3.568 1.37,-1.481 2.369,-3.167 2.991,-5.059 0.631,-1.894 0.944,-3.858 0.944,-5.889 0,-1.988 -0.313,-3.942 -0.944,-5.857 -0.622,-1.92 -1.621,-3.617 -2.991,-5.091 -1.368,-1.481 -3.143,-2.673 -5.327,-3.572 -2.18,-0.9 -4.825,-1.353 -7.932,-1.353 H -11.49 V -49.475 H -22.418 V 0 Z m -2.995,-23.283 c 1.253,0 2.456,0.092 3.621,0.28 1.156,0.181 2.181,0.538 3.059,1.072 0.883,0.53 1.589,1.285 2.128,2.256 0.53,0.968 0.799,2.24 0.799,3.81 0,1.57 -0.269,2.839 -0.799,3.81 -0.539,0.971 -1.245,1.718 -2.128,2.252 -0.878,0.53 -1.903,0.887 -3.059,1.072 -1.165,0.188 -2.368,0.277 -3.621,0.277 h -8.495 v -14.829 z" />
        </g>
        <g
           transform="translate(507.1641,232.6758)"
           id="g5263">
          <path
             inkscape:connector-curvature="0"
             id="path5265"
             style="fill:#231f20;fill-opacity:1;fill-rule:nonzero;stroke:none"
             d="M 0,0 -74.504,-122.447 -61.077,-128.1 15.632,-1.896 Z" />
        </g>
        <g
           transform="translate(124.0273,325.7354)"
           id="g5267">
          <path
             inkscape:connector-curvature="0"
             id="path5269"
             style="fill:#231f20;fill-opacity:1;fill-rule:nonzero;stroke:none"
             d="m 0,0 h 24.16 c 4.456,0 8.027,-1.011 10.721,-3.046 2.687,-2.032 4.036,-5.107 4.036,-9.218 0,-2.493 -0.616,-4.633 -1.846,-6.412 -1.229,-1.778 -2.979,-3.151 -5.258,-4.122 v -0.137 c 3.068,-0.646 5.386,-2.091 6.964,-4.332 1.579,-2.24 2.369,-5.046 2.369,-8.418 0,-1.938 -0.35,-3.757 -1.044,-5.443 -0.699,-1.687 -1.789,-3.14 -3.272,-4.364 -1.486,-1.225 -3.389,-2.196 -5.711,-2.91 -2.319,-0.715 -5.081,-1.073 -8.284,-1.073 H 0 Z m 8.702,-20.719 h 14.203 c 2.088,0 3.828,0.591 5.221,1.771 1.394,1.177 2.088,2.875 2.088,5.094 0,2.489 -0.629,4.248 -1.88,5.263 -1.251,1.016 -3.061,1.526 -5.429,1.526 H 8.702 Z m 0,-21.686 H 24.09 c 2.643,0 4.699,0.678 6.158,2.043 1.463,1.361 2.194,3.288 2.194,5.785 0,2.449 -0.731,4.332 -2.194,5.648 -1.459,1.313 -3.515,1.976 -6.158,1.976 H 8.702 Z" />
        </g>
        <g
           transform="translate(189.8154,275.2891)"
           id="g5271">
          <path
             inkscape:connector-curvature="0"
             id="path5273"
             style="fill:#231f20;fill-opacity:1;fill-rule:nonzero;stroke:none"
             d="m 0,0 c -2.876,0 -5.441,0.474 -7.689,1.421 -2.254,0.948 -4.157,2.253 -5.711,3.915 -1.558,1.661 -2.738,3.652 -3.553,5.957 -0.809,2.312 -1.216,4.85 -1.216,7.628 0,2.722 0.407,5.238 1.216,7.551 0.815,2.308 1.995,4.296 3.553,5.957 1.554,1.663 3.457,2.971 5.711,3.915 2.248,0.951 4.813,1.425 7.689,1.425 2.879,0 5.444,-0.474 7.692,-1.425 2.255,-0.944 4.158,-2.252 5.711,-3.915 1.553,-1.661 2.738,-3.649 3.551,-5.957 0.81,-2.313 1.218,-4.829 1.218,-7.551 0,-2.778 -0.408,-5.316 -1.218,-7.628 C 16.141,8.988 14.956,6.997 13.403,5.336 11.85,3.674 9.947,2.369 7.692,1.421 5.444,0.474 2.879,0 0,0 m 0,6.239 c 1.765,0 3.298,0.369 4.597,1.108 1.299,0.735 2.369,1.706 3.201,2.907 0.836,1.203 1.448,2.557 1.843,4.058 0.396,1.498 0.592,3.035 0.592,4.609 0,1.517 -0.196,3.043 -0.592,4.568 C 9.246,25.015 8.634,26.368 7.798,27.548 6.966,28.725 5.896,29.68 4.597,30.422 3.298,31.161 1.765,31.53 0,31.53 c -1.762,0 -3.295,-0.369 -4.594,-1.108 -1.299,-0.742 -2.364,-1.697 -3.204,-2.874 -0.833,-1.18 -1.451,-2.533 -1.845,-4.059 -0.395,-1.525 -0.591,-3.051 -0.591,-4.568 0,-1.574 0.196,-3.111 0.591,-4.609 0.394,-1.501 1.012,-2.855 1.845,-4.058 0.84,-1.201 1.905,-2.172 3.204,-2.907 C -3.295,6.608 -1.762,6.239 0,6.239" />
        </g>
        <g
           transform="translate(215.9927,312.0859)"
           id="g5275">
          <path
             inkscape:connector-curvature="0"
             id="path5277"
             style="fill:#231f20;fill-opacity:1;fill-rule:nonzero;stroke:none"
             d="m 0,0 h 7.449 v -6.929 h 0.14 c 0.229,0.972 0.683,1.915 1.355,2.842 0.675,0.92 1.485,1.763 2.439,2.53 0.949,0.762 2.005,1.372 3.17,1.834 1.158,0.462 2.342,0.691 3.546,0.691 0.93,0 1.568,-0.024 1.918,-0.069 0.348,-0.044 0.706,-0.091 1.079,-0.136 V -6.86 c -0.557,0.092 -1.126,0.176 -1.706,0.241 -0.582,0.068 -1.15,0.108 -1.704,0.108 -1.349,0 -2.611,-0.269 -3.796,-0.8 -1.184,-0.533 -2.221,-1.32 -3.099,-2.356 -0.884,-1.039 -1.578,-2.32 -2.087,-3.845 -0.511,-1.526 -0.765,-3.281 -0.765,-5.267 v -17.05 H 0 Z" />
        </g>
        <g
           transform="translate(274.542,276.2607)"
           id="g5279">
          <path
             inkscape:connector-curvature="0"
             id="path5281"
             style="fill:#231f20;fill-opacity:1;fill-rule:nonzero;stroke:none"
             d="m 0,0 h -7.519 v 4.85 h -0.14 c -1.068,-2.079 -2.622,-3.57 -4.661,-4.468 -2.043,-0.903 -4.205,-1.354 -6.475,-1.354 -2.833,0 -5.308,0.498 -7.415,1.49 -2.114,0.996 -3.864,2.344 -5.259,4.05 -1.393,1.71 -2.437,3.735 -3.132,6.067 -0.694,2.332 -1.045,4.841 -1.045,7.519 0,3.236 0.441,6.03 1.325,8.386 0.878,2.353 2.05,4.296 3.514,5.821 1.463,1.525 3.133,2.642 5.01,3.361 1.883,0.714 3.796,1.075 5.749,1.075 1.113,0 2.248,-0.105 3.406,-0.313 1.164,-0.213 2.279,-0.543 3.342,-1.004 1.071,-0.465 2.055,-1.051 2.961,-1.766 0.905,-0.719 1.66,-1.562 2.26,-2.528 h 0.141 V 49.479 H 0 Z m -27.708,17.531 c 0,-1.525 0.196,-3.027 0.592,-4.504 0.391,-1.481 0.996,-2.798 1.809,-3.95 0.811,-1.157 1.847,-2.08 3.099,-2.774 1.25,-0.696 2.738,-1.04 4.452,-1.04 1.769,0 3.286,0.374 4.565,1.112 1.274,0.735 2.318,1.706 3.131,2.911 0.811,1.199 1.415,2.553 1.809,4.054 0.395,1.498 0.592,3.035 0.592,4.605 0,3.975 -0.892,7.07 -2.68,9.289 -1.789,2.216 -4.21,3.325 -7.276,3.325 -1.855,0 -3.421,-0.382 -4.699,-1.145 -1.275,-0.763 -2.323,-1.754 -3.131,-2.978 -0.811,-1.224 -1.396,-2.61 -1.742,-4.16 -0.348,-1.545 -0.521,-3.13 -0.521,-4.745" />
        </g>
        <g
           transform="translate(290.7632,292.1299)"
           id="g5283">
          <path
             inkscape:connector-curvature="0"
             id="path5285"
             style="fill:#231f20;fill-opacity:1;fill-rule:nonzero;stroke:none"
             d="m 0,0 c 0,-1.389 0.197,-2.726 0.592,-4.022 0.394,-1.29 0.986,-2.425 1.777,-3.397 0.789,-0.967 1.782,-1.742 2.99,-2.315 1.207,-0.583 2.644,-0.868 4.318,-0.868 2.319,0 4.189,0.498 5.602,1.49 1.42,0.991 2.475,2.484 3.17,4.467 h 7.519 c -0.42,-1.942 -1.138,-3.672 -2.158,-5.199 -1.024,-1.521 -2.252,-2.802 -3.692,-3.841 -1.438,-1.041 -3.05,-1.827 -4.839,-2.36 -1.789,-0.527 -3.654,-0.796 -5.602,-0.796 -2.832,0 -5.339,0.462 -7.519,1.386 -2.182,0.927 -4.029,2.22 -5.539,3.882 -1.503,1.661 -2.641,3.648 -3.406,5.961 -0.768,2.304 -1.152,4.845 -1.152,7.62 0,2.541 0.408,4.954 1.221,7.242 0.81,2.288 1.972,4.3 3.478,6.029 1.51,1.731 3.33,3.104 5.468,4.123 2.133,1.016 4.547,1.526 7.238,1.526 2.833,0 5.374,-0.59 7.626,-1.771 2.25,-1.172 4.12,-2.737 5.604,-4.677 1.483,-1.938 2.565,-4.167 3.24,-6.688 C 26.606,5.275 26.778,2.678 26.454,0 Z m 18.519,5.195 c -0.095,1.249 -0.361,2.449 -0.801,3.606 -0.44,1.155 -1.044,2.159 -1.809,3.011 -0.768,0.854 -1.698,1.548 -2.787,2.083 -1.091,0.53 -2.308,0.794 -3.656,0.794 -1.393,0 -2.655,-0.241 -3.794,-0.726 C 4.535,13.478 3.559,12.807 2.75,11.952 1.935,11.097 1.287,10.089 0.8,8.941 0.313,7.784 0.044,6.536 0,5.195 Z" />
        </g>
        <g
           transform="translate(354.813,284.2295)"
           id="g5287">
          <path
             inkscape:connector-curvature="0"
             id="path5289"
             style="fill:#231f20;fill-opacity:1;fill-rule:nonzero;stroke:none"
             d="m 0,0 c 0,-0.972 0.126,-1.666 0.381,-2.08 0.255,-0.417 0.757,-0.626 1.495,-0.626 h 0.84 c 0.325,0 0.694,0.049 1.109,0.141 V -8.037 C 3.551,-8.134 3.189,-8.233 2.75,-8.35 2.31,-8.47 1.856,-8.566 1.393,-8.663 0.927,-8.751 0.463,-8.823 0,-8.872 c -0.466,-0.044 -0.859,-0.065 -1.185,-0.065 -1.623,0 -2.973,0.318 -4.037,0.964 -1.069,0.651 -1.763,1.783 -2.089,3.396 -1.577,-1.526 -3.514,-2.629 -5.813,-3.323 -2.298,-0.691 -4.512,-1.037 -6.649,-1.037 -1.624,0 -3.178,0.217 -4.664,0.652 -1.487,0.44 -2.793,1.087 -3.934,1.946 -1.138,0.851 -2.043,1.94 -2.712,3.256 -0.674,1.313 -1.011,2.85 -1.011,4.609 0,2.216 0.407,4.018 1.217,5.403 0.808,1.384 1.878,2.473 3.2,3.257 1.325,0.786 2.809,1.352 4.457,1.697 1.649,0.346 3.306,0.615 4.979,0.8 1.438,0.272 2.807,0.473 4.108,0.586 1.299,0.116 2.449,0.312 3.448,0.589 0.994,0.278 1.785,0.703 2.363,1.282 0.58,0.582 0.873,1.445 0.873,2.596 0,1.016 -0.243,1.851 -0.733,2.497 -0.486,0.647 -1.09,1.145 -1.808,1.494 -0.721,0.345 -1.522,0.573 -2.401,0.69 -0.883,0.112 -1.718,0.173 -2.507,0.173 -2.228,0 -4.063,-0.462 -5.502,-1.385 -1.437,-0.928 -2.252,-2.356 -2.437,-4.296 h -7.935 c 0.141,2.309 0.695,4.223 1.67,5.749 0.974,1.526 2.216,2.75 3.724,3.677 1.509,0.92 3.215,1.565 5.118,1.939 1.903,0.366 3.852,0.55 5.845,0.55 1.765,0 3.507,-0.184 5.221,-0.55 1.718,-0.374 3.265,-0.971 4.633,-1.802 1.369,-0.835 2.471,-1.908 3.306,-3.22 C -0.416,21.932 0,20.322 0,18.431 Z m -7.939,9.977 c -1.205,-0.788 -2.689,-1.257 -4.452,-1.418 -1.768,-0.164 -3.53,-0.41 -5.295,-0.727 -0.835,-0.14 -1.645,-0.337 -2.433,-0.59 -0.791,-0.253 -1.489,-0.601 -2.09,-1.04 -0.604,-0.445 -1.079,-1.019 -1.425,-1.733 -0.349,-0.715 -0.524,-1.582 -0.524,-2.598 0,-0.879 0.251,-1.618 0.765,-2.216 0.51,-0.606 1.124,-1.081 1.843,-1.425 0.722,-0.345 1.509,-0.586 2.368,-0.727 0.859,-0.141 1.637,-0.209 2.335,-0.209 0.879,0 1.832,0.117 2.852,0.35 1.02,0.228 1.986,0.626 2.89,1.176 0.904,0.554 1.661,1.256 2.261,2.111 0.604,0.855 0.905,1.907 0.905,3.16 z" />
        </g>
        <g
           transform="translate(396.3745,276.2607)"
           id="g5291">
          <path
             inkscape:connector-curvature="0"
             id="path5293"
             style="fill:#231f20;fill-opacity:1;fill-rule:nonzero;stroke:none"
             d="m 0,0 h -7.797 v 4.99 h -0.141 c -0.974,-1.802 -2.425,-3.248 -4.35,-4.332 -1.926,-1.088 -3.888,-1.63 -5.883,-1.63 -4.735,0 -8.156,1.169 -10.267,3.496 -2.114,2.333 -3.169,5.858 -3.169,10.572 v 22.729 h 7.936 V 13.858 c 0,-3.143 0.604,-5.359 1.809,-6.652 1.208,-1.297 2.902,-1.943 5.086,-1.943 1.668,0 3.063,0.258 4.177,0.762 1.114,0.511 2.018,1.193 2.712,2.048 0.694,0.856 1.197,1.883 1.497,3.083 0.304,1.2 0.452,2.493 0.452,3.878 V 35.825 H 0 Z" />
        </g>
        <g
           transform="translate(415.7974,295.1084)"
           id="g5295">
          <path
             inkscape:connector-curvature="0"
             id="path5297"
             style="fill:#231f20;fill-opacity:1;fill-rule:nonzero;stroke:none"
             d="m 0,0 -12.465,16.978 h 9.612 L 4.665,5.963 12.53,16.978 h 9.193 L 9.468,0.414 23.252,-18.848 H 13.714 L 4.596,-5.615 -4.247,-18.848 h -9.326 z" />
        </g>
        <path
           inkscape:connector-curvature="0"
           id="path5299"
           style="fill:#231f20;fill-opacity:1;fill-rule:nonzero;stroke:none"
           d="m 477.199,276.257 h -10.931 v 49.479 h 10.931 z" />
        <g
           transform="translate(464.1211,354.7729)"
           id="g5301">
          <path
             inkscape:connector-curvature="0"
             id="path5303"
             style="fill:#231f20;fill-opacity:1;fill-rule:nonzero;stroke:none"
             d="m 0,0 -126.687,64.373 3.153,5.058 L 4.018,4.621 Z" />
        </g>
        <g
           transform="translate(538.3887,232.0605)"
           id="g5305">
          <path
             inkscape:connector-curvature="0"
             id="path5307"
             style="fill:#231f20;fill-opacity:1;fill-rule:nonzero;stroke:none"
             d="m 0,0 -25.901,-141.535 -5.926,0.389 25.637,140.254 z" />
        </g>
        <g
           transform="translate(558.5986,375.5957)"
           id="g5309">
          <path
             inkscape:connector-curvature="0"
             id="path5311"
             style="fill:#231f20;fill-opacity:1;fill-rule:nonzero;stroke:none"
             d="M 0,0 25.636,140.288 31.4,138.55 5.512,-3.031 Z" />
        </g>
        <g
           transform="translate(503.832,380.915)"
           id="g5313">
          <path
             inkscape:connector-curvature="0"
             id="path5315"
             style="fill:#231f20;fill-opacity:1;fill-rule:nonzero;stroke:none"
             d="m 0,0 -47.026,132.254 -4.219,-1.348 c 0.004,0 47.014,-132.195 47.014,-132.195 z" />
        </g>
        <g
           transform="translate(554.7441,236.7695)"
           id="g5317">
          <path
             inkscape:connector-curvature="0"
             id="path5319"
             style="fill:#231f20;fill-opacity:1;fill-rule:nonzero;stroke:none"
             d="m 0,0 44.056,-136.919 -4.215,-1.35 -44.053,136.875 z" />
        </g>
        <g
           transform="translate(483.2295,242.5752)"
           id="g5321">
          <path
             inkscape:connector-curvature="0"
             id="path5323"
             style="fill:#231f20;fill-opacity:1;fill-rule:nonzero;stroke:none"
             d="m 0,0 -47.854,-133.576 -5.439,2.509 48.202,134.559 z" />
        </g>
        <g
           transform="translate(527.3965,383.5483)"
           id="g5325">
          <path
             inkscape:connector-curvature="0"
             id="path5327"
             style="fill:#231f20;fill-opacity:1;fill-rule:nonzero;stroke:none"
             d="M 0,0 48.223,134.587 54.012,133.118 6.162,-0.461 Z" />
        </g>
        <g
           transform="translate(501.0625,380.1006)"
           id="g5329">
          <path
             inkscape:connector-curvature="0"
             id="path5331"
             style="fill:#231f20;fill-opacity:1;fill-rule:nonzero;stroke:none"
             d="m 0,0 -109.308,99.436 -4.661,-3.658 107.69,-98.062 z" />
        </g>
        <g
           transform="translate(597.5186,284.2578)"
           id="g5333">
          <path
             inkscape:connector-curvature="0"
             id="path5335"
             style="fill:#231f20;fill-opacity:1;fill-rule:nonzero;stroke:none"
             d="m 0,0 107.722,-98.095 3.381,5.147 L 1.738,6.523 Z" />
        </g>
        <g
           transform="translate(573.4199,248.5)"
           id="g5337">
          <path
             inkscape:connector-curvature="0"
             id="path5339"
             style="fill:#231f20;fill-opacity:1;fill-rule:nonzero;stroke:none"
             d="M 0,0 165.101,18.567 163.865,12.441 -10.165,-7.142 Z" />
        </g>
        <g
           transform="translate(574.4512,365.0664)"
           id="g5341">
          <path
             inkscape:connector-curvature="0"
             id="path5343"
             style="fill:#231f20;fill-opacity:1;fill-rule:nonzero;stroke:none"
             d="M 0,0 99.961,99.146 95.746,103.354 -4.701,3.729 Z" />
        </g>
        <g
           transform="translate(593.2031,340.8984)"
           id="g5345">
          <path
             inkscape:connector-curvature="0"
             id="path5347"
             style="fill:#231f20;fill-opacity:1;fill-rule:nonzero;stroke:none"
             d="M 0,0 143.295,16.131 144.604,10.189 2.545,-5.781 Z" />
        </g>
        <g
           transform="translate(600.498,294.3584)"
           id="g5349">
          <path
             inkscape:connector-curvature="0"
             id="path5351"
             style="fill:#231f20;fill-opacity:1;fill-rule:nonzero;stroke:none"
             d="M 0,0 135.43,-39.21 133.76,-44.914 -1.418,-5.777 Z" />
        </g>
        <g
           transform="translate(461.4785,351.2441)"
           id="g5353">
          <path
             inkscape:connector-curvature="0"
             id="path5355"
             style="fill:#231f20;fill-opacity:1;fill-rule:nonzero;stroke:none"
             d="m 0,0 c 0,0 -142.02,27.764 -142.027,27.764 l -1.142,0.37 2.306,5.484 L 4.063,5.247 Z" />
        </g>
        <g
           transform="translate(597.3496,330.6934)"
           id="g5357">
          <path
             inkscape:connector-curvature="0"
             id="path5359"
             style="fill:#231f20;fill-opacity:1;fill-rule:nonzero;stroke:none"
             d="M 0,0 C 71.278,-13.955 144.856,-28.362 144.856,-28.362 L 144.64,-34.264 1.759,-6.342 Z" />
        </g>
        <g
           transform="translate(473.3936,364.4839)"
           id="g5361">
          <path
             inkscape:connector-curvature="0"
             id="path5363"
             style="fill:#231f20;fill-opacity:1;fill-rule:nonzero;stroke:none"
             d="m 0,0 -94.767,104.217 11.15,9.314 L 11.795,8.542 Z" />
        </g>
        <g
           transform="translate(681.5586,156.958)"
           id="g5365">
          <path
             inkscape:connector-curvature="0"
             id="path5367"
             style="fill:#231f20;fill-opacity:1;fill-rule:nonzero;stroke:none"
             d="m 0,0 -10.329,-10.013 -93.554,105.626 9.048,10.377 z" />
        </g>
        <g
           transform="translate(591.5977,343.9653)"
           id="g5369">
          <path
             inkscape:connector-curvature="0"
             id="path5371"
             style="fill:#231f20;fill-opacity:1;fill-rule:nonzero;stroke:none"
             d="M 0,0 76.685,126.153 65.581,135.27 -8.913,12.839 0.008,0.029" />
        </g>
        <g
           transform="translate(532.4873,383.208)"
           id="g5373">
          <path
             inkscape:connector-curvature="0"
             id="path5375"
             style="fill:#231f20;fill-opacity:1;fill-rule:nonzero;stroke:none"
             d="m 0,0 7.539,140.436 -14.323,0.755 c 0,0 -3.73,-69.66 -7.551,-140.983 z" />
        </g>
        <g
           transform="translate(502.5029,91.0908)"
           id="g5377">
          <path
             inkscape:connector-curvature="0"
             id="path5379"
             style="fill:#231f20;fill-opacity:1;fill-rule:nonzero;stroke:none"
             d="M 0,0 14.296,-0.756 21.819,139.67 7.543,140.986 Z" />
        </g>
        <g
           transform="translate(566.1611,371.2764)"
           id="g5381">
          <path
             inkscape:connector-curvature="0"
             id="path5383"
             style="fill:#231f20;fill-opacity:1;fill-rule:nonzero;stroke:none"
             d="M 0,0 C 46.561,54.236 92.025,107.18 92.025,107.18 L 80.155,115.774 -13.224,6.853 Z" />
        </g>
        <g
           transform="translate(526.9883,383.5933)"
           id="g5385">
          <path
             inkscape:connector-curvature="0"
             id="path5387"
             style="fill:#231f20;fill-opacity:1;fill-rule:nonzero;stroke:none"
             d="M 0,0 -66.577,131.287 -79.946,126.75 -15.304,-0.964 Z" />
        </g>
        <g
           transform="translate(577.6553,252.2861)"
           id="g5389">
          <path
             inkscape:connector-curvature="0"
             id="path5391"
             style="fill:#231f20;fill-opacity:1;fill-rule:nonzero;stroke:none"
             d="m 0,0 64.484,-127.397 11.909,8.222 L 9.972,11.742 Z" />
        </g>
        <g
           transform="translate(597.21,331.1196)"
           id="g5393">
          <path
             inkscape:connector-curvature="0"
             id="path5395"
             style="fill:#231f20;fill-opacity:1;fill-rule:nonzero;stroke:none"
             d="M 0,0 129.227,57.443 123.394,70.462 -5.732,13.063 Z" />
        </g>
        <g
           transform="translate(599.6826,292.8164)"
           id="g5397">
          <path
             inkscape:connector-curvature="0"
             id="path5399"
             style="fill:#231f20;fill-opacity:1;fill-rule:nonzero;stroke:none"
             d="m 0,0 c 69.375,-17.688 136.908,-34.906 136.908,-34.906 l 2.757,13.875 L 1.36,14.305 Z" />
        </g>
        <g
           transform="translate(455.4336,341.1636)"
           id="g5401">
          <path
             inkscape:connector-curvature="0"
             id="path5403"
             style="fill:#231f20;fill-opacity:1;fill-rule:nonzero;stroke:none"
             d="m 0,0 -113.415,85.22 8.3,11.695 L 7.603,12.208 Z" />
        </g>
        <g
           transform="translate(575.9121,250.6523)"
           id="g5405">
          <path
             inkscape:connector-curvature="0"
             id="path5407"
             style="fill:#231f20;fill-opacity:1;fill-rule:nonzero;stroke:none"
             d="m 0,0 113.416,-85.205 9.003,11.089 L 9.704,10.59 Z" />
        </g>
        <g
           transform="translate(482.2617,371.2163)"
           id="g5409">
          <path
             inkscape:connector-curvature="0"
             id="path5411"
             style="fill:#231f20;fill-opacity:1;fill-rule:nonzero;stroke:none"
             d="M 0,0 -123.82,76.898 -132.843,65.669 -11.83,-9.474 Z" />
        </g>
        <g
           transform="translate(600.4697,297.8105)"
           id="g5413">
          <path
             inkscape:connector-curvature="0"
             id="path5415"
             style="fill:#231f20;fill-opacity:1;fill-rule:nonzero;stroke:none"
             d="M 0,0 123.86,-76.922 117.694,-89.897 -3.34,-14.737 Z" />
        </g>
        <g
           transform="translate(124.0259,252.1533)"
           id="g5417">
          <path
             inkscape:connector-curvature="0"
             id="path5419"
             style="fill:#231f20;fill-opacity:1;fill-rule:nonzero;stroke:none"
             d="m 0,0 v -39.583 h 30.046 v 7.318 H 8.703 v 9.7 h 19.178 v 6.768 H 8.703 v 8.475 H 29.599 V 0 Z" />
        </g>
        <g
           transform="translate(172.0332,252.1533)"
           id="g5421">
          <path
             inkscape:connector-curvature="0"
             id="path5423"
             style="fill:#231f20;fill-opacity:1;fill-rule:nonzero;stroke:none"
             d="m 0,0 16.518,-26.556 h 0.115 V 0 h 8.147 v -39.583 h -8.704 l -16.463,26.5 h -0.114 v -26.5 H -8.649 V 0 Z" />
        </g>
        <g
           transform="translate(214.5513,222.3301)"
           id="g5425">
          <path
             inkscape:connector-curvature="0"
             id="path5427"
             style="fill:#231f20;fill-opacity:1;fill-rule:nonzero;stroke:none"
             d="m 0,0 c 0.481,-0.928 1.118,-1.675 1.917,-2.249 0.793,-0.573 1.726,-0.995 2.794,-1.276 1.078,-0.273 2.188,-0.413 3.331,-0.413 0.776,0 1.611,0.064 2.494,0.196 0.889,0.129 1.718,0.378 2.491,0.746 0.777,0.366 1.424,0.876 1.941,1.522 0.518,0.647 0.781,1.474 0.781,2.469 0,1.071 -0.345,1.939 -1.028,2.609 C 14.035,4.267 13.144,4.821 12.033,5.263 10.924,5.708 9.665,6.094 8.264,6.427 6.857,6.76 5.436,7.126 3.993,7.539 2.513,7.908 1.07,8.362 -0.333,8.896 c -1.405,0.534 -2.66,1.228 -3.77,2.08 -1.109,0.85 -2.001,1.911 -2.684,3.183 -0.682,1.28 -1.027,2.819 -1.027,4.632 0,2.027 0.431,3.798 1.303,5.292 0.867,1.497 2.007,2.741 3.404,3.741 1.409,1 3.001,1.739 4.774,2.22 1.77,0.482 3.546,0.719 5.319,0.719 2.071,0 4.06,-0.229 5.959,-0.691 1.905,-0.461 3.593,-1.212 5.078,-2.248 1.476,-1.036 2.647,-2.356 3.519,-3.963 0.867,-1.605 1.299,-3.556 1.299,-5.848 h -8.428 c -0.073,1.184 -0.324,2.164 -0.747,2.938 -0.42,0.779 -0.992,1.385 -1.687,1.831 -0.703,0.442 -1.509,0.755 -2.417,0.944 -0.904,0.18 -1.895,0.276 -2.964,0.276 -0.702,0 -1.406,-0.076 -2.104,-0.221 C 3.79,23.633 3.153,23.372 2.578,23.003 2.003,22.638 1.538,22.172 1.164,21.617 0.799,21.067 0.608,20.361 0.608,19.514 c 0,-0.783 0.149,-1.409 0.45,-1.887 0.291,-0.481 0.871,-0.923 1.746,-1.332 0.863,-0.41 2.068,-0.812 3.597,-1.217 1.538,-0.409 3.539,-0.927 6.017,-1.554 0.738,-0.144 1.769,-0.417 3.081,-0.803 1.31,-0.389 2.611,-1.007 3.905,-1.858 1.291,-0.851 2.413,-1.983 3.354,-3.412 0.942,-1.418 1.413,-3.24 1.413,-5.46 0,-1.811 -0.348,-3.493 -1.056,-5.043 -0.702,-1.549 -1.741,-2.89 -3.131,-4.018 -1.383,-1.127 -3.101,-2.007 -5.148,-2.638 -2.06,-0.626 -4.434,-0.935 -7.128,-0.935 -2.178,0 -4.295,0.265 -6.347,0.799 -2.052,0.534 -3.864,1.377 -5.434,2.525 -1.571,1.144 -2.816,2.602 -3.741,4.381 -0.921,1.774 -1.369,3.877 -1.337,6.313 h 8.437 C -0.714,2.051 -0.479,0.919 0,0" />
        </g>
        <g
           transform="translate(276.9189,252.1533)"
           id="g5429">
          <path
             inkscape:connector-curvature="0"
             id="path5431"
             style="fill:#231f20;fill-opacity:1;fill-rule:nonzero;stroke:none"
             d="m 0,0 v -7.318 h -20.896 v -8.479 h 19.178 v -6.764 h -19.178 v -9.704 H 0.448 v -7.318 H -29.598 V 0 Z" />
        </g>
        <path
           inkscape:connector-curvature="0"
           id="path5433"
           style="fill:#231f20;fill-opacity:1;fill-rule:nonzero;stroke:none"
           d="m 295.38,212.57 h -8.704 v 39.583 h 8.704 z" />
        <g
           transform="translate(327.8096,252.1533)"
           id="g5435">
          <path
             inkscape:connector-curvature="0"
             id="path5437"
             style="fill:#231f20;fill-opacity:1;fill-rule:nonzero;stroke:none"
             d="m 0,0 c 1.771,0 3.372,-0.289 4.797,-0.858 1.423,-0.575 2.64,-1.358 3.655,-2.358 1.016,-1 1.793,-2.155 2.327,-3.464 0.535,-1.313 0.807,-2.726 0.807,-4.24 0,-2.332 -0.486,-4.344 -1.468,-6.042 -0.984,-1.701 -2.579,-2.998 -4.798,-3.882 v -0.116 c 1.076,-0.292 1.959,-0.742 2.668,-1.356 0.695,-0.611 1.271,-1.33 1.719,-2.16 0.439,-0.832 0.765,-1.743 0.965,-2.743 0.201,-0.999 0.338,-1.998 0.411,-2.998 0.041,-0.627 0.079,-1.365 0.115,-2.216 0.038,-0.851 0.102,-1.718 0.193,-2.606 0.096,-0.887 0.243,-1.726 0.445,-2.521 0.205,-0.794 0.51,-1.469 0.912,-2.023 H 4.046 c -0.478,1.257 -0.777,2.754 -0.885,4.492 -0.111,1.735 -0.279,3.401 -0.5,4.99 -0.297,2.068 -0.921,3.581 -1.883,4.544 -0.96,0.96 -2.529,1.442 -4.717,1.442 h -8.702 v -15.468 h -8.703 V 0 Z m -3.108,-17.908 c 1.998,0 3.495,0.445 4.494,1.333 0.994,0.887 1.496,2.328 1.496,4.323 0,1.919 -0.502,3.319 -1.496,4.187 -0.999,0.868 -2.496,1.3 -4.494,1.3 h -9.533 v -11.143 z" />
        </g>
        <g
           transform="translate(368.5566,252.1533)"
           id="g5439">
          <path
             inkscape:connector-curvature="0"
             id="path5441"
             style="fill:#231f20;fill-opacity:1;fill-rule:nonzero;stroke:none"
             d="m 0,0 c 1.886,0 3.604,-0.164 5.155,-0.497 1.549,-0.338 2.886,-0.88 3.995,-1.639 1.111,-0.759 1.97,-1.761 2.578,-3.018 0.609,-1.261 0.911,-2.814 0.911,-4.661 0,-1.996 -0.451,-3.658 -1.359,-4.987 -0.905,-1.332 -2.246,-2.425 -4.02,-3.271 2.445,-0.702 4.261,-1.931 5.462,-3.686 1.204,-1.758 1.8,-3.874 1.8,-6.35 0,-1.992 -0.385,-3.722 -1.162,-5.183 -0.773,-1.457 -1.82,-2.649 -3.129,-3.573 -1.311,-0.923 -2.816,-1.61 -4.493,-2.052 -1.685,-0.441 -3.412,-0.666 -5.184,-0.666 H -18.624 V 0 Z m -1.11,-16.021 c 1.558,0 2.828,0.364 3.832,1.111 0.993,0.735 1.495,1.935 1.495,3.601 0,0.923 -0.173,1.683 -0.502,2.273 -0.333,0.59 -0.781,1.052 -1.335,1.385 -0.555,0.333 -1.188,0.561 -1.909,0.694 -0.722,0.128 -1.467,0.192 -2.243,0.192 H -9.92 v -9.256 z m 0.502,-16.798 c 0.851,0 1.664,0.081 2.433,0.254 0.78,0.164 1.463,0.437 2.058,0.822 0.589,0.393 1.063,0.92 1.409,1.586 0.352,0.667 0.529,1.513 0.529,2.55 0,2.031 -0.572,3.48 -1.718,4.351 -1.148,0.867 -2.66,1.305 -4.543,1.305 h -9.48 v -10.868 z" />
        </g>
        <g
           transform="translate(154.4053,200.1777)"
           id="g5443">
          <path
             inkscape:connector-curvature="0"
             id="path5445"
             style="fill:#231f20;fill-opacity:1;fill-rule:nonzero;stroke:none"
             d="M 0,0 -8.757,-27.219 H -8.872 L -18.129,0 h -12.25 v -39.58 h 8.147 v 27.768 h 0.11 l 9.704,-27.768 h 6.704 l 9.705,28.05 h 0.107 v -28.05 h 8.157 V 0 Z" />
        </g>
        <g
           transform="translate(194.0415,200.1816)"
           id="g5447">
          <path
             inkscape:connector-curvature="0"
             id="path5449"
             style="fill:#231f20;fill-opacity:1;fill-rule:nonzero;stroke:none"
             d="m 0,0 14.807,-39.587 h -9.04 l -2.993,8.819 h -14.8 l -3.107,-8.819 h -8.755 L -8.921,0 Z m 0.501,-24.284 -4.987,14.528 h -0.111 l -5.154,-14.528 z" />
        </g>
        <g
           transform="translate(204.0757,192.8594)"
           id="g5451">
          <path
             inkscape:connector-curvature="0"
             id="path5453"
             style="fill:#231f20;fill-opacity:1;fill-rule:nonzero;stroke:none"
             d="M 0,0 V 7.318 H 32.435 V 0 H 20.572 V -32.262 H 11.865 V 0 Z" />
        </g>
        <g
           transform="translate(253.3096,200.1816)"
           id="g5455">
          <path
             inkscape:connector-curvature="0"
             id="path5457"
             style="fill:#231f20;fill-opacity:1;fill-rule:nonzero;stroke:none"
             d="M 0,0 9.257,-27.219 H 9.364 L 18.12,0 H 30.378 V -39.587 H 22.23 v 28.053 H 22.116 L 12.419,-39.587 H 5.705 l -9.698,27.775 h -0.114 v -27.775 h -8.15 V 0 Z" />
        </g>
        <g
           transform="translate(320.9399,200.1816)"
           id="g5459">
          <path
             inkscape:connector-curvature="0"
             id="path5461"
             style="fill:#231f20;fill-opacity:1;fill-rule:nonzero;stroke:none"
             d="m 0,0 v -7.318 h -20.899 v -8.483 h 19.181 v -6.761 h -19.181 v -9.704 H 0.45 v -7.321 H -29.601 V 0 Z" />
        </g>
        <g
           transform="translate(352.6528,189.6191)"
           id="g5463">
          <path
             inkscape:connector-curvature="0"
             id="path5465"
             style="fill:#231f20;fill-opacity:1;fill-rule:nonzero;stroke:none"
             d="m 0,0 c -0.514,0.831 -1.164,1.559 -1.941,2.192 -0.772,0.626 -1.652,1.112 -2.636,1.465 -0.981,0.349 -2.001,0.527 -3.069,0.527 -1.965,0 -3.63,-0.378 -4.995,-1.133 -1.37,-0.762 -2.48,-1.779 -3.321,-3.051 -0.855,-1.276 -1.474,-2.726 -1.863,-4.355 -0.386,-1.623 -0.583,-3.304 -0.583,-5.043 0,-1.666 0.197,-3.28 0.583,-4.849 0.389,-1.57 1.008,-2.986 1.863,-4.24 0.841,-1.257 1.951,-2.265 3.321,-3.022 1.365,-0.76 3.03,-1.137 4.995,-1.137 2.66,0 4.736,0.812 6.23,2.437 1.499,1.626 2.419,3.771 2.747,6.432 h 8.428 c -0.222,-2.473 -0.796,-4.71 -1.718,-6.709 -0.929,-1.995 -2.146,-3.693 -3.664,-5.094 -1.517,-1.409 -3.287,-2.481 -5.318,-3.215 -2.036,-0.748 -4.272,-1.112 -6.705,-1.112 -3.035,0 -5.76,0.525 -8.182,1.577 -2.424,1.057 -4.46,2.505 -6.124,4.354 -1.666,1.847 -2.94,4.016 -3.823,6.513 -0.888,2.492 -1.337,5.183 -1.337,8.065 0,2.959 0.449,5.701 1.337,8.234 0.883,2.533 2.157,4.741 3.823,6.624 1.664,1.887 3.7,3.364 6.124,4.44 2.422,1.068 5.147,1.606 8.182,1.606 2.179,0 4.233,-0.318 6.179,-0.943 C 0.472,9.932 2.208,9.021 3.742,7.813 5.279,6.612 6.544,5.131 7.54,3.352 8.542,1.578 9.164,-0.454 9.426,-2.746 H 1.003 C 0.852,-1.746 0.514,-0.831 0,0" />
        </g>
        <g
           transform="translate(388.0732,200.1816)"
           id="g5467">
          <path
             inkscape:connector-curvature="0"
             id="path5469"
             style="fill:#231f20;fill-opacity:1;fill-rule:nonzero;stroke:none"
             d="m 0,0 14.807,-39.587 h -9.04 l -2.993,8.819 h -14.797 l -3.11,-8.819 h -8.755 L -8.921,0 Z m 0.501,-24.284 -4.985,14.528 h -0.113 l -5.154,-14.528 z" />
        </g>
      </g>
    </g>
  </g>
</svg>
