<?xml version="1.0" encoding="UTF-8" standalone="no"?>
<!-- Created with Inkscape (http://www.inkscape.org/) -->

<svg
   xmlns:osb="http://www.openswatchbook.org/uri/2009/osb"
   xmlns:dc="http://purl.org/dc/elements/1.1/"
   xmlns:cc="http://creativecommons.org/ns#"
   xmlns:rdf="http://www.w3.org/1999/02/22-rdf-syntax-ns#"
   xmlns:svg="http://www.w3.org/2000/svg"
   xmlns="http://www.w3.org/2000/svg"
   xmlns:xlink="http://www.w3.org/1999/xlink"
   xmlns:sodipodi="http://sodipodi.sourceforge.net/DTD/sodipodi-0.dtd"
   xmlns:inkscape="http://www.inkscape.org/namespaces/inkscape"
   version="1.1"
   id="svg3713"
   xml:space="preserve"
   width="793.70135"
   height="1122.52"
   viewBox="0 0 793.70135 1122.52"
   sodipodi:docname="supportMontee2.svg"
   inkscape:version="0.92.4 (5da689c313, 2019-01-14)"><metadata
     id="metadata3719"><rdf:RDF><cc:Work
         rdf:about=""><dc:format>image/svg+xml</dc:format><dc:type
           rdf:resource="http://purl.org/dc/dcmitype/StillImage" /><dc:title /></cc:Work></rdf:RDF></metadata><defs
     id="defs3717"><linearGradient
       id="linearGradient4550"
       osb:paint="solid"><stop
         style="stop-color:#000000;stop-opacity:0.41176471;"
         offset="0"
         id="stop4548" /></linearGradient><linearGradient
       inkscape:collect="always"
       xlink:href="#linearGradient4550"
       id="linearGradient4558"
       gradientUnits="userSpaceOnUse"
       x1="101.57032"
       y1="63.365361"
       x2="177.31847"
       y2="63.365361" /><linearGradient
       inkscape:collect="always"
       xlink:href="#linearGradient4550"
       id="linearGradient4560"
       gradientUnits="userSpaceOnUse"
       x1="101.57032"
       y1="63.365361"
       x2="177.31847"
       y2="63.365361" /><linearGradient
       inkscape:collect="always"
       xlink:href="#linearGradient4550"
       id="linearGradient4562"
       gradientUnits="userSpaceOnUse"
       x1="101.57032"
       y1="63.365361"
       x2="177.31847"
       y2="63.365361" /></defs><sodipodi:namedview
     pagecolor="#ffffff"
     bordercolor="#666666"
     borderopacity="1"
     objecttolerance="10"
     gridtolerance="10"
     guidetolerance="10"
     inkscape:pageopacity="0"
     inkscape:pageshadow="2"
     inkscape:window-width="1920"
     inkscape:window-height="1017"
     id="namedview3715"
     showgrid="false"
     inkscape:snap-text-baseline="true"
     inkscape:zoom="1.0708776"
     inkscape:cx="158.51241"
     inkscape:cy="765.17432"
     inkscape:window-x="-8"
     inkscape:window-y="-8"
     inkscape:window-maximized="1"
     inkscape:current-layer="g3721" /><g
     id="g3721"
     inkscape:groupmode="layer"
     inkscape:label="supportMontee2"
     transform="matrix(1.3333333,0,0,-1.3333333,0,1122.52)"><g
   id="g3723"
   transform="matrix(-1,0,0,1,192.4,625.5)"><path
     d="m 0,0 h -28.4 m 0,0 -2.3,-0.2 -2.3,-0.7 -2.1,-1 -1.9,-1.4 -1.5,-1.8 -1.3,-2 -0.8,-2.2 -0.5,-2.3 V -14 l 0.5,-2.3 0.8,-2.2 1.3,-2 1.5,-1.7 1.9,-1.4 2.1,-1.1 2.3,-0.6 2.3,-0.2 m 0,0 H 0 m 0,0 2.3,0.2 2.3,0.6 2.1,1.1 1.9,1.4 1.6,1.7 1.2,2 0.9,2.2 0.4,2.3 v 2.4 l -0.4,2.3 -0.9,2.2 -1.2,2 -1.6,1.8 -1.9,1.4 -2.1,1 L 2.3,-0.2 0,0 M 155.2,185.6 H -369.2 M 155.2,-83.6 V 185.6 M -369.2,-83.6 H 155.2 M -369.2,185.6 V -83.6 m 113.4,184.2 -0.2,3.4 -0.7,3.4 -1,3.3 -1.4,3.1 -1.8,2.9 -2.1,2.7 -2.4,2.4 -2.7,2.1 -2.9,1.8 -3.1,1.4 -3.3,1 -3.4,0.7 -3.4,0.2 -3.4,-0.2 -3.4,-0.7 -3.2,-1 -3.2,-1.4 -2.9,-1.8 -2.7,-2.1 -2.4,-2.4 -2.1,-2.7 -1.8,-2.9 -1.4,-3.1 -1,-3.3 -0.6,-3.4 -0.2,-3.4 0.2,-3.4 0.6,-3.4 1,-3.2 1.4,-3.2 1.8,-2.9 2.1,-2.7 2.4,-2.4 2.7,-2.1 2.9,-1.8 3.2,-1.4 3.2,-1 3.4,-0.6 3.4,-0.2 3.4,0.2 3.4,0.6 3.3,1 3.1,1.4 2.9,1.8 2.7,2.1 2.4,2.4 2.1,2.7 1.8,2.9 1.4,3.2 1,3.2 0.7,3.4 0.2,3.4 m 94.2,-113.4 -0.2,2.5 -0.6,2.5 -1,2.3 -1.3,2.1 -1.7,1.9 -1.9,1.6 -2.2,1.2 -2.3,0.9 -2.5,0.5 -2.5,0.1 -2.5,-0.3 -2.4,-0.7 -2.3,-1.1 -2,-1.4 -1.8,-1.7 -1.6,-2 -1.1,-2.3 -0.8,-2.3 -0.4,-2.5 V -14 l 0.4,-2.5 0.8,-2.4 1.1,-2.2 1.6,-2 1.8,-1.8 2,-1.4 2.3,-1.1 2.4,-0.7 2.5,-0.3 2.5,0.1 2.5,0.5 2.3,0.9 2.2,1.3 1.9,1.6 1.7,1.9 1.3,2.1 1,2.3 0.6,2.4 0.2,2.5 m -83.5,165.8 0.2,1.4 0.6,1.1 1,1 1.2,0.6 1.3,0.2 1.3,-0.2 1.2,-0.6 0.9,-1 0.6,-1.1 0.2,-1.4 -0.2,-1.3 -0.6,-1.2 -0.9,-0.9 -1.2,-0.6 -1.3,-0.2 -1.3,0.2 -1.2,0.6 -1,0.9 -0.6,1.2 -0.2,1.3 m -13.2,-112.5 1,-0.8 0.7,-1.1 0.4,-1.3 -0.1,-1.3 -0.5,-1.3 -0.8,-1 -1.1,-0.7 -1.3,-0.4 -1.3,0.1 -1.3,0.5 -1,0.8 -0.7,1.1 -0.4,1.3 0.1,1.3 0.5,1.3 0.8,1 1.1,0.7 1.3,0.4 1.3,-0.1 1.3,-0.5 m -90.8,67.8 -1.3,-0.5 -1.3,-0.1 -1.3,0.4 -1.1,0.7 -0.8,1 -0.5,1.3 -0.1,1.3 0.4,1.3 0.7,1.1 1,0.8 1.3,0.5 1.3,0.1 1.3,-0.4 1.1,-0.7 0.8,-1 0.5,-1.3 0.1,-1.3 -0.4,-1.3 -0.7,-1.1 -1,-0.8"
     style="fill:none;stroke:#000000;stroke-width:0.70899999;stroke-linecap:round;stroke-linejoin:round;stroke-miterlimit:10;stroke-dasharray:none;stroke-opacity:1"
     id="path3725"
     inkscape:connector-curvature="0" /></g><text
   transform="matrix(1,0,0,-1,29.7638,11.6027)"
   style="font-variant:normal;font-weight:bold;font-stretch:normal;font-size:8.17660046px;font-family:'Segoe UI';-inkscape-font-specification:'SegoeUI Bold';writing-mode:lr-tb;fill:#000000;fill-opacity:1;fill-rule:nonzero;stroke:none"
   id="text3729"><tspan
     x="0 5.0204325 8.2747192 13.270622 18.331938 23.27878 25.600935 28.781631 31.038374 36.099689 38.495434 42.918972 47.980289 52.927132 56.851898 61.250912 64.43161 66.753761 71.749664 76.69651 78.953247 83.540321 89.738182 93.916428 96.508408 102.53456 110.75204 116.94991 122.28923 127.59584 132.18292 134.43965 138.52795 140.7847 146.53285 148.7896 151.97029 154.29243 157.47314 160.72743 165.15097 167.40771 171.83125 176.89256 181.8394 185.76418 190.16319 193.34389 195.66603 198.79767 201.05441 206.00127 210.9481 213.27026 218.33157 223.27841 227.70195 235.19173 239.61526 244.5621 247.7428"
     y="0"
     sodipodi:role="line"
     id="tspan3727">Produit d'éducation SOLIDWORKS – A titre éducatif uniquement.</tspan></text>

<flowRoot
   xml:space="preserve"
   id="flowRoot3731"
   style="font-style:normal;font-variant:normal;font-weight:normal;font-stretch:normal;font-size:7.69123459px;line-height:1.25;font-family:sans-serif;-inkscape-font-specification:'sans-serif, Normal';font-variant-ligatures:normal;font-variant-caps:normal;font-variant-numeric:normal;font-feature-settings:normal;text-align:center;letter-spacing:0px;word-spacing:0px;writing-mode:lr-tb;text-anchor:middle;fill:#000000;fill-opacity:1;stroke:url(#linearGradient4558);stroke-width:0.38456172;stroke-miterlimit:4;stroke-dasharray:none"
   transform="matrix(3.0109432,0,0,-5.757675,-240.61527,1134.9944)"><flowRegion
     id="flowRegion3733"
     style="font-style:normal;font-variant:normal;font-weight:normal;font-stretch:normal;font-size:7.69123459px;font-family:sans-serif;-inkscape-font-specification:'sans-serif, Normal';font-variant-ligatures:normal;font-variant-caps:normal;font-variant-numeric:normal;font-feature-settings:normal;text-align:center;writing-mode:lr-tb;text-anchor:middle;stroke:url(#linearGradient4562);stroke-width:0.38456172;stroke-miterlimit:4;stroke-dasharray:none"><rect
       id="rect3735"
       width="120.17529"
       height="14.641068"
       x="79.23671"
       y="59.427532"
       style="font-style:normal;font-variant:normal;font-weight:normal;font-stretch:normal;font-size:7.69123459px;font-family:sans-serif;-inkscape-font-specification:'sans-serif, Normal';font-variant-ligatures:normal;font-variant-caps:normal;font-variant-numeric:normal;font-feature-settings:normal;text-align:center;writing-mode:lr-tb;text-anchor:middle;stroke:url(#linearGradient4560);stroke-width:0.38456172;stroke-miterlimit:4;stroke-dasharray:none" /></flowRegion><flowPara
     id="flowPara3737"
     style="font-style:normal;font-variant:normal;font-weight:normal;font-stretch:normal;font-size:7.69123459px;font-family:sans-serif;-inkscape-font-specification:'sans-serif, Normal';font-variant-ligatures:normal;font-variant-caps:normal;font-variant-numeric:normal;font-feature-settings:normal;text-align:center;writing-mode:lr-tb;text-anchor:middle;stroke:#000000;stroke-width:0.38456172;stroke-linejoin:round;stroke-miterlimit:4;stroke-dasharray:none;stroke-opacity:1"><flowSpan
       style="fill:none;stroke:#000000;stroke-width:0.38456172;stroke-linejoin:round;stroke-miterlimit:4;stroke-dasharray:none;stroke-opacity:1"
       id="flowSpan4554">P</flowSpan><flowSpan
       style="fill:none;fill-opacity:0;stroke:#000000;stroke-width:0.38456172;stroke-linejoin:round;stroke-miterlimit:4;stroke-dasharray:none;stroke-opacity:1"
       id="flowSpan4546">avillon eirbot 2020</flowSpan></flowPara></flowRoot></g></svg>